<?xml version="1.0" encoding="UTF-8" standalone="no"?>
<!DOCTYPE svg PUBLIC "-//W3C//DTD SVG 1.1//EN" "http://www.w3.org/Graphics/SVG/1.1/DTD/svg11.dtd">
<svg xmlns="http://www.w3.org/2000/svg" version="1.1" viewBox="0.00 0.00 274.00 276.00">
<g stroke-width="2.00" fill="none" stroke-linecap="butt">
<path stroke="#36777a" vector-effect="non-scaling-stroke" d="
  M 58.44 85.44
  Q 48.11 101.70 46.10 122.72
  Q 46.05 123.29 46.57 123.07
  Q 52.17 120.76 58.20 121.48
  A 0.44 0.43 -88.4 0 0 58.69 121.01
  C 55.73 80.64 98.05 59.57 131.77 58.25
  Q 132.28 58.23 132.30 57.72
  Q 132.57 50.31 134.72 43.18
  Q 135.18 41.67 133.60 41.76
  Q 84.22 44.81 58.44 85.44"
/>
<path stroke="#36777a" vector-effect="non-scaling-stroke" d="
  M 224.23 126.78
  C 221.11 79.66 184.24 43.81 137.30 42.05
  Q 136.16 42.01 135.82 43.11
  Q 133.63 50.24 133.28 57.73
  Q 133.25 58.25 133.78 58.24
  C 169.79 57.69 216.68 80.64 210.78 124.21
  Q 210.71 124.76 211.26 124.78
  Q 217.70 125.03 223.78 127.12
  Q 224.27 127.29 224.23 126.78"
/>
<path stroke="#1a1a1a" vector-effect="non-scaling-stroke" d="
  M 74.74 150.31
  Q 76.07 152.48 77.93 153.59
  A 0.20 0.20 0.0 0 0 78.18 153.28
  L 75.07 150.08"
/>
<path stroke="#5a5a5a" vector-effect="non-scaling-stroke" d="
  M 75.07 150.08
  Q 61.73 133.96 64.59 114.54
  C 67.84 92.47 87.59 76.99 107.74 70.73
  C 139.24 60.94 184.96 68.70 201.18 101.43
  C 209.23 117.66 206.80 135.45 195.29 149.53
  Q 195.09 149.77 195.31 149.92
  Q 195.53 150.09 195.72 149.88
  C 220.94 121.88 209.51 86.99 178.57 70.67
  C 148.37 54.74 110.13 56.23 82.31 76.55
  C 57.15 94.93 52.30 127.19 74.74 150.31"
/>
<path stroke="#737373" vector-effect="non-scaling-stroke" d="
  M 75.07 150.08
  L 74.74 150.31"
/>
<path stroke="#1a1a1a" vector-effect="non-scaling-stroke" d="
  M 146.98 172.69
  C 169.14 169.68 190.72 158.88 200.43 138.18
  C 208.82 120.30 202.92 100.19 188.83 87.65
  C 175.22 75.53 157.41 68.76 138.88 68.54
  C 134.23 68.49 129.03 68.04 124.46 68.73
  C 100.40 72.36 75.98 83.84 67.62 108.50
  C 61.69 125.98 69.18 144.45 83.08 155.94
  C 100.66 170.46 124.68 175.72 146.98 172.69"
/>
<path stroke="#333333" vector-effect="non-scaling-stroke" d="
  M 44.64 95.93
  C 36.58 116.65 36.86 139.17 43.20 160.35
  Q 43.34 160.82 43.80 161.01
  L 47.11 162.34
  A 0.33 0.32 1.5 0 0 47.54 161.94
  Q 35.73 126.15 51.22 91.99
  Q 51.40 91.60 50.97 91.59
  C 47.55 91.54 45.91 92.66 44.64 95.93"
/>
<path stroke="#224c4e" vector-effect="non-scaling-stroke" d="
  M 40.26 158.92
  Q 41.39 160.00 40.96 158.50
  C 34.78 136.92 35.74 116.54 43.04 95.28
  Q 43.36 94.37 42.62 94.99
  C 32.73 103.37 31.34 113.97 30.52 126.18
  C 29.61 139.78 29.98 149.13 40.26 158.92"
/>
<path stroke="#5a5a5a" vector-effect="non-scaling-stroke" d="
  M 225.81 97.62
  C 224.43 96.54 222.55 95.63 220.77 95.31
  Q 220.16 95.20 220.39 95.78
  Q 234.26 130.38 221.11 165.34
  A 0.39 0.39 0.0 0 0 221.59 165.85
  L 224.88 164.81
  A 1.05 1.04 -89.4 0 0 225.55 164.15
  Q 237.12 131.38 226.37 98.42
  Q 226.21 97.94 225.81 97.62"
/>
<path stroke="#36777a" vector-effect="non-scaling-stroke" d="
  M 229.33 99.72
  Q 228.33 98.73 228.73 100.08
  Q 238.02 131.40 228.00 162.47
  Q 227.72 163.34 228.45 162.79
  Q 239.92 154.03 240.25 139.21
  C 240.59 123.62 240.98 111.17 229.33 99.72"
/>
<path stroke="#224c4e" vector-effect="non-scaling-stroke" d="
  M 48.71 153.57
  Q 48.83 155.61 49.14 156.57
  C 60.41 192.50 90.76 217.78 128.80 220.57
  Q 129.26 220.60 129.20 220.14
  L 127.05 204.66"
/>
<path stroke="#36777a" vector-effect="non-scaling-stroke" d="
  M 127.05 204.66
  Q 125.69 190.35 127.69 175.74
  Q 127.77 175.19 127.22 175.15
  C 97.04 172.69 64.74 155.55 58.95 123.13
  A 0.81 0.80 -1.4 0 0 58.25 122.47
  Q 52.16 121.70 46.61 124.30
  A 0.98 0.97 80.9 0 0 46.05 125.08
  Q 44.56 140.41 48.71 153.57"
/>
<path stroke="#58c3c8" vector-effect="non-scaling-stroke" d="
  M 127.05 204.66
  Q 110.80 203.46 96.21 197.02"
/>
<path stroke="#36777a" vector-effect="non-scaling-stroke" d="
  M 96.21 197.02
  Q 104.45 192.31 102.62 184.54
  C 99.41 170.90 80.80 173.77 80.89 188.30"
/>
<path stroke="#58c3c8" vector-effect="non-scaling-stroke" d="
  M 80.89 188.30
  Q 62.11 173.97 48.71 153.57"
/>
<path stroke="#224c4e" vector-effect="non-scaling-stroke" d="
  M 80.89 188.30
  Q 84.34 199.92 96.21 197.02"
/>
<path stroke="#224c4e" vector-effect="non-scaling-stroke" d="
  M 128.05 204.72
  L 130.24 219.87
  A 0.95 0.94 -83.5 0 0 130.82 220.61
  Q 132.06 221.14 133.52 221.09
  Q 186.32 219.57 213.05 174.88"
/>
<path stroke="#36777a" vector-effect="non-scaling-stroke" d="
  M 213.05 174.88
  Q 224.86 153.85 224.25 129.06
  A 0.93 0.93 0.0 0 0 223.65 128.22
  Q 217.59 125.98 211.10 125.76
  Q 210.51 125.74 210.39 126.32
  C 202.43 161.55 161.26 177.05 129.28 175.34
  Q 128.78 175.31 128.71 175.80
  Q 126.60 190.25 128.05 204.72"
/>
<path stroke="#58c3c8" vector-effect="non-scaling-stroke" d="
  M 213.05 174.88
  Q 198.19 184.84 183.08 192.49"
/>
<path stroke="#36777a" vector-effect="non-scaling-stroke" d="
  M 183.08 192.49
  C 185.49 177.71 166.92 172.61 162.15 185.62
  Q 159.45 192.96 166.81 198.76"
/>
<path stroke="#58c3c8" vector-effect="non-scaling-stroke" d="
  M 166.81 198.76
  Q 147.95 205.12 128.05 204.72"
/>
<path stroke="#224c4e" vector-effect="non-scaling-stroke" d="
  M 166.81 198.76
  C 173.35 202.18 180.44 199.15 183.08 192.49"
/>
<path stroke="#36777a" vector-effect="non-scaling-stroke" d="
  M 38.17 172.99
  Q 34.66 175.88 37.21 179.02
  Q 60.70 207.99 66.82 215.41
  Q 70.00 219.27 72.98 216.87"
/>
<path stroke="#224c4e" vector-effect="non-scaling-stroke" d="
  M 72.98 216.87
  Q 76.43 213.86 73.28 209.96
  Q 58.95 192.29 44.55 174.67
  C 42.77 172.49 40.68 171.32 38.17 172.99"
/>
<path stroke="#58c3c8" vector-effect="non-scaling-stroke" d="
  M 72.98 216.87
  L 38.17 172.99"
/>
<path stroke="#36777a" vector-effect="non-scaling-stroke" d="
  M 228.9148 183.9292
  A 4.18 4.18 0.0 0 0 228.3174 178.0480
  L 228.2089 177.9596
  A 4.18 4.18 0.0 0 0 222.3277 178.5569
  L 192.2052 215.4908
  A 4.18 4.18 0.0 0 0 192.8026 221.3720
  L 192.9111 221.4604
  A 4.18 4.18 0.0 0 0 198.7923 220.8631
  L 228.9148 183.9292"
/>
<path stroke="#333333" vector-effect="non-scaling-stroke" d="
  M 69.17 196.59
  Q 61.74 188.65 56.26 180.16
  Q 56.03 179.81 55.81 180.17
  C 53.52 184.02 60.93 190.47 64.32 195.00
  Q 66.08 197.36 69.12 196.73
  A 0.09 0.08 -26.3 0 0 69.17 196.59"
/>
<path stroke="#333333" vector-effect="non-scaling-stroke" d="
  M 196.09 201.52
  C 198.38 201.81 199.77 202.03 201.46 200.09
  C 204.93 196.11 212.93 187.69 210.99 185.08
  Q 210.69 184.67 210.39 185.08
  Q 204.03 193.85 195.95 201.07
  Q 195.53 201.45 196.09 201.52"
/>
<path stroke="#36777a" vector-effect="non-scaling-stroke" d="
  M 53.84 116.01
  A 3.04 3.04 0.0 0 0 50.80 112.97
  A 3.04 3.04 0.0 0 0 47.76 116.01
  A 3.04 3.04 0.0 0 0 50.80 119.05
  A 3.04 3.04 0.0 0 0 53.84 116.01"
/>
<path stroke="#36777a" vector-effect="non-scaling-stroke" d="
  M 146.05 47.23
  A 3.05 3.05 0.0 0 0 143.00 44.18
  A 3.05 3.05 0.0 0 0 139.95 47.23
  A 3.05 3.05 0.0 0 0 143.00 50.28
  A 3.05 3.05 0.0 0 0 146.05 47.23"
/>
<path stroke="#36777a" vector-effect="non-scaling-stroke" d="
  M 222.32 121.79
  A 3.04 3.04 0.0 0 0 219.28 118.75
  A 3.04 3.04 0.0 0 0 216.24 121.79
  A 3.04 3.04 0.0 0 0 219.28 124.83
  A 3.04 3.04 0.0 0 0 222.32 121.79"
/>
<path stroke="#5a5a5a" vector-effect="non-scaling-stroke" d="
  M 145.03 47.22
  A 2.02 2.02 0.0 0 0 143.01 45.20
  A 2.02 2.02 0.0 0 0 140.99 47.22
  A 2.02 2.02 0.0 0 0 143.01 49.24
  A 2.02 2.02 0.0 0 0 145.03 47.22"
/>
<path stroke="#4d4d4d" vector-effect="non-scaling-stroke" d="
  M 128.97 168.03
  C 100.34 167.02 64.31 140.63 76.77 107.90
  C 84.80 86.81 108.85 75.12 130.05 73.81
  A 0.19 0.19 0.0 0 0 130.15 73.47
  Q 129.83 73.22 129.24 73.22
  C 109.70 73.51 90.27 80.54 77.55 95.55
  C 66.50 108.58 64.95 125.60 73.27 140.29
  C 83.87 158.99 108.11 168.41 128.82 168.65
  C 129.03 168.65 129.19 168.53 129.22 168.34
  Q 129.27 168.04 128.97 168.03"
/>
<path stroke="#607d39" vector-effect="non-scaling-stroke" d="
  M 123.39 112.28
  A 13.35 13.35 0.0 0 0 110.04 98.93
  A 13.35 13.35 0.0 0 0 96.69 112.28
  A 13.35 13.35 0.0 0 0 110.04 125.63
  A 13.35 13.35 0.0 0 0 123.39 112.28"
/>
<path stroke="#607d39" vector-effect="non-scaling-stroke" d="
  M 173.27 112.28
  A 13.36 13.36 0.0 0 0 159.91 98.92
  A 13.36 13.36 0.0 0 0 146.55 112.28
  A 13.36 13.36 0.0 0 0 159.91 125.64
  A 13.36 13.36 0.0 0 0 173.27 112.28"
/>
<path stroke="#5a5a5a" vector-effect="non-scaling-stroke" d="
  M 52.80 116.04
  A 1.97 1.97 0.0 0 0 50.83 114.07
  A 1.97 1.97 0.0 0 0 48.86 116.04
  A 1.97 1.97 0.0 0 0 50.83 118.01
  A 1.97 1.97 0.0 0 0 52.80 116.04"
/>
<path stroke="#5a5a5a" vector-effect="non-scaling-stroke" d="
  M 221.28 121.80
  A 2.00 2.00 0.0 0 0 219.28 119.80
  A 2.00 2.00 0.0 0 0 217.28 121.80
  A 2.00 2.00 0.0 0 0 219.28 123.80
  A 2.00 2.00 0.0 0 0 221.28 121.80"
/>
<path stroke="#224c4e" vector-effect="non-scaling-stroke" d="
  M 138.02 216.24
  A 3.06 3.06 0.0 0 0 134.96 213.18
  A 3.06 3.06 0.0 0 0 131.90 216.24
  A 3.06 3.06 0.0 0 0 134.96 219.30
  A 3.06 3.06 0.0 0 0 138.02 216.24"
/>
<path stroke="#5a5a5a" vector-effect="non-scaling-stroke" d="
  M 101.88 186.78
  A 9.89 9.89 0.0 0 0 91.99 176.89
  A 9.89 9.89 0.0 0 0 82.10 186.78
  A 9.89 9.89 0.0 0 0 91.99 196.67
  A 9.89 9.89 0.0 0 0 101.88 186.78"
/>
<path stroke="#5a5a5a" vector-effect="non-scaling-stroke" d="
  M 100.58 186.65
  A 8.60 8.60 0.0 0 0 91.98 178.05
  A 8.60 8.60 0.0 0 0 83.38 186.65
  A 8.60 8.60 0.0 0 0 91.98 195.25
  A 8.60 8.60 0.0 0 0 100.58 186.65"
/>
<path stroke="#004001" vector-effect="non-scaling-stroke" d="
  M 86.63 184.56
  C 83.07 189.51 94.17 196.21 97.50 187.66"
/>
<path stroke="#008000" vector-effect="non-scaling-stroke" d="
  M 97.50 187.66
  C 101.30 178.47 85.97 176.48 86.63 184.56"
/>
<path stroke="#00bf01" vector-effect="non-scaling-stroke" d="
  M 97.50 187.66
  Q 90.76 190.84 86.63 184.56"
/>
<path stroke="#333333" vector-effect="non-scaling-stroke" d="
  M 96.76 191.34
  Q 88.53 195.50 84.85 187.59
  A 0.26 0.25 25.4 0 0 84.37 187.76
  C 86.62 196.21 97.31 196.36 99.49 187.71
  Q 99.79 186.55 99.12 187.55
  Q 98.15 189.00 97.49 190.56
  A 1.52 1.50 88.5 0 1 96.76 191.34"
/>
<path stroke="#5a5a5a" vector-effect="non-scaling-stroke" d="
  M 182.30 189.23
  A 9.88 9.88 0.0 0 0 172.42 179.35
  A 9.88 9.88 0.0 0 0 162.54 189.23
  A 9.88 9.88 0.0 0 0 172.42 199.11
  A 9.88 9.88 0.0 0 0 182.30 189.23"
/>
<path stroke="#5a5a5a" vector-effect="non-scaling-stroke" d="
  M 181.03 189.14
  A 8.58 8.58 0.0 0 0 172.45 180.56
  A 8.58 8.58 0.0 0 0 163.87 189.14
  A 8.58 8.58 0.0 0 0 172.45 197.72
  A 8.58 8.58 0.0 0 0 181.03 189.14"
/>
<path stroke="#004001" vector-effect="non-scaling-stroke" d="
  M 166.96 185.90
  C 162.51 188.84 172.67 200.65 178.19 189.86"
/>
<path stroke="#008000" vector-effect="non-scaling-stroke" d="
  M 178.19 189.86
  Q 179.78 182.01 171.91 182.13
  C 169.50 182.16 167.13 183.37 166.96 185.90"
/>
<path stroke="#00bf01" vector-effect="non-scaling-stroke" d="
  M 178.19 189.86
  Q 169.87 193.30 166.96 185.90"
/>
<path stroke="#333333" vector-effect="non-scaling-stroke" d="
  M 179.30 189.64
  C 177.06 197.90 165.39 195.77 165.77 190.41
  Q 165.80 190.03 165.48 190.24
  Q 164.72 190.75 165.24 191.68
  Q 170.15 200.54 178.26 194.06
  Q 180.04 192.63 179.56 189.66
  Q 179.47 189.04 179.30 189.64"
/>
<path stroke="#333333" vector-effect="non-scaling-stroke" d="
  M 137.00 216.26
  A 2.01 2.01 0.0 0 0 134.99 214.25
  A 2.01 2.01 0.0 0 0 132.98 216.26
  A 2.01 2.01 0.0 0 0 134.99 218.27
  A 2.01 2.01 0.0 0 0 137.00 216.26"
/>
</g>
<path fill="#000000" d="
  M 212.96 185.36
  A 0.35 0.35 0.0 0 0 213.58 185.52
  C 215.77 182.60 219.79 176.56 223.06 175.10
  C 230.06 171.96 234.92 180.47 230.22 186.22
  Q 215.62 204.12 201.00 222.02
  C 196.22 227.87 186.94 223.63 189.09 216.41
  C 190.19 212.75 196.03 206.91 198.58 203.85
  A 0.40 0.40 0.0 0 0 198.29 203.19
  L 194.06 203.04
  Q 193.60 203.02 193.24 203.31
  C 157.20 231.79 107.07 230.85 72.80 199.93
  Q 70.61 197.96 67.90 198.81
  Q 67.50 198.94 67.77 199.27
  Q 71.65 204.06 75.65 208.83
  C 81.52 215.85 71.31 224.82 65.08 217.18
  Q 50.13 198.86 35.23 180.51
  C 31.23 175.59 36.36 168.13 42.54 170.07
  C 46.05 171.18 50.63 178.12 52.96 181.05
  A 0.53 0.53 0.0 0 0 53.90 180.79
  L 54.34 177.81
  Q 54.41 177.33 54.20 176.90
  L 49.02 166.04
  Q 48.84 165.67 48.43 165.60
  C 33.25 163.07 26.14 146.82 26.97 132.98
  Q 27.45 125.00 28.22 117.00
  C 29.50 103.85 37.68 89.17 52.37 88.41
  Q 53.03 88.38 53.35 87.80
  C 88.37 24.77 176.66 21.97 214.24 84.19
  Q 216.41 87.78 218.59 91.39
  Q 218.85 91.81 219.33 91.89
  C 232.31 94.01 240.90 106.42 242.75 118.76
  Q 243.41 123.19 243.30 138.49
  C 243.20 152.31 235.18 167.53 220.15 168.99
  Q 219.71 169.04 219.50 169.43
  L 212.75 182.02
  Q 212.52 182.45 212.59 182.93
  L 212.96 185.36
  Z
  M 58.44 85.44
  Q 48.11 101.70 46.10 122.72
  Q 46.05 123.29 46.57 123.07
  Q 52.17 120.76 58.20 121.48
  A 0.44 0.43 -88.4 0 0 58.69 121.01
  C 55.73 80.64 98.05 59.57 131.77 58.25
  Q 132.28 58.23 132.30 57.72
  Q 132.57 50.31 134.72 43.18
  Q 135.18 41.67 133.60 41.76
  Q 84.22 44.81 58.44 85.44
  Z
  M 224.23 126.78
  C 221.11 79.66 184.24 43.81 137.30 42.05
  Q 136.16 42.01 135.82 43.11
  Q 133.63 50.24 133.28 57.73
  Q 133.25 58.25 133.78 58.24
  C 169.79 57.69 216.68 80.64 210.78 124.21
  Q 210.71 124.76 211.26 124.78
  Q 217.70 125.03 223.78 127.12
  Q 224.27 127.29 224.23 126.78
  Z
  M 74.74 150.31
  Q 76.07 152.48 77.93 153.59
  A 0.20 0.20 0.0 0 0 78.18 153.28
  L 75.07 150.08
  Q 61.73 133.96 64.59 114.54
  C 67.84 92.47 87.59 76.99 107.74 70.73
  C 139.24 60.94 184.96 68.70 201.18 101.43
  C 209.23 117.66 206.80 135.45 195.29 149.53
  Q 195.09 149.77 195.31 149.92
  Q 195.53 150.09 195.72 149.88
  C 220.94 121.88 209.51 86.99 178.57 70.67
  C 148.37 54.74 110.13 56.23 82.31 76.55
  C 57.15 94.93 52.30 127.19 74.74 150.31
  Z
  M 146.98 172.69
  C 169.14 169.68 190.72 158.88 200.43 138.18
  C 208.82 120.30 202.92 100.19 188.83 87.65
  C 175.22 75.53 157.41 68.76 138.88 68.54
  C 134.23 68.49 129.03 68.04 124.46 68.73
  C 100.40 72.36 75.98 83.84 67.62 108.50
  C 61.69 125.98 69.18 144.45 83.08 155.94
  C 100.66 170.46 124.68 175.72 146.98 172.69
  Z
  M 44.64 95.93
  C 36.58 116.65 36.86 139.17 43.20 160.35
  Q 43.34 160.82 43.80 161.01
  L 47.11 162.34
  A 0.33 0.32 1.5 0 0 47.54 161.94
  Q 35.73 126.15 51.22 91.99
  Q 51.40 91.60 50.97 91.59
  C 47.55 91.54 45.91 92.66 44.64 95.93
  Z
  M 40.26 158.92
  Q 41.39 160.00 40.96 158.50
  C 34.78 136.92 35.74 116.54 43.04 95.28
  Q 43.36 94.37 42.62 94.99
  C 32.73 103.37 31.34 113.97 30.52 126.18
  C 29.61 139.78 29.98 149.13 40.26 158.92
  Z
  M 225.81 97.62
  C 224.43 96.54 222.55 95.63 220.77 95.31
  Q 220.16 95.20 220.39 95.78
  Q 234.26 130.38 221.11 165.34
  A 0.39 0.39 0.0 0 0 221.59 165.85
  L 224.88 164.81
  A 1.05 1.04 -89.4 0 0 225.55 164.15
  Q 237.12 131.38 226.37 98.42
  Q 226.21 97.94 225.81 97.62
  Z
  M 229.33 99.72
  Q 228.33 98.73 228.73 100.08
  Q 238.02 131.40 228.00 162.47
  Q 227.72 163.34 228.45 162.79
  Q 239.92 154.03 240.25 139.21
  C 240.59 123.62 240.98 111.17 229.33 99.72
  Z
  M 48.71 153.57
  Q 48.83 155.61 49.14 156.57
  C 60.41 192.50 90.76 217.78 128.80 220.57
  Q 129.26 220.60 129.20 220.14
  L 127.05 204.66
  Q 125.69 190.35 127.69 175.74
  Q 127.77 175.19 127.22 175.15
  C 97.04 172.69 64.74 155.55 58.95 123.13
  A 0.81 0.80 -1.4 0 0 58.25 122.47
  Q 52.16 121.70 46.61 124.30
  A 0.98 0.97 80.9 0 0 46.05 125.08
  Q 44.56 140.41 48.71 153.57
  Z
  M 128.05 204.72
  L 130.24 219.87
  A 0.95 0.94 -83.5 0 0 130.82 220.61
  Q 132.06 221.14 133.52 221.09
  Q 186.32 219.57 213.05 174.88
  Q 224.86 153.85 224.25 129.06
  A 0.93 0.93 0.0 0 0 223.65 128.22
  Q 217.59 125.98 211.10 125.76
  Q 210.51 125.74 210.39 126.32
  C 202.43 161.55 161.26 177.05 129.28 175.34
  Q 128.78 175.31 128.71 175.80
  Q 126.60 190.25 128.05 204.72
  Z
  M 38.17 172.99
  Q 34.66 175.88 37.21 179.02
  Q 60.70 207.99 66.82 215.41
  Q 70.00 219.27 72.98 216.87
  Q 76.43 213.86 73.28 209.96
  Q 58.95 192.29 44.55 174.67
  C 42.77 172.49 40.68 171.32 38.17 172.99
  Z
  M 228.9148 183.9292
  A 4.18 4.18 0.0 0 0 228.3174 178.0480
  L 228.2089 177.9596
  A 4.18 4.18 0.0 0 0 222.3277 178.5569
  L 192.2052 215.4908
  A 4.18 4.18 0.0 0 0 192.8026 221.3720
  L 192.9111 221.4604
  A 4.18 4.18 0.0 0 0 198.7923 220.8631
  L 228.9148 183.9292
  Z
  M 69.17 196.59
  Q 61.74 188.65 56.26 180.16
  Q 56.03 179.81 55.81 180.17
  C 53.52 184.02 60.93 190.47 64.32 195.00
  Q 66.08 197.36 69.12 196.73
  A 0.09 0.08 -26.3 0 0 69.17 196.59
  Z
  M 196.09 201.52
  C 198.38 201.81 199.77 202.03 201.46 200.09
  C 204.93 196.11 212.93 187.69 210.99 185.08
  Q 210.69 184.67 210.39 185.08
  Q 204.03 193.85 195.95 201.07
  Q 195.53 201.45 196.09 201.52
  Z"
/>
<path fill="#6beef4" d="
  M 58.44 85.44
  Q 84.22 44.81 133.60 41.76
  Q 135.18 41.67 134.72 43.18
  Q 132.57 50.31 132.30 57.72
  Q 132.28 58.23 131.77 58.25
  C 98.05 59.57 55.73 80.64 58.69 121.01
  A 0.44 0.43 -88.4 0 1 58.20 121.48
  Q 52.17 120.76 46.57 123.07
  Q 46.05 123.29 46.10 122.72
  Q 48.11 101.70 58.44 85.44
  Z
  M 53.84 116.01
  A 3.04 3.04 0.0 0 0 50.80 112.97
  A 3.04 3.04 0.0 0 0 47.76 116.01
  A 3.04 3.04 0.0 0 0 50.80 119.05
  A 3.04 3.04 0.0 0 0 53.84 116.01
  Z"
/>
<path fill="#6beef4" d="
  M 137.30 42.05
  C 184.24 43.81 221.11 79.66 224.23 126.78
  Q 224.27 127.29 223.78 127.12
  Q 217.70 125.03 211.26 124.78
  Q 210.71 124.76 210.78 124.21
  C 216.68 80.64 169.79 57.69 133.78 58.24
  Q 133.25 58.25 133.28 57.73
  Q 133.63 50.24 135.82 43.11
  Q 136.16 42.01 137.30 42.05
  Z
  M 146.05 47.23
  A 3.05 3.05 0.0 0 0 143.00 44.18
  A 3.05 3.05 0.0 0 0 139.95 47.23
  A 3.05 3.05 0.0 0 0 143.00 50.28
  A 3.05 3.05 0.0 0 0 146.05 47.23
  Z
  M 222.32 121.79
  A 3.04 3.04 0.0 0 0 219.28 118.75
  A 3.04 3.04 0.0 0 0 216.24 121.79
  A 3.04 3.04 0.0 0 0 219.28 124.83
  A 3.04 3.04 0.0 0 0 222.32 121.79
  Z"
/>
<path fill="#000000" d="
  M 146.05 47.23
  A 3.05 3.05 0.0 0 1 143.00 50.28
  A 3.05 3.05 0.0 0 1 139.95 47.23
  A 3.05 3.05 0.0 0 1 143.00 44.18
  A 3.05 3.05 0.0 0 1 146.05 47.23
  Z
  M 145.03 47.22
  A 2.02 2.02 0.0 0 0 143.01 45.20
  A 2.02 2.02 0.0 0 0 140.99 47.22
  A 2.02 2.02 0.0 0 0 143.01 49.24
  A 2.02 2.02 0.0 0 0 145.03 47.22
  Z"
/>
<circle fill="#b3b3b3" cx="143.01" cy="47.22" r="2.02"/>
<path fill="#b3b3b3" d="
  M 75.07 150.08
  L 74.74 150.31
  C 52.30 127.19 57.15 94.93 82.31 76.55
  C 110.13 56.23 148.37 54.74 178.57 70.67
  C 209.51 86.99 220.94 121.88 195.72 149.88
  Q 195.53 150.09 195.31 149.92
  Q 195.09 149.77 195.29 149.53
  C 206.80 135.45 209.23 117.66 201.18 101.43
  C 184.96 68.70 139.24 60.94 107.74 70.73
  C 87.59 76.99 67.84 92.47 64.59 114.54
  Q 61.73 133.96 75.07 150.08
  Z"
/>
<path fill="#333333" d="
  M 200.43 138.18
  C 190.72 158.88 169.14 169.68 146.98 172.69
  C 124.68 175.72 100.66 170.46 83.08 155.94
  C 69.18 144.45 61.69 125.98 67.62 108.50
  C 75.98 83.84 100.40 72.36 124.46 68.73
  C 129.03 68.04 134.23 68.49 138.88 68.54
  C 157.41 68.76 175.22 75.53 188.83 87.65
  C 202.92 100.19 208.82 120.30 200.43 138.18
  Z
  M 128.97 168.03
  C 100.34 167.02 64.31 140.63 76.77 107.90
  C 84.80 86.81 108.85 75.12 130.05 73.81
  A 0.19 0.19 0.0 0 0 130.15 73.47
  Q 129.83 73.22 129.24 73.22
  C 109.70 73.51 90.27 80.54 77.55 95.55
  C 66.50 108.58 64.95 125.60 73.27 140.29
  C 83.87 158.99 108.11 168.41 128.82 168.65
  C 129.03 168.65 129.19 168.53 129.22 168.34
  Q 129.27 168.04 128.97 168.03
  Z
  M 123.39 112.28
  A 13.35 13.35 0.0 0 0 110.04 98.93
  A 13.35 13.35 0.0 0 0 96.69 112.28
  A 13.35 13.35 0.0 0 0 110.04 125.63
  A 13.35 13.35 0.0 0 0 123.39 112.28
  Z
  M 173.27 112.28
  A 13.36 13.36 0.0 0 0 159.91 98.92
  A 13.36 13.36 0.0 0 0 146.55 112.28
  A 13.36 13.36 0.0 0 0 159.91 125.64
  A 13.36 13.36 0.0 0 0 173.27 112.28
  Z"
/>
<path fill="#666666" d="
  M 76.77 107.90
  C 64.31 140.63 100.34 167.02 128.97 168.03
  Q 129.27 168.04 129.22 168.34
  C 129.19 168.53 129.03 168.65 128.82 168.65
  C 108.11 168.41 83.87 158.99 73.27 140.29
  C 64.95 125.60 66.50 108.58 77.55 95.55
  C 90.27 80.54 109.70 73.51 129.24 73.22
  Q 129.83 73.22 130.15 73.47
  A 0.19 0.19 0.0 0 1 130.05 73.81
  C 108.85 75.12 84.80 86.81 76.77 107.90
  Z"
/>
<path fill="#666666" d="
  M 44.64 95.93
  C 45.91 92.66 47.55 91.54 50.97 91.59
  Q 51.40 91.60 51.22 91.99
  Q 35.73 126.15 47.54 161.94
  A 0.33 0.32 1.5 0 1 47.11 162.34
  L 43.80 161.01
  Q 43.34 160.82 43.20 160.35
  C 36.86 139.17 36.58 116.65 44.64 95.93
  Z"
/>
<path fill="#44989c" d="
  M 40.26 158.92
  C 29.98 149.13 29.61 139.78 30.52 126.18
  C 31.34 113.97 32.73 103.37 42.62 94.99
  Q 43.36 94.37 43.04 95.28
  C 35.74 116.54 34.78 136.92 40.96 158.50
  Q 41.39 160.00 40.26 158.92
  Z"
/>
<path fill="#b3b3b3" d="
  M 220.77 95.31
  C 222.55 95.63 224.43 96.54 225.81 97.62
  Q 226.21 97.94 226.37 98.42
  Q 237.12 131.38 225.55 164.15
  A 1.05 1.04 -89.4 0 1 224.88 164.81
  L 221.59 165.85
  A 0.39 0.39 0.0 0 1 221.11 165.34
  Q 234.26 130.38 220.39 95.78
  Q 220.16 95.20 220.77 95.31
  Z"
/>
<circle fill="#8cc63f" cx="110.04" cy="112.28" r="13.35"/>
<circle fill="#8cc63f" cx="159.91" cy="112.28" r="13.36"/>
<path fill="#6beef4" d="
  M 229.33 99.72
  C 240.98 111.17 240.59 123.62 240.25 139.21
  Q 239.92 154.03 228.45 162.79
  Q 227.72 163.34 228.00 162.47
  Q 238.02 131.40 228.73 100.08
  Q 228.33 98.73 229.33 99.72
  Z"
/>
<path fill="#000000" d="
  M 53.84 116.01
  A 3.04 3.04 0.0 0 1 50.80 119.05
  A 3.04 3.04 0.0 0 1 47.76 116.01
  A 3.04 3.04 0.0 0 1 50.80 112.97
  A 3.04 3.04 0.0 0 1 53.84 116.01
  Z
  M 52.80 116.04
  A 1.97 1.97 0.0 0 0 50.83 114.07
  A 1.97 1.97 0.0 0 0 48.86 116.04
  A 1.97 1.97 0.0 0 0 50.83 118.01
  A 1.97 1.97 0.0 0 0 52.80 116.04
  Z"
/>
<circle fill="#b3b3b3" cx="50.83" cy="116.04" r="1.97"/>
<path fill="#000000" d="
  M 222.32 121.79
  A 3.04 3.04 0.0 0 1 219.28 124.83
  A 3.04 3.04 0.0 0 1 216.24 121.79
  A 3.04 3.04 0.0 0 1 219.28 118.75
  A 3.04 3.04 0.0 0 1 222.32 121.79
  Z
  M 221.28 121.80
  A 2.00 2.00 0.0 0 0 219.28 119.80
  A 2.00 2.00 0.0 0 0 217.28 121.80
  A 2.00 2.00 0.0 0 0 219.28 123.80
  A 2.00 2.00 0.0 0 0 221.28 121.80
  Z"
/>
<circle fill="#b3b3b3" cx="219.28" cy="121.80" r="2.00"/>
<path fill="#6beef4" d="
  M 127.05 204.66
  Q 110.80 203.46 96.21 197.02
  Q 104.45 192.31 102.62 184.54
  C 99.41 170.90 80.80 173.77 80.89 188.30
  Q 62.11 173.97 48.71 153.57
  Q 44.56 140.41 46.05 125.08
  A 0.98 0.97 80.9 0 1 46.61 124.30
  Q 52.16 121.70 58.25 122.47
  A 0.81 0.80 -1.4 0 1 58.95 123.13
  C 64.74 155.55 97.04 172.69 127.22 175.15
  Q 127.77 175.19 127.69 175.74
  Q 125.69 190.35 127.05 204.66
  Z"
/>
<path fill="#6beef4" d="
  M 213.05 174.88
  Q 198.19 184.84 183.08 192.49
  C 185.49 177.71 166.92 172.61 162.15 185.62
  Q 159.45 192.96 166.81 198.76
  Q 147.95 205.12 128.05 204.72
  Q 126.60 190.25 128.71 175.80
  Q 128.78 175.31 129.28 175.34
  C 161.26 177.05 202.43 161.55 210.39 126.32
  Q 210.51 125.74 211.10 125.76
  Q 217.59 125.98 223.65 128.22
  A 0.93 0.93 0.0 0 1 224.25 129.06
  Q 224.86 153.85 213.05 174.88
  Z"
/>
<path fill="#333333" d="
  M 75.07 150.08
  L 78.18 153.28
  A 0.20 0.20 0.0 0 1 77.93 153.59
  Q 76.07 152.48 74.74 150.31
  L 75.07 150.08
  Z"
/>
<path fill="#44989c" d="
  M 48.71 153.57
  Q 62.11 173.97 80.89 188.30
  Q 84.34 199.92 96.21 197.02
  Q 110.80 203.46 127.05 204.66
  L 129.20 220.14
  Q 129.26 220.60 128.80 220.57
  C 90.76 217.78 60.41 192.50 49.14 156.57
  Q 48.83 155.61 48.71 153.57
  Z"
/>
<path fill="#44989c" d="
  M 72.98 216.87
  L 38.17 172.99
  C 40.68 171.32 42.77 172.49 44.55 174.67
  Q 58.95 192.29 73.28 209.96
  Q 76.43 213.86 72.98 216.87
  Z"
/>
<path fill="#6beef4" d="
  M 38.17 172.99
  L 72.98 216.87
  Q 70.00 219.27 66.82 215.41
  Q 60.70 207.99 37.21 179.02
  Q 34.66 175.88 38.17 172.99
  Z"
/>
<path fill="#44989c" d="
  M 213.05 174.88
  Q 186.32 219.57 133.52 221.09
  Q 132.06 221.14 130.82 220.61
  A 0.95 0.94 -83.5 0 1 130.24 219.87
  L 128.05 204.72
  Q 147.95 205.12 166.81 198.76
  C 173.35 202.18 180.44 199.15 183.08 192.49
  Q 198.19 184.84 213.05 174.88
  Z
  M 138.02 216.24
  A 3.06 3.06 0.0 0 0 134.96 213.18
  A 3.06 3.06 0.0 0 0 131.90 216.24
  A 3.06 3.06 0.0 0 0 134.96 219.30
  A 3.06 3.06 0.0 0 0 138.02 216.24
  Z"
/>
<path fill="#000000" d="
  M 96.21 197.02
  Q 84.34 199.92 80.89 188.30
  C 80.80 173.77 99.41 170.90 102.62 184.54
  Q 104.45 192.31 96.21 197.02
  Z
  M 101.88 186.78
  A 9.89 9.89 0.0 0 0 91.99 176.89
  A 9.89 9.89 0.0 0 0 82.10 186.78
  A 9.89 9.89 0.0 0 0 91.99 196.67
  A 9.89 9.89 0.0 0 0 101.88 186.78
  Z"
/>
<path fill="#b3b3b3" d="
  M 101.88 186.78
  A 9.89 9.89 0.0 0 1 91.99 196.67
  A 9.89 9.89 0.0 0 1 82.10 186.78
  A 9.89 9.89 0.0 0 1 91.99 176.89
  A 9.89 9.89 0.0 0 1 101.88 186.78
  Z
  M 100.58 186.65
  A 8.60 8.60 0.0 0 0 91.98 178.05
  A 8.60 8.60 0.0 0 0 83.38 186.65
  A 8.60 8.60 0.0 0 0 91.98 195.25
  A 8.60 8.60 0.0 0 0 100.58 186.65
  Z"
/>
<rect fill="#6beef4" x="-4.25" y="-28.01" transform="translate(210.56,199.71) rotate(39.2)" width="8.50" height="56.02" rx="4.18"/>
<path fill="#000000" d="
  M 100.58 186.65
  A 8.60 8.60 0.0 0 1 91.98 195.25
  A 8.60 8.60 0.0 0 1 83.38 186.65
  A 8.60 8.60 0.0 0 1 91.98 178.05
  A 8.60 8.60 0.0 0 1 100.58 186.65
  Z
  M 86.63 184.56
  C 83.07 189.51 94.17 196.21 97.50 187.66
  C 101.30 178.47 85.97 176.48 86.63 184.56
  Z
  M 96.76 191.34
  Q 88.53 195.50 84.85 187.59
  A 0.26 0.25 25.4 0 0 84.37 187.76
  C 86.62 196.21 97.31 196.36 99.49 187.71
  Q 99.79 186.55 99.12 187.55
  Q 98.15 189.00 97.49 190.56
  A 1.52 1.50 88.5 0 1 96.76 191.34
  Z"
/>
<path fill="#000000" d="
  M 183.08 192.49
  C 180.44 199.15 173.35 202.18 166.81 198.76
  Q 159.45 192.96 162.15 185.62
  C 166.92 172.61 185.49 177.71 183.08 192.49
  Z
  M 182.30 189.23
  A 9.88 9.88 0.0 0 0 172.42 179.35
  A 9.88 9.88 0.0 0 0 162.54 189.23
  A 9.88 9.88 0.0 0 0 172.42 199.11
  A 9.88 9.88 0.0 0 0 182.30 189.23
  Z"
/>
<path fill="#b3b3b3" d="
  M 182.30 189.23
  A 9.88 9.88 0.0 0 1 172.42 199.11
  A 9.88 9.88 0.0 0 1 162.54 189.23
  A 9.88 9.88 0.0 0 1 172.42 179.35
  A 9.88 9.88 0.0 0 1 182.30 189.23
  Z
  M 181.03 189.14
  A 8.58 8.58 0.0 0 0 172.45 180.56
  A 8.58 8.58 0.0 0 0 163.87 189.14
  A 8.58 8.58 0.0 0 0 172.45 197.72
  A 8.58 8.58 0.0 0 0 181.03 189.14
  Z"
/>
<path fill="#00ff00" d="
  M 97.50 187.66
  Q 90.76 190.84 86.63 184.56
  C 85.97 176.48 101.30 178.47 97.50 187.66
  Z"
/>
<path fill="#666666" d="
  M 69.17 196.59
  A 0.09 0.08 -26.3 0 1 69.12 196.73
  Q 66.08 197.36 64.32 195.00
  C 60.93 190.47 53.52 184.02 55.81 180.17
  Q 56.03 179.81 56.26 180.16
  Q 61.74 188.65 69.17 196.59
  Z"
/>
<path fill="#000000" d="
  M 181.03 189.14
  A 8.58 8.58 0.0 0 1 172.45 197.72
  A 8.58 8.58 0.0 0 1 163.87 189.14
  A 8.58 8.58 0.0 0 1 172.45 180.56
  A 8.58 8.58 0.0 0 1 181.03 189.14
  Z
  M 166.96 185.90
  C 162.51 188.84 172.67 200.65 178.19 189.86
  Q 179.78 182.01 171.91 182.13
  C 169.50 182.16 167.13 183.37 166.96 185.90
  Z
  M 179.30 189.64
  C 177.06 197.90 165.39 195.77 165.77 190.41
  Q 165.80 190.03 165.48 190.24
  Q 164.72 190.75 165.24 191.68
  Q 170.15 200.54 178.26 194.06
  Q 180.04 192.63 179.56 189.66
  Q 179.47 189.04 179.30 189.64
  Z"
/>
<path fill="#00ff00" d="
  M 178.19 189.86
  Q 169.87 193.30 166.96 185.90
  C 167.13 183.37 169.50 182.16 171.91 182.13
  Q 179.78 182.01 178.19 189.86
  Z"
/>
<path fill="#007f01" d="
  M 86.63 184.56
  Q 90.76 190.84 97.50 187.66
  C 94.17 196.21 83.07 189.51 86.63 184.56
  Z"
/>
<path fill="#666666" d="
  M 196.09 201.52
  Q 195.53 201.45 195.95 201.07
  Q 204.03 193.85 210.39 185.08
  Q 210.69 184.67 210.99 185.08
  C 212.93 187.69 204.93 196.11 201.46 200.09
  C 199.77 202.03 198.38 201.81 196.09 201.52
  Z"
/>
<path fill="#007f01" d="
  M 166.96 185.90
  Q 169.87 193.30 178.19 189.86
  C 172.67 200.65 162.51 188.84 166.96 185.90
  Z"
/>
<path fill="#666666" d="
  M 97.49 190.56
  Q 98.15 189.00 99.12 187.55
  Q 99.79 186.55 99.49 187.71
  C 97.31 196.36 86.62 196.21 84.37 187.76
  A 0.26 0.25 25.4 0 1 84.85 187.59
  Q 88.53 195.50 96.76 191.34
  A 1.52 1.50 88.5 0 0 97.49 190.56
  Z"
/>
<path fill="#666666" d="
  M 165.77 190.41
  C 165.39 195.77 177.06 197.90 179.30 189.64
  Q 179.47 189.04 179.56 189.66
  Q 180.04 192.63 178.26 194.06
  Q 170.15 200.54 165.24 191.68
  Q 164.72 190.75 165.48 190.24
  Q 165.80 190.03 165.77 190.41
  Z"
/>
<path fill="#000000" d="
  M 138.02 216.24
  A 3.06 3.06 0.0 0 1 134.96 219.30
  A 3.06 3.06 0.0 0 1 131.90 216.24
  A 3.06 3.06 0.0 0 1 134.96 213.18
  A 3.06 3.06 0.0 0 1 138.02 216.24
  Z
  M 137.00 216.26
  A 2.01 2.01 0.0 0 0 134.99 214.25
  A 2.01 2.01 0.0 0 0 132.98 216.26
  A 2.01 2.01 0.0 0 0 134.99 218.27
  A 2.01 2.01 0.0 0 0 137.00 216.26
  Z"
/>
<circle fill="#666666" cx="134.99" cy="216.26" r="2.01"/>
</svg>
