<?xml version="1.0" encoding="UTF-8" standalone="no"?>
<!DOCTYPE svg PUBLIC "-//W3C//DTD SVG 1.1//EN" "http://www.w3.org/Graphics/SVG/1.1/DTD/svg11.dtd">
<svg xmlns="http://www.w3.org/2000/svg" version="1.1" viewBox="0.00 0.00 270.00 242.00">
<g stroke-width="2.00" fill="none" stroke-linecap="butt">
<path stroke="#36777a" vector-effect="non-scaling-stroke" d="
  M 132.09 25.77
  C 86.38 25.76 48.34 60.79 43.69 106.16
  A 0.37 0.36 82.6 0 0 44.18 106.54
  Q 49.76 104.48 55.75 105.13
  A 0.59 0.58 0.4 0 0 56.40 104.50
  C 53.49 64.52 95.53 42.73 129.33 41.90
  A 0.66 0.66 0.0 0 0 129.98 41.25
  Q 130.09 33.58 132.49 26.32
  A 0.42 0.42 0.0 0 0 132.09 25.77"
/>
<path stroke="#36777a" vector-effect="non-scaling-stroke" d="
  M 221.89 110.36
  C 218.65 63.30 181.93 27.39 134.93 25.60
  A 1.33 1.32 -78.9 0 0 133.63 26.48
  Q 131.06 33.61 130.98 41.20
  Q 130.97 41.71 131.48 41.71
  C 168.92 41.63 213.01 63.85 208.53 107.77
  A 0.52 0.51 -86.3 0 0 209.02 108.34
  Q 215.41 108.60 221.42 110.72
  Q 221.93 110.90 221.89 110.36"
/>
<path stroke="#1a1a1a" vector-effect="non-scaling-stroke" d="
  M 72.80 134.33
  Q 75.39 137.75 78.96 140.27
  A 0.16 0.16 0.0 0 0 79.17 140.02
  L 73.05 134.11"
/>
<path stroke="#5a5a5a" vector-effect="non-scaling-stroke" d="
  M 73.05 134.11
  Q 57.91 116.06 62.86 94.71
  C 71.54 57.27 119.65 45.33 151.83 52.12
  C 174.51 56.90 198.38 72.48 202.78 97.03
  Q 206.11 115.56 193.98 131.83"
/>
<path stroke="#333333" vector-effect="non-scaling-stroke" d="
  M 193.98 131.83
  L 189.10 137.28
  Q 188.41 138.05 189.25 137.45
  Q 192.33 135.25 194.44 131.97"
/>
<path stroke="#5a5a5a" vector-effect="non-scaling-stroke" d="
  M 194.44 131.97
  C 208.19 116.81 211.53 96.39 201.26 78.22
  C 193.14 63.86 179.51 54.30 163.93 48.96
  Q 128.52 36.81 94.38 51.69
  C 60.61 66.42 43.47 104.71 72.80 134.33"
/>
<path stroke="#8d8d8d" vector-effect="non-scaling-stroke" d="
  M 194.44 131.97
  Q 194.07 132.06 193.98 131.83"
/>
<path stroke="#737373" vector-effect="non-scaling-stroke" d="
  M 73.05 134.11
  L 72.80 134.33"
/>
<path stroke="#1a1a1a" vector-effect="non-scaling-stroke" d="
  M 200.94 95.36
  C 195.00 72.72 173.61 58.43 151.75 53.74
  Q 119.44 46.81 90.72 62.47
  C 72.49 72.41 58.60 93.47 64.47 114.77
  C 70.26 135.79 90.46 149.60 110.98 154.50
  C 144.21 162.44 191.91 151.23 201.18 112.62
  C 202.34 107.80 202.15 100.00 200.94 95.36"
/>
<path stroke="#333333" vector-effect="non-scaling-stroke" d="
  M 42.14 79.70
  C 34.10 100.60 35.26 119.45 39.94 141.08
  Q 40.87 145.40 44.59 145.70
  Q 45.23 145.76 45.03 145.14
  Q 33.41 109.63 48.75 75.77
  Q 48.94 75.33 48.47 75.30
  C 45.01 75.10 43.39 76.44 42.14 79.70"
/>
<path stroke="#224c4e" vector-effect="non-scaling-stroke" d="
  M 37.35 141.98
  Q 39.08 143.66 38.42 141.34
  C 33.02 122.59 32.39 97.43 40.63 78.87
  A 0.33 0.33 0.0 0 0 40.11 78.49
  Q 31.01 86.64 29.30 98.77
  C 27.07 114.66 25.04 130.03 37.35 141.98"
/>
<path stroke="#5a5a5a" vector-effect="non-scaling-stroke" d="
  M 225.47 86.94
  C 224.13 82.03 223.61 80.18 218.29 78.89
  Q 217.77 78.76 217.97 79.26
  Q 231.79 113.94 218.71 148.94
  Q 218.49 149.54 219.10 149.36
  L 222.50 148.35
  Q 222.97 148.21 223.13 147.75
  Q 233.84 117.58 225.47 86.94"
/>
<path stroke="#36777a" vector-effect="non-scaling-stroke" d="
  M 226.57 82.97
  Q 225.61 82.05 226.04 83.31
  C 233.01 103.30 231.88 126.29 225.63 146.24
  Q 225.34 147.17 226.10 146.56
  Q 237.51 137.38 237.91 121.46
  C 238.32 105.77 237.99 93.88 226.57 82.97"
/>
<path stroke="#224c4e" vector-effect="non-scaling-stroke" d="
  M 46.15 137.84
  C 56.55 174.60 87.62 201.45 125.91 204.10
  Q 127.03 204.17 126.79 203.09
  Q 125.20 195.63 124.67 188.17"
/>
<path stroke="#36777a" vector-effect="non-scaling-stroke" d="
  M 124.67 188.17
  Q 123.27 173.85 125.35 159.19
  Q 125.42 158.75 124.97 158.72
  C 95.05 156.55 62.75 139.14 56.61 107.36
  A 1.61 1.60 87.5 0 0 55.22 106.08
  Q 49.15 105.38 43.77 108.10
  Q 43.27 108.35 43.24 108.91
  Q 42.42 123.53 46.15 137.84"
/>
<path stroke="#58c3c8" vector-effect="non-scaling-stroke" d="
  M 124.67 188.17
  Q 108.53 187.10 93.77 180.60"
/>
<path stroke="#36777a" vector-effect="non-scaling-stroke" d="
  M 93.77 180.60
  C 108.28 173.36 96.87 152.96 83.45 161.18
  Q 77.94 164.55 78.65 171.99"
/>
<path stroke="#58c3c8" vector-effect="non-scaling-stroke" d="
  M 78.65 171.99
  Q 60.30 158.14 47.69 138.81
  Q 47.25 138.15 46.15 137.84"
/>
<path stroke="#224c4e" vector-effect="non-scaling-stroke" d="
  M 78.65 171.99
  Q 81.92 183.55 93.77 180.60"
/>
<path stroke="#224c4e" vector-effect="non-scaling-stroke" d="
  M 125.70 188.30
  Q 126.34 196.37 127.97 203.85
  A 0.78 0.78 0.0 0 0 128.79 204.47
  C 133.41 204.10 138.48 204.47 142.73 203.89
  Q 185.42 197.98 208.82 161.56
  Q 209.16 161.03 210.06 158.93"
/>
<path stroke="#36777a" vector-effect="non-scaling-stroke" d="
  M 210.06 158.93
  Q 222.39 138.54 221.98 112.59
  Q 221.98 112.08 221.49 111.90
  Q 215.24 109.54 208.54 109.33
  Q 208.09 109.31 207.99 109.76
  C 199.98 145.03 159.23 160.58 126.95 158.92
  Q 126.42 158.89 126.34 159.41
  Q 124.06 174.13 125.70 188.30"
/>
<path stroke="#58c3c8" vector-effect="non-scaling-stroke" d="
  M 210.06 158.93
  Q 195.60 168.52 180.79 175.89"
/>
<path stroke="#36777a" vector-effect="non-scaling-stroke" d="
  M 180.79 175.89
  C 182.72 162.96 167.63 156.09 160.70 167.26
  Q 155.97 174.88 164.10 182.30"
/>
<path stroke="#58c3c8" vector-effect="non-scaling-stroke" d="
  M 164.10 182.30
  Q 145.70 188.65 125.70 188.30"
/>
<path stroke="#224c4e" vector-effect="non-scaling-stroke" d="
  M 164.10 182.30
  Q 175.72 186.93 180.79 175.89"
/>
<path stroke="#36777a" vector-effect="non-scaling-stroke" d="
  M 35.78 156.59
  C 33.22 158.23 33.50 160.97 35.32 163.22
  Q 50.15 181.49 65.03 199.72
  Q 66.97 202.10 70.58 200.59"
/>
<path stroke="#224c4e" vector-effect="non-scaling-stroke" d="
  M 70.58 200.59
  C 73.16 198.79 72.68 195.78 70.81 193.46
  Q 56.35 175.60 41.79 157.79
  C 40.10 155.72 38.02 155.33 35.78 156.59"
/>
<path stroke="#58c3c8" vector-effect="non-scaling-stroke" d="
  M 70.58 200.59
  L 35.78 156.59"
/>
<path stroke="#36777a" vector-effect="non-scaling-stroke" d="
  M 226.5011 167.5014
  A 4.19 4.19 0.0 0 0 225.9023 161.6062
  L 225.8093 161.5304
  A 4.19 4.19 0.0 0 0 219.9141 162.1292
  L 189.7789 199.0786
  A 4.19 4.19 0.0 0 0 190.3777 204.9738
  L 190.4707 205.0496
  A 4.19 4.19 0.0 0 0 196.3659 204.4508
  L 226.5011 167.5014"
/>
<path stroke="#333333" vector-effect="non-scaling-stroke" d="
  M 52.99 167.27
  C 53.76 168.50 62.79 181.22 65.88 180.61
  Q 67.10 180.36 66.23 179.47
  Q 59.26 172.35 54.03 163.83
  Q 53.76 163.38 53.43 163.80
  Q 51.99 165.66 52.99 167.27"
/>
<path stroke="#333333" vector-effect="non-scaling-stroke" d="
  M 193.96 185.05
  C 197.70 186.00 198.48 184.44 200.85 181.56
  Q 204.83 176.75 208.70 171.86
  A 1.41 1.34 -26.9 0 0 209.00 171.01
  L 209.00 168.56
  A 0.42 0.42 0.0 0 0 208.23 168.32
  Q 201.95 177.16 193.78 184.32
  Q 193.17 184.85 193.96 185.05"
/>
<path stroke="#36777a" vector-effect="non-scaling-stroke" d="
  M 51.46 99.63
  A 3.06 3.06 0.0 0 0 48.40 96.57
  A 3.06 3.06 0.0 0 0 45.34 99.63
  A 3.06 3.06 0.0 0 0 48.40 102.69
  A 3.06 3.06 0.0 0 0 51.46 99.63"
/>
<path stroke="#36777a" vector-effect="non-scaling-stroke" d="
  M 143.63 30.75
  A 3.04 3.04 0.0 0 0 140.59 27.71
  A 3.04 3.04 0.0 0 0 137.55 30.75
  A 3.04 3.04 0.0 0 0 140.59 33.79
  A 3.04 3.04 0.0 0 0 143.63 30.75"
/>
<path stroke="#36777a" vector-effect="non-scaling-stroke" d="
  M 219.98 105.36
  A 3.08 3.08 0.0 0 0 216.90 102.28
  A 3.08 3.08 0.0 0 0 213.82 105.36
  A 3.08 3.08 0.0 0 0 216.90 108.44
  A 3.08 3.08 0.0 0 0 219.98 105.36"
/>
<path stroke="#5a5a5a" vector-effect="non-scaling-stroke" d="
  M 142.5327 31.3186
  A 2.03 1.92 14.8 0 0 141.0605 28.9437
  A 2.03 1.92 14.8 0 0 138.6073 30.2814
  A 2.03 1.92 14.8 0 0 140.0795 32.6563
  A 2.03 1.92 14.8 0 0 142.5327 31.3186"
/>
<path stroke="#4d4d4d" vector-effect="non-scaling-stroke" d="
  M 126.40 151.58
  Q 110.48 150.02 97.46 142.81
  C 79.37 132.80 66.67 113.02 73.95 92.56
  C 81.90 70.22 106.24 58.72 128.51 57.17
  A 0.15 0.15 0.0 0 0 128.50 56.87
  Q 104.35 56.35 85.36 69.76
  C 66.70 82.93 58.83 105.43 72.08 125.70
  C 83.63 143.35 106.10 151.99 126.37 152.15
  A 0.29 0.29 0.0 0 0 126.40 151.58"
/>
<path stroke="#607d39" vector-effect="non-scaling-stroke" d="
  M 114.31 81.21
  A 13.34 13.34 0.0 0 0 100.97 67.87
  A 13.34 13.34 0.0 0 0 87.63 81.21
  A 13.34 13.34 0.0 0 0 100.97 94.55
  A 13.34 13.34 0.0 0 0 114.31 81.21"
/>
<path stroke="#607d39" vector-effect="non-scaling-stroke" d="
  M 156.20 81.19
  A 13.36 13.36 0.0 0 0 142.84 67.83
  A 13.36 13.36 0.0 0 0 129.48 81.19
  A 13.36 13.36 0.0 0 0 142.84 94.55
  A 13.36 13.36 0.0 0 0 156.20 81.19"
/>
<path stroke="#5a5a5a" vector-effect="non-scaling-stroke" d="
  M 50.46 99.60
  A 2.05 2.05 0.0 0 0 48.41 97.55
  A 2.05 2.05 0.0 0 0 46.36 99.60
  A 2.05 2.05 0.0 0 0 48.41 101.65
  A 2.05 2.05 0.0 0 0 50.46 99.60"
/>
<path stroke="#5a5a5a" vector-effect="non-scaling-stroke" d="
  M 218.97 105.36
  A 2.03 2.03 0.0 0 0 216.94 103.33
  A 2.03 2.03 0.0 0 0 214.91 105.36
  A 2.03 2.03 0.0 0 0 216.94 107.39
  A 2.03 2.03 0.0 0 0 218.97 105.36"
/>
<path stroke="#5a5a5a" vector-effect="non-scaling-stroke" d="
  M 99.48 170.30
  A 9.91 9.91 0.0 0 0 89.57 160.39
  A 9.91 9.91 0.0 0 0 79.66 170.30
  A 9.91 9.91 0.0 0 0 89.57 180.21
  A 9.91 9.91 0.0 0 0 99.48 170.30"
/>
<path stroke="#224c4e" vector-effect="non-scaling-stroke" d="
  M 135.57 199.79
  A 3.03 3.03 0.0 0 0 132.54 196.76
  A 3.03 3.03 0.0 0 0 129.51 199.79
  A 3.03 3.03 0.0 0 0 132.54 202.82
  A 3.03 3.03 0.0 0 0 135.57 199.79"
/>
<path stroke="#5a5a5a" vector-effect="non-scaling-stroke" d="
  M 98.14 170.24
  A 8.57 8.57 0.0 0 0 89.57 161.67
  A 8.57 8.57 0.0 0 0 81.00 170.24
  A 8.57 8.57 0.0 0 0 89.57 178.81
  A 8.57 8.57 0.0 0 0 98.14 170.24"
/>
<path stroke="#003f01" vector-effect="non-scaling-stroke" d="
  M 83.63 166.74
  Q 82.09 172.94 87.39 174.79
  C 90.69 175.94 93.99 174.81 94.74 171.15"
/>
<path stroke="#008000" vector-effect="non-scaling-stroke" d="
  M 94.74 171.15
  Q 96.84 169.17 95.72 167.33
  Q 90.32 158.45 83.63 166.74"
/>
<path stroke="#00bf01" vector-effect="non-scaling-stroke" d="
  M 94.74 171.15
  Q 87.90 174.87 83.63 166.74"
/>
<path stroke="#333333" vector-effect="non-scaling-stroke" d="
  M 96.34 171.41
  C 94.18 178.28 84.87 177.62 82.61 171.35
  Q 82.37 170.66 82.24 171.38
  C 81.46 175.98 89.20 178.92 92.61 177.12
  C 94.71 176.02 96.63 173.96 96.77 171.49
  A 0.22 0.22 0.0 0 0 96.34 171.41"
/>
<path stroke="#5a5a5a" vector-effect="non-scaling-stroke" d="
  M 179.90 172.78
  A 9.89 9.89 0.0 0 0 170.01 162.89
  A 9.89 9.89 0.0 0 0 160.12 172.78
  A 9.89 9.89 0.0 0 0 170.01 182.67
  A 9.89 9.89 0.0 0 0 179.90 172.78"
/>
<path stroke="#5a5a5a" vector-effect="non-scaling-stroke" d="
  M 178.66 172.70
  A 8.61 8.61 0.0 0 0 170.05 164.09
  A 8.61 8.61 0.0 0 0 161.44 172.70
  A 8.61 8.61 0.0 0 0 170.05 181.31
  A 8.61 8.61 0.0 0 0 178.66 172.70"
/>
<path stroke="#003f01" vector-effect="non-scaling-stroke" d="
  M 164.42 169.97
  C 162.23 177.73 172.35 181.10 175.72 173.55"
/>
<path stroke="#008000" vector-effect="non-scaling-stroke" d="
  M 175.72 173.55
  Q 177.37 164.97 168.93 165.83
  C 166.43 166.08 164.41 167.31 164.42 169.97"
/>
<path stroke="#00bf01" vector-effect="non-scaling-stroke" d="
  M 175.72 173.55
  Q 168.35 176.69 164.42 169.97"
/>
<path stroke="#333333" vector-effect="non-scaling-stroke" d="
  M 177.58 172.93
  L 177.38 172.58
  Q 177.31 172.44 177.27 172.60
  Q 175.78 179.53 168.60 178.58
  C 165.26 178.14 164.12 176.06 162.84 173.59
  A 0.24 0.24 0.0 0 0 162.40 173.77
  C 164.97 182.86 175.64 181.93 177.85 173.06
  Q 177.86 173.01 177.78 173.00
  Q 177.75 173.00 177.71 172.99
  A 0.19 0.04 12.4 0 1 177.58 172.93"
/>
<path stroke="#333333" vector-effect="non-scaling-stroke" d="
  M 134.62 199.85
  A 2.05 2.05 0.0 0 0 132.57 197.80
  A 2.05 2.05 0.0 0 0 130.52 199.85
  A 2.05 2.05 0.0 0 0 132.57 201.90
  A 2.05 2.05 0.0 0 0 134.62 199.85"
/>
</g>
<path fill="#000000" d="
  M 195.72 186.90
  L 191.76 186.48
  Q 191.29 186.43 190.92 186.72
  C 154.22 215.79 103.77 214.43 69.28 182.38
  A 1.11 1.11 0.0 0 0 68.52 182.08
  L 65.90 182.08
  A 0.56 0.56 0.0 0 0 65.48 183.00
  C 68.08 186.11 75.43 193.48 74.97 197.57
  C 74.50 201.78 70.21 204.72 66.21 203.22
  Q 64.00 202.39 61.32 199.11
  Q 47.40 182.04 33.57 164.94
  C 29.10 159.41 33.36 151.39 39.89 153.52
  C 43.64 154.74 47.83 161.26 50.48 164.55
  Q 50.92 165.10 51.22 164.46
  C 52.08 162.63 52.27 161.01 51.22 159.10
  Q 48.73 154.57 46.85 149.80
  A 0.41 0.41 0.0 0 0 46.58 149.57
  Q 34.43 146.43 29.11 136.84
  C 23.66 127.01 24.26 117.90 25.26 107.18
  Q 26.08 98.35 26.32 96.87
  C 28.35 84.79 37.06 72.55 50.20 71.98
  Q 50.73 71.96 50.98 71.49
  C 87.87 4.29 181.59 7.15 216.01 74.94
  Q 216.24 75.38 216.73 75.46
  C 231.84 77.83 240.50 93.42 240.80 107.52
  C 241.08 120.92 242.28 132.03 233.71 143.46
  Q 227.71 151.48 217.82 152.60
  A 0.99 0.96 -77.8 0 0 217.07 153.10
  L 210.41 165.33
  Q 210.26 165.61 210.28 165.93
  L 210.44 168.55
  A 0.50 0.50 0.0 0 0 211.33 168.84
  C 215.02 164.34 221.18 153.27 228.07 160.31
  C 230.19 162.49 230.58 166.40 228.71 168.70
  Q 213.77 187.02 198.84 205.33
  C 194.04 211.23 184.82 207.78 186.67 200.22
  C 187.58 196.49 193.45 190.72 196.01 187.63
  A 0.45 0.44 -66.8 0 0 195.72 186.90
  Z
  M 132.09 25.77
  C 86.38 25.76 48.34 60.79 43.69 106.16
  A 0.37 0.36 82.6 0 0 44.18 106.54
  Q 49.76 104.48 55.75 105.13
  A 0.59 0.58 0.4 0 0 56.40 104.50
  C 53.49 64.52 95.53 42.73 129.33 41.90
  A 0.66 0.66 0.0 0 0 129.98 41.25
  Q 130.09 33.58 132.49 26.32
  A 0.42 0.42 0.0 0 0 132.09 25.77
  Z
  M 221.89 110.36
  C 218.65 63.30 181.93 27.39 134.93 25.60
  A 1.33 1.32 -78.9 0 0 133.63 26.48
  Q 131.06 33.61 130.98 41.20
  Q 130.97 41.71 131.48 41.71
  C 168.92 41.63 213.01 63.85 208.53 107.77
  A 0.52 0.51 -86.3 0 0 209.02 108.34
  Q 215.41 108.60 221.42 110.72
  Q 221.93 110.90 221.89 110.36
  Z
  M 72.80 134.33
  Q 75.39 137.75 78.96 140.27
  A 0.16 0.16 0.0 0 0 79.17 140.02
  L 73.05 134.11
  Q 57.91 116.06 62.86 94.71
  C 71.54 57.27 119.65 45.33 151.83 52.12
  C 174.51 56.90 198.38 72.48 202.78 97.03
  Q 206.11 115.56 193.98 131.83
  L 189.10 137.28
  Q 188.41 138.05 189.25 137.45
  Q 192.33 135.25 194.44 131.97
  C 208.19 116.81 211.53 96.39 201.26 78.22
  C 193.14 63.86 179.51 54.30 163.93 48.96
  Q 128.52 36.81 94.38 51.69
  C 60.61 66.42 43.47 104.71 72.80 134.33
  Z
  M 200.94 95.36
  C 195.00 72.72 173.61 58.43 151.75 53.74
  Q 119.44 46.81 90.72 62.47
  C 72.49 72.41 58.60 93.47 64.47 114.77
  C 70.26 135.79 90.46 149.60 110.98 154.50
  C 144.21 162.44 191.91 151.23 201.18 112.62
  C 202.34 107.80 202.15 100.00 200.94 95.36
  Z
  M 42.14 79.70
  C 34.10 100.60 35.26 119.45 39.94 141.08
  Q 40.87 145.40 44.59 145.70
  Q 45.23 145.76 45.03 145.14
  Q 33.41 109.63 48.75 75.77
  Q 48.94 75.33 48.47 75.30
  C 45.01 75.10 43.39 76.44 42.14 79.70
  Z
  M 37.35 141.98
  Q 39.08 143.66 38.42 141.34
  C 33.02 122.59 32.39 97.43 40.63 78.87
  A 0.33 0.33 0.0 0 0 40.11 78.49
  Q 31.01 86.64 29.30 98.77
  C 27.07 114.66 25.04 130.03 37.35 141.98
  Z
  M 225.47 86.94
  C 224.13 82.03 223.61 80.18 218.29 78.89
  Q 217.77 78.76 217.97 79.26
  Q 231.79 113.94 218.71 148.94
  Q 218.49 149.54 219.10 149.36
  L 222.50 148.35
  Q 222.97 148.21 223.13 147.75
  Q 233.84 117.58 225.47 86.94
  Z
  M 226.57 82.97
  Q 225.61 82.05 226.04 83.31
  C 233.01 103.30 231.88 126.29 225.63 146.24
  Q 225.34 147.17 226.10 146.56
  Q 237.51 137.38 237.91 121.46
  C 238.32 105.77 237.99 93.88 226.57 82.97
  Z
  M 46.15 137.84
  C 56.55 174.60 87.62 201.45 125.91 204.10
  Q 127.03 204.17 126.79 203.09
  Q 125.20 195.63 124.67 188.17
  Q 123.27 173.85 125.35 159.19
  Q 125.42 158.75 124.97 158.72
  C 95.05 156.55 62.75 139.14 56.61 107.36
  A 1.61 1.60 87.5 0 0 55.22 106.08
  Q 49.15 105.38 43.77 108.10
  Q 43.27 108.35 43.24 108.91
  Q 42.42 123.53 46.15 137.84
  Z
  M 125.70 188.30
  Q 126.34 196.37 127.97 203.85
  A 0.78 0.78 0.0 0 0 128.79 204.47
  C 133.41 204.10 138.48 204.47 142.73 203.89
  Q 185.42 197.98 208.82 161.56
  Q 209.16 161.03 210.06 158.93
  Q 222.39 138.54 221.98 112.59
  Q 221.98 112.08 221.49 111.90
  Q 215.24 109.54 208.54 109.33
  Q 208.09 109.31 207.99 109.76
  C 199.98 145.03 159.23 160.58 126.95 158.92
  Q 126.42 158.89 126.34 159.41
  Q 124.06 174.13 125.70 188.30
  Z
  M 35.78 156.59
  C 33.22 158.23 33.50 160.97 35.32 163.22
  Q 50.15 181.49 65.03 199.72
  Q 66.97 202.10 70.58 200.59
  C 73.16 198.79 72.68 195.78 70.81 193.46
  Q 56.35 175.60 41.79 157.79
  C 40.10 155.72 38.02 155.33 35.78 156.59
  Z
  M 226.5011 167.5014
  A 4.19 4.19 0.0 0 0 225.9023 161.6062
  L 225.8093 161.5304
  A 4.19 4.19 0.0 0 0 219.9141 162.1292
  L 189.7789 199.0786
  A 4.19 4.19 0.0 0 0 190.3777 204.9738
  L 190.4707 205.0496
  A 4.19 4.19 0.0 0 0 196.3659 204.4508
  L 226.5011 167.5014
  Z
  M 52.99 167.27
  C 53.76 168.50 62.79 181.22 65.88 180.61
  Q 67.10 180.36 66.23 179.47
  Q 59.26 172.35 54.03 163.83
  Q 53.76 163.38 53.43 163.80
  Q 51.99 165.66 52.99 167.27
  Z
  M 193.96 185.05
  C 197.70 186.00 198.48 184.44 200.85 181.56
  Q 204.83 176.75 208.70 171.86
  A 1.41 1.34 -26.9 0 0 209.00 171.01
  L 209.00 168.56
  A 0.42 0.42 0.0 0 0 208.23 168.32
  Q 201.95 177.16 193.78 184.32
  Q 193.17 184.85 193.96 185.05
  Z"
/>
<path fill="#6beef4" d="
  M 43.69 106.16
  C 48.34 60.79 86.38 25.76 132.09 25.77
  A 0.42 0.42 0.0 0 1 132.49 26.32
  Q 130.09 33.58 129.98 41.25
  A 0.66 0.66 0.0 0 1 129.33 41.90
  C 95.53 42.73 53.49 64.52 56.40 104.50
  A 0.59 0.58 0.4 0 1 55.75 105.13
  Q 49.76 104.48 44.18 106.54
  A 0.37 0.36 82.6 0 1 43.69 106.16
  Z
  M 51.46 99.63
  A 3.06 3.06 0.0 0 0 48.40 96.57
  A 3.06 3.06 0.0 0 0 45.34 99.63
  A 3.06 3.06 0.0 0 0 48.40 102.69
  A 3.06 3.06 0.0 0 0 51.46 99.63
  Z"
/>
<path fill="#6beef4" d="
  M 134.93 25.60
  C 181.93 27.39 218.65 63.30 221.89 110.36
  Q 221.93 110.90 221.42 110.72
  Q 215.41 108.60 209.02 108.34
  A 0.52 0.51 -86.3 0 1 208.53 107.77
  C 213.01 63.85 168.92 41.63 131.48 41.71
  Q 130.97 41.71 130.98 41.20
  Q 131.06 33.61 133.63 26.48
  A 1.33 1.32 -78.9 0 1 134.93 25.60
  Z
  M 143.63 30.75
  A 3.04 3.04 0.0 0 0 140.59 27.71
  A 3.04 3.04 0.0 0 0 137.55 30.75
  A 3.04 3.04 0.0 0 0 140.59 33.79
  A 3.04 3.04 0.0 0 0 143.63 30.75
  Z
  M 219.98 105.36
  A 3.08 3.08 0.0 0 0 216.90 102.28
  A 3.08 3.08 0.0 0 0 213.82 105.36
  A 3.08 3.08 0.0 0 0 216.90 108.44
  A 3.08 3.08 0.0 0 0 219.98 105.36
  Z"
/>
<path fill="#000000" d="
  M 143.63 30.75
  A 3.04 3.04 0.0 0 1 140.59 33.79
  A 3.04 3.04 0.0 0 1 137.55 30.75
  A 3.04 3.04 0.0 0 1 140.59 27.71
  A 3.04 3.04 0.0 0 1 143.63 30.75
  Z
  M 142.5327 31.3186
  A 2.03 1.92 14.8 0 0 141.0605 28.9437
  A 2.03 1.92 14.8 0 0 138.6073 30.2814
  A 2.03 1.92 14.8 0 0 140.0795 32.6563
  A 2.03 1.92 14.8 0 0 142.5327 31.3186
  Z"
/>
<ellipse fill="#b3b3b3" cx="0.00" cy="0.00" transform="translate(140.57,30.80) rotate(14.8)" rx="2.03" ry="1.92"/>
<path fill="#b3b3b3" d="
  M 194.44 131.97
  Q 194.07 132.06 193.98 131.83
  Q 206.11 115.56 202.78 97.03
  C 198.38 72.48 174.51 56.90 151.83 52.12
  C 119.65 45.33 71.54 57.27 62.86 94.71
  Q 57.91 116.06 73.05 134.11
  L 72.80 134.33
  C 43.47 104.71 60.61 66.42 94.38 51.69
  Q 128.52 36.81 163.93 48.96
  C 179.51 54.30 193.14 63.86 201.26 78.22
  C 211.53 96.39 208.19 116.81 194.44 131.97
  Z"
/>
<path fill="#333333" d="
  M 151.75 53.74
  C 173.61 58.43 195.00 72.72 200.94 95.36
  C 202.15 100.00 202.34 107.80 201.18 112.62
  C 191.91 151.23 144.21 162.44 110.98 154.50
  C 90.46 149.60 70.26 135.79 64.47 114.77
  C 58.60 93.47 72.49 72.41 90.72 62.47
  Q 119.44 46.81 151.75 53.74
  Z
  M 126.40 151.58
  Q 110.48 150.02 97.46 142.81
  C 79.37 132.80 66.67 113.02 73.95 92.56
  C 81.90 70.22 106.24 58.72 128.51 57.17
  A 0.15 0.15 0.0 0 0 128.50 56.87
  Q 104.35 56.35 85.36 69.76
  C 66.70 82.93 58.83 105.43 72.08 125.70
  C 83.63 143.35 106.10 151.99 126.37 152.15
  A 0.29 0.29 0.0 0 0 126.40 151.58
  Z
  M 114.31 81.21
  A 13.34 13.34 0.0 0 0 100.97 67.87
  A 13.34 13.34 0.0 0 0 87.63 81.21
  A 13.34 13.34 0.0 0 0 100.97 94.55
  A 13.34 13.34 0.0 0 0 114.31 81.21
  Z
  M 156.20 81.19
  A 13.36 13.36 0.0 0 0 142.84 67.83
  A 13.36 13.36 0.0 0 0 129.48 81.19
  A 13.36 13.36 0.0 0 0 142.84 94.55
  A 13.36 13.36 0.0 0 0 156.20 81.19
  Z"
/>
<path fill="#666666" d="
  M 126.40 151.58
  A 0.29 0.29 0.0 0 1 126.37 152.15
  C 106.10 151.99 83.63 143.35 72.08 125.70
  C 58.83 105.43 66.70 82.93 85.36 69.76
  Q 104.35 56.35 128.50 56.87
  A 0.15 0.15 0.0 0 1 128.51 57.17
  C 106.24 58.72 81.90 70.22 73.95 92.56
  C 66.67 113.02 79.37 132.80 97.46 142.81
  Q 110.48 150.02 126.40 151.58
  Z"
/>
<circle fill="#8cc63f" cx="100.97" cy="81.21" r="13.34"/>
<circle fill="#8cc63f" cx="142.84" cy="81.19" r="13.36"/>
<path fill="#666666" d="
  M 42.14 79.70
  C 43.39 76.44 45.01 75.10 48.47 75.30
  Q 48.94 75.33 48.75 75.77
  Q 33.41 109.63 45.03 145.14
  Q 45.23 145.76 44.59 145.70
  Q 40.87 145.40 39.94 141.08
  C 35.26 119.45 34.10 100.60 42.14 79.70
  Z"
/>
<path fill="#44989c" d="
  M 37.35 141.98
  C 25.04 130.03 27.07 114.66 29.30 98.77
  Q 31.01 86.64 40.11 78.49
  A 0.33 0.33 0.0 0 1 40.63 78.87
  C 32.39 97.43 33.02 122.59 38.42 141.34
  Q 39.08 143.66 37.35 141.98
  Z"
/>
<path fill="#b3b3b3" d="
  M 218.29 78.89
  C 223.61 80.18 224.13 82.03 225.47 86.94
  Q 233.84 117.58 223.13 147.75
  Q 222.97 148.21 222.50 148.35
  L 219.10 149.36
  Q 218.49 149.54 218.71 148.94
  Q 231.79 113.94 217.97 79.26
  Q 217.77 78.76 218.29 78.89
  Z"
/>
<path fill="#6beef4" d="
  M 226.57 82.97
  C 237.99 93.88 238.32 105.77 237.91 121.46
  Q 237.51 137.38 226.10 146.56
  Q 225.34 147.17 225.63 146.24
  C 231.88 126.29 233.01 103.30 226.04 83.31
  Q 225.61 82.05 226.57 82.97
  Z"
/>
<path fill="#000000" d="
  M 51.46 99.63
  A 3.06 3.06 0.0 0 1 48.40 102.69
  A 3.06 3.06 0.0 0 1 45.34 99.63
  A 3.06 3.06 0.0 0 1 48.40 96.57
  A 3.06 3.06 0.0 0 1 51.46 99.63
  Z
  M 50.46 99.60
  A 2.05 2.05 0.0 0 0 48.41 97.55
  A 2.05 2.05 0.0 0 0 46.36 99.60
  A 2.05 2.05 0.0 0 0 48.41 101.65
  A 2.05 2.05 0.0 0 0 50.46 99.60
  Z"
/>
<circle fill="#b3b3b3" cx="48.41" cy="99.60" r="2.05"/>
<path fill="#000000" d="
  M 219.98 105.36
  A 3.08 3.08 0.0 0 1 216.90 108.44
  A 3.08 3.08 0.0 0 1 213.82 105.36
  A 3.08 3.08 0.0 0 1 216.90 102.28
  A 3.08 3.08 0.0 0 1 219.98 105.36
  Z
  M 218.97 105.36
  A 2.03 2.03 0.0 0 0 216.94 103.33
  A 2.03 2.03 0.0 0 0 214.91 105.36
  A 2.03 2.03 0.0 0 0 216.94 107.39
  A 2.03 2.03 0.0 0 0 218.97 105.36
  Z"
/>
<circle fill="#b3b3b3" cx="216.94" cy="105.36" r="2.03"/>
<path fill="#6beef4" d="
  M 124.67 188.17
  Q 108.53 187.10 93.77 180.60
  C 108.28 173.36 96.87 152.96 83.45 161.18
  Q 77.94 164.55 78.65 171.99
  Q 60.30 158.14 47.69 138.81
  Q 47.25 138.15 46.15 137.84
  Q 42.42 123.53 43.24 108.91
  Q 43.27 108.35 43.77 108.10
  Q 49.15 105.38 55.22 106.08
  A 1.61 1.60 87.5 0 1 56.61 107.36
  C 62.75 139.14 95.05 156.55 124.97 158.72
  Q 125.42 158.75 125.35 159.19
  Q 123.27 173.85 124.67 188.17
  Z"
/>
<path fill="#6beef4" d="
  M 210.06 158.93
  Q 195.60 168.52 180.79 175.89
  C 182.72 162.96 167.63 156.09 160.70 167.26
  Q 155.97 174.88 164.10 182.30
  Q 145.70 188.65 125.70 188.30
  Q 124.06 174.13 126.34 159.41
  Q 126.42 158.89 126.95 158.92
  C 159.23 160.58 199.98 145.03 207.99 109.76
  Q 208.09 109.31 208.54 109.33
  Q 215.24 109.54 221.49 111.90
  Q 221.98 112.08 221.98 112.59
  Q 222.39 138.54 210.06 158.93
  Z"
/>
<path fill="#666666" d="
  M 193.98 131.83
  Q 194.07 132.06 194.44 131.97
  Q 192.33 135.25 189.25 137.45
  Q 188.41 138.05 189.10 137.28
  L 193.98 131.83
  Z"
/>
<path fill="#333333" d="
  M 73.05 134.11
  L 79.17 140.02
  A 0.16 0.16 0.0 0 1 78.96 140.27
  Q 75.39 137.75 72.80 134.33
  L 73.05 134.11
  Z"
/>
<path fill="#44989c" d="
  M 46.15 137.84
  Q 47.25 138.15 47.69 138.81
  Q 60.30 158.14 78.65 171.99
  Q 81.92 183.55 93.77 180.60
  Q 108.53 187.10 124.67 188.17
  Q 125.20 195.63 126.79 203.09
  Q 127.03 204.17 125.91 204.10
  C 87.62 201.45 56.55 174.60 46.15 137.84
  Z"
/>
<path fill="#44989c" d="
  M 70.58 200.59
  L 35.78 156.59
  C 38.02 155.33 40.10 155.72 41.79 157.79
  Q 56.35 175.60 70.81 193.46
  C 72.68 195.78 73.16 198.79 70.58 200.59
  Z"
/>
<path fill="#6beef4" d="
  M 35.78 156.59
  L 70.58 200.59
  Q 66.97 202.10 65.03 199.72
  Q 50.15 181.49 35.32 163.22
  C 33.50 160.97 33.22 158.23 35.78 156.59
  Z"
/>
<path fill="#000000" d="
  M 93.77 180.60
  Q 81.92 183.55 78.65 171.99
  Q 77.94 164.55 83.45 161.18
  C 96.87 152.96 108.28 173.36 93.77 180.60
  Z
  M 99.48 170.30
  A 9.91 9.91 0.0 0 0 89.57 160.39
  A 9.91 9.91 0.0 0 0 79.66 170.30
  A 9.91 9.91 0.0 0 0 89.57 180.21
  A 9.91 9.91 0.0 0 0 99.48 170.30
  Z"
/>
<path fill="#44989c" d="
  M 210.06 158.93
  Q 209.16 161.03 208.82 161.56
  Q 185.42 197.98 142.73 203.89
  C 138.48 204.47 133.41 204.10 128.79 204.47
  A 0.78 0.78 0.0 0 1 127.97 203.85
  Q 126.34 196.37 125.70 188.30
  Q 145.70 188.65 164.10 182.30
  Q 175.72 186.93 180.79 175.89
  Q 195.60 168.52 210.06 158.93
  Z
  M 135.57 199.79
  A 3.03 3.03 0.0 0 0 132.54 196.76
  A 3.03 3.03 0.0 0 0 129.51 199.79
  A 3.03 3.03 0.0 0 0 132.54 202.82
  A 3.03 3.03 0.0 0 0 135.57 199.79
  Z"
/>
<path fill="#b3b3b3" d="
  M 99.48 170.30
  A 9.91 9.91 0.0 0 1 89.57 180.21
  A 9.91 9.91 0.0 0 1 79.66 170.30
  A 9.91 9.91 0.0 0 1 89.57 160.39
  A 9.91 9.91 0.0 0 1 99.48 170.30
  Z
  M 98.14 170.24
  A 8.57 8.57 0.0 0 0 89.57 161.67
  A 8.57 8.57 0.0 0 0 81.00 170.24
  A 8.57 8.57 0.0 0 0 89.57 178.81
  A 8.57 8.57 0.0 0 0 98.14 170.24
  Z"
/>
<rect fill="#6beef4" x="-4.25" y="-28.03" transform="translate(208.14,183.29) rotate(39.2)" width="8.50" height="56.06" rx="4.19"/>
<path fill="#000000" d="
  M 98.14 170.24
  A 8.57 8.57 0.0 0 1 89.57 178.81
  A 8.57 8.57 0.0 0 1 81.00 170.24
  A 8.57 8.57 0.0 0 1 89.57 161.67
  A 8.57 8.57 0.0 0 1 98.14 170.24
  Z
  M 83.63 166.74
  Q 82.09 172.94 87.39 174.79
  C 90.69 175.94 93.99 174.81 94.74 171.15
  Q 96.84 169.17 95.72 167.33
  Q 90.32 158.45 83.63 166.74
  Z
  M 96.34 171.41
  C 94.18 178.28 84.87 177.62 82.61 171.35
  Q 82.37 170.66 82.24 171.38
  C 81.46 175.98 89.20 178.92 92.61 177.12
  C 94.71 176.02 96.63 173.96 96.77 171.49
  A 0.22 0.22 0.0 0 0 96.34 171.41
  Z"
/>
<path fill="#000000" d="
  M 180.79 175.89
  Q 175.72 186.93 164.10 182.30
  Q 155.97 174.88 160.70 167.26
  C 167.63 156.09 182.72 162.96 180.79 175.89
  Z
  M 179.90 172.78
  A 9.89 9.89 0.0 0 0 170.01 162.89
  A 9.89 9.89 0.0 0 0 160.12 172.78
  A 9.89 9.89 0.0 0 0 170.01 182.67
  A 9.89 9.89 0.0 0 0 179.90 172.78
  Z"
/>
<path fill="#b3b3b3" d="
  M 179.90 172.78
  A 9.89 9.89 0.0 0 1 170.01 182.67
  A 9.89 9.89 0.0 0 1 160.12 172.78
  A 9.89 9.89 0.0 0 1 170.01 162.89
  A 9.89 9.89 0.0 0 1 179.90 172.78
  Z
  M 178.66 172.70
  A 8.61 8.61 0.0 0 0 170.05 164.09
  A 8.61 8.61 0.0 0 0 161.44 172.70
  A 8.61 8.61 0.0 0 0 170.05 181.31
  A 8.61 8.61 0.0 0 0 178.66 172.70
  Z"
/>
<path fill="#00ff00" d="
  M 94.74 171.15
  Q 87.90 174.87 83.63 166.74
  Q 90.32 158.45 95.72 167.33
  Q 96.84 169.17 94.74 171.15
  Z"
/>
<path fill="#666666" d="
  M 65.88 180.61
  C 62.79 181.22 53.76 168.50 52.99 167.27
  Q 51.99 165.66 53.43 163.80
  Q 53.76 163.38 54.03 163.83
  Q 59.26 172.35 66.23 179.47
  Q 67.10 180.36 65.88 180.61
  Z"
/>
<path fill="#000000" d="
  M 178.66 172.70
  A 8.61 8.61 0.0 0 1 170.05 181.31
  A 8.61 8.61 0.0 0 1 161.44 172.70
  A 8.61 8.61 0.0 0 1 170.05 164.09
  A 8.61 8.61 0.0 0 1 178.66 172.70
  Z
  M 164.42 169.97
  C 162.23 177.73 172.35 181.10 175.72 173.55
  Q 177.37 164.97 168.93 165.83
  C 166.43 166.08 164.41 167.31 164.42 169.97
  Z
  M 177.58 172.93
  L 177.38 172.58
  Q 177.31 172.44 177.27 172.60
  Q 175.78 179.53 168.60 178.58
  C 165.26 178.14 164.12 176.06 162.84 173.59
  A 0.24 0.24 0.0 0 0 162.40 173.77
  C 164.97 182.86 175.64 181.93 177.85 173.06
  Q 177.86 173.01 177.78 173.00
  Q 177.75 173.00 177.71 172.99
  A 0.19 0.04 12.4 0 1 177.58 172.93
  Z"
/>
<path fill="#00ff00" d="
  M 175.72 173.55
  Q 168.35 176.69 164.42 169.97
  C 164.41 167.31 166.43 166.08 168.93 165.83
  Q 177.37 164.97 175.72 173.55
  Z"
/>
<path fill="#007e01" d="
  M 83.63 166.74
  Q 87.90 174.87 94.74 171.15
  C 93.99 174.81 90.69 175.94 87.39 174.79
  Q 82.09 172.94 83.63 166.74
  Z"
/>
<path fill="#666666" d="
  M 193.96 185.05
  Q 193.17 184.85 193.78 184.32
  Q 201.95 177.16 208.23 168.32
  A 0.42 0.42 0.0 0 1 209.00 168.56
  L 209.00 171.01
  A 1.41 1.34 -26.9 0 1 208.70 171.86
  Q 204.83 176.75 200.85 181.56
  C 198.48 184.44 197.70 186.00 193.96 185.05
  Z"
/>
<path fill="#007e01" d="
  M 164.42 169.97
  Q 168.35 176.69 175.72 173.55
  C 172.35 181.10 162.23 177.73 164.42 169.97
  Z"
/>
<path fill="#666666" d="
  M 82.61 171.35
  C 84.87 177.62 94.18 178.28 96.34 171.41
  A 0.22 0.22 0.0 0 1 96.77 171.49
  C 96.63 173.96 94.71 176.02 92.61 177.12
  C 89.20 178.92 81.46 175.98 82.24 171.38
  Q 82.37 170.66 82.61 171.35
  Z"
/>
<path fill="#666666" d="
  M 177.71 172.99
  Q 177.75 173.00 177.78 173.00
  Q 177.86 173.01 177.85 173.06
  C 175.64 181.93 164.97 182.86 162.40 173.77
  A 0.24 0.24 0.0 0 1 162.84 173.59
  C 164.12 176.06 165.26 178.14 168.60 178.58
  Q 175.78 179.53 177.27 172.60
  Q 177.31 172.44 177.38 172.58
  L 177.58 172.93
  A 0.19 0.04 12.4 0 0 177.71 172.99
  Z"
/>
<path fill="#000000" d="
  M 135.57 199.79
  A 3.03 3.03 0.0 0 1 132.54 202.82
  A 3.03 3.03 0.0 0 1 129.51 199.79
  A 3.03 3.03 0.0 0 1 132.54 196.76
  A 3.03 3.03 0.0 0 1 135.57 199.79
  Z
  M 134.62 199.85
  A 2.05 2.05 0.0 0 0 132.57 197.80
  A 2.05 2.05 0.0 0 0 130.52 199.85
  A 2.05 2.05 0.0 0 0 132.57 201.90
  A 2.05 2.05 0.0 0 0 134.62 199.85
  Z"
/>
<circle fill="#666666" cx="132.57" cy="199.85" r="2.05"/>
</svg>
