<?xml version="1.0" encoding="UTF-8" standalone="no"?>
<!DOCTYPE svg PUBLIC "-//W3C//DTD SVG 1.1//EN" "http://www.w3.org/Graphics/SVG/1.1/DTD/svg11.dtd">
<svg xmlns="http://www.w3.org/2000/svg" version="1.1" viewBox="0.00 0.00 198.00 215.00">
<g stroke-width="2.00" fill="none" stroke-linecap="butt">
<path stroke="#999999" vector-effect="non-scaling-stroke" d="
  M 179.31 86.95
  Q 178.87 87.09 178.79 87.40"
/>
<path stroke="#666666" vector-effect="non-scaling-stroke" d="
  M 178.79 87.40
  Q 174.98 73.68 161.99 70.20
  A 1.15 1.12 -5.8 0 1 161.27 69.63
  C 137.42 24.74 79.22 17.44 46.32 56.96"
/>
<path stroke="#c0c0bf" vector-effect="non-scaling-stroke" d="
  M 46.32 56.96
  Q 46.34 56.86 45.81 56.61"
/>
<path stroke="#333333" vector-effect="non-scaling-stroke" d="
  M 178.79 87.40
  C 180.89 100.34 181.26 112.88 172.47 123.29"
/>
<path stroke="#25201c" vector-effect="non-scaling-stroke" d="
  M 162.07 128.00
  Q 160.08 130.03 160.01 132.31"
/>
<path stroke="#3a322b" vector-effect="non-scaling-stroke" d="
  M 162.23 134.29
  L 165.21 132.06"
/>
<path stroke="#333333" vector-effect="non-scaling-stroke" d="
  M 165.21 132.06
  Q 169.20 131.36 171.07 134.41
  Q 171.29 134.76 171.25 135.18
  L 170.90 138.53
  Q 170.85 139.04 170.53 139.45
  L 162.34 150.05"
/>
<path stroke="#3a322b" vector-effect="non-scaling-stroke" d="
  M 156.77 156.95
  Q 151.77 161.13 148.57 167.19"
/>
<path stroke="#25201c" vector-effect="non-scaling-stroke" d="
  M 140.18 161.22
  Q 144.04 157.66 146.97 153.34
  A 0.38 0.38 0.0 0 0 146.70 152.75
  Q 146.27 152.70 146.20 153.02"
/>
<path stroke="#333333" vector-effect="non-scaling-stroke" d="
  M 145.24 152.43
  L 145.99 151.91
  Q 146.36 151.66 146.79 151.66
  C 148.96 151.69 155.46 142.42 156.07 141.58
  A 1.38 1.37 56.2 0 0 156.29 140.43
  L 156.07 139.58
  Q 155.84 138.71 155.33 139.44
  Q 149.94 147.05 142.73 152.96"
/>
<path stroke="#1a1a1a" vector-effect="non-scaling-stroke" d="
  M 54.05 154.96
  L 57.82 161.15"
/>
<path stroke="#3a322b" vector-effect="non-scaling-stroke" d="
  M 24.90 131.15
  L 28.54 127.94"
/>
<path stroke="#333333" vector-effect="non-scaling-stroke" d="
  M 31.18 127.95
  L 35.07 131.19"
/>
<path stroke="#25201c" vector-effect="non-scaling-stroke" d="
  M 36.29 125.98
  Q 36.91 123.64 32.33 124.23"
/>
<path stroke="#3a322b" vector-effect="non-scaling-stroke" d="
  M 24.24 117.63
  L 20.26 107.32"
/>
<path stroke="#524943" vector-effect="non-scaling-stroke" d="
  M 20.65 97.26
  Q 19.68 81.83 28.63 72.20
  C 30.43 70.27 32.94 69.26 35.32 68.12"
/>
<path stroke="#5a5a59" vector-effect="non-scaling-stroke" d="
  M 36.90 67.56
  C 37.86 68.67 39.12 67.61 39.74 66.64
  Q 42.83 61.72 46.32 56.96"
/>
<path stroke="#6c655e" vector-effect="non-scaling-stroke" d="
  M 165.21 132.06
  L 164.93 131.79"
/>
<path stroke="#25201c" vector-effect="non-scaling-stroke" d="
  M 35.92 116.51
  C 43.03 143.89 66.55 163.39 94.66 165.67
  A 0.50 0.49 -0.9 0 0 95.20 165.12
  L 93.80 153.63"
/>
<path stroke="#3a322b" vector-effect="non-scaling-stroke" d="
  M 93.80 153.63
  Q 92.86 143.07 94.40 132.69
  Q 94.48 132.15 93.94 132.10
  C 71.62 130.09 43.97 115.75 43.31 89.87
  C 42.80 70.15 58.33 55.95 75.49 49.61
  C 82.29 47.09 90.07 45.96 97.52 45.38
  Q 98.03 45.34 97.98 44.83
  Q 97.43 39.06 99.91 33.92
  A 0.41 0.41 0.0 0 0 99.53 33.33
  C 65.42 34.26 37.85 58.48 33.93 92.91
  Q 33.89 93.28 34.25 93.20
  Q 38.30 92.34 42.51 92.29
  A 0.31 0.31 0.0 0 1 42.57 92.90
  C 39.55 93.55 37.23 92.78 34.14 94.45
  A 1.04 1.04 0.0 0 0 33.60 95.31
  C 33.21 103.23 33.92 110.25 35.92 116.51"
/>
<path stroke="#5e5147" vector-effect="non-scaling-stroke" d="
  M 93.80 153.63
  C 90.58 153.49 71.92 150.95 71.97 147.82"
/>
<path stroke="#3a322b" vector-effect="non-scaling-stroke" d="
  M 71.97 147.82
  C 79.82 142.80 75.57 130.55 65.86 132.75
  Q 60.65 133.93 60.27 139.85"
/>
<path stroke="#5e5147" vector-effect="non-scaling-stroke" d="
  M 60.27 139.85
  Q 59.01 141.24 58.06 140.45
  Q 45.54 130.01 35.92 116.51"
/>
<path stroke="#25201c" vector-effect="non-scaling-stroke" d="
  M 60.27 139.85
  C 60.04 148.03 65.41 149.71 71.97 147.82"
/>
<path stroke="#3a322b" vector-effect="non-scaling-stroke" d="
  M 162.64 90.09
  C 164.91 91.15 164.73 93.75 162.66 95.06
  Q 162.05 95.44 162.76 95.58
  L 165.37 96.08
  A 0.42 0.41 -86.8 0 0 165.86 95.64
  C 163.38 63.46 140.03 38.45 108.06 33.90
  Q 104.28 33.37 101.38 33.51
  Q 100.81 33.54 100.60 34.07
  Q 98.58 39.20 98.65 44.72
  Q 98.65 45.28 99.22 45.29
  C 126.02 45.75 160.22 61.76 155.70 94.34
  A 0.57 0.57 0.0 0 0 156.27 94.99
  L 160.51 95.01
  Q 161.09 95.01 160.78 94.52
  Q 159.10 91.82 161.53 90.18
  A 1.13 1.13 0.0 0 1 162.64 90.09"
/>
<path stroke="#333333" vector-effect="non-scaling-stroke" d="
  M 51.79 109.61
  L 55.01 113.65
  Q 55.06 113.71 55.07 113.71
  L 55.34 113.56
  A 0.23 0.22 -33.0 0 0 55.42 113.22
  L 52.47 109.46"
/>
<path stroke="#5a5a59" vector-effect="non-scaling-stroke" d="
  M 52.47 109.46
  Q 41.72 91.57 52.97 73.89
  C 65.62 54.00 93.34 48.73 114.74 53.26
  C 130.28 56.56 147.25 67.84 151.25 83.99
  Q 155.34 100.44 143.55 113.66
  A 0.18 0.18 0.0 0 0 143.79 113.92
  Q 145.58 112.52 147.59 109.81
  C 165.80 85.17 147.87 59.32 123.22 50.79
  C 102.39 43.57 78.82 45.84 60.82 59.09
  C 44.15 71.36 38.67 92.31 51.79 109.61"
/>
<path stroke="#8c8d8c" vector-effect="non-scaling-stroke" d="
  M 52.47 109.46
  Q 52.06 109.46 51.79 109.61"
/>
<path stroke="#1a1a1a" vector-effect="non-scaling-stroke" d="
  M 151.0099 91.7806
  A 51.25 38.91 -0.1 0 0 99.6921 52.9601
  A 51.25 38.91 -0.1 0 0 48.5101 91.9594
  A 51.25 38.91 -0.1 0 0 99.8279 130.7799
  A 51.25 38.91 -0.1 0 0 151.0099 91.7806"
/>
<path stroke="#333333" vector-effect="non-scaling-stroke" d="
  M 34.40 122.37
  Q 35.26 122.68 34.98 121.81
  Q 26.60 95.71 37.58 70.72
  Q 37.94 69.90 37.08 70.15
  L 34.03 71.02
  Q 33.63 71.14 33.48 71.53
  Q 24.44 95.41 31.38 120.04
  Q 31.77 121.43 34.40 122.37"
/>
<path stroke="#25201c" vector-effect="non-scaling-stroke" d="
  M 30.11 73.56
  C 22.43 82.02 21.98 93.09 22.27 103.74
  Q 22.53 113.43 29.34 119.70
  A 0.47 0.47 0.0 0 0 30.11 119.23
  Q 23.67 96.53 31.13 74.16
  Q 32.04 71.44 30.11 73.56"
/>
<path stroke="#5a5a59" vector-effect="non-scaling-stroke" d="
  M 166.20 73.94
  L 163.49 72.82
  A 0.35 0.35 0.0 0 0 163.02 73.26
  C 169.08 90.86 170.28 106.57 163.61 124.22
  A 0.45 0.45 0.0 0 0 164.12 124.82
  L 165.93 124.44
  Q 166.54 124.32 166.76 123.72
  Q 174.16 103.28 169.38 81.98
  Q 168.42 77.70 166.63 74.33
  A 0.87 0.80 84.8 0 0 166.20 73.94"
/>
<path stroke="#3a322b" vector-effect="non-scaling-stroke" d="
  M 169.36 76.95
  Q 169.56 79.06 170.02 80.60
  C 174.03 93.84 172.77 109.45 168.61 122.36
  A 0.54 0.54 0.0 0 0 169.49 122.92
  C 176.42 116.47 177.85 110.40 177.70 100.90
  C 177.54 91.26 177.53 83.47 169.90 76.68
  Q 169.28 76.13 169.36 76.95"
/>
<path stroke="#524943" vector-effect="non-scaling-stroke" d="
  M 162.5343 93.9387
  A 1.54 1.32 76.7 0 0 163.4646 92.1363
  A 1.54 1.32 76.7 0 0 161.8257 90.9413
  A 1.54 1.32 76.7 0 0 160.8954 92.7437
  A 1.54 1.32 76.7 0 0 162.5343 93.9387"
/>
<path stroke="#25201c" vector-effect="non-scaling-stroke" d="
  M 94.85 154.06
  L 96.06 165.09
  A 1.06 1.05 -2.7 0 0 97.10 166.03
  C 122.17 166.33 145.27 154.12 157.27 131.94"
/>
<path stroke="#3a322b" vector-effect="non-scaling-stroke" d="
  M 157.27 131.94
  Q 166.26 116.96 165.97 98.07
  Q 165.96 97.54 165.48 97.35
  Q 161.09 95.58 156.35 95.61
  Q 155.80 95.61 155.65 96.14
  C 148.08 121.87 120.75 133.45 95.85 132.21
  Q 95.35 132.18 95.27 132.68
  Q 93.45 143.77 94.85 154.06"
/>
<path stroke="#5e5147" vector-effect="non-scaling-stroke" d="
  M 157.27 131.94
  Q 146.64 139.23 135.45 144.79"
/>
<path stroke="#3a322b" vector-effect="non-scaling-stroke" d="
  M 135.45 144.79
  C 137.54 126.29 109.17 135.54 123.00 149.60"
/>
<path stroke="#5e5147" vector-effect="non-scaling-stroke" d="
  M 123.00 149.60
  Q 109.51 154.03 94.85 154.06"
/>
<path stroke="#25201c" vector-effect="non-scaling-stroke" d="
  M 123.00 149.60
  Q 131.74 152.57 135.45 144.79"
/>
<path stroke="#3a322b" vector-effect="non-scaling-stroke" d="
  M 28.29 130.32
  C 26.25 131.64 26.17 133.41 27.68 135.27
  Q 38.44 148.54 49.18 161.81
  Q 51.43 164.59 54.28 162.81"
/>
<path stroke="#25201c" vector-effect="non-scaling-stroke" d="
  M 54.28 162.81
  Q 56.12 160.37 53.78 157.48
  Q 43.26 144.47 32.76 131.48
  C 31.58 130.02 29.91 128.94 28.29 130.32"
/>
<path stroke="#5e5147" vector-effect="non-scaling-stroke" d="
  M 54.28 162.81
  L 28.29 130.32"
/>
<path stroke="#3a322b" vector-effect="non-scaling-stroke" d="
  M 169.3057 138.5792
  A 3.17 3.17 0.0 0 0 168.8527 134.1191
  L 168.7597 134.0432
  A 3.17 3.17 0.0 0 0 164.2996 134.4963
  L 142.0143 161.8208
  A 3.17 3.17 0.0 0 0 142.4673 166.2809
  L 142.5603 166.3568
  A 3.17 3.17 0.0 0 0 147.0204 165.9037
  L 169.3057 138.5792"
/>
<path stroke="#25201c" vector-effect="non-scaling-stroke" d="
  M 42.08 138.05
  L 42.42 138.00
  A 0.22 0.21 79.3 0 0 42.60 137.73
  Q 42.32 136.72 41.56 136.31
  Q 40.95 135.98 40.87 136.67
  Q 40.65 138.50 41.91 139.56
  A 0.27 0.27 0.0 0 0 42.35 139.29
  Q 42.22 138.76 41.96 138.28
  A 0.16 0.16 0.0 0 1 42.08 138.05"
/>
<path stroke="#25201c" vector-effect="non-scaling-stroke" d="
  M 47.10 145.62
  Q 48.62 149.33 50.04 147.06"
/>
<path stroke="#8b7b6e" vector-effect="non-scaling-stroke" d="
  M 95.07 41.85
  C 69.91 42.09 46.78 56.06 40.14 81.29
  Q 39.86 82.38 40.57 81.51
  C 41.79 80.04 42.27 77.68 42.88 76.49
  C 53.08 56.64 73.15 45.21 94.86 42.67
  Q 95.03 42.65 95.12 42.50
  L 95.28 42.22
  A 0.24 0.24 0.0 0 0 95.07 41.85"
/>
<path stroke="#3a322b" vector-effect="non-scaling-stroke" d="
  M 35.50 87.11
  L 35.50 89.53
  A 0.85 0.85 0.0 0 0 36.34 90.39
  L 37.71 90.39
  A 2.00 1.99 0.2 0 0 39.72 88.41
  L 39.72 88.27
  A 2.00 1.99 0.2 0 0 37.73 86.27
  L 36.36 86.27
  A 0.85 0.85 0.0 0 0 35.50 87.11"
/>
<path stroke="#3a322b" vector-effect="non-scaling-stroke" d="
  M 107.84 37.21
  A 2.25 2.25 0.0 0 0 105.59 34.96
  A 2.25 2.25 0.0 0 0 103.34 37.21
  A 2.25 2.25 0.0 0 0 105.59 39.46
  A 2.25 2.25 0.0 0 0 107.84 37.21"
/>
<path stroke="#524943" vector-effect="non-scaling-stroke" d="
  M 107.10 37.26
  A 1.45 1.45 0.0 0 0 105.65 35.81
  A 1.45 1.45 0.0 0 0 104.20 37.26
  A 1.45 1.45 0.0 0 0 105.65 38.71
  A 1.45 1.45 0.0 0 0 107.10 37.26"
/>
<path stroke="#4c4d4c" vector-effect="non-scaling-stroke" d="
  M 93.96 126.48
  C 52.85 122.63 37.48 76.57 82.07 59.83
  C 86.40 58.20 91.17 57.62 95.78 56.64
  Q 96.50 56.49 95.76 56.49
  C 80.08 56.60 62.02 63.50 54.14 77.75
  Q 44.65 94.93 57.59 111.00
  C 66.03 121.48 81.06 126.80 94.10 127.29
  Q 94.15 127.30 94.17 127.24
  Q 94.22 127.09 94.27 126.93
  Q 94.39 126.52 93.96 126.48"
/>
<path stroke="#1a1a1a" vector-effect="non-scaling-stroke" d="
  M 81.4458 95.7492
  A 10.30 10.04 89.3 0 0 91.3593 85.3273
  A 10.30 10.04 89.3 0 0 81.1942 75.1508
  A 10.30 10.04 89.3 0 0 71.2807 85.5727
  A 10.30 10.04 89.3 0 0 81.4458 95.7492"
/>
<path stroke="#1a1a1a" vector-effect="non-scaling-stroke" d="
  M 116.8043 95.6345
  A 10.27 10.16 98.6 0 0 128.3858 86.9993
  A 10.27 10.16 98.6 0 0 119.8757 75.3255
  A 10.27 10.16 98.6 0 0 108.2942 83.9607
  A 10.27 10.16 98.6 0 0 116.8043 95.6345"
/>
<path stroke="#666666" vector-effect="non-scaling-stroke" d="
  M 90.60 85.46
  A 9.28 9.28 0.0 0 0 81.32 76.18
  A 9.28 9.28 0.0 0 0 72.04 85.46
  A 9.28 9.28 0.0 0 0 81.32 94.74
  A 9.28 9.28 0.0 0 0 90.60 85.46"
/>
<path stroke="#666666" vector-effect="non-scaling-stroke" d="
  M 127.49 85.48
  A 9.29 9.29 0.0 0 0 118.20 76.19
  A 9.29 9.29 0.0 0 0 108.91 85.48
  A 9.29 9.29 0.0 0 0 118.20 94.77
  A 9.29 9.29 0.0 0 0 127.49 85.48"
/>
<path stroke="#524943" vector-effect="non-scaling-stroke" d="
  M 38.9233 88.0853
  A 1.52 1.36 -8.5 0 0 37.2190 86.9649
  A 1.52 1.36 -8.5 0 0 35.9167 88.5347
  A 1.52 1.36 -8.5 0 0 37.6210 89.6551
  A 1.52 1.36 -8.5 0 0 38.9233 88.0853"
/>
<path stroke="#25201c" vector-effect="non-scaling-stroke" d="
  M 99.6515 164.6000
  A 2.19 2.07 89.7 0 0 101.7100 162.3992
  A 2.19 2.07 89.7 0 0 99.6285 160.2200
  A 2.19 2.07 89.7 0 0 97.5700 162.4208
  A 2.19 2.07 89.7 0 0 99.6515 164.6000"
/>
<path stroke="#524943" vector-effect="non-scaling-stroke" d="
  M 61.14 139.82
  C 61.13 141.51 60.68 143.58 62.08 145.21
  C 65.74 149.46 71.56 148.67 74.38 144.22
  C 78.02 138.48 71.47 130.85 64.91 133.77
  Q 61.16 135.44 61.14 139.82"
/>
<path stroke="#524943" vector-effect="non-scaling-stroke" d="
  M 74.22 140.58
  A 6.26 6.26 0.0 0 0 67.96 134.32
  A 6.26 6.26 0.0 0 0 61.70 140.58
  A 6.26 6.26 0.0 0 0 67.96 146.84
  A 6.26 6.26 0.0 0 0 74.22 140.58"
/>
<path stroke="#500c11" vector-effect="non-scaling-stroke" d="
  M 70.60 136.14
  C 67.28 133.90 62.21 136.58 64.45 140.79
  Q 64.67 141.21 65.12 141.33
  Q 66.75 141.78 68.35 142.22
  C 73.33 143.62 73.64 138.19 70.60 136.14"
/>
<path stroke="#3a322b" vector-effect="non-scaling-stroke" d="
  M 63.36 142.49
  A 0.10 0.10 0.0 0 0 63.20 142.60
  C 64.35 146.16 69.89 148.05 71.76 144.24
  Q 72.12 143.49 71.42 143.95
  Q 68.01 146.18 63.36 142.49"
/>
<path stroke="#524943" vector-effect="non-scaling-stroke" d="
  M 134.87 142.43
  A 7.46 7.46 0.0 0 0 127.41 134.97
  A 7.46 7.46 0.0 0 0 119.95 142.43
  A 7.46 7.46 0.0 0 0 127.41 149.89
  A 7.46 7.46 0.0 0 0 134.87 142.43"
/>
<path stroke="#524943" vector-effect="non-scaling-stroke" d="
  M 133.77 142.38
  A 6.24 6.24 0.0 0 0 127.53 136.14
  A 6.24 6.24 0.0 0 0 121.29 142.38
  A 6.24 6.24 0.0 0 0 127.53 148.62
  A 6.24 6.24 0.0 0 0 133.77 142.38"
/>
<path stroke="#500c11" vector-effect="non-scaling-stroke" d="
  M 123.17 143.33
  Q 122.60 143.02 122.32 143.66
  A 0.66 0.65 47.8 0 0 122.30 144.13
  C 123.76 148.55 129.11 149.50 131.93 145.50
  Q 132.10 145.25 131.86 145.07
  C 131.55 144.83 127.87 148.43 124.46 145.80
  A 0.17 0.17 0.0 0 1 124.59 145.50
  L 127.76 146.09
  A 0.67 0.66 -64.7 0 0 128.39 145.86
  Q 129.24 144.83 130.89 143.92
  C 134.97 141.66 129.03 134.26 124.34 138.37
  Q 122.55 139.95 123.80 142.76
  A 0.45 0.45 0.0 0 1 123.17 143.33"
/>
<path stroke="#3a322b" vector-effect="non-scaling-stroke" d="
  M 101.13 162.42
  A 1.49 1.49 0.0 0 0 99.64 160.93
  A 1.49 1.49 0.0 0 0 98.15 162.42
  A 1.49 1.49 0.0 0 0 99.64 163.91
  A 1.49 1.49 0.0 0 0 101.13 162.42"
/>
</g>
<path fill="#cccccc" d="
  M 179.31 86.95
  Q 178.87 87.09 178.79 87.40
  Q 174.98 73.68 161.99 70.20
  A 1.15 1.12 -5.8 0 1 161.27 69.63
  C 137.42 24.74 79.22 17.44 46.32 56.96
  Q 46.34 56.86 45.81 56.61
  C 46.13 56.46 46.29 55.89 46.54 55.59
  Q 60.89 38.31 82.76 32.51
  Q 86.56 31.50 97.75 30.50
  Q 101.25 30.18 103.46 30.54
  C 108.24 31.32 113.28 31.47 117.90 32.86
  Q 147.17 41.68 161.71 68.90
  Q 161.95 69.34 162.43 69.49
  Q 175.76 73.57 179.31 86.95
  Z"
/>
<path fill="#000000" d="
  M 178.79 87.40
  C 180.89 100.34 181.26 112.88 172.47 123.29
  Q 168.94 126.66 163.89 127.19
  Q 163.40 127.24 162.98 127.48
  L 162.07 128.00
  Q 160.08 130.03 160.01 132.31
  C 159.11 133.47 155.81 137.75 157.54 139.00
  A 0.87 0.86 36.6 0 0 158.74 138.83
  L 162.23 134.29
  L 165.21 132.06
  Q 169.20 131.36 171.07 134.41
  Q 171.29 134.76 171.25 135.18
  L 170.90 138.53
  Q 170.85 139.04 170.53 139.45
  L 162.34 150.05
  L 156.77 156.95
  Q 151.77 161.13 148.57 167.19
  C 144.07 172.29 137.98 167.33 140.18 161.22
  Q 144.04 157.66 146.97 153.34
  A 0.38 0.38 0.0 0 0 146.70 152.75
  Q 146.27 152.70 146.20 153.02
  Q 145.91 152.39 145.24 152.43
  L 145.99 151.91
  Q 146.36 151.66 146.79 151.66
  C 148.96 151.69 155.46 142.42 156.07 141.58
  A 1.38 1.37 56.2 0 0 156.29 140.43
  L 156.07 139.58
  Q 155.84 138.71 155.33 139.44
  Q 149.94 147.05 142.73 152.96
  Q 115.97 173.98 82.23 165.81
  C 70.03 162.86 61.94 157.18 52.63 149.16
  A 1.62 1.46 -15.2 0 0 52.00 148.84
  C 46.75 147.50 53.61 154.26 54.05 154.96
  L 57.82 161.15
  Q 53.14 169.37 47.25 162.52
  Q 41.89 156.29 25.04 135.22
  A 1.36 1.35 27.5 0 1 24.76 134.34
  L 24.90 131.15
  L 28.54 127.94
  Q 29.82 127.46 31.18 127.95
  L 35.07 131.19
  L 39.37 136.81
  A 0.51 0.51 0.0 0 0 40.27 136.41
  C 39.99 134.87 40.16 133.51 39.42 132.06
  Q 37.88 129.04 36.29 125.98
  Q 36.91 123.64 32.33 124.23
  Q 27.00 121.83 24.24 117.63
  L 20.26 107.32
  Q 19.26 101.71 20.65 97.26
  Q 19.68 81.83 28.63 72.20
  C 30.43 70.27 32.94 69.26 35.32 68.12
  L 36.90 67.56
  C 37.86 68.67 39.12 67.61 39.74 66.64
  Q 42.83 61.72 46.32 56.96
  C 79.22 17.44 137.42 24.74 161.27 69.63
  A 1.15 1.12 -5.8 0 0 161.99 70.20
  Q 174.98 73.68 178.79 87.40
  Z
  M 35.92 116.51
  C 43.03 143.89 66.55 163.39 94.66 165.67
  A 0.50 0.49 -0.9 0 0 95.20 165.12
  L 93.80 153.63
  Q 92.86 143.07 94.40 132.69
  Q 94.48 132.15 93.94 132.10
  C 71.62 130.09 43.97 115.75 43.31 89.87
  C 42.80 70.15 58.33 55.95 75.49 49.61
  C 82.29 47.09 90.07 45.96 97.52 45.38
  Q 98.03 45.34 97.98 44.83
  Q 97.43 39.06 99.91 33.92
  A 0.41 0.41 0.0 0 0 99.53 33.33
  C 65.42 34.26 37.85 58.48 33.93 92.91
  Q 33.89 93.28 34.25 93.20
  Q 38.30 92.34 42.51 92.29
  A 0.31 0.31 0.0 0 1 42.57 92.90
  C 39.55 93.55 37.23 92.78 34.14 94.45
  A 1.04 1.04 0.0 0 0 33.60 95.31
  C 33.21 103.23 33.92 110.25 35.92 116.51
  Z
  M 162.64 90.09
  C 164.91 91.15 164.73 93.75 162.66 95.06
  Q 162.05 95.44 162.76 95.58
  L 165.37 96.08
  A 0.42 0.41 -86.8 0 0 165.86 95.64
  C 163.38 63.46 140.03 38.45 108.06 33.90
  Q 104.28 33.37 101.38 33.51
  Q 100.81 33.54 100.60 34.07
  Q 98.58 39.20 98.65 44.72
  Q 98.65 45.28 99.22 45.29
  C 126.02 45.75 160.22 61.76 155.70 94.34
  A 0.57 0.57 0.0 0 0 156.27 94.99
  L 160.51 95.01
  Q 161.09 95.01 160.78 94.52
  Q 159.10 91.82 161.53 90.18
  A 1.13 1.13 0.0 0 1 162.64 90.09
  Z
  M 51.79 109.61
  L 55.01 113.65
  Q 55.06 113.71 55.07 113.71
  L 55.34 113.56
  A 0.23 0.22 -33.0 0 0 55.42 113.22
  L 52.47 109.46
  Q 41.72 91.57 52.97 73.89
  C 65.62 54.00 93.34 48.73 114.74 53.26
  C 130.28 56.56 147.25 67.84 151.25 83.99
  Q 155.34 100.44 143.55 113.66
  A 0.18 0.18 0.0 0 0 143.79 113.92
  Q 145.58 112.52 147.59 109.81
  C 165.80 85.17 147.87 59.32 123.22 50.79
  C 102.39 43.57 78.82 45.84 60.82 59.09
  C 44.15 71.36 38.67 92.31 51.79 109.61
  Z
  M 151.0099 91.7806
  A 51.25 38.91 -0.1 0 0 99.6921 52.9601
  A 51.25 38.91 -0.1 0 0 48.5101 91.9594
  A 51.25 38.91 -0.1 0 0 99.8279 130.7799
  A 51.25 38.91 -0.1 0 0 151.0099 91.7806
  Z
  M 34.40 122.37
  Q 35.26 122.68 34.98 121.81
  Q 26.60 95.71 37.58 70.72
  Q 37.94 69.90 37.08 70.15
  L 34.03 71.02
  Q 33.63 71.14 33.48 71.53
  Q 24.44 95.41 31.38 120.04
  Q 31.77 121.43 34.40 122.37
  Z
  M 30.11 73.56
  C 22.43 82.02 21.98 93.09 22.27 103.74
  Q 22.53 113.43 29.34 119.70
  A 0.47 0.47 0.0 0 0 30.11 119.23
  Q 23.67 96.53 31.13 74.16
  Q 32.04 71.44 30.11 73.56
  Z
  M 166.20 73.94
  L 163.49 72.82
  A 0.35 0.35 0.0 0 0 163.02 73.26
  C 169.08 90.86 170.28 106.57 163.61 124.22
  A 0.45 0.45 0.0 0 0 164.12 124.82
  L 165.93 124.44
  Q 166.54 124.32 166.76 123.72
  Q 174.16 103.28 169.38 81.98
  Q 168.42 77.70 166.63 74.33
  A 0.87 0.80 84.8 0 0 166.20 73.94
  Z
  M 169.36 76.95
  Q 169.56 79.06 170.02 80.60
  C 174.03 93.84 172.77 109.45 168.61 122.36
  A 0.54 0.54 0.0 0 0 169.49 122.92
  C 176.42 116.47 177.85 110.40 177.70 100.90
  C 177.54 91.26 177.53 83.47 169.90 76.68
  Q 169.28 76.13 169.36 76.95
  Z
  M 162.5343 93.9387
  A 1.54 1.32 76.7 0 0 163.4646 92.1363
  A 1.54 1.32 76.7 0 0 161.8257 90.9413
  A 1.54 1.32 76.7 0 0 160.8954 92.7437
  A 1.54 1.32 76.7 0 0 162.5343 93.9387
  Z
  M 94.85 154.06
  L 96.06 165.09
  A 1.06 1.05 -2.7 0 0 97.10 166.03
  C 122.17 166.33 145.27 154.12 157.27 131.94
  Q 166.26 116.96 165.97 98.07
  Q 165.96 97.54 165.48 97.35
  Q 161.09 95.58 156.35 95.61
  Q 155.80 95.61 155.65 96.14
  C 148.08 121.87 120.75 133.45 95.85 132.21
  Q 95.35 132.18 95.27 132.68
  Q 93.45 143.77 94.85 154.06
  Z
  M 28.29 130.32
  C 26.25 131.64 26.17 133.41 27.68 135.27
  Q 38.44 148.54 49.18 161.81
  Q 51.43 164.59 54.28 162.81
  Q 56.12 160.37 53.78 157.48
  Q 43.26 144.47 32.76 131.48
  C 31.58 130.02 29.91 128.94 28.29 130.32
  Z
  M 169.3057 138.5792
  A 3.17 3.17 0.0 0 0 168.8527 134.1191
  L 168.7597 134.0432
  A 3.17 3.17 0.0 0 0 164.2996 134.4963
  L 142.0143 161.8208
  A 3.17 3.17 0.0 0 0 142.4673 166.2809
  L 142.5603 166.3568
  A 3.17 3.17 0.0 0 0 147.0204 165.9037
  L 169.3057 138.5792
  Z
  M 42.08 138.05
  L 42.42 138.00
  A 0.22 0.21 79.3 0 0 42.60 137.73
  Q 42.32 136.72 41.56 136.31
  Q 40.95 135.98 40.87 136.67
  Q 40.65 138.50 41.91 139.56
  A 0.27 0.27 0.0 0 0 42.35 139.29
  Q 42.22 138.76 41.96 138.28
  A 0.16 0.16 0.0 0 1 42.08 138.05
  Z
  M 47.10 145.62
  Q 48.62 149.33 50.04 147.06
  L 43.55 139.72
  A 0.41 0.41 0.0 0 0 42.92 140.25
  L 47.10 145.62
  Z"
/>
<path fill="#736356" d="
  M 93.80 153.63
  C 90.58 153.49 71.92 150.95 71.97 147.82
  C 79.82 142.80 75.57 130.55 65.86 132.75
  Q 60.65 133.93 60.27 139.85
  Q 59.01 141.24 58.06 140.45
  Q 45.54 130.01 35.92 116.51
  C 33.92 110.25 33.21 103.23 33.60 95.31
  A 1.04 1.04 0.0 0 1 34.14 94.45
  C 37.23 92.78 39.55 93.55 42.57 92.90
  A 0.31 0.31 0.0 0 0 42.51 92.29
  Q 38.30 92.34 34.25 93.20
  Q 33.89 93.28 33.93 92.91
  C 37.85 58.48 65.42 34.26 99.53 33.33
  A 0.41 0.41 0.0 0 1 99.91 33.92
  Q 97.43 39.06 97.98 44.83
  Q 98.03 45.34 97.52 45.38
  C 90.07 45.96 82.29 47.09 75.49 49.61
  C 58.33 55.95 42.80 70.15 43.31 89.87
  C 43.97 115.75 71.62 130.09 93.94 132.10
  Q 94.48 132.15 94.40 132.69
  Q 92.86 143.07 93.80 153.63
  Z
  M 95.07 41.85
  C 69.91 42.09 46.78 56.06 40.14 81.29
  Q 39.86 82.38 40.57 81.51
  C 41.79 80.04 42.27 77.68 42.88 76.49
  C 53.08 56.64 73.15 45.21 94.86 42.67
  Q 95.03 42.65 95.12 42.50
  L 95.28 42.22
  A 0.24 0.24 0.0 0 0 95.07 41.85
  Z
  M 35.50 87.11
  L 35.50 89.53
  A 0.85 0.85 0.0 0 0 36.34 90.39
  L 37.71 90.39
  A 2.00 1.99 0.2 0 0 39.72 88.41
  L 39.72 88.27
  A 2.00 1.99 0.2 0 0 37.73 86.27
  L 36.36 86.27
  A 0.85 0.85 0.0 0 0 35.50 87.11
  Z"
/>
<path fill="#736356" d="
  M 161.53 90.18
  Q 159.10 91.82 160.78 94.52
  Q 161.09 95.01 160.51 95.01
  L 156.27 94.99
  A 0.57 0.57 0.0 0 1 155.70 94.34
  C 160.22 61.76 126.02 45.75 99.22 45.29
  Q 98.65 45.28 98.65 44.72
  Q 98.58 39.20 100.60 34.07
  Q 100.81 33.54 101.38 33.51
  Q 104.28 33.37 108.06 33.90
  C 140.03 38.45 163.38 63.46 165.86 95.64
  A 0.42 0.41 -86.8 0 1 165.37 96.08
  L 162.76 95.58
  Q 162.05 95.44 162.66 95.06
  C 164.73 93.75 164.91 91.15 162.64 90.09
  A 1.13 1.13 0.0 0 0 161.53 90.18
  Z
  M 107.84 37.21
  A 2.25 2.25 0.0 0 0 105.59 34.96
  A 2.25 2.25 0.0 0 0 103.34 37.21
  A 2.25 2.25 0.0 0 0 105.59 39.46
  A 2.25 2.25 0.0 0 0 107.84 37.21
  Z"
/>
<path fill="#000000" d="
  M 107.84 37.21
  A 2.25 2.25 0.0 0 1 105.59 39.46
  A 2.25 2.25 0.0 0 1 103.34 37.21
  A 2.25 2.25 0.0 0 1 105.59 34.96
  A 2.25 2.25 0.0 0 1 107.84 37.21
  Z
  M 107.10 37.26
  A 1.45 1.45 0.0 0 0 105.65 35.81
  A 1.45 1.45 0.0 0 0 104.20 37.26
  A 1.45 1.45 0.0 0 0 105.65 38.71
  A 1.45 1.45 0.0 0 0 107.10 37.26
  Z"
/>
<circle fill="#a39286" cx="105.65" cy="37.26" r="1.45"/>
<path fill="#a39286" d="
  M 40.14 81.29
  C 46.78 56.06 69.91 42.09 95.07 41.85
  A 0.24 0.24 0.0 0 1 95.28 42.22
  L 95.12 42.50
  Q 95.03 42.65 94.86 42.67
  C 73.15 45.21 53.08 56.64 42.88 76.49
  C 42.27 77.68 41.79 80.04 40.57 81.51
  Q 39.86 82.38 40.14 81.29
  Z"
/>
<path fill="#b3b3b2" d="
  M 52.47 109.46
  Q 52.06 109.46 51.79 109.61
  C 38.67 92.31 44.15 71.36 60.82 59.09
  C 78.82 45.84 102.39 43.57 123.22 50.79
  C 147.87 59.32 165.80 85.17 147.59 109.81
  Q 145.58 112.52 143.79 113.92
  A 0.18 0.18 0.0 0 1 143.55 113.66
  Q 155.34 100.44 151.25 83.99
  C 147.25 67.84 130.28 56.56 114.74 53.26
  C 93.34 48.73 65.62 54.00 52.97 73.89
  Q 41.72 91.57 52.47 109.46
  Z"
/>
<path fill="#333333" d="
  M 151.0099 91.7806
  A 51.25 38.91 -0.1 0 1 99.8279 130.7799
  A 51.25 38.91 -0.1 0 1 48.5101 91.9594
  A 51.25 38.91 -0.1 0 1 99.6921 52.9601
  A 51.25 38.91 -0.1 0 1 151.0099 91.7806
  Z
  M 93.96 126.48
  C 52.85 122.63 37.48 76.57 82.07 59.83
  C 86.40 58.20 91.17 57.62 95.78 56.64
  Q 96.50 56.49 95.76 56.49
  C 80.08 56.60 62.02 63.50 54.14 77.75
  Q 44.65 94.93 57.59 111.00
  C 66.03 121.48 81.06 126.80 94.10 127.29
  Q 94.15 127.30 94.17 127.24
  Q 94.22 127.09 94.27 126.93
  Q 94.39 126.52 93.96 126.48
  Z
  M 81.4458 95.7492
  A 10.30 10.04 89.3 0 0 91.3593 85.3273
  A 10.30 10.04 89.3 0 0 81.1942 75.1508
  A 10.30 10.04 89.3 0 0 71.2807 85.5727
  A 10.30 10.04 89.3 0 0 81.4458 95.7492
  Z
  M 116.8043 95.6345
  A 10.27 10.16 98.6 0 0 128.3858 86.9993
  A 10.27 10.16 98.6 0 0 119.8757 75.3255
  A 10.27 10.16 98.6 0 0 108.2942 83.9607
  A 10.27 10.16 98.6 0 0 116.8043 95.6345
  Z"
/>
<path fill="#656665" d="
  M 82.07 59.83
  C 37.48 76.57 52.85 122.63 93.96 126.48
  Q 94.39 126.52 94.27 126.93
  Q 94.22 127.09 94.17 127.24
  Q 94.15 127.30 94.10 127.29
  C 81.06 126.80 66.03 121.48 57.59 111.00
  Q 44.65 94.93 54.14 77.75
  C 62.02 63.50 80.08 56.60 95.76 56.49
  Q 96.50 56.49 95.78 56.64
  C 91.17 57.62 86.40 58.20 82.07 59.83
  Z"
/>
<path fill="#b3b3b2" d="
  M 45.81 56.61
  Q 46.34 56.86 46.32 56.96
  Q 42.83 61.72 39.74 66.64
  C 39.12 67.61 37.86 68.67 36.90 67.56
  C 39.78 66.79 43.76 59.21 45.81 56.61
  Z"
/>
<path fill="#a39286" d="
  M 35.32 68.12
  C 32.94 69.26 30.43 70.27 28.63 72.20
  Q 19.68 81.83 20.65 97.26
  Q 18.82 88.03 23.06 78.83
  Q 26.67 70.99 33.85 68.08
  C 34.30 67.90 34.88 67.99 35.32 68.12
  Z"
/>
<path fill="#656665" d="
  M 34.40 122.37
  Q 31.77 121.43 31.38 120.04
  Q 24.44 95.41 33.48 71.53
  Q 33.63 71.14 34.03 71.02
  L 37.08 70.15
  Q 37.94 69.90 37.58 70.72
  Q 26.60 95.71 34.98 121.81
  Q 35.26 122.68 34.40 122.37
  Z"
/>
<path fill="#493f37" d="
  M 30.11 73.56
  Q 32.04 71.44 31.13 74.16
  Q 23.67 96.53 30.11 119.23
  A 0.47 0.47 0.0 0 1 29.34 119.70
  Q 22.53 113.43 22.27 103.74
  C 21.98 93.09 22.43 82.02 30.11 73.56
  Z"
/>
<path fill="#b3b3b2" d="
  M 166.20 73.94
  A 0.87 0.80 84.8 0 1 166.63 74.33
  Q 168.42 77.70 169.38 81.98
  Q 174.16 103.28 166.76 123.72
  Q 166.54 124.32 165.93 124.44
  L 164.12 124.82
  A 0.45 0.45 0.0 0 1 163.61 124.22
  C 170.28 106.57 169.08 90.86 163.02 73.26
  A 0.35 0.35 0.0 0 1 163.49 72.82
  L 166.20 73.94
  Z"
/>
<path fill="#000000" d="
  M 81.4458 95.7492
  A 10.30 10.04 89.3 0 1 71.2807 85.5727
  A 10.30 10.04 89.3 0 1 81.1942 75.1508
  A 10.30 10.04 89.3 0 1 91.3593 85.3273
  A 10.30 10.04 89.3 0 1 81.4458 95.7492
  Z
  M 90.60 85.46
  A 9.28 9.28 0.0 0 0 81.32 76.18
  A 9.28 9.28 0.0 0 0 72.04 85.46
  A 9.28 9.28 0.0 0 0 81.32 94.74
  A 9.28 9.28 0.0 0 0 90.60 85.46
  Z"
/>
<path fill="#000000" d="
  M 116.8043 95.6345
  A 10.27 10.16 98.6 0 1 108.2942 83.9607
  A 10.27 10.16 98.6 0 1 119.8757 75.3255
  A 10.27 10.16 98.6 0 1 128.3858 86.9993
  A 10.27 10.16 98.6 0 1 116.8043 95.6345
  Z
  M 127.49 85.48
  A 9.29 9.29 0.0 0 0 118.20 76.19
  A 9.29 9.29 0.0 0 0 108.91 85.48
  A 9.29 9.29 0.0 0 0 118.20 94.77
  A 9.29 9.29 0.0 0 0 127.49 85.48
  Z"
/>
<circle fill="#cccccc" cx="81.32" cy="85.46" r="9.28"/>
<circle fill="#cccccc" cx="118.20" cy="85.48" r="9.29"/>
<path fill="#736356" d="
  M 169.90 76.68
  C 177.53 83.47 177.54 91.26 177.70 100.90
  C 177.85 110.40 176.42 116.47 169.49 122.92
  A 0.54 0.54 0.0 0 1 168.61 122.36
  C 172.77 109.45 174.03 93.84 170.02 80.60
  Q 169.56 79.06 169.36 76.95
  Q 169.28 76.13 169.90 76.68
  Z"
/>
<path fill="#000000" d="
  M 35.50 87.11
  A 0.85 0.85 0.0 0 1 36.36 86.27
  L 37.73 86.27
  A 2.00 1.99 0.2 0 1 39.72 88.27
  L 39.72 88.41
  A 2.00 1.99 0.2 0 1 37.71 90.39
  L 36.34 90.39
  A 0.85 0.85 0.0 0 1 35.50 89.53
  L 35.50 87.11
  Z
  M 38.9233 88.0853
  A 1.52 1.36 -8.5 0 0 37.2190 86.9649
  A 1.52 1.36 -8.5 0 0 35.9167 88.5347
  A 1.52 1.36 -8.5 0 0 37.6210 89.6551
  A 1.52 1.36 -8.5 0 0 38.9233 88.0853
  Z"
/>
<ellipse fill="#a39286" cx="0.00" cy="0.00" transform="translate(37.42,88.31) rotate(-8.5)" rx="1.52" ry="1.36"/>
<path fill="#656665" d="
  M 179.31 86.95
  Q 179.84 87.83 179.94 88.75
  C 181.27 100.77 182.24 114.69 172.47 123.29
  C 181.26 112.88 180.89 100.34 178.79 87.40
  Q 178.87 87.09 179.31 86.95
  Z"
/>
<ellipse fill="#a39286" cx="0.00" cy="0.00" transform="translate(162.18,92.44) rotate(76.7)" rx="1.54" ry="1.32"/>
<path fill="#736356" d="
  M 157.27 131.94
  Q 146.64 139.23 135.45 144.79
  C 137.54 126.29 109.17 135.54 123.00 149.60
  Q 109.51 154.03 94.85 154.06
  Q 93.45 143.77 95.27 132.68
  Q 95.35 132.18 95.85 132.21
  C 120.75 133.45 148.08 121.87 155.65 96.14
  Q 155.80 95.61 156.35 95.61
  Q 161.09 95.58 165.48 97.35
  Q 165.96 97.54 165.97 98.07
  Q 166.26 116.96 157.27 131.94
  Z"
/>
<path fill="#736356" d="
  M 20.26 107.32
  L 24.24 117.63
  Q 20.22 112.87 20.26 107.32
  Z"
/>
<path fill="#656665" d="
  M 51.79 109.61
  Q 52.06 109.46 52.47 109.46
  L 55.42 113.22
  A 0.23 0.22 -33.0 0 1 55.34 113.56
  L 55.07 113.71
  Q 55.06 113.71 55.01 113.65
  L 51.79 109.61
  Z"
/>
<path fill="#493f37" d="
  M 35.92 116.51
  Q 45.54 130.01 58.06 140.45
  Q 59.01 141.24 60.27 139.85
  C 60.04 148.03 65.41 149.71 71.97 147.82
  C 71.92 150.95 90.58 153.49 93.80 153.63
  L 95.20 165.12
  A 0.50 0.49 -0.9 0 1 94.66 165.67
  C 66.55 163.39 43.03 143.89 35.92 116.51
  Z"
/>
<path fill="#493f37" d="
  M 36.29 125.98
  L 32.33 124.23
  Q 36.91 123.64 36.29 125.98
  Z"
/>
<path fill="#736356" d="
  M 28.54 127.94
  L 24.90 131.15
  Q 25.55 128.28 28.54 127.94
  Z"
/>
<path fill="#656665" d="
  M 31.18 127.95
  Q 33.79 128.58 35.07 131.19
  L 31.18 127.95
  Z"
/>
<path fill="#493f37" d="
  M 162.07 128.00
  L 160.01 132.31
  Q 160.08 130.03 162.07 128.00
  Z"
/>
<path fill="#493f37" d="
  M 54.28 162.81
  L 28.29 130.32
  C 29.91 128.94 31.58 130.02 32.76 131.48
  Q 43.26 144.47 53.78 157.48
  Q 56.12 160.37 54.28 162.81
  Z"
/>
<path fill="#736356" d="
  M 28.29 130.32
  L 54.28 162.81
  Q 51.43 164.59 49.18 161.81
  Q 38.44 148.54 27.68 135.27
  C 26.17 133.41 26.25 131.64 28.29 130.32
  Z"
/>
<path fill="#656665" d="
  M 162.34 150.05
  L 170.53 139.45
  Q 170.85 139.04 170.90 138.53
  L 171.25 135.18
  Q 171.29 134.76 171.07 134.41
  Q 169.20 131.36 165.21 132.06
  L 164.93 131.79
  C 167.85 129.34 171.95 133.03 172.12 135.95
  C 172.36 139.98 165.10 147.19 162.34 150.05
  Z"
/>
<path fill="#736356" d="
  M 164.93 131.79
  L 165.21 132.06
  L 162.23 134.29
  Q 162.89 132.07 164.93 131.79
  Z"
/>
<path fill="#493f37" d="
  M 157.27 131.94
  C 145.27 154.12 122.17 166.33 97.10 166.03
  A 1.06 1.05 -2.7 0 1 96.06 165.09
  L 94.85 154.06
  Q 109.51 154.03 123.00 149.60
  Q 131.74 152.57 135.45 144.79
  Q 146.64 139.23 157.27 131.94
  Z
  M 99.6515 164.6000
  A 2.19 2.07 89.7 0 0 101.7100 162.3992
  A 2.19 2.07 89.7 0 0 99.6285 160.2200
  A 2.19 2.07 89.7 0 0 97.5700 162.4208
  A 2.19 2.07 89.7 0 0 99.6515 164.6000
  Z"
/>
<path fill="#000000" d="
  M 71.97 147.82
  C 65.41 149.71 60.04 148.03 60.27 139.85
  Q 60.65 133.93 65.86 132.75
  C 75.57 130.55 79.82 142.80 71.97 147.82
  Z
  M 61.14 139.82
  C 61.13 141.51 60.68 143.58 62.08 145.21
  C 65.74 149.46 71.56 148.67 74.38 144.22
  C 78.02 138.48 71.47 130.85 64.91 133.77
  Q 61.16 135.44 61.14 139.82
  Z"
/>
<path fill="#a39286" d="
  M 61.14 139.82
  Q 61.16 135.44 64.91 133.77
  C 71.47 130.85 78.02 138.48 74.38 144.22
  C 71.56 148.67 65.74 149.46 62.08 145.21
  C 60.68 143.58 61.13 141.51 61.14 139.82
  Z
  M 74.22 140.58
  A 6.26 6.26 0.0 0 0 67.96 134.32
  A 6.26 6.26 0.0 0 0 61.70 140.58
  A 6.26 6.26 0.0 0 0 67.96 146.84
  A 6.26 6.26 0.0 0 0 74.22 140.58
  Z"
/>
<rect fill="#736356" x="-3.23" y="-20.80" transform="translate(155.66,150.20) rotate(39.2)" width="6.46" height="41.60" rx="3.17"/>
<path fill="#000000" d="
  M 74.22 140.58
  A 6.26 6.26 0.0 0 1 67.96 146.84
  A 6.26 6.26 0.0 0 1 61.70 140.58
  A 6.26 6.26 0.0 0 1 67.96 134.32
  A 6.26 6.26 0.0 0 1 74.22 140.58
  Z
  M 70.60 136.14
  C 67.28 133.90 62.21 136.58 64.45 140.79
  Q 64.67 141.21 65.12 141.33
  Q 66.75 141.78 68.35 142.22
  C 73.33 143.62 73.64 138.19 70.60 136.14
  Z
  M 63.36 142.49
  A 0.10 0.10 0.0 0 0 63.20 142.60
  C 64.35 146.16 69.89 148.05 71.76 144.24
  Q 72.12 143.49 71.42 143.95
  Q 68.01 146.18 63.36 142.49
  Z"
/>
<path fill="#000000" d="
  M 135.45 144.79
  Q 131.74 152.57 123.00 149.60
  C 109.17 135.54 137.54 126.29 135.45 144.79
  Z
  M 134.87 142.43
  A 7.46 7.46 0.0 0 0 127.41 134.97
  A 7.46 7.46 0.0 0 0 119.95 142.43
  A 7.46 7.46 0.0 0 0 127.41 149.89
  A 7.46 7.46 0.0 0 0 134.87 142.43
  Z"
/>
<path fill="#a39286" d="
  M 134.87 142.43
  A 7.46 7.46 0.0 0 1 127.41 149.89
  A 7.46 7.46 0.0 0 1 119.95 142.43
  A 7.46 7.46 0.0 0 1 127.41 134.97
  A 7.46 7.46 0.0 0 1 134.87 142.43
  Z
  M 133.77 142.38
  A 6.24 6.24 0.0 0 0 127.53 136.14
  A 6.24 6.24 0.0 0 0 121.29 142.38
  A 6.24 6.24 0.0 0 0 127.53 148.62
  A 6.24 6.24 0.0 0 0 133.77 142.38
  Z"
/>
<path fill="#a01821" d="
  M 70.60 136.14
  C 73.64 138.19 73.33 143.62 68.35 142.22
  Q 66.75 141.78 65.12 141.33
  Q 64.67 141.21 64.45 140.79
  C 62.21 136.58 67.28 133.90 70.60 136.14
  Z"
/>
<path fill="#000000" d="
  M 133.77 142.38
  A 6.24 6.24 0.0 0 1 127.53 148.62
  A 6.24 6.24 0.0 0 1 121.29 142.38
  A 6.24 6.24 0.0 0 1 127.53 136.14
  A 6.24 6.24 0.0 0 1 133.77 142.38
  Z
  M 123.17 143.33
  Q 122.60 143.02 122.32 143.66
  A 0.66 0.65 47.8 0 0 122.30 144.13
  C 123.76 148.55 129.11 149.50 131.93 145.50
  Q 132.10 145.25 131.86 145.07
  C 131.55 144.83 127.87 148.43 124.46 145.80
  A 0.17 0.17 0.0 0 1 124.59 145.50
  L 127.76 146.09
  A 0.67 0.66 -64.7 0 0 128.39 145.86
  Q 129.24 144.83 130.89 143.92
  C 134.97 141.66 129.03 134.26 124.34 138.37
  Q 122.55 139.95 123.80 142.76
  A 0.45 0.45 0.0 0 1 123.17 143.33
  Z"
/>
<path fill="#493f37" d="
  M 41.96 138.28
  Q 42.22 138.76 42.35 139.29
  A 0.27 0.27 0.0 0 1 41.91 139.56
  Q 40.65 138.50 40.87 136.67
  Q 40.95 135.98 41.56 136.31
  Q 42.32 136.72 42.60 137.73
  A 0.22 0.21 79.3 0 1 42.42 138.00
  L 42.08 138.05
  A 0.16 0.16 0.0 0 0 41.96 138.28
  Z"
/>
<path fill="#a01821" d="
  M 123.17 143.33
  A 0.45 0.45 0.0 0 0 123.80 142.76
  Q 122.55 139.95 124.34 138.37
  C 129.03 134.26 134.97 141.66 130.89 143.92
  Q 129.24 144.83 128.39 145.86
  A 0.67 0.66 -64.7 0 1 127.76 146.09
  L 124.59 145.50
  A 0.17 0.17 0.0 0 0 124.46 145.80
  C 127.87 148.43 131.55 144.83 131.86 145.07
  Q 132.10 145.25 131.93 145.50
  C 129.11 149.50 123.76 148.55 122.30 144.13
  A 0.66 0.65 47.8 0 1 122.32 143.66
  Q 122.60 143.02 123.17 143.33
  Z"
/>
<path fill="#656665" d="
  M 145.24 152.43
  L 142.73 152.96
  Q 149.94 147.05 155.33 139.44
  Q 155.84 138.71 156.07 139.58
  L 156.29 140.43
  A 1.38 1.37 56.2 0 1 156.07 141.58
  C 155.46 142.42 148.96 151.69 146.79 151.66
  Q 146.36 151.66 145.99 151.91
  L 145.24 152.43
  Z"
/>
<path fill="#736356" d="
  M 63.36 142.49
  Q 68.01 146.18 71.42 143.95
  Q 72.12 143.49 71.76 144.24
  C 69.89 148.05 64.35 146.16 63.20 142.60
  A 0.10 0.10 0.0 0 1 63.36 142.49
  Z"
/>
<path fill="#493f37" d="
  M 47.10 145.62
  Q 47.88 146.46 50.04 147.06
  Q 48.62 149.33 47.10 145.62
  Z"
/>
<path fill="#493f37" d="
  M 140.18 161.22
  C 141.47 159.00 146.05 155.00 146.20 153.02
  Q 146.27 152.70 146.70 152.75
  A 0.38 0.38 0.0 0 1 146.97 153.34
  Q 144.04 157.66 140.18 161.22
  Z"
/>
<path fill="#333333" d="
  M 54.05 154.96
  Q 57.55 157.43 57.82 161.15
  L 54.05 154.96
  Z"
/>
<path fill="#736356" d="
  M 156.77 156.95
  L 148.57 167.19
  Q 151.77 161.13 156.77 156.95
  Z"
/>
<path fill="#000000" d="
  M 99.6515 164.6000
  A 2.19 2.07 89.7 0 1 97.5700 162.4208
  A 2.19 2.07 89.7 0 1 99.6285 160.2200
  A 2.19 2.07 89.7 0 1 101.7100 162.3992
  A 2.19 2.07 89.7 0 1 99.6515 164.6000
  Z
  M 101.13 162.42
  A 1.49 1.49 0.0 0 0 99.64 160.93
  A 1.49 1.49 0.0 0 0 98.15 162.42
  A 1.49 1.49 0.0 0 0 99.64 163.91
  A 1.49 1.49 0.0 0 0 101.13 162.42
  Z"
/>
<circle fill="#736356" cx="99.64" cy="162.42" r="1.49"/>
</svg>
