<?xml version="1.0" encoding="UTF-8" standalone="no"?>
<!DOCTYPE svg PUBLIC "-//W3C//DTD SVG 1.1//EN" "http://www.w3.org/Graphics/SVG/1.1/DTD/svg11.dtd">
<svg xmlns="http://www.w3.org/2000/svg" version="1.1" viewBox="0.00 0.00 285.00 269.00">
<g stroke-width="2.00" fill="none" stroke-linecap="butt">
<path stroke="#666666" vector-effect="non-scaling-stroke" d="
  M 134.65 45.10
  C 89.14 45.72 50.47 79.57 45.85 125.83
  Q 45.79 126.40 46.33 126.19
  Q 51.92 123.95 57.95 124.57
  A 0.53 0.52 -88.2 0 0 58.53 124.02
  C 56.54 83.88 97.02 62.36 131.71 61.42
  Q 132.22 61.40 132.23 60.89
  Q 132.25 52.96 134.92 45.49
  Q 135.06 45.10 134.65 45.10"
/>
<path stroke="#666666" vector-effect="non-scaling-stroke" d="
  M 224.10 129.88
  C 220.75 82.68 184.06 46.73 136.63 45.19
  A 0.75 0.75 0.0 0 0 135.89 45.70
  Q 133.38 52.95 133.16 60.63
  Q 133.14 61.21 133.72 61.23
  C 156.90 61.81 176.71 67.57 194.17 83.04
  Q 213.51 100.17 210.75 127.38
  Q 210.69 127.97 211.28 127.98
  Q 217.63 128.12 223.62 130.25
  Q 224.14 130.43 224.10 129.88"
/>
<path stroke="#414141" vector-effect="non-scaling-stroke" d="
  M 196.23 151.34
  L 192.53 155.48
  A 0.17 0.17 0.0 0 0 192.76 155.73
  Q 194.96 154.08 196.38 151.83"
/>
<path stroke="#5a5a5a" vector-effect="non-scaling-stroke" d="
  M 196.38 151.83
  Q 210.99 135.93 209.25 115.89
  C 207.27 92.92 187.51 76.02 167.08 68.66
  C 137.17 57.89 101.26 62.37 77.21 83.69
  Q 67.80 92.03 63.27 103.65
  C 54.88 125.19 63.99 144.28 79.86 159.08
  Q 79.89 159.11 79.93 159.09
  Q 80.06 159.03 80.16 158.92
  Q 80.32 158.73 80.14 158.57
  C 67.29 147.25 61.02 130.64 65.15 113.86
  C 71.43 88.44 98.42 73.31 123.00 70.52
  C 149.90 67.47 182.18 75.36 197.69 98.78
  C 208.78 115.52 208.46 134.88 196.23 151.34"
/>
<path stroke="#9b9b9b" vector-effect="non-scaling-stroke" d="
  M 196.38 151.83
  L 196.23 151.34"
/>
<path stroke="#1a1a1a" vector-effect="non-scaling-stroke" d="
  M 204.13 124.04
  A 69.34 52.67 0.0 0 0 134.79 71.37
  A 69.34 52.67 0.0 0 0 65.45 124.04
  A 69.34 52.67 0.0 0 0 134.79 176.71
  A 69.34 52.67 0.0 0 0 204.13 124.04"
/>
<path stroke="#333333" vector-effect="non-scaling-stroke" d="
  M 44.63 98.54
  C 36.18 118.56 36.70 142.95 43.13 163.50
  Q 43.29 164.02 43.80 164.21
  L 46.91 165.38
  Q 47.57 165.62 47.35 164.96
  Q 35.55 129.28 51.00 95.23
  Q 51.20 94.77 50.71 94.78
  C 47.71 94.83 45.88 95.57 44.63 98.54"
/>
<path stroke="#414141" vector-effect="non-scaling-stroke" d="
  M 39.30 161.46
  Q 41.37 163.66 40.55 160.76
  C 34.87 140.71 35.30 118.35 42.75 98.48
  Q 42.98 97.85 42.45 98.26
  C 35.06 103.89 32.00 112.68 31.06 122.00
  C 29.52 137.22 27.85 149.31 39.30 161.46"
/>
<path stroke="#5a5a5a" vector-effect="non-scaling-stroke" d="
  M 225.95 101.56
  C 225.30 99.76 222.20 98.71 220.45 98.37
  Q 219.96 98.27 220.15 98.73
  Q 234.05 133.31 221.03 168.24
  Q 220.88 168.65 221.31 168.69
  Q 224.89 169.03 225.98 165.77
  C 232.84 145.21 233.48 122.17 225.95 101.56"
/>
<path stroke="#666666" vector-effect="non-scaling-stroke" d="
  M 228.99 102.57
  Q 228.06 101.64 228.44 102.90
  Q 237.93 134.44 227.74 165.76
  A 0.39 0.39 0.0 0 0 228.36 166.18
  Q 238.79 157.38 239.78 144.23
  C 240.89 129.39 241.22 114.70 228.99 102.57"
/>
<path stroke="#414141" vector-effect="non-scaling-stroke" d="
  M 48.37 157.58
  C 59.15 195.00 89.73 220.33 128.30 223.81
  A 0.66 0.65 88.6 0 0 129.01 223.06
  L 126.89 207.59"
/>
<path stroke="#666666" vector-effect="non-scaling-stroke" d="
  M 126.89 207.59
  Q 125.51 192.83 127.55 179.03
  A 0.79 0.78 -83.9 0 0 126.83 178.13
  C 96.84 176.11 64.60 158.40 58.79 126.17
  A 0.67 0.66 88.2 0 0 58.22 125.63
  Q 52.09 124.87 46.52 127.37
  Q 46.03 127.59 45.93 128.12
  C 44.24 137.32 46.16 148.54 48.37 157.58"
/>
<path stroke="#a7a7a7" vector-effect="non-scaling-stroke" d="
  M 126.89 207.59
  Q 110.63 206.74 96.06 200.11"
/>
<path stroke="#666666" vector-effect="non-scaling-stroke" d="
  M 96.06 200.11
  C 107.68 194.22 103.03 177.08 89.86 179.23
  Q 81.86 180.53 80.69 189.99"
/>
<path stroke="#a7a7a7" vector-effect="non-scaling-stroke" d="
  M 80.69 189.99
  Q 80.85 190.31 80.81 190.41
  A 0.68 0.68 0.0 0 1 79.77 190.68
  Q 61.84 176.96 49.57 157.93
  Q 49.24 157.42 48.37 157.58"
/>
<path stroke="#414141" vector-effect="non-scaling-stroke" d="
  M 80.69 189.99
  Q 82.94 203.09 96.06 200.11"
/>
<path stroke="#414141" vector-effect="non-scaling-stroke" d="
  M 127.93 207.86
  L 130.14 223.37
  Q 130.21 223.88 130.73 223.90
  C 165.29 225.48 195.75 207.43 212.88 177.91"
/>
<path stroke="#666666" vector-effect="non-scaling-stroke" d="
  M 212.88 177.91
  Q 224.74 156.79 224.04 132.17
  Q 224.02 131.58 223.47 131.36
  Q 217.40 129.05 210.88 128.96
  Q 210.36 128.95 210.24 129.46
  C 201.50 164.48 161.94 180.33 129.12 178.58
  Q 128.62 178.56 128.55 179.05
  Q 126.27 193.86 127.93 207.86"
/>
<path stroke="#a7a7a7" vector-effect="non-scaling-stroke" d="
  M 212.88 177.91
  Q 198.54 187.78 183.03 195.50"
/>
<path stroke="#666666" vector-effect="non-scaling-stroke" d="
  M 183.03 195.50
  Q 184.32 186.64 178.14 183.06
  C 165.87 175.95 154.45 192.35 166.46 201.88"
/>
<path stroke="#a7a7a7" vector-effect="non-scaling-stroke" d="
  M 166.46 201.88
  Q 147.73 208.23 127.93 207.86"
/>
<path stroke="#414141" vector-effect="non-scaling-stroke" d="
  M 166.46 201.88
  Q 177.80 206.51 183.03 195.50"
/>
<path stroke="#666666" vector-effect="non-scaling-stroke" d="
  M 38.03 176.12
  Q 34.42 178.98 36.93 182.06
  Q 51.84 200.39 66.77 218.66
  C 68.43 220.69 70.43 221.61 72.71 220.05"
/>
<path stroke="#414141" vector-effect="non-scaling-stroke" d="
  M 72.71 220.05
  Q 76.42 217.22 73.10 213.12
  Q 58.88 195.51 44.55 177.97
  C 42.72 175.74 40.64 174.32 38.03 176.12"
/>
<path stroke="#a7a7a7" vector-effect="non-scaling-stroke" d="
  M 72.71 220.05
  L 38.03 176.12"
/>
<path stroke="#666666" vector-effect="non-scaling-stroke" d="
  M 228.8069 186.9685
  A 4.02 4.02 0.0 0 0 228.2324 181.3124
  L 227.8759 181.0217
  A 4.02 4.02 0.0 0 0 222.2199 181.5962
  L 191.9331 218.7315
  A 4.02 4.02 0.0 0 0 192.5076 224.3876
  L 192.8641 224.6783
  A 4.02 4.02 0.0 0 0 198.5201 224.1038
  L 228.8069 186.9685"
/>
<path stroke="#333333" vector-effect="non-scaling-stroke" d="
  M 65.44 199.31
  Q 66.46 200.42 68.58 199.83
  Q 69.05 199.70 68.70 199.35
  Q 61.48 191.97 56.08 183.16
  Q 55.82 182.74 55.59 183.18
  Q 54.27 185.64 55.90 187.82
  Q 60.37 193.84 65.44 199.31"
/>
<path stroke="#333333" vector-effect="non-scaling-stroke" d="
  M 210.22 188.18
  Q 203.93 196.88 195.92 204.04
  Q 195.34 204.55 196.10 204.69
  C 198.20 205.08 199.83 204.88 201.36 203.14
  Q 206.49 197.24 211.11 191.00
  Q 211.41 190.60 211.42 190.10
  Q 211.44 188.92 210.91 188.18
  Q 210.56 187.70 210.22 188.18"
/>
<path stroke="#e1e1e1" vector-effect="non-scaling-stroke" d="
  M 111.26 58.28
  C 83.09 63.30 61.70 82.74 53.97 110.66
  Q 53.83 111.13 54.30 110.99
  Q 54.52 110.92 54.62 110.65
  C 66.04 79.37 99.28 60.43 130.92 57.26
  Q 131.32 57.22 131.26 56.81
  Q 131.20 56.40 130.46 56.27
  Q 130.01 56.19 129.55 56.22
  Q 119.66 56.79 111.26 58.28"
/>
<path stroke="#666666" vector-effect="non-scaling-stroke" d="
  M 53.65 119.19
  A 3.04 3.04 0.0 0 0 50.61 116.15
  A 3.04 3.04 0.0 0 0 47.57 119.19
  A 3.04 3.04 0.0 0 0 50.61 122.23
  A 3.04 3.04 0.0 0 0 53.65 119.19"
/>
<path stroke="#666666" vector-effect="non-scaling-stroke" d="
  M 145.86 50.29
  A 3.04 3.04 0.0 0 0 142.82 47.25
  A 3.04 3.04 0.0 0 0 139.78 50.29
  A 3.04 3.04 0.0 0 0 142.82 53.33
  A 3.04 3.04 0.0 0 0 145.86 50.29"
/>
<path stroke="#666666" vector-effect="non-scaling-stroke" d="
  M 222.18 124.92
  A 3.07 3.07 0.0 0 0 219.11 121.85
  A 3.07 3.07 0.0 0 0 216.04 124.92
  A 3.07 3.07 0.0 0 0 219.11 127.99
  A 3.07 3.07 0.0 0 0 222.18 124.92"
/>
<path stroke="#5a5a5a" vector-effect="non-scaling-stroke" d="
  M 144.83 50.31
  A 2.02 2.02 0.0 0 0 142.81 48.29
  A 2.02 2.02 0.0 0 0 140.79 50.31
  A 2.02 2.02 0.0 0 0 142.81 52.33
  A 2.02 2.02 0.0 0 0 144.83 50.31"
/>
<path stroke="#4d4d4d" vector-effect="non-scaling-stroke" d="
  M 129.89 171.47
  Q 109.12 169.23 93.63 158.36
  C 75.83 145.88 68.23 124.70 79.50 104.83
  C 89.67 86.89 112.52 77.47 132.77 76.67
  A 0.15 0.14 -44.0 0 0 132.78 76.38
  Q 108.78 75.39 88.90 88.43
  C 73.72 98.39 64.29 115.13 68.96 133.23
  C 75.64 159.05 105.66 172.02 129.88 171.73
  A 0.13 0.13 0.0 0 0 129.89 171.47"
/>
<path stroke="#1a1a1a" vector-effect="non-scaling-stroke" d="
  M 123.61 115.43
  A 13.73 13.73 0.0 0 0 109.88 101.70
  A 13.73 13.73 0.0 0 0 96.15 115.43
  A 13.73 13.73 0.0 0 0 109.88 129.16
  A 13.73 13.73 0.0 0 0 123.61 115.43"
/>
<path stroke="#1a1a1a" vector-effect="non-scaling-stroke" d="
  M 173.54 115.39
  A 13.73 13.73 0.0 0 0 159.81 101.66
  A 13.73 13.73 0.0 0 0 146.08 115.39
  A 13.73 13.73 0.0 0 0 159.81 129.12
  A 13.73 13.73 0.0 0 0 173.54 115.39"
/>
<path stroke="#008080" vector-effect="non-scaling-stroke" d="
  M 122.49 115.39
  A 12.64 12.64 0.0 0 0 109.85 102.75
  A 12.64 12.64 0.0 0 0 97.21 115.39
  A 12.64 12.64 0.0 0 0 109.85 128.03
  A 12.64 12.64 0.0 0 0 122.49 115.39"
/>
<path stroke="#008080" vector-effect="non-scaling-stroke" d="
  M 172.37 115.40
  A 12.65 12.65 0.0 0 0 159.72 102.75
  A 12.65 12.65 0.0 0 0 147.07 115.40
  A 12.65 12.65 0.0 0 0 159.72 128.05
  A 12.65 12.65 0.0 0 0 172.37 115.40"
/>
<path stroke="#5a5a5a" vector-effect="non-scaling-stroke" d="
  M 52.59 119.16
  A 2.00 2.00 0.0 0 0 50.59 117.16
  A 2.00 2.00 0.0 0 0 48.59 119.16
  A 2.00 2.00 0.0 0 0 50.59 121.16
  A 2.00 2.00 0.0 0 0 52.59 119.16"
/>
<path stroke="#5a5a5a" vector-effect="non-scaling-stroke" d="
  M 221.13 124.95
  A 2.00 2.00 0.0 0 0 219.13 122.95
  A 2.00 2.00 0.0 0 0 217.13 124.95
  A 2.00 2.00 0.0 0 0 219.13 126.95
  A 2.00 2.00 0.0 0 0 221.13 124.95"
/>
<path stroke="#414141" vector-effect="non-scaling-stroke" d="
  M 137.81 219.42
  A 3.03 3.03 0.0 0 0 134.78 216.39
  A 3.03 3.03 0.0 0 0 131.75 219.42
  A 3.03 3.03 0.0 0 0 134.78 222.45
  A 3.03 3.03 0.0 0 0 137.81 219.42"
/>
<path stroke="#5a5a5a" vector-effect="non-scaling-stroke" d="
  M 101.72 189.89
  A 9.91 9.91 0.0 0 0 91.81 179.98
  A 9.91 9.91 0.0 0 0 81.90 189.89
  A 9.91 9.91 0.0 0 0 91.81 199.80
  A 9.91 9.91 0.0 0 0 101.72 189.89"
/>
<path stroke="#5a5a5a" vector-effect="non-scaling-stroke" d="
  M 99.9367 188.5640
  A 7.55 7.55 0.0 0 0 92.0772 181.3368
  L 90.6185 181.3979
  A 7.55 7.55 0.0 0 0 83.3912 189.2575
  L 83.4633 190.9760
  A 7.55 7.55 0.0 0 0 91.3228 198.2032
  L 92.7815 198.1421
  A 7.55 7.55 0.0 0 0 100.0088 190.2825
  L 99.9367 188.5640"
/>
<path stroke="#003101" vector-effect="non-scaling-stroke" d="
  M 86.37 187.58
  Q 84.69 193.81 90.89 194.89
  Q 95.71 195.72 96.94 190.71"
/>
<path stroke="#008000" vector-effect="non-scaling-stroke" d="
  M 96.94 190.71
  C 99.89 187.34 96.65 183.70 93.12 182.84
  Q 87.12 181.38 86.37 187.58"
/>
<path stroke="#00b101" vector-effect="non-scaling-stroke" d="
  M 96.94 190.71
  Q 90.63 193.99 86.37 187.58"
/>
<path stroke="#333333" vector-effect="non-scaling-stroke" d="
  M 96.90 194.26
  Q 89.20 198.79 84.79 191.25
  A 1.11 1.07 43.0 0 1 84.74 190.24
  Q 85.08 189.50 84.91 188.68
  Q 84.78 188.11 84.61 188.67
  C 81.99 197.29 96.96 201.09 98.91 191.63
  Q 99.16 190.40 98.48 191.46
  Q 97.89 192.38 97.57 193.43
  Q 97.40 193.97 96.90 194.26"
/>
<path stroke="#5a5a5a" vector-effect="non-scaling-stroke" d="
  M 182.14 192.36
  A 9.92 9.92 0.0 0 0 172.22 182.44
  A 9.92 9.92 0.0 0 0 162.30 192.36
  A 9.92 9.92 0.0 0 0 172.22 202.28
  A 9.92 9.92 0.0 0 0 182.14 192.36"
/>
<path stroke="#5a5a5a" vector-effect="non-scaling-stroke" d="
  M 180.5915 190.4820
  A 7.59 7.59 0.0 0 0 172.2261 183.7561
  L 170.6951 183.9224
  A 7.59 7.59 0.0 0 0 163.9693 192.2877
  L 164.1485 193.9380
  A 7.59 7.59 0.0 0 0 172.5139 200.6639
  L 174.0449 200.4976
  A 7.59 7.59 0.0 0 0 180.7707 192.1323
  L 180.5915 190.4820"
/>
<path stroke="#003101" vector-effect="non-scaling-stroke" d="
  M 166.54 188.91
  C 164.51 197.20 174.81 201.35 177.87 193.09"
/>
<path stroke="#008000" vector-effect="non-scaling-stroke" d="
  M 177.87 193.09
  Q 179.75 185.34 172.01 185.19
  C 169.32 185.13 167.43 186.48 166.54 188.91"
/>
<path stroke="#00b101" vector-effect="non-scaling-stroke" d="
  M 177.87 193.09
  Q 170.17 196.51 166.54 188.91"
/>
<path stroke="#333333" vector-effect="non-scaling-stroke" d="
  M 179.21 193.13
  C 176.98 199.40 168.12 200.47 165.73 193.91
  Q 165.53 193.36 165.32 193.91
  C 163.44 198.75 177.66 204.27 179.72 193.39
  C 179.77 193.15 179.77 193.08 179.53 192.98
  Q 179.30 192.88 179.21 193.13"
/>
<path stroke="#333333" vector-effect="non-scaling-stroke" d="
  M 136.84 219.37
  A 2.02 2.02 0.0 0 0 134.82 217.35
  A 2.02 2.02 0.0 0 0 132.80 219.37
  A 2.02 2.02 0.0 0 0 134.82 221.39
  A 2.02 2.02 0.0 0 0 136.84 219.37"
/>
</g>
<path fill="#000000" d="
  M 198.03 206.62
  L 193.98 205.98
  A 0.97 0.94 29.4 0 0 193.22 206.18
  C 156.69 235.51 106.12 233.79 71.63 202.08
  Q 71.27 201.75 70.78 201.75
  L 67.77 201.75
  A 0.39 0.39 0.0 0 0 67.48 202.39
  C 70.29 205.64 76.68 212.05 77.19 216.13
  C 77.78 220.79 72.02 224.88 67.82 222.75
  Q 66.26 221.95 63.64 218.75
  Q 49.91 201.94 36.25 185.08
  Q 34.05 182.35 33.71 180.36
  C 32.94 175.69 38.18 171.54 42.44 173.18
  C 46.03 174.57 50.05 180.79 52.68 184.04
  A 0.54 0.54 0.0 0 0 53.63 183.81
  L 54.19 181.15
  A 1.61 1.57 -52.6 0 0 54.07 180.14
  L 48.84 169.18
  Q 48.63 168.76 48.17 168.68
  C 32.42 166.13 25.79 148.93 26.90 134.69
  C 27.92 121.64 27.81 112.62 33.83 102.88
  Q 40.29 92.46 52.55 91.35
  A 0.96 0.95 -77.3 0 0 53.30 90.87
  C 90.17 24.24 183.95 26.42 218.15 94.42
  Q 218.37 94.86 218.86 94.94
  Q 227.55 96.47 233.20 102.55
  C 244.03 114.20 243.20 126.97 243.17 141.75
  C 243.15 156.04 234.88 170.16 219.71 172.23
  Q 219.22 172.29 219.01 172.75
  Q 216.11 179.04 212.50 184.97
  Q 211.63 186.39 212.95 188.27
  Q 213.26 188.71 213.60 188.29
  C 216.15 185.19 219.95 179.26 223.35 178.06
  C 230.31 175.60 234.55 183.87 230.20 189.19
  Q 215.18 207.56 200.21 225.96
  C 196.83 230.12 190.18 227.64 188.81 222.93
  C 187.43 218.20 195.27 210.91 198.21 207.06
  Q 198.50 206.69 198.03 206.62
  Z
  M 134.65 45.10
  C 89.14 45.72 50.47 79.57 45.85 125.83
  Q 45.79 126.40 46.33 126.19
  Q 51.92 123.95 57.95 124.57
  A 0.53 0.52 -88.2 0 0 58.53 124.02
  C 56.54 83.88 97.02 62.36 131.71 61.42
  Q 132.22 61.40 132.23 60.89
  Q 132.25 52.96 134.92 45.49
  Q 135.06 45.10 134.65 45.10
  Z
  M 224.10 129.88
  C 220.75 82.68 184.06 46.73 136.63 45.19
  A 0.75 0.75 0.0 0 0 135.89 45.70
  Q 133.38 52.95 133.16 60.63
  Q 133.14 61.21 133.72 61.23
  C 156.90 61.81 176.71 67.57 194.17 83.04
  Q 213.51 100.17 210.75 127.38
  Q 210.69 127.97 211.28 127.98
  Q 217.63 128.12 223.62 130.25
  Q 224.14 130.43 224.10 129.88
  Z
  M 196.23 151.34
  L 192.53 155.48
  A 0.17 0.17 0.0 0 0 192.76 155.73
  Q 194.96 154.08 196.38 151.83
  Q 210.99 135.93 209.25 115.89
  C 207.27 92.92 187.51 76.02 167.08 68.66
  C 137.17 57.89 101.26 62.37 77.21 83.69
  Q 67.80 92.03 63.27 103.65
  C 54.88 125.19 63.99 144.28 79.86 159.08
  Q 79.89 159.11 79.93 159.09
  Q 80.06 159.03 80.16 158.92
  Q 80.32 158.73 80.14 158.57
  C 67.29 147.25 61.02 130.64 65.15 113.86
  C 71.43 88.44 98.42 73.31 123.00 70.52
  C 149.90 67.47 182.18 75.36 197.69 98.78
  C 208.78 115.52 208.46 134.88 196.23 151.34
  Z
  M 204.13 124.04
  A 69.34 52.67 0.0 0 0 134.79 71.37
  A 69.34 52.67 0.0 0 0 65.45 124.04
  A 69.34 52.67 0.0 0 0 134.79 176.71
  A 69.34 52.67 0.0 0 0 204.13 124.04
  Z
  M 44.63 98.54
  C 36.18 118.56 36.70 142.95 43.13 163.50
  Q 43.29 164.02 43.80 164.21
  L 46.91 165.38
  Q 47.57 165.62 47.35 164.96
  Q 35.55 129.28 51.00 95.23
  Q 51.20 94.77 50.71 94.78
  C 47.71 94.83 45.88 95.57 44.63 98.54
  Z
  M 39.30 161.46
  Q 41.37 163.66 40.55 160.76
  C 34.87 140.71 35.30 118.35 42.75 98.48
  Q 42.98 97.85 42.45 98.26
  C 35.06 103.89 32.00 112.68 31.06 122.00
  C 29.52 137.22 27.85 149.31 39.30 161.46
  Z
  M 225.95 101.56
  C 225.30 99.76 222.20 98.71 220.45 98.37
  Q 219.96 98.27 220.15 98.73
  Q 234.05 133.31 221.03 168.24
  Q 220.88 168.65 221.31 168.69
  Q 224.89 169.03 225.98 165.77
  C 232.84 145.21 233.48 122.17 225.95 101.56
  Z
  M 228.99 102.57
  Q 228.06 101.64 228.44 102.90
  Q 237.93 134.44 227.74 165.76
  A 0.39 0.39 0.0 0 0 228.36 166.18
  Q 238.79 157.38 239.78 144.23
  C 240.89 129.39 241.22 114.70 228.99 102.57
  Z
  M 48.37 157.58
  C 59.15 195.00 89.73 220.33 128.30 223.81
  A 0.66 0.65 88.6 0 0 129.01 223.06
  L 126.89 207.59
  Q 125.51 192.83 127.55 179.03
  A 0.79 0.78 -83.9 0 0 126.83 178.13
  C 96.84 176.11 64.60 158.40 58.79 126.17
  A 0.67 0.66 88.2 0 0 58.22 125.63
  Q 52.09 124.87 46.52 127.37
  Q 46.03 127.59 45.93 128.12
  C 44.24 137.32 46.16 148.54 48.37 157.58
  Z
  M 127.93 207.86
  L 130.14 223.37
  Q 130.21 223.88 130.73 223.90
  C 165.29 225.48 195.75 207.43 212.88 177.91
  Q 224.74 156.79 224.04 132.17
  Q 224.02 131.58 223.47 131.36
  Q 217.40 129.05 210.88 128.96
  Q 210.36 128.95 210.24 129.46
  C 201.50 164.48 161.94 180.33 129.12 178.58
  Q 128.62 178.56 128.55 179.05
  Q 126.27 193.86 127.93 207.86
  Z
  M 38.03 176.12
  Q 34.42 178.98 36.93 182.06
  Q 51.84 200.39 66.77 218.66
  C 68.43 220.69 70.43 221.61 72.71 220.05
  Q 76.42 217.22 73.10 213.12
  Q 58.88 195.51 44.55 177.97
  C 42.72 175.74 40.64 174.32 38.03 176.12
  Z
  M 228.8069 186.9685
  A 4.02 4.02 0.0 0 0 228.2324 181.3124
  L 227.8759 181.0217
  A 4.02 4.02 0.0 0 0 222.2199 181.5962
  L 191.9331 218.7315
  A 4.02 4.02 0.0 0 0 192.5076 224.3876
  L 192.8641 224.6783
  A 4.02 4.02 0.0 0 0 198.5201 224.1038
  L 228.8069 186.9685
  Z
  M 65.44 199.31
  Q 66.46 200.42 68.58 199.83
  Q 69.05 199.70 68.70 199.35
  Q 61.48 191.97 56.08 183.16
  Q 55.82 182.74 55.59 183.18
  Q 54.27 185.64 55.90 187.82
  Q 60.37 193.84 65.44 199.31
  Z
  M 210.22 188.18
  Q 203.93 196.88 195.92 204.04
  Q 195.34 204.55 196.10 204.69
  C 198.20 205.08 199.83 204.88 201.36 203.14
  Q 206.49 197.24 211.11 191.00
  Q 211.41 190.60 211.42 190.10
  Q 211.44 188.92 210.91 188.18
  Q 210.56 187.70 210.22 188.18
  Z"
/>
<path fill="#cccccc" d="
  M 134.65 45.10
  Q 135.06 45.10 134.92 45.49
  Q 132.25 52.96 132.23 60.89
  Q 132.22 61.40 131.71 61.42
  C 97.02 62.36 56.54 83.88 58.53 124.02
  A 0.53 0.52 -88.2 0 1 57.95 124.57
  Q 51.92 123.95 46.33 126.19
  Q 45.79 126.40 45.85 125.83
  C 50.47 79.57 89.14 45.72 134.65 45.10
  Z
  M 111.26 58.28
  C 83.09 63.30 61.70 82.74 53.97 110.66
  Q 53.83 111.13 54.30 110.99
  Q 54.52 110.92 54.62 110.65
  C 66.04 79.37 99.28 60.43 130.92 57.26
  Q 131.32 57.22 131.26 56.81
  Q 131.20 56.40 130.46 56.27
  Q 130.01 56.19 129.55 56.22
  Q 119.66 56.79 111.26 58.28
  Z
  M 53.65 119.19
  A 3.04 3.04 0.0 0 0 50.61 116.15
  A 3.04 3.04 0.0 0 0 47.57 119.19
  A 3.04 3.04 0.0 0 0 50.61 122.23
  A 3.04 3.04 0.0 0 0 53.65 119.19
  Z"
/>
<path fill="#cccccc" d="
  M 136.63 45.19
  C 184.06 46.73 220.75 82.68 224.10 129.88
  Q 224.14 130.43 223.62 130.25
  Q 217.63 128.12 211.28 127.98
  Q 210.69 127.97 210.75 127.38
  Q 213.51 100.17 194.17 83.04
  C 176.71 67.57 156.90 61.81 133.72 61.23
  Q 133.14 61.21 133.16 60.63
  Q 133.38 52.95 135.89 45.70
  A 0.75 0.75 0.0 0 1 136.63 45.19
  Z
  M 145.86 50.29
  A 3.04 3.04 0.0 0 0 142.82 47.25
  A 3.04 3.04 0.0 0 0 139.78 50.29
  A 3.04 3.04 0.0 0 0 142.82 53.33
  A 3.04 3.04 0.0 0 0 145.86 50.29
  Z
  M 222.18 124.92
  A 3.07 3.07 0.0 0 0 219.11 121.85
  A 3.07 3.07 0.0 0 0 216.04 124.92
  A 3.07 3.07 0.0 0 0 219.11 127.99
  A 3.07 3.07 0.0 0 0 222.18 124.92
  Z"
/>
<path fill="#000000" d="
  M 145.86 50.29
  A 3.04 3.04 0.0 0 1 142.82 53.33
  A 3.04 3.04 0.0 0 1 139.78 50.29
  A 3.04 3.04 0.0 0 1 142.82 47.25
  A 3.04 3.04 0.0 0 1 145.86 50.29
  Z
  M 144.83 50.31
  A 2.02 2.02 0.0 0 0 142.81 48.29
  A 2.02 2.02 0.0 0 0 140.79 50.31
  A 2.02 2.02 0.0 0 0 142.81 52.33
  A 2.02 2.02 0.0 0 0 144.83 50.31
  Z"
/>
<circle fill="#b3b3b3" cx="142.81" cy="50.31" r="2.02"/>
<path fill="#f5f5f5" d="
  M 53.97 110.66
  C 61.70 82.74 83.09 63.30 111.26 58.28
  Q 119.66 56.79 129.55 56.22
  Q 130.01 56.19 130.46 56.27
  Q 131.20 56.40 131.26 56.81
  Q 131.32 57.22 130.92 57.26
  C 99.28 60.43 66.04 79.37 54.62 110.65
  Q 54.52 110.92 54.30 110.99
  Q 53.83 111.13 53.97 110.66
  Z"
/>
<path fill="#b3b3b3" d="
  M 196.38 151.83
  L 196.23 151.34
  C 208.46 134.88 208.78 115.52 197.69 98.78
  C 182.18 75.36 149.90 67.47 123.00 70.52
  C 98.42 73.31 71.43 88.44 65.15 113.86
  C 61.02 130.64 67.29 147.25 80.14 158.57
  Q 80.32 158.73 80.16 158.92
  Q 80.06 159.03 79.93 159.09
  Q 79.89 159.11 79.86 159.08
  C 63.99 144.28 54.88 125.19 63.27 103.65
  Q 67.80 92.03 77.21 83.69
  C 101.26 62.37 137.17 57.89 167.08 68.66
  C 187.51 76.02 207.27 92.92 209.25 115.89
  Q 210.99 135.93 196.38 151.83
  Z"
/>
<path fill="#333333" d="
  M 204.13 124.04
  A 69.34 52.67 0.0 0 1 134.79 176.71
  A 69.34 52.67 0.0 0 1 65.45 124.04
  A 69.34 52.67 0.0 0 1 134.79 71.37
  A 69.34 52.67 0.0 0 1 204.13 124.04
  Z
  M 129.89 171.47
  Q 109.12 169.23 93.63 158.36
  C 75.83 145.88 68.23 124.70 79.50 104.83
  C 89.67 86.89 112.52 77.47 132.77 76.67
  A 0.15 0.14 -44.0 0 0 132.78 76.38
  Q 108.78 75.39 88.90 88.43
  C 73.72 98.39 64.29 115.13 68.96 133.23
  C 75.64 159.05 105.66 172.02 129.88 171.73
  A 0.13 0.13 0.0 0 0 129.89 171.47
  Z
  M 123.61 115.43
  A 13.73 13.73 0.0 0 0 109.88 101.70
  A 13.73 13.73 0.0 0 0 96.15 115.43
  A 13.73 13.73 0.0 0 0 109.88 129.16
  A 13.73 13.73 0.0 0 0 123.61 115.43
  Z
  M 173.54 115.39
  A 13.73 13.73 0.0 0 0 159.81 101.66
  A 13.73 13.73 0.0 0 0 146.08 115.39
  A 13.73 13.73 0.0 0 0 159.81 129.12
  A 13.73 13.73 0.0 0 0 173.54 115.39
  Z"
/>
<path fill="#666666" d="
  M 129.89 171.47
  A 0.13 0.13 0.0 0 1 129.88 171.73
  C 105.66 172.02 75.64 159.05 68.96 133.23
  C 64.29 115.13 73.72 98.39 88.90 88.43
  Q 108.78 75.39 132.78 76.38
  A 0.15 0.14 -44.0 0 1 132.77 76.67
  C 112.52 77.47 89.67 86.89 79.50 104.83
  C 68.23 124.70 75.83 145.88 93.63 158.36
  Q 109.12 169.23 129.89 171.47
  Z"
/>
<path fill="#666666" d="
  M 44.63 98.54
  C 45.88 95.57 47.71 94.83 50.71 94.78
  Q 51.20 94.77 51.00 95.23
  Q 35.55 129.28 47.35 164.96
  Q 47.57 165.62 46.91 165.38
  L 43.80 164.21
  Q 43.29 164.02 43.13 163.50
  C 36.70 142.95 36.18 118.56 44.63 98.54
  Z"
/>
<path fill="#828282" d="
  M 39.30 161.46
  C 27.85 149.31 29.52 137.22 31.06 122.00
  C 32.00 112.68 35.06 103.89 42.45 98.26
  Q 42.98 97.85 42.75 98.48
  C 35.30 118.35 34.87 140.71 40.55 160.76
  Q 41.37 163.66 39.30 161.46
  Z"
/>
<path fill="#b3b3b3" d="
  M 220.45 98.37
  C 222.20 98.71 225.30 99.76 225.95 101.56
  C 233.48 122.17 232.84 145.21 225.98 165.77
  Q 224.89 169.03 221.31 168.69
  Q 220.88 168.65 221.03 168.24
  Q 234.05 133.31 220.15 98.73
  Q 219.96 98.27 220.45 98.37
  Z"
/>
<path fill="#000000" d="
  M 123.61 115.43
  A 13.73 13.73 0.0 0 1 109.88 129.16
  A 13.73 13.73 0.0 0 1 96.15 115.43
  A 13.73 13.73 0.0 0 1 109.88 101.70
  A 13.73 13.73 0.0 0 1 123.61 115.43
  Z
  M 122.49 115.39
  A 12.64 12.64 0.0 0 0 109.85 102.75
  A 12.64 12.64 0.0 0 0 97.21 115.39
  A 12.64 12.64 0.0 0 0 109.85 128.03
  A 12.64 12.64 0.0 0 0 122.49 115.39
  Z"
/>
<path fill="#000000" d="
  M 173.54 115.39
  A 13.73 13.73 0.0 0 1 159.81 129.12
  A 13.73 13.73 0.0 0 1 146.08 115.39
  A 13.73 13.73 0.0 0 1 159.81 101.66
  A 13.73 13.73 0.0 0 1 173.54 115.39
  Z
  M 172.37 115.40
  A 12.65 12.65 0.0 0 0 159.72 102.75
  A 12.65 12.65 0.0 0 0 147.07 115.40
  A 12.65 12.65 0.0 0 0 159.72 128.05
  A 12.65 12.65 0.0 0 0 172.37 115.40
  Z"
/>
<path fill="#cccccc" d="
  M 228.99 102.57
  C 241.22 114.70 240.89 129.39 239.78 144.23
  Q 238.79 157.38 228.36 166.18
  A 0.39 0.39 0.0 0 1 227.74 165.76
  Q 237.93 134.44 228.44 102.90
  Q 228.06 101.64 228.99 102.57
  Z"
/>
<circle fill="#00ffff" cx="109.85" cy="115.39" r="12.64"/>
<circle fill="#00ffff" cx="159.72" cy="115.40" r="12.65"/>
<path fill="#000000" d="
  M 53.65 119.19
  A 3.04 3.04 0.0 0 1 50.61 122.23
  A 3.04 3.04 0.0 0 1 47.57 119.19
  A 3.04 3.04 0.0 0 1 50.61 116.15
  A 3.04 3.04 0.0 0 1 53.65 119.19
  Z
  M 52.59 119.16
  A 2.00 2.00 0.0 0 0 50.59 117.16
  A 2.00 2.00 0.0 0 0 48.59 119.16
  A 2.00 2.00 0.0 0 0 50.59 121.16
  A 2.00 2.00 0.0 0 0 52.59 119.16
  Z"
/>
<circle fill="#b3b3b3" cx="50.59" cy="119.16" r="2.00"/>
<path fill="#000000" d="
  M 222.18 124.92
  A 3.07 3.07 0.0 0 1 219.11 127.99
  A 3.07 3.07 0.0 0 1 216.04 124.92
  A 3.07 3.07 0.0 0 1 219.11 121.85
  A 3.07 3.07 0.0 0 1 222.18 124.92
  Z
  M 221.13 124.95
  A 2.00 2.00 0.0 0 0 219.13 122.95
  A 2.00 2.00 0.0 0 0 217.13 124.95
  A 2.00 2.00 0.0 0 0 219.13 126.95
  A 2.00 2.00 0.0 0 0 221.13 124.95
  Z"
/>
<circle fill="#b3b3b3" cx="219.13" cy="124.95" r="2.00"/>
<path fill="#cccccc" d="
  M 126.89 207.59
  Q 110.63 206.74 96.06 200.11
  C 107.68 194.22 103.03 177.08 89.86 179.23
  Q 81.86 180.53 80.69 189.99
  Q 80.85 190.31 80.81 190.41
  A 0.68 0.68 0.0 0 1 79.77 190.68
  Q 61.84 176.96 49.57 157.93
  Q 49.24 157.42 48.37 157.58
  C 46.16 148.54 44.24 137.32 45.93 128.12
  Q 46.03 127.59 46.52 127.37
  Q 52.09 124.87 58.22 125.63
  A 0.67 0.66 88.2 0 1 58.79 126.17
  C 64.60 158.40 96.84 176.11 126.83 178.13
  A 0.79 0.78 -83.9 0 1 127.55 179.03
  Q 125.51 192.83 126.89 207.59
  Z"
/>
<path fill="#cccccc" d="
  M 212.88 177.91
  Q 198.54 187.78 183.03 195.50
  Q 184.32 186.64 178.14 183.06
  C 165.87 175.95 154.45 192.35 166.46 201.88
  Q 147.73 208.23 127.93 207.86
  Q 126.27 193.86 128.55 179.05
  Q 128.62 178.56 129.12 178.58
  C 161.94 180.33 201.50 164.48 210.24 129.46
  Q 210.36 128.95 210.88 128.96
  Q 217.40 129.05 223.47 131.36
  Q 224.02 131.58 224.04 132.17
  Q 224.74 156.79 212.88 177.91
  Z"
/>
<path fill="#828282" d="
  M 196.23 151.34
  L 196.38 151.83
  Q 194.96 154.08 192.76 155.73
  A 0.17 0.17 0.0 0 1 192.53 155.48
  L 196.23 151.34
  Z"
/>
<path fill="#828282" d="
  M 48.37 157.58
  Q 49.24 157.42 49.57 157.93
  Q 61.84 176.96 79.77 190.68
  A 0.68 0.68 0.0 0 0 80.81 190.41
  Q 80.85 190.31 80.69 189.99
  Q 82.94 203.09 96.06 200.11
  Q 110.63 206.74 126.89 207.59
  L 129.01 223.06
  A 0.66 0.65 88.6 0 1 128.30 223.81
  C 89.73 220.33 59.15 195.00 48.37 157.58
  Z"
/>
<path fill="#828282" d="
  M 72.71 220.05
  L 38.03 176.12
  C 40.64 174.32 42.72 175.74 44.55 177.97
  Q 58.88 195.51 73.10 213.12
  Q 76.42 217.22 72.71 220.05
  Z"
/>
<path fill="#cccccc" d="
  M 38.03 176.12
  L 72.71 220.05
  C 70.43 221.61 68.43 220.69 66.77 218.66
  Q 51.84 200.39 36.93 182.06
  Q 34.42 178.98 38.03 176.12
  Z"
/>
<path fill="#828282" d="
  M 212.88 177.91
  C 195.75 207.43 165.29 225.48 130.73 223.90
  Q 130.21 223.88 130.14 223.37
  L 127.93 207.86
  Q 147.73 208.23 166.46 201.88
  Q 177.80 206.51 183.03 195.50
  Q 198.54 187.78 212.88 177.91
  Z
  M 137.81 219.42
  A 3.03 3.03 0.0 0 0 134.78 216.39
  A 3.03 3.03 0.0 0 0 131.75 219.42
  A 3.03 3.03 0.0 0 0 134.78 222.45
  A 3.03 3.03 0.0 0 0 137.81 219.42
  Z"
/>
<path fill="#000000" d="
  M 96.06 200.11
  Q 82.94 203.09 80.69 189.99
  Q 81.86 180.53 89.86 179.23
  C 103.03 177.08 107.68 194.22 96.06 200.11
  Z
  M 101.72 189.89
  A 9.91 9.91 0.0 0 0 91.81 179.98
  A 9.91 9.91 0.0 0 0 81.90 189.89
  A 9.91 9.91 0.0 0 0 91.81 199.80
  A 9.91 9.91 0.0 0 0 101.72 189.89
  Z"
/>
<path fill="#b3b3b3" d="
  M 101.72 189.89
  A 9.91 9.91 0.0 0 1 91.81 199.80
  A 9.91 9.91 0.0 0 1 81.90 189.89
  A 9.91 9.91 0.0 0 1 91.81 179.98
  A 9.91 9.91 0.0 0 1 101.72 189.89
  Z
  M 99.9367 188.5640
  A 7.55 7.55 0.0 0 0 92.0772 181.3368
  L 90.6185 181.3979
  A 7.55 7.55 0.0 0 0 83.3912 189.2575
  L 83.4633 190.9760
  A 7.55 7.55 0.0 0 0 91.3228 198.2032
  L 92.7815 198.1421
  A 7.55 7.55 0.0 0 0 100.0088 190.2825
  L 99.9367 188.5640
  Z"
/>
<rect fill="#cccccc" x="-4.25" y="-27.98" transform="translate(210.37,202.85) rotate(39.2)" width="8.50" height="55.96" rx="4.02"/>
<path fill="#000000" d="
  M 100.0088 190.2825
  A 7.55 7.55 0.0 0 1 92.7815 198.1421
  L 91.3228 198.2032
  A 7.55 7.55 0.0 0 1 83.4633 190.9760
  L 83.3912 189.2575
  A 7.55 7.55 0.0 0 1 90.6185 181.3979
  L 92.0772 181.3368
  A 7.55 7.55 0.0 0 1 99.9367 188.5640
  L 100.0088 190.2825
  Z
  M 86.37 187.58
  Q 84.69 193.81 90.89 194.89
  Q 95.71 195.72 96.94 190.71
  C 99.89 187.34 96.65 183.70 93.12 182.84
  Q 87.12 181.38 86.37 187.58
  Z
  M 96.90 194.26
  Q 89.20 198.79 84.79 191.25
  A 1.11 1.07 43.0 0 1 84.74 190.24
  Q 85.08 189.50 84.91 188.68
  Q 84.78 188.11 84.61 188.67
  C 81.99 197.29 96.96 201.09 98.91 191.63
  Q 99.16 190.40 98.48 191.46
  Q 97.89 192.38 97.57 193.43
  Q 97.40 193.97 96.90 194.26
  Z"
/>
<path fill="#000000" d="
  M 183.03 195.50
  Q 177.80 206.51 166.46 201.88
  C 154.45 192.35 165.87 175.95 178.14 183.06
  Q 184.32 186.64 183.03 195.50
  Z
  M 182.14 192.36
  A 9.92 9.92 0.0 0 0 172.22 182.44
  A 9.92 9.92 0.0 0 0 162.30 192.36
  A 9.92 9.92 0.0 0 0 172.22 202.28
  A 9.92 9.92 0.0 0 0 182.14 192.36
  Z"
/>
<path fill="#00ff00" d="
  M 96.94 190.71
  Q 90.63 193.99 86.37 187.58
  Q 87.12 181.38 93.12 182.84
  C 96.65 183.70 99.89 187.34 96.94 190.71
  Z"
/>
<path fill="#b3b3b3" d="
  M 182.14 192.36
  A 9.92 9.92 0.0 0 1 172.22 202.28
  A 9.92 9.92 0.0 0 1 162.30 192.36
  A 9.92 9.92 0.0 0 1 172.22 182.44
  A 9.92 9.92 0.0 0 1 182.14 192.36
  Z
  M 180.5915 190.4820
  A 7.59 7.59 0.0 0 0 172.2261 183.7561
  L 170.6951 183.9224
  A 7.59 7.59 0.0 0 0 163.9693 192.2877
  L 164.1485 193.9380
  A 7.59 7.59 0.0 0 0 172.5139 200.6639
  L 174.0449 200.4976
  A 7.59 7.59 0.0 0 0 180.7707 192.1323
  L 180.5915 190.4820
  Z"
/>
<path fill="#666666" d="
  M 65.44 199.31
  Q 60.37 193.84 55.90 187.82
  Q 54.27 185.64 55.59 183.18
  Q 55.82 182.74 56.08 183.16
  Q 61.48 191.97 68.70 199.35
  Q 69.05 199.70 68.58 199.83
  Q 66.46 200.42 65.44 199.31
  Z"
/>
<path fill="#000000" d="
  M 180.7707 192.1323
  A 7.59 7.59 0.0 0 1 174.0449 200.4976
  L 172.5139 200.6639
  A 7.59 7.59 0.0 0 1 164.1485 193.9380
  L 163.9693 192.2877
  A 7.59 7.59 0.0 0 1 170.6951 183.9224
  L 172.2261 183.7561
  A 7.59 7.59 0.0 0 1 180.5915 190.4820
  L 180.7707 192.1323
  Z
  M 166.54 188.91
  C 164.51 197.20 174.81 201.35 177.87 193.09
  Q 179.75 185.34 172.01 185.19
  C 169.32 185.13 167.43 186.48 166.54 188.91
  Z
  M 179.21 193.13
  C 176.98 199.40 168.12 200.47 165.73 193.91
  Q 165.53 193.36 165.32 193.91
  C 163.44 198.75 177.66 204.27 179.72 193.39
  C 179.77 193.15 179.77 193.08 179.53 192.98
  Q 179.30 192.88 179.21 193.13
  Z"
/>
<path fill="#00ff00" d="
  M 177.87 193.09
  Q 170.17 196.51 166.54 188.91
  C 167.43 186.48 169.32 185.13 172.01 185.19
  Q 179.75 185.34 177.87 193.09
  Z"
/>
<path fill="#666666" d="
  M 210.91 188.18
  Q 211.44 188.92 211.42 190.10
  Q 211.41 190.60 211.11 191.00
  Q 206.49 197.24 201.36 203.14
  C 199.83 204.88 198.20 205.08 196.10 204.69
  Q 195.34 204.55 195.92 204.04
  Q 203.93 196.88 210.22 188.18
  Q 210.56 187.70 210.91 188.18
  Z"
/>
<path fill="#006201" d="
  M 86.37 187.58
  Q 90.63 193.99 96.94 190.71
  Q 95.71 195.72 90.89 194.89
  Q 84.69 193.81 86.37 187.58
  Z"
/>
<path fill="#666666" d="
  M 97.57 193.43
  Q 97.89 192.38 98.48 191.46
  Q 99.16 190.40 98.91 191.63
  C 96.96 201.09 81.99 197.29 84.61 188.67
  Q 84.78 188.11 84.91 188.68
  Q 85.08 189.50 84.74 190.24
  A 1.11 1.07 43.0 0 0 84.79 191.25
  Q 89.20 198.79 96.90 194.26
  Q 97.40 193.97 97.57 193.43
  Z"
/>
<path fill="#006201" d="
  M 166.54 188.91
  Q 170.17 196.51 177.87 193.09
  C 174.81 201.35 164.51 197.20 166.54 188.91
  Z"
/>
<path fill="#666666" d="
  M 165.73 193.91
  C 168.12 200.47 176.98 199.40 179.21 193.13
  Q 179.30 192.88 179.53 192.98
  C 179.77 193.08 179.77 193.15 179.72 193.39
  C 177.66 204.27 163.44 198.75 165.32 193.91
  Q 165.53 193.36 165.73 193.91
  Z"
/>
<path fill="#000000" d="
  M 137.81 219.42
  A 3.03 3.03 0.0 0 1 134.78 222.45
  A 3.03 3.03 0.0 0 1 131.75 219.42
  A 3.03 3.03 0.0 0 1 134.78 216.39
  A 3.03 3.03 0.0 0 1 137.81 219.42
  Z
  M 136.84 219.37
  A 2.02 2.02 0.0 0 0 134.82 217.35
  A 2.02 2.02 0.0 0 0 132.80 219.37
  A 2.02 2.02 0.0 0 0 134.82 221.39
  A 2.02 2.02 0.0 0 0 136.84 219.37
  Z"
/>
<circle fill="#666666" cx="134.82" cy="219.37" r="2.02"/>
</svg>
