<?xml version="1.0" encoding="UTF-8" standalone="no"?>
<!DOCTYPE svg PUBLIC "-//W3C//DTD SVG 1.1//EN" "http://www.w3.org/Graphics/SVG/1.1/DTD/svg11.dtd">
<svg xmlns="http://www.w3.org/2000/svg" version="1.1" viewBox="0.00 0.00 280.00 264.00">
<g stroke-width="2.00" fill="none" stroke-linecap="butt">
<path stroke="#36777a" vector-effect="non-scaling-stroke" d="
  M 201.60 82.37
  C 181.18 39.60 132.97 21.17 88.60 37.22
  Q 88.13 37.40 88.16 37.90
  Q 88.65 45.81 91.44 53.23
  Q 91.57 53.58 91.91 53.44
  C 125.77 39.04 176.58 42.92 188.37 85.15
  Q 188.52 85.71 189.07 85.51
  Q 194.97 83.45 201.22 83.03
  Q 201.90 82.98 201.60 82.37"
/>
<path stroke="#36777a" vector-effect="non-scaling-stroke" d="
  M 86.63 38.23
  C 43.58 56.05 23.05 101.84 35.02 146.32
  Q 35.22 147.08 35.79 146.54
  Q 40.13 142.35 45.89 140.61
  Q 46.45 140.44 46.20 139.91
  C 29.39 103.52 58.29 68.37 90.13 54.17
  Q 90.64 53.95 90.43 53.43
  Q 87.59 46.28 87.21 38.60
  Q 87.18 38.00 86.63 38.23"
/>
<path stroke="#333333" vector-effect="non-scaling-stroke" d="
  M 69.75 159.77
  Q 72.90 161.70 76.24 162.74
  A 0.19 0.19 0.0 0 0 76.38 162.39
  L 69.98 159.30"
/>
<path stroke="#5a5a5a" vector-effect="non-scaling-stroke" d="
  M 69.98 159.30
  C 56.50 151.32 48.10 137.34 47.99 121.80
  C 47.84 101.51 61.45 82.40 77.70 70.96
  Q 103.62 52.73 134.05 54.20
  C 168.52 55.87 194.13 80.87 182.75 116.99
  A 0.09 0.09 0.0 0 0 182.92 117.06
  Q 190.38 100.94 186.52 84.99
  C 179.89 57.64 149.30 45.42 123.51 47.54
  Q 88.60 50.41 64.13 73.85
  C 37.92 98.95 32.11 140.69 69.75 159.77"
/>
<path stroke="#8d8d8d" vector-effect="non-scaling-stroke" d="
  M 69.98 159.30
  Q 70.07 159.73 69.75 159.77"
/>
<path stroke="#5a5a5a" vector-effect="non-scaling-stroke" d="
  M 194.26 57.03
  C 192.13 54.40 189.89 53.94 186.66 54.68
  A 0.40 0.40 0.0 0 0 186.46 55.35
  Q 212.27 81.94 213.41 119.37
  Q 213.43 120.06 213.97 119.64
  L 216.80 117.42
  Q 217.21 117.10 217.18 116.59
  Q 215.21 82.98 194.26 57.03"
/>
<path stroke="#1a1a1a" vector-effect="non-scaling-stroke" d="
  M 180.9145 84.7216
  A 69.20 52.61 -22.3 0 0 96.9268 62.3047
  A 69.20 52.61 -22.3 0 0 52.8655 137.2384
  A 69.20 52.61 -22.3 0 0 136.8532 159.6553
  A 69.20 52.61 -22.3 0 0 180.9145 84.7216"
/>
<path stroke="#36777a" vector-effect="non-scaling-stroke" d="
  M 215.03 73.46
  C 211.31 65.01 204.50 58.26 195.73 55.52
  A 0.20 0.20 0.0 0 0 195.51 55.83
  Q 215.66 80.63 218.55 112.73
  Q 218.86 116.17 220.31 113.04
  C 227.29 97.92 221.12 87.28 215.03 73.46"
/>
<path stroke="#224c4e" vector-effect="non-scaling-stroke" d="
  M 142.30 191.03
  Q 146.00 198.34 150.27 204.59
  Q 150.56 205.02 151.04 204.85
  C 183.97 193.33 204.94 164.62 209.79 130.65"
/>
<path stroke="#36777a" vector-effect="non-scaling-stroke" d="
  M 209.79 130.65
  Q 212.34 106.84 202.81 85.07
  A 1.82 1.80 75.8 0 0 201.00 83.98
  Q 194.92 84.49 189.20 86.58
  Q 188.68 86.77 188.76 87.32
  C 193.96 123.23 163.34 152.72 132.24 163.22
  Q 131.75 163.38 131.88 163.89
  Q 135.49 178.43 142.30 191.03"
/>
<path stroke="#58c3c8" vector-effect="non-scaling-stroke" d="
  M 209.79 130.65
  C 207.82 133.70 190.53 159.49 188.09 157.62"
/>
<path stroke="#36777a" vector-effect="non-scaling-stroke" d="
  M 188.09 157.62
  C 184.21 141.91 161.19 149.87 167.52 164.75
  Q 169.46 169.33 175.80 170.93"
/>
<path stroke="#58c3c8" vector-effect="non-scaling-stroke" d="
  M 175.80 170.93
  Q 160.70 183.94 142.30 191.03"
/>
<path stroke="#224c4e" vector-effect="non-scaling-stroke" d="
  M 175.80 170.93
  C 183.26 171.57 190.04 165.25 188.09 157.62"
/>
<path stroke="#333333" vector-effect="non-scaling-stroke" d="
  M 28.09 115.90
  A 0.20 0.20 0.0 0 0 27.78 115.74
  L 24.17 118.39
  Q 23.73 118.72 23.72 119.27
  C 23.31 142.16 32.77 164.99 47.16 182.45
  A 0.97 0.96 67.9 0 0 47.98 182.80
  L 51.15 182.57
  Q 51.77 182.53 51.36 182.05
  Q 28.01 154.78 28.09 115.90"
/>
<path stroke="#224c4e" vector-effect="non-scaling-stroke" d="
  M 21.31 122.13
  C 14.69 136.09 19.40 146.73 24.29 161.47
  Q 29.40 176.86 44.01 182.24
  A 0.27 0.26 -7.6 0 0 44.32 181.84
  C 30.96 163.32 23.10 145.30 21.86 122.23
  A 0.29 0.29 0.0 0 0 21.31 122.13"
/>
<path stroke="#36777a" vector-effect="non-scaling-stroke" d="
  M 227.7629 133.6138
  A 4.24 4.24 0.0 0 0 224.9386 128.3243
  L 224.8047 128.2836
  A 4.24 4.24 0.0 0 0 219.5152 131.1079
  L 205.6371 176.7862
  A 4.24 4.24 0.0 0 0 208.4614 182.0757
  L 208.5953 182.1164
  A 4.24 4.24 0.0 0 0 213.8848 179.2921
  L 227.7629 133.6138"
/>
<path stroke="#333333" vector-effect="non-scaling-stroke" d="
  M 211.08 141.19
  Q 208.63 151.93 203.73 161.79
  Q 203.42 162.40 204.10 162.27
  C 206.32 161.84 207.78 161.08 208.54 158.71
  Q 210.88 151.42 212.99 144.04
  Q 213.12 143.58 212.87 143.18
  L 211.59 141.10
  A 0.28 0.28 0.0 0 0 211.08 141.19"
/>
<path stroke="#224c4e" vector-effect="non-scaling-stroke" d="
  M 49.21 173.94
  C 72.50 204.92 111.94 217.74 148.88 205.60
  Q 149.40 205.43 149.12 204.95
  L 141.14 191.28"
/>
<path stroke="#36777a" vector-effect="non-scaling-stroke" d="
  M 141.14 191.28
  Q 134.50 178.13 130.91 164.38
  A 0.60 0.60 0.0 0 0 130.15 163.96
  C 101.65 173.13 64.70 169.65 47.35 141.84
  Q 47.04 141.34 46.48 141.51
  Q 40.52 143.32 36.15 147.69
  Q 35.78 148.07 35.94 148.57
  Q 40.67 163.01 49.21 173.94"
/>
<path stroke="#58c3c8" vector-effect="non-scaling-stroke" d="
  M 141.14 191.28
  Q 126.01 196.71 109.81 196.08"
/>
<path stroke="#36777a" vector-effect="non-scaling-stroke" d="
  M 109.81 196.08
  C 119.52 184.32 104.32 170.62 94.20 180.54
  Q 89.33 185.31 92.26 193.75"
/>
<path stroke="#58c3c8" vector-effect="non-scaling-stroke" d="
  M 92.26 193.75
  Q 69.68 187.64 49.21 173.94"
/>
<path stroke="#224c4e" vector-effect="non-scaling-stroke" d="
  M 92.26 193.75
  Q 94.87 197.28 98.50 198.50
  Q 104.76 200.60 109.81 196.08"
/>
<path stroke="#36777a" vector-effect="non-scaling-stroke" d="
  M 47.02 195.83
  Q 44.80 199.92 48.71 202.04
  Q 69.60 213.38 90.50 224.75
  Q 93.80 226.55 95.93 223.33"
/>
<path stroke="#224c4e" vector-effect="non-scaling-stroke" d="
  M 95.93 223.33
  C 97.69 220.41 96.48 218.27 93.66 216.72
  Q 73.51 205.67 53.27 194.76
  C 50.82 193.44 48.61 193.47 47.02 195.83"
/>
<path stroke="#58c3c8" vector-effect="non-scaling-stroke" d="
  M 95.93 223.33
  L 47.02 195.83"
/>
<path stroke="#333333" vector-effect="non-scaling-stroke" d="
  M 84.67 205.77
  Q 75.03 201.79 66.64 195.59
  Q 66.02 195.13 66.03 195.90
  C 66.05 197.86 66.59 199.19 68.46 200.21
  Q 74.38 203.42 80.32 206.63
  C 81.96 207.52 83.26 207.14 84.71 206.22
  A 0.26 0.25 40.1 0 0 84.67 205.77"
/>
<path stroke="#36777a" vector-effect="non-scaling-stroke" d="
  M 99.36 39.71
  A 3.03 3.03 0.0 0 0 96.33 36.68
  A 3.03 3.03 0.0 0 0 93.30 39.71
  A 3.03 3.03 0.0 0 0 96.33 42.74
  A 3.03 3.03 0.0 0 0 99.36 39.71"
/>
<path stroke="#36777a" vector-effect="non-scaling-stroke" d="
  M 198.30 79.78
  A 3.05 3.05 0.0 0 0 195.25 76.73
  A 3.05 3.05 0.0 0 0 192.20 79.78
  A 3.05 3.05 0.0 0 0 195.25 82.83
  A 3.05 3.05 0.0 0 0 198.30 79.78"
/>
<path stroke="#5a5a5a" vector-effect="non-scaling-stroke" d="
  M 98.30 39.68
  A 1.97 1.97 0.0 0 0 96.33 37.71
  A 1.97 1.97 0.0 0 0 94.36 39.68
  A 1.97 1.97 0.0 0 0 96.33 41.65
  A 1.97 1.97 0.0 0 0 98.30 39.68"
/>
<path stroke="#36777a" vector-effect="non-scaling-stroke" d="
  M 40.20 138.37
  A 3.07 3.07 0.0 0 0 37.13 135.30
  A 3.07 3.07 0.0 0 0 34.06 138.37
  A 3.07 3.07 0.0 0 0 37.13 141.44
  A 3.07 3.07 0.0 0 0 40.20 138.37"
/>
<path stroke="#1a1a1a" vector-effect="non-scaling-stroke" d="
  M 159.70 78.13
  A 16.05 16.05 0.0 0 0 143.65 62.08
  A 16.05 16.05 0.0 0 0 127.60 78.13
  A 16.05 16.05 0.0 0 0 143.65 94.18
  A 16.05 16.05 0.0 0 0 159.70 78.13"
/>
<path stroke="#4d4d4d" vector-effect="non-scaling-stroke" d="
  M 133.11 155.51
  C 110.28 163.90 77.17 162.31 63.17 138.61
  C 47.69 112.40 69.09 82.62 92.00 70.50
  Q 95.08 68.87 96.84 67.94
  A 0.16 0.16 0.0 0 0 96.71 67.65
  C 76.34 75.17 55.57 93.64 52.50 116.00
  C 49.95 134.57 59.08 149.19 75.23 157.19
  C 92.95 165.97 114.96 163.59 133.32 156.05
  A 0.29 0.29 0.0 0 0 133.11 155.51"
/>
<path stroke="#1a1a1a" vector-effect="non-scaling-stroke" d="
  M 114.63 102.75
  A 16.05 16.05 0.0 0 0 98.58 86.70
  A 16.05 16.05 0.0 0 0 82.53 102.75
  A 16.05 16.05 0.0 0 0 98.58 118.80
  A 16.05 16.05 0.0 0 0 114.63 102.75"
/>
<path stroke="#36777a" vector-effect="non-scaling-stroke" d="
  M 157.98 78.12
  A 14.35 14.35 0.0 0 0 143.63 63.77
  A 14.35 14.35 0.0 0 0 129.28 78.12
  A 14.35 14.35 0.0 0 0 143.63 92.47
  A 14.35 14.35 0.0 0 0 157.98 78.12"
/>
<path stroke="#5a5a5a" vector-effect="non-scaling-stroke" d="
  M 197.21 79.80
  A 2.00 2.00 0.0 0 0 195.21 77.80
  A 2.00 2.00 0.0 0 0 193.21 79.80
  A 2.00 2.00 0.0 0 0 195.21 81.80
  A 2.00 2.00 0.0 0 0 197.21 79.80"
/>
<path stroke="#36777a" vector-effect="non-scaling-stroke" d="
  M 112.92 102.77
  A 14.34 14.34 0.0 0 0 98.58 88.43
  A 14.34 14.34 0.0 0 0 84.24 102.77
  A 14.34 14.34 0.0 0 0 98.58 117.11
  A 14.34 14.34 0.0 0 0 112.92 102.77"
/>
<path stroke="#224c4e" vector-effect="non-scaling-stroke" d="
  M 156.00 199.14
  A 3.00 3.00 0.0 0 0 153.00 196.14
  A 3.00 3.00 0.0 0 0 150.00 199.14
  A 3.00 3.00 0.0 0 0 153.00 202.14
  A 3.00 3.00 0.0 0 0 156.00 199.14"
/>
<path stroke="#5a5a5a" vector-effect="non-scaling-stroke" d="
  M 39.19 138.34
  A 2.02 2.02 0.0 0 0 37.17 136.32
  A 2.02 2.02 0.0 0 0 35.15 138.34
  A 2.02 2.02 0.0 0 0 37.17 140.36
  A 2.02 2.02 0.0 0 0 39.19 138.34"
/>
<path stroke="#5a5a5a" vector-effect="non-scaling-stroke" d="
  M 187.35 159.95
  A 9.91 9.91 0.0 0 0 177.44 150.04
  A 9.91 9.91 0.0 0 0 167.53 159.95
  A 9.91 9.91 0.0 0 0 177.44 169.86
  A 9.91 9.91 0.0 0 0 187.35 159.95"
/>
<path stroke="#5a5a5a" vector-effect="non-scaling-stroke" d="
  M 185.98 159.93
  A 8.54 8.54 0.0 0 0 177.44 151.39
  A 8.54 8.54 0.0 0 0 168.90 159.93
  A 8.54 8.54 0.0 0 0 177.44 168.47
  A 8.54 8.54 0.0 0 0 185.98 159.93"
/>
<path stroke="#004001" vector-effect="non-scaling-stroke" d="
  M 170.85 158.61
  C 171.78 167.94 183.52 166.52 182.69 158.71"
/>
<path stroke="#008000" vector-effect="non-scaling-stroke" d="
  M 182.69 158.71
  Q 183.12 152.93 177.47 152.72
  C 173.71 152.59 170.90 154.74 170.85 158.61"
/>
<path stroke="#00bf01" vector-effect="non-scaling-stroke" d="
  M 182.69 158.71
  Q 176.27 164.78 170.85 158.61"
/>
<path stroke="#333333" vector-effect="non-scaling-stroke" d="
  M 184.15 158.24
  C 184.00 165.81 177.25 168.52 171.51 163.73
  Q 170.64 163.00 171.23 163.97
  C 175.57 171.03 185.40 166.54 184.77 158.11
  Q 184.76 158.09 184.74 158.08
  Q 184.61 158.04 184.49 158.00
  Q 184.15 157.89 184.15 158.24"
/>
<path stroke="#5a5a5a" vector-effect="non-scaling-stroke" d="
  M 111.94 188.18
  A 9.91 9.91 0.0 0 0 102.03 178.27
  A 9.91 9.91 0.0 0 0 92.12 188.18
  A 9.91 9.91 0.0 0 0 102.03 198.09
  A 9.91 9.91 0.0 0 0 111.94 188.18"
/>
<path stroke="#5a5a5a" vector-effect="non-scaling-stroke" d="
  M 110.63 188.17
  A 8.55 8.55 0.0 0 0 102.08 179.62
  A 8.55 8.55 0.0 0 0 93.53 188.17
  A 8.55 8.55 0.0 0 0 102.08 196.72
  A 8.55 8.55 0.0 0 0 110.63 188.17"
/>
<path stroke="#004001" vector-effect="non-scaling-stroke" d="
  M 95.34 187.12
  C 97.07 196.74 108.67 193.88 107.59 186.41"
/>
<path stroke="#008000" vector-effect="non-scaling-stroke" d="
  M 107.59 186.41
  C 107.26 178.86 96.09 178.77 95.34 187.12"
/>
<path stroke="#00bf01" vector-effect="non-scaling-stroke" d="
  M 107.59 186.41
  Q 102.28 193.38 95.34 187.12"
/>
<path stroke="#333333" vector-effect="non-scaling-stroke" d="
  M 96.67 192.40
  Q 96.37 191.78 95.63 191.54
  Q 95.22 191.41 95.48 191.75
  C 100.03 197.85 107.46 196.55 109.47 189.29
  A 0.34 0.33 -25.3 0 0 108.84 189.07
  Q 105.31 196.81 97.39 193.11
  A 1.52 1.48 0.4 0 1 96.67 192.40"
/>
<path stroke="#333333" vector-effect="non-scaling-stroke" d="
  M 155.01 199.17
  A 1.97 1.97 0.0 0 0 153.04 197.20
  A 1.97 1.97 0.0 0 0 151.07 199.17
  A 1.97 1.97 0.0 0 0 153.04 201.14
  A 1.97 1.97 0.0 0 0 155.01 199.17"
/>
</g>
<path fill="#000000" d="
  M 213.21 140.64
  A 0.56 0.55 -54.8 0 0 214.19 140.47
  C 215.79 135.18 216.86 124.30 225.07 125.94
  C 230.65 127.05 230.75 132.00 229.32 136.71
  Q 223.05 157.32 216.80 177.92
  Q 215.73 181.47 214.56 182.77
  C 211.46 186.21 204.94 184.69 203.49 180.41
  C 202.16 176.52 205.89 167.73 207.16 163.73
  Q 207.38 163.04 206.69 163.24
  L 202.77 164.37
  A 1.20 1.16 5.4 0 0 202.07 164.93
  C 179.26 205.69 132.01 223.57 88.00 207.07
  A 1.28 1.26 43.9 0 0 87.09 207.08
  L 84.36 208.20
  A 0.34 0.34 0.0 0 0 84.32 208.81
  Q 89.81 211.87 95.17 214.87
  C 103.76 219.68 97.57 231.34 87.49 225.88
  Q 68.24 215.43 49.00 204.93
  Q 45.49 203.02 44.45 201.01
  C 42.26 196.80 46.24 190.82 51.02 191.44
  C 54.51 191.90 60.19 195.81 63.80 197.71
  Q 64.42 198.03 64.42 197.34
  C 64.40 195.46 64.29 194.00 62.73 192.70
  Q 58.59 189.24 54.77 185.45
  Q 54.40 185.09 53.90 185.19
  C 40.26 187.89 28.35 178.65 23.01 166.84
  C 16.31 152.03 7.20 121.25 28.18 112.17
  A 1.07 1.06 81.9 0 0 28.82 111.31
  C 37.59 35.82 125.46 1.67 182.81 51.93
  Q 183.18 52.26 183.66 52.15
  C 197.25 49.14 210.36 57.77 216.58 69.44
  Q 218.76 73.52 223.81 85.92
  C 228.91 98.41 227.22 116.53 213.72 123.21
  Q 213.28 123.43 213.27 123.92
  Q 213.16 130.24 211.96 136.37
  C 211.62 138.13 212.25 139.32 213.21 140.64
  Z
  M 201.60 82.37
  C 181.18 39.60 132.97 21.17 88.60 37.22
  Q 88.13 37.40 88.16 37.90
  Q 88.65 45.81 91.44 53.23
  Q 91.57 53.58 91.91 53.44
  C 125.77 39.04 176.58 42.92 188.37 85.15
  Q 188.52 85.71 189.07 85.51
  Q 194.97 83.45 201.22 83.03
  Q 201.90 82.98 201.60 82.37
  Z
  M 86.63 38.23
  C 43.58 56.05 23.05 101.84 35.02 146.32
  Q 35.22 147.08 35.79 146.54
  Q 40.13 142.35 45.89 140.61
  Q 46.45 140.44 46.20 139.91
  C 29.39 103.52 58.29 68.37 90.13 54.17
  Q 90.64 53.95 90.43 53.43
  Q 87.59 46.28 87.21 38.60
  Q 87.18 38.00 86.63 38.23
  Z
  M 69.75 159.77
  Q 72.90 161.70 76.24 162.74
  A 0.19 0.19 0.0 0 0 76.38 162.39
  L 69.98 159.30
  C 56.50 151.32 48.10 137.34 47.99 121.80
  C 47.84 101.51 61.45 82.40 77.70 70.96
  Q 103.62 52.73 134.05 54.20
  C 168.52 55.87 194.13 80.87 182.75 116.99
  A 0.09 0.09 0.0 0 0 182.92 117.06
  Q 190.38 100.94 186.52 84.99
  C 179.89 57.64 149.30 45.42 123.51 47.54
  Q 88.60 50.41 64.13 73.85
  C 37.92 98.95 32.11 140.69 69.75 159.77
  Z
  M 194.26 57.03
  C 192.13 54.40 189.89 53.94 186.66 54.68
  A 0.40 0.40 0.0 0 0 186.46 55.35
  Q 212.27 81.94 213.41 119.37
  Q 213.43 120.06 213.97 119.64
  L 216.80 117.42
  Q 217.21 117.10 217.18 116.59
  Q 215.21 82.98 194.26 57.03
  Z
  M 180.9145 84.7216
  A 69.20 52.61 -22.3 0 0 96.9268 62.3047
  A 69.20 52.61 -22.3 0 0 52.8655 137.2384
  A 69.20 52.61 -22.3 0 0 136.8532 159.6553
  A 69.20 52.61 -22.3 0 0 180.9145 84.7216
  Z
  M 215.03 73.46
  C 211.31 65.01 204.50 58.26 195.73 55.52
  A 0.20 0.20 0.0 0 0 195.51 55.83
  Q 215.66 80.63 218.55 112.73
  Q 218.86 116.17 220.31 113.04
  C 227.29 97.92 221.12 87.28 215.03 73.46
  Z
  M 142.30 191.03
  Q 146.00 198.34 150.27 204.59
  Q 150.56 205.02 151.04 204.85
  C 183.97 193.33 204.94 164.62 209.79 130.65
  Q 212.34 106.84 202.81 85.07
  A 1.82 1.80 75.8 0 0 201.00 83.98
  Q 194.92 84.49 189.20 86.58
  Q 188.68 86.77 188.76 87.32
  C 193.96 123.23 163.34 152.72 132.24 163.22
  Q 131.75 163.38 131.88 163.89
  Q 135.49 178.43 142.30 191.03
  Z
  M 28.09 115.90
  A 0.20 0.20 0.0 0 0 27.78 115.74
  L 24.17 118.39
  Q 23.73 118.72 23.72 119.27
  C 23.31 142.16 32.77 164.99 47.16 182.45
  A 0.97 0.96 67.9 0 0 47.98 182.80
  L 51.15 182.57
  Q 51.77 182.53 51.36 182.05
  Q 28.01 154.78 28.09 115.90
  Z
  M 21.31 122.13
  C 14.69 136.09 19.40 146.73 24.29 161.47
  Q 29.40 176.86 44.01 182.24
  A 0.27 0.26 -7.6 0 0 44.32 181.84
  C 30.96 163.32 23.10 145.30 21.86 122.23
  A 0.29 0.29 0.0 0 0 21.31 122.13
  Z
  M 227.7629 133.6138
  A 4.24 4.24 0.0 0 0 224.9386 128.3243
  L 224.8047 128.2836
  A 4.24 4.24 0.0 0 0 219.5152 131.1079
  L 205.6371 176.7862
  A 4.24 4.24 0.0 0 0 208.4614 182.0757
  L 208.5953 182.1164
  A 4.24 4.24 0.0 0 0 213.8848 179.2921
  L 227.7629 133.6138
  Z
  M 211.08 141.19
  Q 208.63 151.93 203.73 161.79
  Q 203.42 162.40 204.10 162.27
  C 206.32 161.84 207.78 161.08 208.54 158.71
  Q 210.88 151.42 212.99 144.04
  Q 213.12 143.58 212.87 143.18
  L 211.59 141.10
  A 0.28 0.28 0.0 0 0 211.08 141.19
  Z
  M 49.21 173.94
  C 72.50 204.92 111.94 217.74 148.88 205.60
  Q 149.40 205.43 149.12 204.95
  L 141.14 191.28
  Q 134.50 178.13 130.91 164.38
  A 0.60 0.60 0.0 0 0 130.15 163.96
  C 101.65 173.13 64.70 169.65 47.35 141.84
  Q 47.04 141.34 46.48 141.51
  Q 40.52 143.32 36.15 147.69
  Q 35.78 148.07 35.94 148.57
  Q 40.67 163.01 49.21 173.94
  Z
  M 47.02 195.83
  Q 44.80 199.92 48.71 202.04
  Q 69.60 213.38 90.50 224.75
  Q 93.80 226.55 95.93 223.33
  C 97.69 220.41 96.48 218.27 93.66 216.72
  Q 73.51 205.67 53.27 194.76
  C 50.82 193.44 48.61 193.47 47.02 195.83
  Z
  M 84.67 205.77
  Q 75.03 201.79 66.64 195.59
  Q 66.02 195.13 66.03 195.90
  C 66.05 197.86 66.59 199.19 68.46 200.21
  Q 74.38 203.42 80.32 206.63
  C 81.96 207.52 83.26 207.14 84.71 206.22
  A 0.26 0.25 40.1 0 0 84.67 205.77
  Z"
/>
<path fill="#6beef4" d="
  M 88.60 37.22
  C 132.97 21.17 181.18 39.60 201.60 82.37
  Q 201.90 82.98 201.22 83.03
  Q 194.97 83.45 189.07 85.51
  Q 188.52 85.71 188.37 85.15
  C 176.58 42.92 125.77 39.04 91.91 53.44
  Q 91.57 53.58 91.44 53.23
  Q 88.65 45.81 88.16 37.90
  Q 88.13 37.40 88.60 37.22
  Z
  M 99.36 39.71
  A 3.03 3.03 0.0 0 0 96.33 36.68
  A 3.03 3.03 0.0 0 0 93.30 39.71
  A 3.03 3.03 0.0 0 0 96.33 42.74
  A 3.03 3.03 0.0 0 0 99.36 39.71
  Z
  M 198.30 79.78
  A 3.05 3.05 0.0 0 0 195.25 76.73
  A 3.05 3.05 0.0 0 0 192.20 79.78
  A 3.05 3.05 0.0 0 0 195.25 82.83
  A 3.05 3.05 0.0 0 0 198.30 79.78
  Z"
/>
<path fill="#000000" d="
  M 99.36 39.71
  A 3.03 3.03 0.0 0 1 96.33 42.74
  A 3.03 3.03 0.0 0 1 93.30 39.71
  A 3.03 3.03 0.0 0 1 96.33 36.68
  A 3.03 3.03 0.0 0 1 99.36 39.71
  Z
  M 98.30 39.68
  A 1.97 1.97 0.0 0 0 96.33 37.71
  A 1.97 1.97 0.0 0 0 94.36 39.68
  A 1.97 1.97 0.0 0 0 96.33 41.65
  A 1.97 1.97 0.0 0 0 98.30 39.68
  Z"
/>
<circle fill="#b3b3b3" cx="96.33" cy="39.68" r="1.97"/>
<path fill="#6beef4" d="
  M 35.02 146.32
  C 23.05 101.84 43.58 56.05 86.63 38.23
  Q 87.18 38.00 87.21 38.60
  Q 87.59 46.28 90.43 53.43
  Q 90.64 53.95 90.13 54.17
  C 58.29 68.37 29.39 103.52 46.20 139.91
  Q 46.45 140.44 45.89 140.61
  Q 40.13 142.35 35.79 146.54
  Q 35.22 147.08 35.02 146.32
  Z
  M 40.20 138.37
  A 3.07 3.07 0.0 0 0 37.13 135.30
  A 3.07 3.07 0.0 0 0 34.06 138.37
  A 3.07 3.07 0.0 0 0 37.13 141.44
  A 3.07 3.07 0.0 0 0 40.20 138.37
  Z"
/>
<path fill="#b3b3b3" d="
  M 69.98 159.30
  Q 70.07 159.73 69.75 159.77
  C 32.11 140.69 37.92 98.95 64.13 73.85
  Q 88.60 50.41 123.51 47.54
  C 149.30 45.42 179.89 57.64 186.52 84.99
  Q 190.38 100.94 182.92 117.06
  A 0.09 0.09 0.0 0 1 182.75 116.99
  C 194.13 80.87 168.52 55.87 134.05 54.20
  Q 103.62 52.73 77.70 70.96
  C 61.45 82.40 47.84 101.51 47.99 121.80
  C 48.10 137.34 56.50 151.32 69.98 159.30
  Z"
/>
<path fill="#b3b3b3" d="
  M 186.66 54.68
  C 189.89 53.94 192.13 54.40 194.26 57.03
  Q 215.21 82.98 217.18 116.59
  Q 217.21 117.10 216.80 117.42
  L 213.97 119.64
  Q 213.43 120.06 213.41 119.37
  Q 212.27 81.94 186.46 55.35
  A 0.40 0.40 0.0 0 1 186.66 54.68
  Z"
/>
<path fill="#333333" d="
  M 180.9145 84.7216
  A 69.20 52.61 -22.3 0 1 136.8532 159.6553
  A 69.20 52.61 -22.3 0 1 52.8655 137.2384
  A 69.20 52.61 -22.3 0 1 96.9268 62.3047
  A 69.20 52.61 -22.3 0 1 180.9145 84.7216
  Z
  M 159.70 78.13
  A 16.05 16.05 0.0 0 0 143.65 62.08
  A 16.05 16.05 0.0 0 0 127.60 78.13
  A 16.05 16.05 0.0 0 0 143.65 94.18
  A 16.05 16.05 0.0 0 0 159.70 78.13
  Z
  M 133.11 155.51
  C 110.28 163.90 77.17 162.31 63.17 138.61
  C 47.69 112.40 69.09 82.62 92.00 70.50
  Q 95.08 68.87 96.84 67.94
  A 0.16 0.16 0.0 0 0 96.71 67.65
  C 76.34 75.17 55.57 93.64 52.50 116.00
  C 49.95 134.57 59.08 149.19 75.23 157.19
  C 92.95 165.97 114.96 163.59 133.32 156.05
  A 0.29 0.29 0.0 0 0 133.11 155.51
  Z
  M 114.63 102.75
  A 16.05 16.05 0.0 0 0 98.58 86.70
  A 16.05 16.05 0.0 0 0 82.53 102.75
  A 16.05 16.05 0.0 0 0 98.58 118.80
  A 16.05 16.05 0.0 0 0 114.63 102.75
  Z"
/>
<path fill="#6beef4" d="
  M 195.73 55.52
  C 204.50 58.26 211.31 65.01 215.03 73.46
  C 221.12 87.28 227.29 97.92 220.31 113.04
  Q 218.86 116.17 218.55 112.73
  Q 215.66 80.63 195.51 55.83
  A 0.20 0.20 0.0 0 1 195.73 55.52
  Z"
/>
<path fill="#000000" d="
  M 159.70 78.13
  A 16.05 16.05 0.0 0 1 143.65 94.18
  A 16.05 16.05 0.0 0 1 127.60 78.13
  A 16.05 16.05 0.0 0 1 143.65 62.08
  A 16.05 16.05 0.0 0 1 159.70 78.13
  Z
  M 157.98 78.12
  A 14.35 14.35 0.0 0 0 143.63 63.77
  A 14.35 14.35 0.0 0 0 129.28 78.12
  A 14.35 14.35 0.0 0 0 143.63 92.47
  A 14.35 14.35 0.0 0 0 157.98 78.12
  Z"
/>
<circle fill="#6beef4" cx="143.63" cy="78.12" r="14.35"/>
<path fill="#666666" d="
  M 63.17 138.61
  C 77.17 162.31 110.28 163.90 133.11 155.51
  A 0.29 0.29 0.0 0 1 133.32 156.05
  C 114.96 163.59 92.95 165.97 75.23 157.19
  C 59.08 149.19 49.95 134.57 52.50 116.00
  C 55.57 93.64 76.34 75.17 96.71 67.65
  A 0.16 0.16 0.0 0 1 96.84 67.94
  Q 95.08 68.87 92.00 70.50
  C 69.09 82.62 47.69 112.40 63.17 138.61
  Z"
/>
<path fill="#000000" d="
  M 198.30 79.78
  A 3.05 3.05 0.0 0 1 195.25 82.83
  A 3.05 3.05 0.0 0 1 192.20 79.78
  A 3.05 3.05 0.0 0 1 195.25 76.73
  A 3.05 3.05 0.0 0 1 198.30 79.78
  Z
  M 197.21 79.80
  A 2.00 2.00 0.0 0 0 195.21 77.80
  A 2.00 2.00 0.0 0 0 193.21 79.80
  A 2.00 2.00 0.0 0 0 195.21 81.80
  A 2.00 2.00 0.0 0 0 197.21 79.80
  Z"
/>
<circle fill="#b3b3b3" cx="195.21" cy="79.80" r="2.00"/>
<path fill="#6beef4" d="
  M 209.79 130.65
  C 207.82 133.70 190.53 159.49 188.09 157.62
  C 184.21 141.91 161.19 149.87 167.52 164.75
  Q 169.46 169.33 175.80 170.93
  Q 160.70 183.94 142.30 191.03
  Q 135.49 178.43 131.88 163.89
  Q 131.75 163.38 132.24 163.22
  C 163.34 152.72 193.96 123.23 188.76 87.32
  Q 188.68 86.77 189.20 86.58
  Q 194.92 84.49 201.00 83.98
  A 1.82 1.80 75.8 0 1 202.81 85.07
  Q 212.34 106.84 209.79 130.65
  Z"
/>
<path fill="#000000" d="
  M 114.63 102.75
  A 16.05 16.05 0.0 0 1 98.58 118.80
  A 16.05 16.05 0.0 0 1 82.53 102.75
  A 16.05 16.05 0.0 0 1 98.58 86.70
  A 16.05 16.05 0.0 0 1 114.63 102.75
  Z
  M 112.92 102.77
  A 14.34 14.34 0.0 0 0 98.58 88.43
  A 14.34 14.34 0.0 0 0 84.24 102.77
  A 14.34 14.34 0.0 0 0 98.58 117.11
  A 14.34 14.34 0.0 0 0 112.92 102.77
  Z"
/>
<circle fill="#6beef4" cx="98.58" cy="102.77" r="14.34"/>
<path fill="#666666" d="
  M 28.09 115.90
  Q 28.01 154.78 51.36 182.05
  Q 51.77 182.53 51.15 182.57
  L 47.98 182.80
  A 0.97 0.96 67.9 0 1 47.16 182.45
  C 32.77 164.99 23.31 142.16 23.72 119.27
  Q 23.73 118.72 24.17 118.39
  L 27.78 115.74
  A 0.20 0.20 0.0 0 1 28.09 115.90
  Z"
/>
<path fill="#44989c" d="
  M 21.31 122.13
  A 0.29 0.29 0.0 0 1 21.86 122.23
  C 23.10 145.30 30.96 163.32 44.32 181.84
  A 0.27 0.26 -7.6 0 1 44.01 182.24
  Q 29.40 176.86 24.29 161.47
  C 19.40 146.73 14.69 136.09 21.31 122.13
  Z"
/>
<rect fill="#6beef4" x="-4.31" y="-28.11" transform="translate(216.70,155.20) rotate(16.9)" width="8.62" height="56.22" rx="4.24"/>
<path fill="#44989c" d="
  M 209.79 130.65
  C 204.94 164.62 183.97 193.33 151.04 204.85
  Q 150.56 205.02 150.27 204.59
  Q 146.00 198.34 142.30 191.03
  Q 160.70 183.94 175.80 170.93
  C 183.26 171.57 190.04 165.25 188.09 157.62
  C 190.53 159.49 207.82 133.70 209.79 130.65
  Z
  M 156.00 199.14
  A 3.00 3.00 0.0 0 0 153.00 196.14
  A 3.00 3.00 0.0 0 0 150.00 199.14
  A 3.00 3.00 0.0 0 0 153.00 202.14
  A 3.00 3.00 0.0 0 0 156.00 199.14
  Z"
/>
<path fill="#000000" d="
  M 40.20 138.37
  A 3.07 3.07 0.0 0 1 37.13 141.44
  A 3.07 3.07 0.0 0 1 34.06 138.37
  A 3.07 3.07 0.0 0 1 37.13 135.30
  A 3.07 3.07 0.0 0 1 40.20 138.37
  Z
  M 39.19 138.34
  A 2.02 2.02 0.0 0 0 37.17 136.32
  A 2.02 2.02 0.0 0 0 35.15 138.34
  A 2.02 2.02 0.0 0 0 37.17 140.36
  A 2.02 2.02 0.0 0 0 39.19 138.34
  Z"
/>
<circle fill="#b3b3b3" cx="37.17" cy="138.34" r="2.02"/>
<path fill="#666666" d="
  M 211.08 141.19
  A 0.28 0.28 0.0 0 1 211.59 141.10
  L 212.87 143.18
  Q 213.12 143.58 212.99 144.04
  Q 210.88 151.42 208.54 158.71
  C 207.78 161.08 206.32 161.84 204.10 162.27
  Q 203.42 162.40 203.73 161.79
  Q 208.63 151.93 211.08 141.19
  Z"
/>
<path fill="#6beef4" d="
  M 141.14 191.28
  Q 126.01 196.71 109.81 196.08
  C 119.52 184.32 104.32 170.62 94.20 180.54
  Q 89.33 185.31 92.26 193.75
  Q 69.68 187.64 49.21 173.94
  Q 40.67 163.01 35.94 148.57
  Q 35.78 148.07 36.15 147.69
  Q 40.52 143.32 46.48 141.51
  Q 47.04 141.34 47.35 141.84
  C 64.70 169.65 101.65 173.13 130.15 163.96
  A 0.60 0.60 0.0 0 1 130.91 164.38
  Q 134.50 178.13 141.14 191.28
  Z"
/>
<path fill="#000000" d="
  M 188.09 157.62
  C 190.04 165.25 183.26 171.57 175.80 170.93
  Q 169.46 169.33 167.52 164.75
  C 161.19 149.87 184.21 141.91 188.09 157.62
  Z
  M 187.35 159.95
  A 9.91 9.91 0.0 0 0 177.44 150.04
  A 9.91 9.91 0.0 0 0 167.53 159.95
  A 9.91 9.91 0.0 0 0 177.44 169.86
  A 9.91 9.91 0.0 0 0 187.35 159.95
  Z"
/>
<path fill="#b3b3b3" d="
  M 187.35 159.95
  A 9.91 9.91 0.0 0 1 177.44 169.86
  A 9.91 9.91 0.0 0 1 167.53 159.95
  A 9.91 9.91 0.0 0 1 177.44 150.04
  A 9.91 9.91 0.0 0 1 187.35 159.95
  Z
  M 185.98 159.93
  A 8.54 8.54 0.0 0 0 177.44 151.39
  A 8.54 8.54 0.0 0 0 168.90 159.93
  A 8.54 8.54 0.0 0 0 177.44 168.47
  A 8.54 8.54 0.0 0 0 185.98 159.93
  Z"
/>
<path fill="#000000" d="
  M 185.98 159.93
  A 8.54 8.54 0.0 0 1 177.44 168.47
  A 8.54 8.54 0.0 0 1 168.90 159.93
  A 8.54 8.54 0.0 0 1 177.44 151.39
  A 8.54 8.54 0.0 0 1 185.98 159.93
  Z
  M 170.85 158.61
  C 171.78 167.94 183.52 166.52 182.69 158.71
  Q 183.12 152.93 177.47 152.72
  C 173.71 152.59 170.90 154.74 170.85 158.61
  Z
  M 184.15 158.24
  C 184.00 165.81 177.25 168.52 171.51 163.73
  Q 170.64 163.00 171.23 163.97
  C 175.57 171.03 185.40 166.54 184.77 158.11
  Q 184.76 158.09 184.74 158.08
  Q 184.61 158.04 184.49 158.00
  Q 184.15 157.89 184.15 158.24
  Z"
/>
<path fill="#00ff00" d="
  M 182.69 158.71
  Q 176.27 164.78 170.85 158.61
  C 170.90 154.74 173.71 152.59 177.47 152.72
  Q 183.12 152.93 182.69 158.71
  Z"
/>
<path fill="#666666" d="
  M 171.51 163.73
  C 177.25 168.52 184.00 165.81 184.15 158.24
  Q 184.15 157.89 184.49 158.00
  Q 184.61 158.04 184.74 158.08
  Q 184.76 158.09 184.77 158.11
  C 185.40 166.54 175.57 171.03 171.23 163.97
  Q 170.64 163.00 171.51 163.73
  Z"
/>
<path fill="#007f01" d="
  M 170.85 158.61
  Q 176.27 164.78 182.69 158.71
  C 183.52 166.52 171.78 167.94 170.85 158.61
  Z"
/>
<path fill="#666666" d="
  M 69.98 159.30
  L 76.38 162.39
  A 0.19 0.19 0.0 0 1 76.24 162.74
  Q 72.90 161.70 69.75 159.77
  Q 70.07 159.73 69.98 159.30
  Z"
/>
<path fill="#44989c" d="
  M 49.21 173.94
  Q 69.68 187.64 92.26 193.75
  Q 94.87 197.28 98.50 198.50
  Q 104.76 200.60 109.81 196.08
  Q 126.01 196.71 141.14 191.28
  L 149.12 204.95
  Q 149.40 205.43 148.88 205.60
  C 111.94 217.74 72.50 204.92 49.21 173.94
  Z"
/>
<path fill="#000000" d="
  M 109.81 196.08
  Q 104.76 200.60 98.50 198.50
  Q 94.87 197.28 92.26 193.75
  Q 89.33 185.31 94.20 180.54
  C 104.32 170.62 119.52 184.32 109.81 196.08
  Z
  M 111.94 188.18
  A 9.91 9.91 0.0 0 0 102.03 178.27
  A 9.91 9.91 0.0 0 0 92.12 188.18
  A 9.91 9.91 0.0 0 0 102.03 198.09
  A 9.91 9.91 0.0 0 0 111.94 188.18
  Z"
/>
<path fill="#b3b3b3" d="
  M 111.94 188.18
  A 9.91 9.91 0.0 0 1 102.03 198.09
  A 9.91 9.91 0.0 0 1 92.12 188.18
  A 9.91 9.91 0.0 0 1 102.03 178.27
  A 9.91 9.91 0.0 0 1 111.94 188.18
  Z
  M 110.63 188.17
  A 8.55 8.55 0.0 0 0 102.08 179.62
  A 8.55 8.55 0.0 0 0 93.53 188.17
  A 8.55 8.55 0.0 0 0 102.08 196.72
  A 8.55 8.55 0.0 0 0 110.63 188.17
  Z"
/>
<path fill="#000000" d="
  M 110.63 188.17
  A 8.55 8.55 0.0 0 1 102.08 196.72
  A 8.55 8.55 0.0 0 1 93.53 188.17
  A 8.55 8.55 0.0 0 1 102.08 179.62
  A 8.55 8.55 0.0 0 1 110.63 188.17
  Z
  M 95.34 187.12
  C 97.07 196.74 108.67 193.88 107.59 186.41
  C 107.26 178.86 96.09 178.77 95.34 187.12
  Z
  M 96.67 192.40
  Q 96.37 191.78 95.63 191.54
  Q 95.22 191.41 95.48 191.75
  C 100.03 197.85 107.46 196.55 109.47 189.29
  A 0.34 0.33 -25.3 0 0 108.84 189.07
  Q 105.31 196.81 97.39 193.11
  A 1.52 1.48 0.4 0 1 96.67 192.40
  Z"
/>
<path fill="#00ff00" d="
  M 107.59 186.41
  Q 102.28 193.38 95.34 187.12
  C 96.09 178.77 107.26 178.86 107.59 186.41
  Z"
/>
<path fill="#007f01" d="
  M 107.59 186.41
  C 108.67 193.88 97.07 196.74 95.34 187.12
  Q 102.28 193.38 107.59 186.41
  Z"
/>
<path fill="#666666" d="
  M 97.39 193.11
  Q 105.31 196.81 108.84 189.07
  A 0.34 0.33 -25.3 0 1 109.47 189.29
  C 107.46 196.55 100.03 197.85 95.48 191.75
  Q 95.22 191.41 95.63 191.54
  Q 96.37 191.78 96.67 192.40
  A 1.52 1.48 0.4 0 0 97.39 193.11
  Z"
/>
<path fill="#44989c" d="
  M 95.93 223.33
  L 47.02 195.83
  C 48.61 193.47 50.82 193.44 53.27 194.76
  Q 73.51 205.67 93.66 216.72
  C 96.48 218.27 97.69 220.41 95.93 223.33
  Z"
/>
<path fill="#666666" d="
  M 84.67 205.77
  A 0.26 0.25 40.1 0 1 84.71 206.22
  C 83.26 207.14 81.96 207.52 80.32 206.63
  Q 74.38 203.42 68.46 200.21
  C 66.59 199.19 66.05 197.86 66.03 195.90
  Q 66.02 195.13 66.64 195.59
  Q 75.03 201.79 84.67 205.77
  Z"
/>
<path fill="#6beef4" d="
  M 47.02 195.83
  L 95.93 223.33
  Q 93.80 226.55 90.50 224.75
  Q 69.60 213.38 48.71 202.04
  Q 44.80 199.92 47.02 195.83
  Z"
/>
<path fill="#000000" d="
  M 156.00 199.14
  A 3.00 3.00 0.0 0 1 153.00 202.14
  A 3.00 3.00 0.0 0 1 150.00 199.14
  A 3.00 3.00 0.0 0 1 153.00 196.14
  A 3.00 3.00 0.0 0 1 156.00 199.14
  Z
  M 155.01 199.17
  A 1.97 1.97 0.0 0 0 153.04 197.20
  A 1.97 1.97 0.0 0 0 151.07 199.17
  A 1.97 1.97 0.0 0 0 153.04 201.14
  A 1.97 1.97 0.0 0 0 155.01 199.17
  Z"
/>
<circle fill="#666666" cx="153.04" cy="199.17" r="1.97"/>
</svg>
