<?xml version="1.0" encoding="UTF-8" standalone="no"?>
<!DOCTYPE svg PUBLIC "-//W3C//DTD SVG 1.1//EN" "http://www.w3.org/Graphics/SVG/1.1/DTD/svg11.dtd">
<svg xmlns="http://www.w3.org/2000/svg" version="1.1" viewBox="0.00 0.00 365.00 297.00">
<g stroke-width="2.00" fill="none" stroke-linecap="butt">
<path stroke="#a7cde9" vector-effect="non-scaling-stroke" d="
  M 284.62 94.36
  C 279.50 85.73 272.46 75.79 265.02 68.86
  Q 264.60 68.47 264.11 68.76
  L 245.01 79.88
  Q 244.59 80.12 244.24 79.79
  Q 234.95 71.13 223.85 64.95
  A 0.65 0.63 -74.4 0 1 223.53 64.36
  L 225.15 40.39
  A 0.95 0.95 0.0 0 0 224.62 39.48
  Q 210.65 32.61 195.38 29.54
  Q 194.78 29.42 194.50 29.96
  L 184.01 50.32
  A 1.16 1.14 17.4 0 1 182.83 50.93
  Q 171.93 49.43 161.03 50.98
  Q 160.36 51.08 160.04 50.47
  L 149.52 29.97
  Q 149.25 29.44 148.66 29.56
  Q 133.43 32.67 119.43 39.43
  Q 118.80 39.73 118.85 40.43
  L 120.44 64.35
  Q 120.47 64.78 120.09 64.99
  Q 109.09 71.21 99.79 79.78
  A 0.66 0.65 38.5 0 1 99.02 79.86
  L 79.93 68.74
  Q 79.33 68.39 78.85 68.90
  Q 67.75 80.65 59.25 94.43
  A 1.32 1.32 0.0 0 0 59.29 95.86
  L 72.47 114.77
  Q 72.75 115.17 72.75 115.65
  L 72.75 173.99
  A 0.57 0.56 2.8 0 0 73.26 174.55
  L 109.51 178.05
  A 4.38 4.37 0.7 0 1 113.45 182.08
  L 114.58 197.36
  Q 114.62 197.99 115.25 198.03
  L 145.50 200.14
  A 1.06 1.06 0.0 0 0 146.63 199.20
  Q 147.32 192.98 148.40 186.68
  C 148.97 183.36 150.04 181.99 153.66 181.99
  Q 173.22 182.00 191.76 182.00
  A 3.66 3.65 -4.2 0 1 195.38 185.12
  L 197.52 199.53
  Q 197.62 200.23 198.32 200.18
  L 228.82 198.07
  A 0.64 0.63 -88.9 0 0 229.41 197.49
  L 230.57 181.70
  A 3.91 3.91 0.0 0 1 234.10 178.10
  L 270.94 174.58
  A 0.34 0.34 0.0 0 0 271.25 174.24
  L 271.25 115.06
  Q 271.25 114.61 271.53 114.26
  Q 278.63 105.41 284.61 95.76
  A 1.35 1.34 -44.8 0 0 284.62 94.36"
/>
<path stroke="#a7cde9" vector-effect="non-scaling-stroke" d="
  M 193.21 208.22
  A 3.24 3.23 -2.9 0 1 190.15 205.47
  L 187.93 190.69
  A 0.76 0.76 0.0 0 0 187.18 190.05
  L 156.83 190.03
  Q 156.18 190.03 156.08 190.68
  L 153.88 205.17
  Q 153.43 208.13 150.43 208.24
  Q 147.67 208.34 143.51 208.07
  Q 127.25 207.01 111.02 205.75
  Q 106.86 205.42 106.51 200.99
  Q 105.94 193.63 105.51 186.35
  A 0.57 0.57 0.0 0 0 105.00 185.82
  L 73.51 182.84
  Q 72.97 182.79 72.91 183.43
  C 68.99 226.08 114.69 237.35 146.66 241.15
  Q 174.85 244.51 202.94 240.45
  C 227.27 236.93 266.42 226.67 270.66 197.19
  Q 271.50 191.33 271.19 183.38
  Q 271.16 182.81 270.59 182.86
  L 238.96 185.81
  Q 238.51 185.85 238.48 186.30
  L 237.40 201.95
  A 4.28 4.27 -89.8 0 1 233.41 205.92
  Q 217.62 206.92 201.23 208.06
  Q 196.68 208.37 193.21 208.22"
/>
<path stroke="#a7cde9" vector-effect="non-scaling-stroke" d="
  M 142.07 139.06
  A 22.16 22.16 0.0 0 0 119.91 116.90
  A 22.16 22.16 0.0 0 0 97.75 139.06
  A 22.16 22.16 0.0 0 0 119.91 161.22
  A 22.16 22.16 0.0 0 0 142.07 139.06"
/>
<path stroke="#a7cde9" vector-effect="non-scaling-stroke" d="
  M 246.26 139.07
  A 22.17 22.17 0.0 0 0 224.09 116.90
  A 22.17 22.17 0.0 0 0 201.92 139.07
  A 22.17 22.17 0.0 0 0 224.09 161.24
  A 22.17 22.17 0.0 0 0 246.26 139.07"
/>
<path stroke="#a7cde9" vector-effect="non-scaling-stroke" d="
  M 179.2671 136.7527
  A 6.93 6.93 0.0 0 0 172.3492 129.8106
  L 171.7092 129.8095
  A 6.93 6.93 0.0 0 0 164.7671 136.7274
  L 164.7329 156.2873
  A 6.93 6.93 0.0 0 0 171.6508 163.2294
  L 172.2908 163.2305
  A 6.93 6.93 0.0 0 0 179.2329 156.3126
  L 179.2671 136.7527"
/>
<path stroke="#a4a3a4" vector-effect="non-scaling-stroke" d="
  M 136.59 140.37
  A 14.56 14.56 0.0 0 0 122.03 125.81
  A 14.56 14.56 0.0 0 0 107.47 140.37
  A 14.56 14.56 0.0 0 0 122.03 154.93
  A 14.56 14.56 0.0 0 0 136.59 140.37"
/>
<path stroke="#a4a3a4" vector-effect="non-scaling-stroke" d="
  M 236.50 140.35
  A 14.54 14.54 0.0 0 0 221.96 125.81
  A 14.54 14.54 0.0 0 0 207.42 140.35
  A 14.54 14.54 0.0 0 0 221.96 154.89
  A 14.54 14.54 0.0 0 0 236.50 140.35"
/>
</g>
<path fill="#ffffff" d="
  M 0.00 0.00
  L 365.00 0.00
  L 365.00 297.00
  L 0.00 297.00
  L 0.00 0.00
  Z
  M 284.62 94.36
  C 279.50 85.73 272.46 75.79 265.02 68.86
  Q 264.60 68.47 264.11 68.76
  L 245.01 79.88
  Q 244.59 80.12 244.24 79.79
  Q 234.95 71.13 223.85 64.95
  A 0.65 0.63 -74.4 0 1 223.53 64.36
  L 225.15 40.39
  A 0.95 0.95 0.0 0 0 224.62 39.48
  Q 210.65 32.61 195.38 29.54
  Q 194.78 29.42 194.50 29.96
  L 184.01 50.32
  A 1.16 1.14 17.4 0 1 182.83 50.93
  Q 171.93 49.43 161.03 50.98
  Q 160.36 51.08 160.04 50.47
  L 149.52 29.97
  Q 149.25 29.44 148.66 29.56
  Q 133.43 32.67 119.43 39.43
  Q 118.80 39.73 118.85 40.43
  L 120.44 64.35
  Q 120.47 64.78 120.09 64.99
  Q 109.09 71.21 99.79 79.78
  A 0.66 0.65 38.5 0 1 99.02 79.86
  L 79.93 68.74
  Q 79.33 68.39 78.85 68.90
  Q 67.75 80.65 59.25 94.43
  A 1.32 1.32 0.0 0 0 59.29 95.86
  L 72.47 114.77
  Q 72.75 115.17 72.75 115.65
  L 72.75 173.99
  A 0.57 0.56 2.8 0 0 73.26 174.55
  L 109.51 178.05
  A 4.38 4.37 0.7 0 1 113.45 182.08
  L 114.58 197.36
  Q 114.62 197.99 115.25 198.03
  L 145.50 200.14
  A 1.06 1.06 0.0 0 0 146.63 199.20
  Q 147.32 192.98 148.40 186.68
  C 148.97 183.36 150.04 181.99 153.66 181.99
  Q 173.22 182.00 191.76 182.00
  A 3.66 3.65 -4.2 0 1 195.38 185.12
  L 197.52 199.53
  Q 197.62 200.23 198.32 200.18
  L 228.82 198.07
  A 0.64 0.63 -88.9 0 0 229.41 197.49
  L 230.57 181.70
  A 3.91 3.91 0.0 0 1 234.10 178.10
  L 270.94 174.58
  A 0.34 0.34 0.0 0 0 271.25 174.24
  L 271.25 115.06
  Q 271.25 114.61 271.53 114.26
  Q 278.63 105.41 284.61 95.76
  A 1.35 1.34 -44.8 0 0 284.62 94.36
  Z
  M 193.21 208.22
  A 3.24 3.23 -2.9 0 1 190.15 205.47
  L 187.93 190.69
  A 0.76 0.76 0.0 0 0 187.18 190.05
  L 156.83 190.03
  Q 156.18 190.03 156.08 190.68
  L 153.88 205.17
  Q 153.43 208.13 150.43 208.24
  Q 147.67 208.34 143.51 208.07
  Q 127.25 207.01 111.02 205.75
  Q 106.86 205.42 106.51 200.99
  Q 105.94 193.63 105.51 186.35
  A 0.57 0.57 0.0 0 0 105.00 185.82
  L 73.51 182.84
  Q 72.97 182.79 72.91 183.43
  C 68.99 226.08 114.69 237.35 146.66 241.15
  Q 174.85 244.51 202.94 240.45
  C 227.27 236.93 266.42 226.67 270.66 197.19
  Q 271.50 191.33 271.19 183.38
  Q 271.16 182.81 270.59 182.86
  L 238.96 185.81
  Q 238.51 185.85 238.48 186.30
  L 237.40 201.95
  A 4.28 4.27 -89.8 0 1 233.41 205.92
  Q 217.62 206.92 201.23 208.06
  Q 196.68 208.37 193.21 208.22
  Z"
/>
<path fill="#4e9ad3" d="
  M 265.02 68.86
  C 272.46 75.79 279.50 85.73 284.62 94.36
  A 1.35 1.34 -44.8 0 1 284.61 95.76
  Q 278.63 105.41 271.53 114.26
  Q 271.25 114.61 271.25 115.06
  L 271.25 174.24
  A 0.34 0.34 0.0 0 1 270.94 174.58
  L 234.10 178.10
  A 3.91 3.91 0.0 0 0 230.57 181.70
  L 229.41 197.49
  A 0.64 0.63 -88.9 0 1 228.82 198.07
  L 198.32 200.18
  Q 197.62 200.23 197.52 199.53
  L 195.38 185.12
  A 3.66 3.65 -4.2 0 0 191.76 182.00
  Q 173.22 182.00 153.66 181.99
  C 150.04 181.99 148.97 183.36 148.40 186.68
  Q 147.32 192.98 146.63 199.20
  A 1.06 1.06 0.0 0 1 145.50 200.14
  L 115.25 198.03
  Q 114.62 197.99 114.58 197.36
  L 113.45 182.08
  A 4.38 4.37 0.7 0 0 109.51 178.05
  L 73.26 174.55
  A 0.57 0.56 2.8 0 1 72.75 173.99
  L 72.75 115.65
  Q 72.75 115.17 72.47 114.77
  L 59.29 95.86
  A 1.32 1.32 0.0 0 1 59.25 94.43
  Q 67.75 80.65 78.85 68.90
  Q 79.33 68.39 79.93 68.74
  L 99.02 79.86
  A 0.66 0.65 38.5 0 0 99.79 79.78
  Q 109.09 71.21 120.09 64.99
  Q 120.47 64.78 120.44 64.35
  L 118.85 40.43
  Q 118.80 39.73 119.43 39.43
  Q 133.43 32.67 148.66 29.56
  Q 149.25 29.44 149.52 29.97
  L 160.04 50.47
  Q 160.36 51.08 161.03 50.98
  Q 171.93 49.43 182.83 50.93
  A 1.16 1.14 17.4 0 0 184.01 50.32
  L 194.50 29.96
  Q 194.78 29.42 195.38 29.54
  Q 210.65 32.61 224.62 39.48
  A 0.95 0.95 0.0 0 1 225.15 40.39
  L 223.53 64.36
  A 0.65 0.63 -74.4 0 0 223.85 64.95
  Q 234.95 71.13 244.24 79.79
  Q 244.59 80.12 245.01 79.88
  L 264.11 68.76
  Q 264.60 68.47 265.02 68.86
  Z
  M 142.07 139.06
  A 22.16 22.16 0.0 0 0 119.91 116.90
  A 22.16 22.16 0.0 0 0 97.75 139.06
  A 22.16 22.16 0.0 0 0 119.91 161.22
  A 22.16 22.16 0.0 0 0 142.07 139.06
  Z
  M 246.26 139.07
  A 22.17 22.17 0.0 0 0 224.09 116.90
  A 22.17 22.17 0.0 0 0 201.92 139.07
  A 22.17 22.17 0.0 0 0 224.09 161.24
  A 22.17 22.17 0.0 0 0 246.26 139.07
  Z
  M 179.2671 136.7527
  A 6.93 6.93 0.0 0 0 172.3492 129.8106
  L 171.7092 129.8095
  A 6.93 6.93 0.0 0 0 164.7671 136.7274
  L 164.7329 156.2873
  A 6.93 6.93 0.0 0 0 171.6508 163.2294
  L 172.2908 163.2305
  A 6.93 6.93 0.0 0 0 179.2329 156.3126
  L 179.2671 136.7527
  Z"
/>
<path fill="#ffffff" d="
  M 142.07 139.06
  A 22.16 22.16 0.0 0 1 119.91 161.22
  A 22.16 22.16 0.0 0 1 97.75 139.06
  A 22.16 22.16 0.0 0 1 119.91 116.90
  A 22.16 22.16 0.0 0 1 142.07 139.06
  Z
  M 136.59 140.37
  A 14.56 14.56 0.0 0 0 122.03 125.81
  A 14.56 14.56 0.0 0 0 107.47 140.37
  A 14.56 14.56 0.0 0 0 122.03 154.93
  A 14.56 14.56 0.0 0 0 136.59 140.37
  Z"
/>
<path fill="#ffffff" d="
  M 246.26 139.07
  A 22.17 22.17 0.0 0 1 224.09 161.24
  A 22.17 22.17 0.0 0 1 201.92 139.07
  A 22.17 22.17 0.0 0 1 224.09 116.90
  A 22.17 22.17 0.0 0 1 246.26 139.07
  Z
  M 236.50 140.35
  A 14.54 14.54 0.0 0 0 221.96 125.81
  A 14.54 14.54 0.0 0 0 207.42 140.35
  A 14.54 14.54 0.0 0 0 221.96 154.89
  A 14.54 14.54 0.0 0 0 236.50 140.35
  Z"
/>
<circle fill="#484749" cx="122.03" cy="140.37" r="14.56"/>
<circle fill="#484749" cx="221.96" cy="140.35" r="14.54"/>
<rect fill="#ffffff" x="-7.25" y="-16.71" transform="translate(172.00,146.52) rotate(0.1)" width="14.50" height="33.42" rx="6.93"/>
<path fill="#4e9ad3" d="
  M 193.21 208.22
  Q 196.68 208.37 201.23 208.06
  Q 217.62 206.92 233.41 205.92
  A 4.28 4.27 -89.8 0 0 237.40 201.95
  L 238.48 186.30
  Q 238.51 185.85 238.96 185.81
  L 270.59 182.86
  Q 271.16 182.81 271.19 183.38
  Q 271.50 191.33 270.66 197.19
  C 266.42 226.67 227.27 236.93 202.94 240.45
  Q 174.85 244.51 146.66 241.15
  C 114.69 237.35 68.99 226.08 72.91 183.43
  Q 72.97 182.79 73.51 182.84
  L 105.00 185.82
  A 0.57 0.57 0.0 0 1 105.51 186.35
  Q 105.94 193.63 106.51 200.99
  Q 106.86 205.42 111.02 205.75
  Q 127.25 207.01 143.51 208.07
  Q 147.67 208.34 150.43 208.24
  Q 153.43 208.13 153.88 205.17
  L 156.08 190.68
  Q 156.18 190.03 156.83 190.03
  L 187.18 190.05
  A 0.76 0.76 0.0 0 1 187.93 190.69
  L 190.15 205.47
  A 3.24 3.23 -2.9 0 0 193.21 208.22
  Z"
/>
</svg>
