<?xml version="1.0" encoding="UTF-8" standalone="no"?>
<!DOCTYPE svg PUBLIC "-//W3C//DTD SVG 1.1//EN" "http://www.w3.org/Graphics/SVG/1.1/DTD/svg11.dtd">
<svg xmlns="http://www.w3.org/2000/svg" version="1.1" viewBox="0.00 0.00 198.00 215.00">
<g stroke-width="2.00" fill="none" stroke-linecap="butt">
<path stroke="#7c7c7c" vector-effect="non-scaling-stroke" d="
  M 50.44 149.62
  C 51.22 149.21 52.63 149.44 53.40 150.11
  C 79.07 172.69 115.85 174.52 142.75 152.82
  Q 143.09 152.54 143.53 152.62
  L 146.29 153.08
  Q 146.99 153.19 146.52 153.73
  C 144.51 156.01 140.21 160.29 139.78 163.27
  C 139.13 167.82 145.08 170.97 147.98 167.46
  Q 158.84 154.29 169.57 141.00
  C 175.19 134.05 167.28 128.32 162.68 133.78
  Q 160.46 136.42 158.30 139.19
  Q 157.99 139.58 157.67 139.21
  C 156.23 137.53 161.06 130.08 162.03 128.01
  Q 162.24 127.56 162.73 127.50
  C 174.96 125.84 179.61 114.69 179.98 103.25
  C 180.47 88.40 178.05 74.78 162.05 70.09
  Q 161.57 69.95 161.33 69.52
  C 134.46 19.61 68.02 17.95 39.36 67.19
  Q 39.11 67.62 38.61 67.66
  C 22.17 68.97 20.61 88.10 19.85 100.32
  C 19.23 110.38 24.36 123.25 35.47 124.78
  A 0.93 0.93 0.0 0 1 36.19 125.32
  C 37.47 128.11 40.83 133.15 39.56 136.11
  Q 39.32 136.67 38.94 136.20
  Q 36.49 133.19 34.10 130.17
  C 30.51 125.64 24.38 128.53 25.06 134.37
  A 1.58 1.58 0.0 0 0 25.40 135.19
  Q 36.07 148.64 47.01 161.87
  Q 48.86 164.11 49.90 164.68
  C 52.80 166.28 57.14 164.05 57.15 160.69
  C 57.17 157.61 52.41 152.60 50.32 150.31
  Q 49.94 149.89 50.44 149.62"
/>
<path stroke="#25201d" vector-effect="non-scaling-stroke" d="
  M 35.86 116.57
  C 43.29 143.89 66.37 163.22 94.58 165.77
  A 0.52 0.51 89.5 0 0 95.14 165.20
  L 93.83 153.70"
/>
<path stroke="#3a322c" vector-effect="non-scaling-stroke" d="
  M 93.83 153.70
  Q 92.72 143.31 94.41 132.72
  Q 94.49 132.20 93.97 132.15
  C 68.22 129.64 35.76 110.37 44.62 79.36
  C 50.14 60.07 70.65 48.67 89.27 46.32
  Q 93.22 45.83 97.33 45.34
  Q 97.92 45.27 97.90 44.68
  Q 97.71 38.90 99.89 33.64
  A 0.24 0.24 0.0 0 0 99.66 33.31
  C 65.46 34.11 38.06 58.62 33.86 92.91
  Q 33.81 93.30 34.20 93.22
  C 35.45 92.94 42.66 91.71 42.91 92.64
  A 0.39 0.39 0.0 0 1 42.53 93.13
  Q 40.37 93.06 37.07 93.39
  C 32.83 93.82 33.56 96.14 33.51 99.25
  Q 33.37 108.30 35.86 116.57"
/>
<path stroke="#5e5148" vector-effect="non-scaling-stroke" d="
  M 93.83 153.70
  Q 81.85 153.01 71.10 148.31"
/>
<path stroke="#3a322c" vector-effect="non-scaling-stroke" d="
  M 71.10 148.31
  C 80.18 143.69 75.82 130.15 65.63 132.78
  Q 60.69 134.05 60.22 139.96"
/>
<path stroke="#5e5148" vector-effect="non-scaling-stroke" d="
  M 60.22 139.96
  Q 59.26 141.51 58.17 140.59
  Q 45.40 129.80 35.86 116.57"
/>
<path stroke="#25201d" vector-effect="non-scaling-stroke" d="
  M 60.22 139.96
  Q 60.12 150.34 71.10 148.31"
/>
<path stroke="#3a322c" vector-effect="non-scaling-stroke" d="
  M 165.90 95.54
  C 162.91 61.94 137.43 35.67 103.49 33.41
  Q 102.40 33.33 101.28 33.57
  Q 100.75 33.68 100.56 34.18
  Q 98.60 39.26 98.62 44.70
  A 0.50 0.50 0.0 0 0 99.10 45.20
  C 115.18 45.96 130.27 49.60 142.43 60.45
  C 152.69 69.60 157.56 80.68 155.86 94.30
  A 0.61 0.61 0.0 0 0 156.47 94.99
  L 160.46 95.01
  Q 161.03 95.02 160.74 94.52
  Q 159.30 92.07 161.18 90.28
  Q 161.59 89.89 162.14 90.01
  C 164.83 90.56 165.00 93.54 162.80 94.95
  A 0.38 0.38 0.0 0 0 162.95 95.64
  L 165.35 96.05
  Q 165.95 96.15 165.90 95.54"
/>
<path stroke="#333333" vector-effect="non-scaling-stroke" d="
  M 51.79 109.55
  Q 53.12 112.03 55.25 113.70
  Q 56.39 114.60 55.51 113.45
  L 52.46 109.47"
/>
<path stroke="#5a5a5a" vector-effect="non-scaling-stroke" d="
  M 52.46 109.47
  Q 41.63 91.32 53.17 73.59
  C 65.42 54.77 90.58 49.32 111.74 52.73
  C 133.87 56.31 156.73 73.99 151.49 99.23
  Q 150.02 106.31 144.10 113.14
  A 0.16 0.16 0.0 0 0 144.23 113.40
  Q 144.52 113.39 144.81 113.08
  C 154.08 103.25 157.48 90.25 152.92 77.51
  C 146.73 60.22 126.95 49.61 109.51 47.49
  Q 83.57 44.35 62.99 57.48
  C 45.07 68.92 37.97 91.62 51.79 109.55"
/>
<path stroke="#8d8d8d" vector-effect="non-scaling-stroke" d="
  M 52.46 109.47
  L 51.79 109.55"
/>
<path stroke="#1a1a1a" vector-effect="non-scaling-stroke" d="
  M 151.0099 91.7906
  A 51.25 38.90 -0.1 0 0 99.6921 52.9801
  A 51.25 38.90 -0.1 0 0 48.5101 91.9694
  A 51.25 38.90 -0.1 0 0 99.8279 130.7799
  A 51.25 38.90 -0.1 0 0 151.0099 91.7906"
/>
<path stroke="#333333" vector-effect="non-scaling-stroke" d="
  M 31.30 119.81
  C 31.78 121.52 33.13 121.83 34.59 122.43
  Q 35.20 122.68 35.00 122.05
  Q 26.61 95.98 37.48 70.93
  Q 37.65 70.53 37.22 70.47
  Q 34.02 69.98 33.05 72.55
  Q 24.49 95.21 31.30 119.81"
/>
<path stroke="#25201d" vector-effect="non-scaling-stroke" d="
  M 29.94 73.75
  Q 24.39 79.95 23.28 87.77
  C 21.71 98.85 19.94 111.93 29.41 119.60
  A 0.35 0.35 0.0 0 0 29.98 119.28
  C 29.51 116.11 28.32 112.47 27.94 109.97
  Q 25.10 91.20 31.12 74.45
  Q 32.34 71.07 29.94 73.75"
/>
<path stroke="#5a5a5a" vector-effect="non-scaling-stroke" d="
  M 164.19 72.96
  A 0.72 0.71 -85.7 0 0 163.17 73.84
  Q 172.97 98.83 163.69 124.07
  Q 163.46 124.68 164.11 124.76
  Q 165.37 124.92 166.37 124.12
  Q 166.73 123.83 166.88 123.39
  Q 175.22 99.85 167.48 76.03
  Q 167.01 74.59 164.19 72.96"
/>
<path stroke="#3a322c" vector-effect="non-scaling-stroke" d="
  M 169.08 76.57
  C 173.63 90.63 173.55 107.46 168.87 121.18
  Q 167.73 124.50 170.29 122.09
  C 178.26 114.56 177.76 106.74 177.52 96.21
  C 177.33 87.65 175.70 81.93 169.60 76.24
  A 0.32 0.32 0.0 0 0 169.08 76.57"
/>
<path stroke="#524944" vector-effect="non-scaling-stroke" d="
  M 162.5757 93.8837
  A 1.49 1.32 74.2 0 0 163.4401 92.0906
  A 1.49 1.32 74.2 0 0 161.7643 91.0163
  A 1.49 1.32 74.2 0 0 160.8999 92.8094
  A 1.49 1.32 74.2 0 0 162.5757 93.8837"
/>
<path stroke="#25201d" vector-effect="non-scaling-stroke" d="
  M 94.89 154.20
  L 96.00 164.84
  A 1.38 1.37 -3.0 0 0 97.38 166.08
  C 122.83 166.05 144.74 154.11 157.40 131.95"
/>
<path stroke="#3a322c" vector-effect="non-scaling-stroke" d="
  M 157.40 131.95
  Q 166.18 116.73 165.99 98.19
  A 0.96 0.95 -80.1 0 0 165.38 97.31
  Q 160.96 95.58 156.18 95.63
  Q 155.60 95.64 155.47 96.20
  C 149.15 121.93 119.63 133.31 95.87 132.23
  Q 95.35 132.20 95.26 132.71
  Q 93.41 143.64 94.89 154.20"
/>
<path stroke="#5e5148" vector-effect="non-scaling-stroke" d="
  M 157.40 131.95
  Q 146.77 139.14 135.44 144.82"
/>
<path stroke="#3a322c" vector-effect="non-scaling-stroke" d="
  M 135.44 144.82
  C 136.78 134.08 124.06 130.16 120.04 139.17
  Q 117.61 144.63 123.20 149.59"
/>
<path stroke="#5e5148" vector-effect="non-scaling-stroke" d="
  M 123.20 149.59
  C 113.87 152.67 104.61 153.67 94.89 154.20"
/>
<path stroke="#25201d" vector-effect="non-scaling-stroke" d="
  M 123.20 149.59
  Q 125.19 150.62 125.75 149.90"
/>
<path stroke="#776961" vector-effect="non-scaling-stroke" d="
  M 125.75 149.90
  Q 126.95 149.57 128.25 149.84"
/>
<path stroke="#25201d" vector-effect="non-scaling-stroke" d="
  M 128.25 149.84
  C 129.33 150.15 130.38 150.18 131.36 149.49
  Q 134.25 147.46 135.44 144.82"
/>
<path stroke="#524944" vector-effect="non-scaling-stroke" d="
  M 128.25 149.84
  C 134.54 149.12 136.61 142.04 133.06 137.65
  C 125.56 128.38 112.16 144.03 125.75 149.90"
/>
<path stroke="#3a322c" vector-effect="non-scaling-stroke" d="
  M 28.52 130.39
  C 24.49 131.07 28.00 135.67 29.19 137.13
  Q 39.06 149.25 48.92 161.40
  Q 50.05 162.80 50.92 163.21
  Q 52.53 163.97 53.89 162.90"
/>
<path stroke="#25201d" vector-effect="non-scaling-stroke" d="
  M 53.89 162.90
  Q 56.40 160.59 54.16 157.83
  Q 43.25 144.37 32.31 130.95
  Q 30.64 128.90 28.52 130.39"
/>
<path stroke="#5e5148" vector-effect="non-scaling-stroke" d="
  M 53.89 162.90
  Q 38.39 143.62 30.93 134.07
  Q 30.01 132.90 28.52 130.39"
/>
<path stroke="#3a322c" vector-effect="non-scaling-stroke" d="
  M 169.2607 138.5324
  A 3.13 3.13 0.0 0 0 168.8057 134.1294
  L 168.7126 134.0537
  A 3.13 3.13 0.0 0 0 164.3095 134.5087
  L 142.0593 161.8876
  A 3.13 3.13 0.0 0 0 142.5143 166.2906
  L 142.6074 166.3663
  A 3.13 3.13 0.0 0 0 147.0105 165.9113
  L 169.2607 138.5324"
/>
<path stroke="#333333" vector-effect="non-scaling-stroke" d="
  M 41.24 136.03
  L 40.95 138.10
  Q 40.88 138.64 41.22 139.06
  C 42.77 140.93 47.88 148.31 50.25 147.96
  Q 51.14 147.83 50.51 147.19
  Q 45.46 142.08 41.69 135.94
  Q 41.33 135.35 41.24 136.03"
/>
<path stroke="#333333" vector-effect="non-scaling-stroke" d="
  M 145.23 151.85
  C 148.66 152.22 152.08 146.88 155.12 142.90
  Q 156.49 141.10 156.08 139.68
  Q 155.81 138.75 155.26 139.55
  Q 150.82 145.93 144.97 151.03
  A 0.47 0.47 0.0 0 0 145.23 151.85"
/>
<path stroke="#8c7b70" vector-effect="non-scaling-stroke" d="
  M 42.88 76.47
  C 53.94 55.65 73.49 45.33 95.26 42.55
  Q 95.51 42.52 95.50 42.27
  Q 95.50 42.12 95.51 41.98
  Q 95.54 41.56 95.12 41.59
  C 68.46 43.54 48.23 54.56 40.12 81.14
  Q 39.89 81.90 40.46 81.34
  Q 41.55 80.28 41.96 79.12
  Q 42.85 76.52 42.88 76.47"
/>
<path stroke="#3a322c" vector-effect="non-scaling-stroke" d="
  M 35.63 87.96
  C 34.04 88.57 36.18 90.72 37.70 90.49
  A 2.33 2.33 0.0 0 0 39.66 88.46
  C 39.96 85.92 36.88 85.63 35.52 87.08
  Q 35.46 87.14 35.49 87.21
  Q 35.56 87.44 35.72 87.69
  Q 35.84 87.88 35.63 87.96"
/>
<path stroke="#3a322c" vector-effect="non-scaling-stroke" d="
  M 107.78 37.27
  A 2.18 2.18 0.0 0 0 105.60 35.09
  A 2.18 2.18 0.0 0 0 103.42 37.27
  A 2.18 2.18 0.0 0 0 105.60 39.45
  A 2.18 2.18 0.0 0 0 107.78 37.27"
/>
<path stroke="#524944" vector-effect="non-scaling-stroke" d="
  M 107.05 37.31
  A 1.44 1.44 0.0 0 0 105.61 35.87
  A 1.44 1.44 0.0 0 0 104.17 37.31
  A 1.44 1.44 0.0 0 0 105.61 38.75
  A 1.44 1.44 0.0 0 0 107.05 37.31"
/>
<path stroke="#4d4d4d" vector-effect="non-scaling-stroke" d="
  M 93.62 126.61
  C 76.86 124.40 58.54 114.38 55.34 96.70
  C 52.46 80.81 63.93 67.42 78.09 61.37
  Q 86.00 57.99 95.87 56.76
  A 0.13 0.12 40.9 0 0 95.85 56.51
  Q 78.85 56.54 65.00 65.96
  Q 54.07 73.38 50.94 85.65
  C 48.19 96.42 53.37 108.70 61.95 115.52
  Q 75.75 126.49 93.57 127.21
  A 0.30 0.30 0.0 0 0 93.62 126.61"
/>
<path stroke="#1a1a1a" vector-effect="non-scaling-stroke" d="
  M 81.0065 95.7549
  A 10.30 10.03 91.8 0 0 91.3551 85.7750
  A 10.30 10.03 91.8 0 0 81.6535 75.1651
  A 10.30 10.03 91.8 0 0 71.3049 85.1450
  A 10.30 10.03 91.8 0 0 81.0065 95.7549"
/>
<path stroke="#1a1a1a" vector-effect="non-scaling-stroke" d="
  M 128.1378 82.4620
  A 10.23 10.25 -17.1 0 0 115.3461 75.6731
  A 10.23 10.25 -17.1 0 0 108.5822 88.4780
  A 10.23 10.25 -17.1 0 0 121.3739 95.2669
  A 10.23 10.25 -17.1 0 0 128.1378 82.4620"
/>
<path stroke="#666666" vector-effect="non-scaling-stroke" d="
  M 90.60 85.47
  A 9.28 9.28 0.0 0 0 81.32 76.19
  A 9.28 9.28 0.0 0 0 72.04 85.47
  A 9.28 9.28 0.0 0 0 81.32 94.75
  A 9.28 9.28 0.0 0 0 90.60 85.47"
/>
<path stroke="#666666" vector-effect="non-scaling-stroke" d="
  M 127.48 85.48
  A 9.29 9.29 0.0 0 0 118.19 76.19
  A 9.29 9.29 0.0 0 0 108.90 85.48
  A 9.29 9.29 0.0 0 0 118.19 94.77
  A 9.29 9.29 0.0 0 0 127.48 85.48"
/>
<path stroke="#524944" vector-effect="non-scaling-stroke" d="
  M 38.87 88.30
  A 1.44 1.44 0.0 0 0 37.43 86.86
  A 1.44 1.44 0.0 0 0 35.99 88.30
  A 1.44 1.44 0.0 0 0 37.43 89.74
  A 1.44 1.44 0.0 0 0 38.87 88.30"
/>
<path stroke="#25201d" vector-effect="non-scaling-stroke" d="
  M 101.54 163.77
  L 101.39 160.95
  A 0.82 0.82 0.0 0 0 100.53 160.18
  L 100.22 160.20
  A 2.83 2.10 -3.1 0 0 97.51 162.45
  L 97.52 162.71
  A 2.83 2.10 -3.1 0 0 100.46 164.65
  L 100.77 164.63
  A 0.82 0.82 0.0 0 0 101.54 163.77"
/>
<path stroke="#5a5a5a" vector-effect="non-scaling-stroke" d="
  M 68.08 133.18
  C 65.11 133.01 60.98 135.63 61.13 139.23
  C 61.22 141.48 60.87 143.53 62.33 145.33
  C 68.30 152.68 79.63 143.54 73.72 136.24
  Q 71.39 133.37 68.08 133.18"
/>
<path stroke="#5a5a5a" vector-effect="non-scaling-stroke" d="
  M 62.24 141.14
  Q 61.65 143.97 64.35 145.66
  C 72.65 150.88 78.29 138.45 70.30 134.77
  Q 65.44 132.53 62.15 137.93
  Q 61.38 139.19 62.11 140.39
  Q 62.33 140.74 62.24 141.14"
/>
<path stroke="#560b11" vector-effect="non-scaling-stroke" d="
  M 68.75 143.95
  L 72.31 140.90
  A 1.93 1.93 0.0 0 0 72.52 138.18
  L 71.63 137.14
  A 4.88 4.18 49.4 0 0 65.28 136.16
  L 65.14 136.27
  A 4.88 4.18 49.4 0 0 65.14 142.70
  L 66.03 143.74
  A 1.93 1.93 0.0 0 0 68.75 143.95"
/>
<path stroke="#333333" vector-effect="non-scaling-stroke" d="
  M 71.48 143.92
  C 68.38 145.78 66.07 145.33 63.68 142.69
  Q 62.85 141.76 63.28 142.93
  C 64.54 146.27 69.77 147.72 71.78 144.21
  Q 72.18 143.50 71.48 143.92"
/>
<path stroke="#524944" vector-effect="non-scaling-stroke" d="
  M 133.77 142.38
  A 6.25 6.25 0.0 0 0 127.52 136.13
  A 6.25 6.25 0.0 0 0 121.27 142.38
  A 6.25 6.25 0.0 0 0 127.52 148.63
  A 6.25 6.25 0.0 0 0 133.77 142.38"
/>
<path stroke="#560b11" vector-effect="non-scaling-stroke" d="
  M 131.24 143.73
  C 135.33 138.91 124.98 133.37 123.10 140.45
  Q 122.96 140.98 123.30 141.41
  Q 125.99 144.82 130.39 144.20
  A 1.38 1.34 -73.1 0 0 131.24 143.73"
/>
<path stroke="#25201d" vector-effect="non-scaling-stroke" d="
  M 131.93 145.10
  C 131.65 144.78 127.17 149.03 123.89 145.41
  Q 123.49 144.97 123.26 145.53
  Q 123.06 146.03 123.61 146.43
  Q 128.37 149.89 131.94 145.57
  Q 132.14 145.33 131.93 145.10"
/>
<path stroke="#333333" vector-effect="non-scaling-stroke" d="
  M 100.3642 163.7470
  A 1.52 1.40 62.4 0 0 100.9007 161.7514
  A 1.52 1.40 62.4 0 0 98.9558 161.0530
  A 1.52 1.40 62.4 0 0 98.4193 163.0486
  A 1.52 1.40 62.4 0 0 100.3642 163.7470"
/>
</g>
<path fill="#f7f7f7" d="
  M 0.00 0.00
  L 198.00 0.00
  L 198.00 215.00
  L 0.00 215.00
  L 0.00 0.00
  Z
  M 50.44 149.62
  C 51.22 149.21 52.63 149.44 53.40 150.11
  C 79.07 172.69 115.85 174.52 142.75 152.82
  Q 143.09 152.54 143.53 152.62
  L 146.29 153.08
  Q 146.99 153.19 146.52 153.73
  C 144.51 156.01 140.21 160.29 139.78 163.27
  C 139.13 167.82 145.08 170.97 147.98 167.46
  Q 158.84 154.29 169.57 141.00
  C 175.19 134.05 167.28 128.32 162.68 133.78
  Q 160.46 136.42 158.30 139.19
  Q 157.99 139.58 157.67 139.21
  C 156.23 137.53 161.06 130.08 162.03 128.01
  Q 162.24 127.56 162.73 127.50
  C 174.96 125.84 179.61 114.69 179.98 103.25
  C 180.47 88.40 178.05 74.78 162.05 70.09
  Q 161.57 69.95 161.33 69.52
  C 134.46 19.61 68.02 17.95 39.36 67.19
  Q 39.11 67.62 38.61 67.66
  C 22.17 68.97 20.61 88.10 19.85 100.32
  C 19.23 110.38 24.36 123.25 35.47 124.78
  A 0.93 0.93 0.0 0 1 36.19 125.32
  C 37.47 128.11 40.83 133.15 39.56 136.11
  Q 39.32 136.67 38.94 136.20
  Q 36.49 133.19 34.10 130.17
  C 30.51 125.64 24.38 128.53 25.06 134.37
  A 1.58 1.58 0.0 0 0 25.40 135.19
  Q 36.07 148.64 47.01 161.87
  Q 48.86 164.11 49.90 164.68
  C 52.80 166.28 57.14 164.05 57.15 160.69
  C 57.17 157.61 52.41 152.60 50.32 150.31
  Q 49.94 149.89 50.44 149.62
  Z"
/>
<path fill="#000000" d="
  M 50.32 150.31
  C 52.41 152.60 57.17 157.61 57.15 160.69
  C 57.14 164.05 52.80 166.28 49.90 164.68
  Q 48.86 164.11 47.01 161.87
  Q 36.07 148.64 25.40 135.19
  A 1.58 1.58 0.0 0 1 25.06 134.37
  C 24.38 128.53 30.51 125.64 34.10 130.17
  Q 36.49 133.19 38.94 136.20
  Q 39.32 136.67 39.56 136.11
  C 40.83 133.15 37.47 128.11 36.19 125.32
  A 0.93 0.93 0.0 0 0 35.47 124.78
  C 24.36 123.25 19.23 110.38 19.85 100.32
  C 20.61 88.10 22.17 68.97 38.61 67.66
  Q 39.11 67.62 39.36 67.19
  C 68.02 17.95 134.46 19.61 161.33 69.52
  Q 161.57 69.95 162.05 70.09
  C 178.05 74.78 180.47 88.40 179.98 103.25
  C 179.61 114.69 174.96 125.84 162.73 127.50
  Q 162.24 127.56 162.03 128.01
  C 161.06 130.08 156.23 137.53 157.67 139.21
  Q 157.99 139.58 158.30 139.19
  Q 160.46 136.42 162.68 133.78
  C 167.28 128.32 175.19 134.05 169.57 141.00
  Q 158.84 154.29 147.98 167.46
  C 145.08 170.97 139.13 167.82 139.78 163.27
  C 140.21 160.29 144.51 156.01 146.52 153.73
  Q 146.99 153.19 146.29 153.08
  L 143.53 152.62
  Q 143.09 152.54 142.75 152.82
  C 115.85 174.52 79.07 172.69 53.40 150.11
  C 52.63 149.44 51.22 149.21 50.44 149.62
  Q 49.94 149.89 50.32 150.31
  Z
  M 35.86 116.57
  C 43.29 143.89 66.37 163.22 94.58 165.77
  A 0.52 0.51 89.5 0 0 95.14 165.20
  L 93.83 153.70
  Q 92.72 143.31 94.41 132.72
  Q 94.49 132.20 93.97 132.15
  C 68.22 129.64 35.76 110.37 44.62 79.36
  C 50.14 60.07 70.65 48.67 89.27 46.32
  Q 93.22 45.83 97.33 45.34
  Q 97.92 45.27 97.90 44.68
  Q 97.71 38.90 99.89 33.64
  A 0.24 0.24 0.0 0 0 99.66 33.31
  C 65.46 34.11 38.06 58.62 33.86 92.91
  Q 33.81 93.30 34.20 93.22
  C 35.45 92.94 42.66 91.71 42.91 92.64
  A 0.39 0.39 0.0 0 1 42.53 93.13
  Q 40.37 93.06 37.07 93.39
  C 32.83 93.82 33.56 96.14 33.51 99.25
  Q 33.37 108.30 35.86 116.57
  Z
  M 165.90 95.54
  C 162.91 61.94 137.43 35.67 103.49 33.41
  Q 102.40 33.33 101.28 33.57
  Q 100.75 33.68 100.56 34.18
  Q 98.60 39.26 98.62 44.70
  A 0.50 0.50 0.0 0 0 99.10 45.20
  C 115.18 45.96 130.27 49.60 142.43 60.45
  C 152.69 69.60 157.56 80.68 155.86 94.30
  A 0.61 0.61 0.0 0 0 156.47 94.99
  L 160.46 95.01
  Q 161.03 95.02 160.74 94.52
  Q 159.30 92.07 161.18 90.28
  Q 161.59 89.89 162.14 90.01
  C 164.83 90.56 165.00 93.54 162.80 94.95
  A 0.38 0.38 0.0 0 0 162.95 95.64
  L 165.35 96.05
  Q 165.95 96.15 165.90 95.54
  Z
  M 51.79 109.55
  Q 53.12 112.03 55.25 113.70
  Q 56.39 114.60 55.51 113.45
  L 52.46 109.47
  Q 41.63 91.32 53.17 73.59
  C 65.42 54.77 90.58 49.32 111.74 52.73
  C 133.87 56.31 156.73 73.99 151.49 99.23
  Q 150.02 106.31 144.10 113.14
  A 0.16 0.16 0.0 0 0 144.23 113.40
  Q 144.52 113.39 144.81 113.08
  C 154.08 103.25 157.48 90.25 152.92 77.51
  C 146.73 60.22 126.95 49.61 109.51 47.49
  Q 83.57 44.35 62.99 57.48
  C 45.07 68.92 37.97 91.62 51.79 109.55
  Z
  M 151.0099 91.7906
  A 51.25 38.90 -0.1 0 0 99.6921 52.9801
  A 51.25 38.90 -0.1 0 0 48.5101 91.9694
  A 51.25 38.90 -0.1 0 0 99.8279 130.7799
  A 51.25 38.90 -0.1 0 0 151.0099 91.7906
  Z
  M 31.30 119.81
  C 31.78 121.52 33.13 121.83 34.59 122.43
  Q 35.20 122.68 35.00 122.05
  Q 26.61 95.98 37.48 70.93
  Q 37.65 70.53 37.22 70.47
  Q 34.02 69.98 33.05 72.55
  Q 24.49 95.21 31.30 119.81
  Z
  M 29.94 73.75
  Q 24.39 79.95 23.28 87.77
  C 21.71 98.85 19.94 111.93 29.41 119.60
  A 0.35 0.35 0.0 0 0 29.98 119.28
  C 29.51 116.11 28.32 112.47 27.94 109.97
  Q 25.10 91.20 31.12 74.45
  Q 32.34 71.07 29.94 73.75
  Z
  M 164.19 72.96
  A 0.72 0.71 -85.7 0 0 163.17 73.84
  Q 172.97 98.83 163.69 124.07
  Q 163.46 124.68 164.11 124.76
  Q 165.37 124.92 166.37 124.12
  Q 166.73 123.83 166.88 123.39
  Q 175.22 99.85 167.48 76.03
  Q 167.01 74.59 164.19 72.96
  Z
  M 169.08 76.57
  C 173.63 90.63 173.55 107.46 168.87 121.18
  Q 167.73 124.50 170.29 122.09
  C 178.26 114.56 177.76 106.74 177.52 96.21
  C 177.33 87.65 175.70 81.93 169.60 76.24
  A 0.32 0.32 0.0 0 0 169.08 76.57
  Z
  M 162.5757 93.8837
  A 1.49 1.32 74.2 0 0 163.4401 92.0906
  A 1.49 1.32 74.2 0 0 161.7643 91.0163
  A 1.49 1.32 74.2 0 0 160.8999 92.8094
  A 1.49 1.32 74.2 0 0 162.5757 93.8837
  Z
  M 94.89 154.20
  L 96.00 164.84
  A 1.38 1.37 -3.0 0 0 97.38 166.08
  C 122.83 166.05 144.74 154.11 157.40 131.95
  Q 166.18 116.73 165.99 98.19
  A 0.96 0.95 -80.1 0 0 165.38 97.31
  Q 160.96 95.58 156.18 95.63
  Q 155.60 95.64 155.47 96.20
  C 149.15 121.93 119.63 133.31 95.87 132.23
  Q 95.35 132.20 95.26 132.71
  Q 93.41 143.64 94.89 154.20
  Z
  M 28.52 130.39
  C 24.49 131.07 28.00 135.67 29.19 137.13
  Q 39.06 149.25 48.92 161.40
  Q 50.05 162.80 50.92 163.21
  Q 52.53 163.97 53.89 162.90
  Q 56.40 160.59 54.16 157.83
  Q 43.25 144.37 32.31 130.95
  Q 30.64 128.90 28.52 130.39
  Z
  M 169.2607 138.5324
  A 3.13 3.13 0.0 0 0 168.8057 134.1294
  L 168.7126 134.0537
  A 3.13 3.13 0.0 0 0 164.3095 134.5087
  L 142.0593 161.8876
  A 3.13 3.13 0.0 0 0 142.5143 166.2906
  L 142.6074 166.3663
  A 3.13 3.13 0.0 0 0 147.0105 165.9113
  L 169.2607 138.5324
  Z
  M 41.24 136.03
  L 40.95 138.10
  Q 40.88 138.64 41.22 139.06
  C 42.77 140.93 47.88 148.31 50.25 147.96
  Q 51.14 147.83 50.51 147.19
  Q 45.46 142.08 41.69 135.94
  Q 41.33 135.35 41.24 136.03
  Z
  M 145.23 151.85
  C 148.66 152.22 152.08 146.88 155.12 142.90
  Q 156.49 141.10 156.08 139.68
  Q 155.81 138.75 155.26 139.55
  Q 150.82 145.93 144.97 151.03
  A 0.47 0.47 0.0 0 0 145.23 151.85
  Z"
/>
<path fill="#736357" d="
  M 93.83 153.70
  Q 81.85 153.01 71.10 148.31
  C 80.18 143.69 75.82 130.15 65.63 132.78
  Q 60.69 134.05 60.22 139.96
  Q 59.26 141.51 58.17 140.59
  Q 45.40 129.80 35.86 116.57
  Q 33.37 108.30 33.51 99.25
  C 33.56 96.14 32.83 93.82 37.07 93.39
  Q 40.37 93.06 42.53 93.13
  A 0.39 0.39 0.0 0 0 42.91 92.64
  C 42.66 91.71 35.45 92.94 34.20 93.22
  Q 33.81 93.30 33.86 92.91
  C 38.06 58.62 65.46 34.11 99.66 33.31
  A 0.24 0.24 0.0 0 1 99.89 33.64
  Q 97.71 38.90 97.90 44.68
  Q 97.92 45.27 97.33 45.34
  Q 93.22 45.83 89.27 46.32
  C 70.65 48.67 50.14 60.07 44.62 79.36
  C 35.76 110.37 68.22 129.64 93.97 132.15
  Q 94.49 132.20 94.41 132.72
  Q 92.72 143.31 93.83 153.70
  Z
  M 42.88 76.47
  C 53.94 55.65 73.49 45.33 95.26 42.55
  Q 95.51 42.52 95.50 42.27
  Q 95.50 42.12 95.51 41.98
  Q 95.54 41.56 95.12 41.59
  C 68.46 43.54 48.23 54.56 40.12 81.14
  Q 39.89 81.90 40.46 81.34
  Q 41.55 80.28 41.96 79.12
  Q 42.85 76.52 42.88 76.47
  Z
  M 35.63 87.96
  C 34.04 88.57 36.18 90.72 37.70 90.49
  A 2.33 2.33 0.0 0 0 39.66 88.46
  C 39.96 85.92 36.88 85.63 35.52 87.08
  Q 35.46 87.14 35.49 87.21
  Q 35.56 87.44 35.72 87.69
  Q 35.84 87.88 35.63 87.96
  Z"
/>
<path fill="#736357" d="
  M 103.49 33.41
  C 137.43 35.67 162.91 61.94 165.90 95.54
  Q 165.95 96.15 165.35 96.05
  L 162.95 95.64
  A 0.38 0.38 0.0 0 1 162.80 94.95
  C 165.00 93.54 164.83 90.56 162.14 90.01
  Q 161.59 89.89 161.18 90.28
  Q 159.30 92.07 160.74 94.52
  Q 161.03 95.02 160.46 95.01
  L 156.47 94.99
  A 0.61 0.61 0.0 0 1 155.86 94.30
  C 157.56 80.68 152.69 69.60 142.43 60.45
  C 130.27 49.60 115.18 45.96 99.10 45.20
  A 0.50 0.50 0.0 0 1 98.62 44.70
  Q 98.60 39.26 100.56 34.18
  Q 100.75 33.68 101.28 33.57
  Q 102.40 33.33 103.49 33.41
  Z
  M 107.78 37.27
  A 2.18 2.18 0.0 0 0 105.60 35.09
  A 2.18 2.18 0.0 0 0 103.42 37.27
  A 2.18 2.18 0.0 0 0 105.60 39.45
  A 2.18 2.18 0.0 0 0 107.78 37.27
  Z"
/>
<path fill="#000000" d="
  M 107.78 37.27
  A 2.18 2.18 0.0 0 1 105.60 39.45
  A 2.18 2.18 0.0 0 1 103.42 37.27
  A 2.18 2.18 0.0 0 1 105.60 35.09
  A 2.18 2.18 0.0 0 1 107.78 37.27
  Z
  M 107.05 37.31
  A 1.44 1.44 0.0 0 0 105.61 35.87
  A 1.44 1.44 0.0 0 0 104.17 37.31
  A 1.44 1.44 0.0 0 0 105.61 38.75
  A 1.44 1.44 0.0 0 0 107.05 37.31
  Z"
/>
<circle fill="#a49288" cx="105.61" cy="37.31" r="1.44"/>
<path fill="#a49288" d="
  M 95.26 42.55
  C 73.49 45.33 53.94 55.65 42.88 76.47
  Q 42.85 76.52 41.96 79.12
  Q 41.55 80.28 40.46 81.34
  Q 39.89 81.90 40.12 81.14
  C 48.23 54.56 68.46 43.54 95.12 41.59
  Q 95.54 41.56 95.51 41.98
  Q 95.50 42.12 95.50 42.27
  Q 95.51 42.52 95.26 42.55
  Z"
/>
<path fill="#b3b3b3" d="
  M 52.46 109.47
  L 51.79 109.55
  C 37.97 91.62 45.07 68.92 62.99 57.48
  Q 83.57 44.35 109.51 47.49
  C 126.95 49.61 146.73 60.22 152.92 77.51
  C 157.48 90.25 154.08 103.25 144.81 113.08
  Q 144.52 113.39 144.23 113.40
  A 0.16 0.16 0.0 0 1 144.10 113.14
  Q 150.02 106.31 151.49 99.23
  C 156.73 73.99 133.87 56.31 111.74 52.73
  C 90.58 49.32 65.42 54.77 53.17 73.59
  Q 41.63 91.32 52.46 109.47
  Z"
/>
<path fill="#333333" d="
  M 151.0099 91.7906
  A 51.25 38.90 -0.1 0 1 99.8279 130.7799
  A 51.25 38.90 -0.1 0 1 48.5101 91.9694
  A 51.25 38.90 -0.1 0 1 99.6921 52.9801
  A 51.25 38.90 -0.1 0 1 151.0099 91.7906
  Z
  M 93.62 126.61
  C 76.86 124.40 58.54 114.38 55.34 96.70
  C 52.46 80.81 63.93 67.42 78.09 61.37
  Q 86.00 57.99 95.87 56.76
  A 0.13 0.12 40.9 0 0 95.85 56.51
  Q 78.85 56.54 65.00 65.96
  Q 54.07 73.38 50.94 85.65
  C 48.19 96.42 53.37 108.70 61.95 115.52
  Q 75.75 126.49 93.57 127.21
  A 0.30 0.30 0.0 0 0 93.62 126.61
  Z
  M 81.0065 95.7549
  A 10.30 10.03 91.8 0 0 91.3551 85.7750
  A 10.30 10.03 91.8 0 0 81.6535 75.1651
  A 10.30 10.03 91.8 0 0 71.3049 85.1450
  A 10.30 10.03 91.8 0 0 81.0065 95.7549
  Z
  M 128.1378 82.4620
  A 10.23 10.25 -17.1 0 0 115.3461 75.6731
  A 10.23 10.25 -17.1 0 0 108.5822 88.4780
  A 10.23 10.25 -17.1 0 0 121.3739 95.2669
  A 10.23 10.25 -17.1 0 0 128.1378 82.4620
  Z"
/>
<path fill="#666666" d="
  M 93.62 126.61
  A 0.30 0.30 0.0 0 1 93.57 127.21
  Q 75.75 126.49 61.95 115.52
  C 53.37 108.70 48.19 96.42 50.94 85.65
  Q 54.07 73.38 65.00 65.96
  Q 78.85 56.54 95.85 56.51
  A 0.13 0.12 40.9 0 1 95.87 56.76
  Q 86.00 57.99 78.09 61.37
  C 63.93 67.42 52.46 80.81 55.34 96.70
  C 58.54 114.38 76.86 124.40 93.62 126.61
  Z"
/>
<path fill="#666666" d="
  M 34.59 122.43
  C 33.13 121.83 31.78 121.52 31.30 119.81
  Q 24.49 95.21 33.05 72.55
  Q 34.02 69.98 37.22 70.47
  Q 37.65 70.53 37.48 70.93
  Q 26.61 95.98 35.00 122.05
  Q 35.20 122.68 34.59 122.43
  Z"
/>
<path fill="#493f39" d="
  M 29.94 73.75
  Q 32.34 71.07 31.12 74.45
  Q 25.10 91.20 27.94 109.97
  C 28.32 112.47 29.51 116.11 29.98 119.28
  A 0.35 0.35 0.0 0 1 29.41 119.60
  C 19.94 111.93 21.71 98.85 23.28 87.77
  Q 24.39 79.95 29.94 73.75
  Z"
/>
<path fill="#b3b3b3" d="
  M 164.19 72.96
  Q 167.01 74.59 167.48 76.03
  Q 175.22 99.85 166.88 123.39
  Q 166.73 123.83 166.37 124.12
  Q 165.37 124.92 164.11 124.76
  Q 163.46 124.68 163.69 124.07
  Q 172.97 98.83 163.17 73.84
  A 0.72 0.71 -85.7 0 1 164.19 72.96
  Z"
/>
<path fill="#000000" d="
  M 81.0065 95.7549
  A 10.30 10.03 91.8 0 1 71.3049 85.1450
  A 10.30 10.03 91.8 0 1 81.6535 75.1651
  A 10.30 10.03 91.8 0 1 91.3551 85.7750
  A 10.30 10.03 91.8 0 1 81.0065 95.7549
  Z
  M 90.60 85.47
  A 9.28 9.28 0.0 0 0 81.32 76.19
  A 9.28 9.28 0.0 0 0 72.04 85.47
  A 9.28 9.28 0.0 0 0 81.32 94.75
  A 9.28 9.28 0.0 0 0 90.60 85.47
  Z"
/>
<path fill="#000000" d="
  M 128.1378 82.4620
  A 10.23 10.25 -17.1 0 1 121.3739 95.2669
  A 10.23 10.25 -17.1 0 1 108.5822 88.4780
  A 10.23 10.25 -17.1 0 1 115.3461 75.6731
  A 10.23 10.25 -17.1 0 1 128.1378 82.4620
  Z
  M 127.48 85.48
  A 9.29 9.29 0.0 0 0 118.19 76.19
  A 9.29 9.29 0.0 0 0 108.90 85.48
  A 9.29 9.29 0.0 0 0 118.19 94.77
  A 9.29 9.29 0.0 0 0 127.48 85.48
  Z"
/>
<circle fill="#cccccc" cx="81.32" cy="85.47" r="9.28"/>
<circle fill="#cccccc" cx="118.19" cy="85.48" r="9.29"/>
<path fill="#736357" d="
  M 168.87 121.18
  C 173.55 107.46 173.63 90.63 169.08 76.57
  A 0.32 0.32 0.0 0 1 169.60 76.24
  C 175.70 81.93 177.33 87.65 177.52 96.21
  C 177.76 106.74 178.26 114.56 170.29 122.09
  Q 167.73 124.50 168.87 121.18
  Z"
/>
<path fill="#000000" d="
  M 35.72 87.69
  Q 35.56 87.44 35.49 87.21
  Q 35.46 87.14 35.52 87.08
  C 36.88 85.63 39.96 85.92 39.66 88.46
  A 2.33 2.33 0.0 0 1 37.70 90.49
  C 36.18 90.72 34.04 88.57 35.63 87.96
  Q 35.84 87.88 35.72 87.69
  Z
  M 38.87 88.30
  A 1.44 1.44 0.0 0 0 37.43 86.86
  A 1.44 1.44 0.0 0 0 35.99 88.30
  A 1.44 1.44 0.0 0 0 37.43 89.74
  A 1.44 1.44 0.0 0 0 38.87 88.30
  Z"
/>
<circle fill="#a49288" cx="37.43" cy="88.30" r="1.44"/>
<ellipse fill="#a49288" cx="0.00" cy="0.00" transform="translate(162.17,92.45) rotate(74.2)" rx="1.49" ry="1.32"/>
<path fill="#736357" d="
  M 157.40 131.95
  Q 146.77 139.14 135.44 144.82
  C 136.78 134.08 124.06 130.16 120.04 139.17
  Q 117.61 144.63 123.20 149.59
  C 113.87 152.67 104.61 153.67 94.89 154.20
  Q 93.41 143.64 95.26 132.71
  Q 95.35 132.20 95.87 132.23
  C 119.63 133.31 149.15 121.93 155.47 96.20
  Q 155.60 95.64 156.18 95.63
  Q 160.96 95.58 165.38 97.31
  A 0.96 0.95 -80.1 0 1 165.99 98.19
  Q 166.18 116.73 157.40 131.95
  Z"
/>
<path fill="#666666" d="
  M 51.79 109.55
  L 52.46 109.47
  L 55.51 113.45
  Q 56.39 114.60 55.25 113.70
  Q 53.12 112.03 51.79 109.55
  Z"
/>
<path fill="#493f39" d="
  M 35.86 116.57
  Q 45.40 129.80 58.17 140.59
  Q 59.26 141.51 60.22 139.96
  Q 60.12 150.34 71.10 148.31
  Q 81.85 153.01 93.83 153.70
  L 95.14 165.20
  A 0.52 0.51 89.5 0 1 94.58 165.77
  C 66.37 163.22 43.29 143.89 35.86 116.57
  Z"
/>
<path fill="#493f39" d="
  M 53.89 162.90
  Q 38.39 143.62 30.93 134.07
  Q 30.01 132.90 28.52 130.39
  Q 30.64 128.90 32.31 130.95
  Q 43.25 144.37 54.16 157.83
  Q 56.40 160.59 53.89 162.90
  Z"
/>
<path fill="#736357" d="
  M 28.52 130.39
  Q 30.01 132.90 30.93 134.07
  Q 38.39 143.62 53.89 162.90
  Q 52.53 163.97 50.92 163.21
  Q 50.05 162.80 48.92 161.40
  Q 39.06 149.25 29.19 137.13
  C 28.00 135.67 24.49 131.07 28.52 130.39
  Z"
/>
<path fill="#493f39" d="
  M 157.40 131.95
  C 144.74 154.11 122.83 166.05 97.38 166.08
  A 1.38 1.37 -3.0 0 1 96.00 164.84
  L 94.89 154.20
  C 104.61 153.67 113.87 152.67 123.20 149.59
  Q 125.19 150.62 125.75 149.90
  Q 126.95 149.57 128.25 149.84
  C 129.33 150.15 130.38 150.18 131.36 149.49
  Q 134.25 147.46 135.44 144.82
  Q 146.77 139.14 157.40 131.95
  Z
  M 101.54 163.77
  L 101.39 160.95
  A 0.82 0.82 0.0 0 0 100.53 160.18
  L 100.22 160.20
  A 2.83 2.10 -3.1 0 0 97.51 162.45
  L 97.52 162.71
  A 2.83 2.10 -3.1 0 0 100.46 164.65
  L 100.77 164.63
  A 0.82 0.82 0.0 0 0 101.54 163.77
  Z"
/>
<path fill="#000000" d="
  M 71.10 148.31
  Q 60.12 150.34 60.22 139.96
  Q 60.69 134.05 65.63 132.78
  C 75.82 130.15 80.18 143.69 71.10 148.31
  Z
  M 68.08 133.18
  C 65.11 133.01 60.98 135.63 61.13 139.23
  C 61.22 141.48 60.87 143.53 62.33 145.33
  C 68.30 152.68 79.63 143.54 73.72 136.24
  Q 71.39 133.37 68.08 133.18
  Z"
/>
<path fill="#b3b3b3" d="
  M 73.72 136.24
  C 79.63 143.54 68.30 152.68 62.33 145.33
  C 60.87 143.53 61.22 141.48 61.13 139.23
  C 60.98 135.63 65.11 133.01 68.08 133.18
  Q 71.39 133.37 73.72 136.24
  Z
  M 62.24 141.14
  Q 61.65 143.97 64.35 145.66
  C 72.65 150.88 78.29 138.45 70.30 134.77
  Q 65.44 132.53 62.15 137.93
  Q 61.38 139.19 62.11 140.39
  Q 62.33 140.74 62.24 141.14
  Z"
/>
<rect fill="#736357" x="-3.19" y="-20.77" transform="translate(155.66,150.21) rotate(39.1)" width="6.38" height="41.54" rx="3.13"/>
<path fill="#000000" d="
  M 62.11 140.39
  Q 61.38 139.19 62.15 137.93
  Q 65.44 132.53 70.30 134.77
  C 78.29 138.45 72.65 150.88 64.35 145.66
  Q 61.65 143.97 62.24 141.14
  Q 62.33 140.74 62.11 140.39
  Z
  M 68.75 143.95
  L 72.31 140.90
  A 1.93 1.93 0.0 0 0 72.52 138.18
  L 71.63 137.14
  A 4.88 4.18 49.4 0 0 65.28 136.16
  L 65.14 136.27
  A 4.88 4.18 49.4 0 0 65.14 142.70
  L 66.03 143.74
  A 1.93 1.93 0.0 0 0 68.75 143.95
  Z
  M 71.48 143.92
  C 68.38 145.78 66.07 145.33 63.68 142.69
  Q 62.85 141.76 63.28 142.93
  C 64.54 146.27 69.77 147.72 71.78 144.21
  Q 72.18 143.50 71.48 143.92
  Z"
/>
<path fill="#000000" d="
  M 135.44 144.82
  Q 134.25 147.46 131.36 149.49
  C 130.38 150.18 129.33 150.15 128.25 149.84
  C 134.54 149.12 136.61 142.04 133.06 137.65
  C 125.56 128.38 112.16 144.03 125.75 149.90
  Q 125.19 150.62 123.20 149.59
  Q 117.61 144.63 120.04 139.17
  C 124.06 130.16 136.78 134.08 135.44 144.82
  Z"
/>
<path fill="#a49288" d="
  M 128.25 149.84
  Q 126.95 149.57 125.75 149.90
  C 112.16 144.03 125.56 128.38 133.06 137.65
  C 136.61 142.04 134.54 149.12 128.25 149.84
  Z
  M 133.77 142.38
  A 6.25 6.25 0.0 0 0 127.52 136.13
  A 6.25 6.25 0.0 0 0 121.27 142.38
  A 6.25 6.25 0.0 0 0 127.52 148.63
  A 6.25 6.25 0.0 0 0 133.77 142.38
  Z"
/>
<path fill="#ab1521" d="
  M 68.75 143.95
  A 1.93 1.93 0.0 0 1 66.03 143.74
  L 65.14 142.70
  A 4.88 4.18 49.4 0 1 65.14 136.27
  L 65.28 136.16
  A 4.88 4.18 49.4 0 1 71.63 137.14
  L 72.52 138.18
  A 1.93 1.93 0.0 0 1 72.31 140.90
  L 68.75 143.95
  Z"
/>
<path fill="#666666" d="
  M 41.24 136.03
  Q 41.33 135.35 41.69 135.94
  Q 45.46 142.08 50.51 147.19
  Q 51.14 147.83 50.25 147.96
  C 47.88 148.31 42.77 140.93 41.22 139.06
  Q 40.88 138.64 40.95 138.10
  L 41.24 136.03
  Z"
/>
<path fill="#000000" d="
  M 133.77 142.38
  A 6.25 6.25 0.0 0 1 127.52 148.63
  A 6.25 6.25 0.0 0 1 121.27 142.38
  A 6.25 6.25 0.0 0 1 127.52 136.13
  A 6.25 6.25 0.0 0 1 133.77 142.38
  Z
  M 131.24 143.73
  C 135.33 138.91 124.98 133.37 123.10 140.45
  Q 122.96 140.98 123.30 141.41
  Q 125.99 144.82 130.39 144.20
  A 1.38 1.34 -73.1 0 0 131.24 143.73
  Z
  M 131.93 145.10
  C 131.65 144.78 127.17 149.03 123.89 145.41
  Q 123.49 144.97 123.26 145.53
  Q 123.06 146.03 123.61 146.43
  Q 128.37 149.89 131.94 145.57
  Q 132.14 145.33 131.93 145.10
  Z"
/>
<path fill="#ab1521" d="
  M 123.10 140.45
  C 124.98 133.37 135.33 138.91 131.24 143.73
  A 1.38 1.34 -73.1 0 1 130.39 144.20
  Q 125.99 144.82 123.30 141.41
  Q 122.96 140.98 123.10 140.45
  Z"
/>
<path fill="#666666" d="
  M 145.23 151.85
  A 0.47 0.47 0.0 0 1 144.97 151.03
  Q 150.82 145.93 155.26 139.55
  Q 155.81 138.75 156.08 139.68
  Q 156.49 141.10 155.12 142.90
  C 152.08 146.88 148.66 152.22 145.23 151.85
  Z"
/>
<path fill="#666666" d="
  M 63.68 142.69
  C 66.07 145.33 68.38 145.78 71.48 143.92
  Q 72.18 143.50 71.78 144.21
  C 69.77 147.72 64.54 146.27 63.28 142.93
  Q 62.85 141.76 63.68 142.69
  Z"
/>
<path fill="#493f39" d="
  M 123.89 145.41
  C 127.17 149.03 131.65 144.78 131.93 145.10
  Q 132.14 145.33 131.94 145.57
  Q 128.37 149.89 123.61 146.43
  Q 123.06 146.03 123.26 145.53
  Q 123.49 144.97 123.89 145.41
  Z"
/>
<path fill="#000000" d="
  M 101.54 163.77
  A 0.82 0.82 0.0 0 1 100.77 164.63
  L 100.46 164.65
  A 2.83 2.10 -3.1 0 1 97.52 162.71
  L 97.51 162.45
  A 2.83 2.10 -3.1 0 1 100.22 160.20
  L 100.53 160.18
  A 0.82 0.82 0.0 0 1 101.39 160.95
  L 101.54 163.77
  Z
  M 100.3642 163.7470
  A 1.52 1.40 62.4 0 0 100.9007 161.7514
  A 1.52 1.40 62.4 0 0 98.9558 161.0530
  A 1.52 1.40 62.4 0 0 98.4193 163.0486
  A 1.52 1.40 62.4 0 0 100.3642 163.7470
  Z"
/>
<ellipse fill="#666666" cx="0.00" cy="0.00" transform="translate(99.66,162.40) rotate(62.4)" rx="1.52" ry="1.40"/>
</svg>
