<?xml version="1.0" encoding="UTF-8" standalone="no"?>
<!DOCTYPE svg PUBLIC "-//W3C//DTD SVG 1.1//EN" "http://www.w3.org/Graphics/SVG/1.1/DTD/svg11.dtd">
<svg xmlns="http://www.w3.org/2000/svg" version="1.1" viewBox="0.00 0.00 284.00 245.00">
<g stroke-width="2.00" fill="none" stroke-linecap="butt">
<path stroke="#36777a" vector-effect="non-scaling-stroke" d="
  M 134.41 20.05
  C 88.75 20.92 50.69 54.85 45.96 100.76
  A 0.43 0.43 0.0 0 0 46.55 101.20
  Q 52.14 98.89 58.19 99.59
  Q 58.79 99.65 58.74 99.05
  C 55.77 59.16 98.15 37.17 131.73 36.63
  Q 132.30 36.62 132.32 36.05
  Q 132.51 28.19 134.92 20.73
  Q 135.15 20.03 134.41 20.05"
/>
<path stroke="#36777a" vector-effect="non-scaling-stroke" d="
  M 180.06 32.44
  Q 161.00 20.77 136.66 20.16
  Q 136.18 20.15 136.03 20.62
  Q 133.64 28.00 133.26 35.78
  A 0.54 0.53 1.0 0 0 133.81 36.34
  C 171.05 35.95 215.68 58.59 210.92 102.49
  Q 210.86 102.98 211.35 102.98
  Q 217.33 103.08 223.08 105.00
  A 1.20 1.20 0.0 0 0 224.65 103.72
  Q 218.94 56.23 180.06 32.44"
/>
<path stroke="#5a5a5a" vector-effect="non-scaling-stroke" d="
  M 115.31 40.06
  C 72.81 48.87 39.21 90.37 75.81 129.94
  Q 76.18 130.34 76.50 130.52
  A 0.38 0.25 72.0 0 0 76.67 129.91
  C 58.30 110.33 60.56 82.11 80.20 64.44
  C 99.46 47.11 127.26 41.58 152.42 46.34
  C 174.20 50.45 197.19 64.16 203.96 86.67
  Q 210.38 108.06 195.76 127.23
  Q 195.73 127.27 195.76 127.30
  L 195.98 127.52
  Q 195.99 127.53 196.13 127.37
  C 210.57 111.93 214.26 90.54 203.26 71.99
  C 185.95 42.78 146.28 33.64 115.31 40.06"
/>
<path stroke="#1a1a1a" vector-effect="non-scaling-stroke" d="
  M 204.21 99.07
  A 69.22 52.62 0.0 0 0 134.99 46.45
  A 69.22 52.62 0.0 0 0 65.77 99.07
  A 69.22 52.62 0.0 0 0 134.99 151.69
  A 69.22 52.62 0.0 0 0 204.21 99.07"
/>
<path stroke="#333333" vector-effect="non-scaling-stroke" d="
  M 44.65 73.83
  C 36.50 94.19 36.83 117.85 43.31 138.63
  A 0.94 0.90 -89.8 0 0 43.88 139.23
  L 46.94 140.29
  Q 47.68 140.55 47.44 139.80
  Q 35.83 104.29 51.11 70.36
  Q 51.34 69.83 50.77 69.82
  C 47.60 69.73 45.88 70.77 44.65 73.83"
/>
<path stroke="#224c4e" vector-effect="non-scaling-stroke" d="
  M 42.38 73.24
  C 30.89 82.90 30.28 98.74 30.01 112.75
  Q 29.74 127.38 40.32 137.21
  A 0.39 0.39 0.0 0 0 40.96 136.81
  Q 31.92 104.83 42.73 73.49
  Q 43.00 72.72 42.38 73.24"
/>
<path stroke="#5a5a5a" vector-effect="non-scaling-stroke" d="
  M 225.41 75.17
  L 220.87 73.37
  Q 220.05 73.04 220.38 73.87
  Q 234.25 108.45 221.14 143.33
  A 0.41 0.41 0.0 0 0 221.63 143.87
  L 224.86 143.00
  Q 225.33 142.87 225.50 142.41
  Q 237.28 109.28 226.14 75.94
  A 1.27 1.23 2.4 0 0 225.41 75.17"
/>
<path stroke="#36777a" vector-effect="non-scaling-stroke" d="
  M 228.45 77.71
  C 235.18 98.45 234.40 120.13 228.00 140.90
  A 0.32 0.32 0.0 0 0 228.51 141.24
  Q 240.17 131.70 240.34 116.23
  C 240.52 99.59 240.48 87.75 228.82 77.47
  A 0.23 0.23 0.0 0 0 228.45 77.71"
/>
<path stroke="#224c4e" vector-effect="non-scaling-stroke" d="
  M 48.55 131.36
  Q 48.44 132.39 48.60 132.93
  C 59.23 170.17 89.99 195.15 128.30 198.90
  A 0.83 0.83 0.0 0 0 129.20 197.96
  L 127.06 182.70"
/>
<path stroke="#36777a" vector-effect="non-scaling-stroke" d="
  M 127.06 182.70
  Q 125.67 168.14 127.72 153.91
  A 0.81 0.81 0.0 0 0 126.97 152.98
  C 96.57 151.05 65.12 133.44 58.87 101.18
  Q 58.77 100.65 58.23 100.59
  Q 51.96 99.85 46.32 102.55
  Q 45.83 102.79 45.78 103.34
  Q 44.51 118.24 48.55 131.36"
/>
<path stroke="#58c3c8" vector-effect="non-scaling-stroke" d="
  M 127.06 182.70
  Q 110.98 181.71 96.23 175.16"
/>
<path stroke="#36777a" vector-effect="non-scaling-stroke" d="
  M 96.23 175.16
  Q 101.63 172.14 102.70 167.22
  C 106.04 151.73 80.66 148.19 80.91 166.41"
/>
<path stroke="#58c3c8" vector-effect="non-scaling-stroke" d="
  M 80.91 166.41
  Q 61.97 152.11 48.55 131.36"
/>
<path stroke="#224c4e" vector-effect="non-scaling-stroke" d="
  M 80.91 166.41
  Q 84.50 178.03 96.23 175.16"
/>
<path stroke="#224c4e" vector-effect="non-scaling-stroke" d="
  M 128.05 182.73
  L 130.29 198.10
  A 1.02 1.01 -3.0 0 0 131.26 198.97
  C 165.34 200.31 195.98 182.60 212.92 153.15"
/>
<path stroke="#36777a" vector-effect="non-scaling-stroke" d="
  M 212.92 153.15
  Q 224.76 132.45 224.48 107.25
  Q 224.47 106.74 224.00 106.54
  Q 217.81 103.97 211.09 103.98
  Q 210.56 103.98 210.43 104.49
  C 201.56 139.50 162.42 155.29 129.57 153.28
  A 0.88 0.88 0.0 0 0 128.64 154.04
  Q 126.67 168.85 128.05 182.73"
/>
<path stroke="#58c3c8" vector-effect="non-scaling-stroke" d="
  M 212.92 153.15
  Q 198.52 162.88 183.32 170.32"
/>
<path stroke="#36777a" vector-effect="non-scaling-stroke" d="
  M 183.32 170.32
  Q 184.03 163.01 179.90 159.36
  C 167.86 148.72 153.22 168.17 166.96 176.85"
/>
<path stroke="#58c3c8" vector-effect="non-scaling-stroke" d="
  M 166.96 176.85
  Q 148.00 183.28 128.05 182.73"
/>
<path stroke="#224c4e" vector-effect="non-scaling-stroke" d="
  M 166.96 176.85
  Q 177.86 181.55 183.32 170.32"
/>
<path stroke="#36777a" vector-effect="non-scaling-stroke" d="
  M 38.10 151.08
  C 34.10 154.66 37.27 157.26 40.11 160.78
  Q 53.72 177.57 67.42 194.33
  Q 69.70 197.10 73.09 195.15"
/>
<path stroke="#224c4e" vector-effect="non-scaling-stroke" d="
  M 73.09 195.15
  C 75.41 192.92 75.66 190.93 73.55 188.32
  Q 59.02 170.40 44.40 152.54
  Q 43.06 150.90 41.72 150.52
  Q 39.70 149.94 38.10 151.08"
/>
<path stroke="#58c3c8" vector-effect="non-scaling-stroke" d="
  M 73.09 195.15
  L 38.10 151.08"
/>
<path stroke="#36777a" vector-effect="non-scaling-stroke" d="
  M 228.9914 162.0343
  A 4.21 4.21 0.0 0 0 228.3898 156.1109
  L 228.2503 155.9972
  A 4.21 4.21 0.0 0 0 222.3269 156.5989
  L 192.1286 193.6257
  A 4.21 4.21 0.0 0 0 192.7302 199.5491
  L 192.8697 199.6628
  A 4.21 4.21 0.0 0 0 198.7931 199.0611
  L 228.9914 162.0343"
/>
<path stroke="#333333" vector-effect="non-scaling-stroke" d="
  M 68.81 174.19
  Q 61.69 166.94 56.33 158.24
  Q 55.95 157.63 55.65 158.29
  C 54.86 160.06 54.99 161.57 56.28 163.19
  Q 60.47 168.45 64.81 173.57
  C 65.93 174.89 67.42 175.29 68.99 174.86
  A 0.33 0.33 0.0 0 0 69.18 174.35
  Q 68.99 174.09 68.81 174.19"
/>
<path stroke="#333333" vector-effect="non-scaling-stroke" d="
  M 210.73 162.72
  Q 204.34 171.72 196.10 179.05
  Q 195.78 179.33 196.17 179.49
  Q 199.19 180.73 201.26 178.30
  Q 205.87 172.87 210.42 167.37
  C 211.70 165.82 211.85 164.51 211.05 162.75
  A 0.19 0.18 49.8 0 0 210.73 162.72"
/>
<path stroke="#36777a" vector-effect="non-scaling-stroke" d="
  M 53.81 94.18
  A 3.02 3.02 0.0 0 0 50.79 91.16
  A 3.02 3.02 0.0 0 0 47.77 94.18
  A 3.02 3.02 0.0 0 0 50.79 97.20
  A 3.02 3.02 0.0 0 0 53.81 94.18"
/>
<path stroke="#36777a" vector-effect="non-scaling-stroke" d="
  M 146.04 25.31
  A 3.04 3.04 0.0 0 0 143.00 22.27
  A 3.04 3.04 0.0 0 0 139.96 25.31
  A 3.04 3.04 0.0 0 0 143.00 28.35
  A 3.04 3.04 0.0 0 0 146.04 25.31"
/>
<path stroke="#36777a" vector-effect="non-scaling-stroke" d="
  M 222.33 99.95
  A 3.02 3.02 0.0 0 0 219.31 96.93
  A 3.02 3.02 0.0 0 0 216.29 99.95
  A 3.02 3.02 0.0 0 0 219.31 102.97
  A 3.02 3.02 0.0 0 0 222.33 99.95"
/>
<path stroke="#5a5a5a" vector-effect="non-scaling-stroke" d="
  M 145.04 25.28
  A 2.03 2.03 0.0 0 0 143.01 23.25
  A 2.03 2.03 0.0 0 0 140.98 25.28
  A 2.03 2.03 0.0 0 0 143.01 27.31
  A 2.03 2.03 0.0 0 0 145.04 25.28"
/>
<path stroke="#4d4d4d" vector-effect="non-scaling-stroke" d="
  M 132.40 51.11
  Q 105.96 51.36 86.99 64.90
  C 73.21 74.73 64.86 90.79 68.96 107.67
  C 75.33 133.88 105.44 146.84 130.01 146.81
  Q 130.37 146.81 130.55 146.60
  Q 130.81 146.31 130.42 146.28
  C 109.97 144.95 87.26 134.26 78.08 115.43
  C 70.50 99.89 74.71 83.60 86.14 71.35
  C 97.65 59.01 115.82 52.30 132.41 51.74
  A 0.32 0.31 -46.1 0 0 132.40 51.11"
/>
<path stroke="#1a1a1a" vector-effect="non-scaling-stroke" d="
  M 91.06 96.32
  C 99.00 93.31 104.38 90.53 112.90 93.93
  C 116.39 95.32 126.64 100.69 126.37 92.22
  C 125.89 77.27 113.65 66.79 99.15 70.90
  C 89.39 73.67 82.88 83.88 84.41 93.81
  C 85.00 97.61 88.11 97.44 91.06 96.32"
/>
<path stroke="#1a1a1a" vector-effect="non-scaling-stroke" d="
  M 167.84 70.87
  C 154.05 66.91 140.07 78.26 141.45 93.06
  C 142.15 100.60 151.76 95.02 155.34 93.62
  C 163.19 90.56 168.71 93.37 176.16 96.24
  C 179.05 97.35 182.78 97.53 183.22 93.74
  C 184.44 83.17 177.94 73.78 167.84 70.87"
/>
<path stroke="#36777a" vector-effect="non-scaling-stroke" d="
  M 124.14 91.27
  C 123.70 65.91 86.43 65.54 86.13 92.89
  A 2.10 2.09 -10.4 0 0 89.00 94.86
  C 93.22 93.20 98.09 90.98 102.23 90.35
  C 108.61 89.37 115.12 92.15 120.89 94.81
  A 2.25 2.25 0.0 0 0 123.90 93.64
  Q 124.17 92.99 124.14 91.27"
/>
<path stroke="#36777a" vector-effect="non-scaling-stroke" d="
  M 181.21 93.29
  C 182.81 68.35 147.61 63.75 143.40 89.53
  Q 142.96 92.25 143.72 93.85
  Q 144.57 95.62 146.37 94.84
  C 154.62 91.25 161.91 88.15 171.22 92.04
  Q 175.06 93.64 178.72 94.93
  A 1.87 1.86 11.5 0 0 181.21 93.29"
/>
<path stroke="#5a5a5a" vector-effect="non-scaling-stroke" d="
  M 52.79 94.19
  A 1.96 1.96 0.0 0 0 50.83 92.23
  A 1.96 1.96 0.0 0 0 48.87 94.19
  A 1.96 1.96 0.0 0 0 50.83 96.15
  A 1.96 1.96 0.0 0 0 52.79 94.19"
/>
<path stroke="#5a5a5a" vector-effect="non-scaling-stroke" d="
  M 221.34 99.95
  A 2.02 2.02 0.0 0 0 219.32 97.93
  A 2.02 2.02 0.0 0 0 217.30 99.95
  A 2.02 2.02 0.0 0 0 219.32 101.97
  A 2.02 2.02 0.0 0 0 221.34 99.95"
/>
<path stroke="#224c4e" vector-effect="non-scaling-stroke" d="
  M 138.03 194.38
  A 3.05 3.05 0.0 0 0 134.98 191.33
  A 3.05 3.05 0.0 0 0 131.93 194.38
  A 3.05 3.05 0.0 0 0 134.98 197.43
  A 3.05 3.05 0.0 0 0 138.03 194.38"
/>
<path stroke="#5a5a5a" vector-effect="non-scaling-stroke" d="
  M 101.87 164.87
  A 9.90 9.90 0.0 0 0 91.97 154.97
  A 9.90 9.90 0.0 0 0 82.07 164.87
  A 9.90 9.90 0.0 0 0 91.97 174.77
  A 9.90 9.90 0.0 0 0 101.87 164.87"
/>
<path stroke="#5a5a5a" vector-effect="non-scaling-stroke" d="
  M 100.51 164.82
  A 8.53 8.53 0.0 0 0 91.98 156.29
  A 8.53 8.53 0.0 0 0 83.45 164.82
  A 8.53 8.53 0.0 0 0 91.98 173.35
  A 8.53 8.53 0.0 0 0 100.51 164.82"
/>
<path stroke="#003f01" vector-effect="non-scaling-stroke" d="
  M 86.22 161.60
  C 84.11 169.29 94.06 173.51 97.13 166.03"
/>
<path stroke="#008000" vector-effect="non-scaling-stroke" d="
  M 97.13 166.03
  C 102.24 161.04 90.05 151.86 86.22 161.60"
/>
<path stroke="#00bf01" vector-effect="non-scaling-stroke" d="
  M 97.13 166.03
  Q 89.71 168.85 86.22 161.60"
/>
<path stroke="#333333" vector-effect="non-scaling-stroke" d="
  M 98.97 165.67
  C 96.56 172.26 88.01 172.99 85.19 166.44
  Q 85.04 166.07 84.82 166.41
  Q 84.69 166.59 84.82 166.90
  C 88.04 174.59 97.62 173.67 99.46 165.82
  A 0.26 0.26 0.0 0 0 98.97 165.67"
/>
<path stroke="#5a5a5a" vector-effect="non-scaling-stroke" d="
  M 182.33 167.33
  A 9.91 9.91 0.0 0 0 172.42 157.42
  A 9.91 9.91 0.0 0 0 162.51 167.33
  A 9.91 9.91 0.0 0 0 172.42 177.24
  A 9.91 9.91 0.0 0 0 182.33 167.33"
/>
<path stroke="#5a5a5a" vector-effect="non-scaling-stroke" d="
  M 180.99 167.33
  A 8.54 8.54 0.0 0 0 172.45 158.79
  A 8.54 8.54 0.0 0 0 163.91 167.33
  A 8.54 8.54 0.0 0 0 172.45 175.87
  A 8.54 8.54 0.0 0 0 180.99 167.33"
/>
<path stroke="#003f01" vector-effect="non-scaling-stroke" d="
  M 166.97 164.40
  C 162.55 167.55 173.81 178.73 177.94 167.93"
/>
<path stroke="#008000" vector-effect="non-scaling-stroke" d="
  M 177.94 167.93
  C 182.87 160.81 166.82 156.15 166.97 164.40"
/>
<path stroke="#00bf01" vector-effect="non-scaling-stroke" d="
  M 177.94 167.93
  Q 170.59 171.55 166.97 164.40"
/>
<path stroke="#333333" vector-effect="non-scaling-stroke" d="
  M 179.33 167.42
  C 177.81 174.55 169.23 175.55 165.85 169.31
  A 0.24 0.24 0.0 0 0 165.40 169.49
  C 167.57 177.58 179.89 175.89 179.76 167.46
  A 0.22 0.22 0.0 0 0 179.33 167.42"
/>
<path stroke="#333333" vector-effect="non-scaling-stroke" d="
  M 136.99 194.39
  A 2.00 2.00 0.0 0 0 134.99 192.39
  A 2.00 2.00 0.0 0 0 132.99 194.39
  A 2.00 2.00 0.0 0 0 134.99 196.39
  A 2.00 2.00 0.0 0 0 136.99 194.39"
/>
</g>
<path fill="#000000" d="
  M 218.98 69.91
  Q 226.12 71.26 230.95 75.29
  C 243.62 85.89 243.44 99.55 243.29 116.74
  C 243.18 129.92 236.19 143.50 222.58 146.84
  C 221.30 147.15 219.80 146.38 219.07 148.03
  Q 216.60 153.62 213.34 158.76
  C 212.33 160.35 212.38 161.79 212.98 163.40
  A 0.43 0.42 -37.0 0 0 213.72 163.50
  C 216.11 160.25 220.32 153.81 224.31 152.85
  C 230.60 151.34 234.68 158.82 230.49 163.99
  Q 215.41 182.54 200.30 201.05
  C 195.45 206.99 184.60 199.27 190.43 191.96
  Q 193.86 187.67 198.57 181.97
  A 0.21 0.20 24.5 0 0 198.44 181.64
  L 194.16 180.99
  A 1.01 1.01 0.0 0 0 193.37 181.20
  C 156.68 210.83 105.99 208.53 71.49 176.80
  A 0.87 0.86 63.3 0 0 70.81 176.57
  L 68.14 176.82
  A 0.43 0.43 0.0 0 0 67.85 177.53
  C 70.60 180.81 76.64 186.84 77.29 190.80
  C 78.05 195.37 72.84 199.64 68.50 197.93
  Q 66.62 197.19 64.21 194.22
  Q 50.99 177.96 37.71 161.74
  Q 34.82 158.21 34.21 156.12
  C 32.13 148.92 41.52 145.03 46.18 150.80
  Q 49.71 155.18 53.15 159.40
  A 0.41 0.41 0.0 0 0 53.87 159.20
  L 54.37 156.00
  Q 54.45 155.48 54.22 155.01
  L 49.02 144.28
  A 0.94 0.93 -6.9 0 0 48.35 143.76
  C 33.12 140.83 26.19 125.20 27.03 111.00
  C 27.80 98.03 27.72 86.47 35.57 75.84
  Q 41.98 67.17 52.75 66.40
  Q 53.25 66.36 53.49 65.92
  C 89.92 -0.75 184.65 1.50 218.28 69.38
  Q 218.49 69.82 218.98 69.91
  Z
  M 134.41 20.05
  C 88.75 20.92 50.69 54.85 45.96 100.76
  A 0.43 0.43 0.0 0 0 46.55 101.20
  Q 52.14 98.89 58.19 99.59
  Q 58.79 99.65 58.74 99.05
  C 55.77 59.16 98.15 37.17 131.73 36.63
  Q 132.30 36.62 132.32 36.05
  Q 132.51 28.19 134.92 20.73
  Q 135.15 20.03 134.41 20.05
  Z
  M 180.06 32.44
  Q 161.00 20.77 136.66 20.16
  Q 136.18 20.15 136.03 20.62
  Q 133.64 28.00 133.26 35.78
  A 0.54 0.53 1.0 0 0 133.81 36.34
  C 171.05 35.95 215.68 58.59 210.92 102.49
  Q 210.86 102.98 211.35 102.98
  Q 217.33 103.08 223.08 105.00
  A 1.20 1.20 0.0 0 0 224.65 103.72
  Q 218.94 56.23 180.06 32.44
  Z
  M 115.31 40.06
  C 72.81 48.87 39.21 90.37 75.81 129.94
  Q 76.18 130.34 76.50 130.52
  A 0.38 0.25 72.0 0 0 76.67 129.91
  C 58.30 110.33 60.56 82.11 80.20 64.44
  C 99.46 47.11 127.26 41.58 152.42 46.34
  C 174.20 50.45 197.19 64.16 203.96 86.67
  Q 210.38 108.06 195.76 127.23
  Q 195.73 127.27 195.76 127.30
  L 195.98 127.52
  Q 195.99 127.53 196.13 127.37
  C 210.57 111.93 214.26 90.54 203.26 71.99
  C 185.95 42.78 146.28 33.64 115.31 40.06
  Z
  M 204.21 99.07
  A 69.22 52.62 0.0 0 0 134.99 46.45
  A 69.22 52.62 0.0 0 0 65.77 99.07
  A 69.22 52.62 0.0 0 0 134.99 151.69
  A 69.22 52.62 0.0 0 0 204.21 99.07
  Z
  M 44.65 73.83
  C 36.50 94.19 36.83 117.85 43.31 138.63
  A 0.94 0.90 -89.8 0 0 43.88 139.23
  L 46.94 140.29
  Q 47.68 140.55 47.44 139.80
  Q 35.83 104.29 51.11 70.36
  Q 51.34 69.83 50.77 69.82
  C 47.60 69.73 45.88 70.77 44.65 73.83
  Z
  M 42.38 73.24
  C 30.89 82.90 30.28 98.74 30.01 112.75
  Q 29.74 127.38 40.32 137.21
  A 0.39 0.39 0.0 0 0 40.96 136.81
  Q 31.92 104.83 42.73 73.49
  Q 43.00 72.72 42.38 73.24
  Z
  M 225.41 75.17
  L 220.87 73.37
  Q 220.05 73.04 220.38 73.87
  Q 234.25 108.45 221.14 143.33
  A 0.41 0.41 0.0 0 0 221.63 143.87
  L 224.86 143.00
  Q 225.33 142.87 225.50 142.41
  Q 237.28 109.28 226.14 75.94
  A 1.27 1.23 2.4 0 0 225.41 75.17
  Z
  M 228.45 77.71
  C 235.18 98.45 234.40 120.13 228.00 140.90
  A 0.32 0.32 0.0 0 0 228.51 141.24
  Q 240.17 131.70 240.34 116.23
  C 240.52 99.59 240.48 87.75 228.82 77.47
  A 0.23 0.23 0.0 0 0 228.45 77.71
  Z
  M 48.55 131.36
  Q 48.44 132.39 48.60 132.93
  C 59.23 170.17 89.99 195.15 128.30 198.90
  A 0.83 0.83 0.0 0 0 129.20 197.96
  L 127.06 182.70
  Q 125.67 168.14 127.72 153.91
  A 0.81 0.81 0.0 0 0 126.97 152.98
  C 96.57 151.05 65.12 133.44 58.87 101.18
  Q 58.77 100.65 58.23 100.59
  Q 51.96 99.85 46.32 102.55
  Q 45.83 102.79 45.78 103.34
  Q 44.51 118.24 48.55 131.36
  Z
  M 128.05 182.73
  L 130.29 198.10
  A 1.02 1.01 -3.0 0 0 131.26 198.97
  C 165.34 200.31 195.98 182.60 212.92 153.15
  Q 224.76 132.45 224.48 107.25
  Q 224.47 106.74 224.00 106.54
  Q 217.81 103.97 211.09 103.98
  Q 210.56 103.98 210.43 104.49
  C 201.56 139.50 162.42 155.29 129.57 153.28
  A 0.88 0.88 0.0 0 0 128.64 154.04
  Q 126.67 168.85 128.05 182.73
  Z
  M 38.10 151.08
  C 34.10 154.66 37.27 157.26 40.11 160.78
  Q 53.72 177.57 67.42 194.33
  Q 69.70 197.10 73.09 195.15
  C 75.41 192.92 75.66 190.93 73.55 188.32
  Q 59.02 170.40 44.40 152.54
  Q 43.06 150.90 41.72 150.52
  Q 39.70 149.94 38.10 151.08
  Z
  M 228.9914 162.0343
  A 4.21 4.21 0.0 0 0 228.3898 156.1109
  L 228.2503 155.9972
  A 4.21 4.21 0.0 0 0 222.3269 156.5989
  L 192.1286 193.6257
  A 4.21 4.21 0.0 0 0 192.7302 199.5491
  L 192.8697 199.6628
  A 4.21 4.21 0.0 0 0 198.7931 199.0611
  L 228.9914 162.0343
  Z
  M 68.81 174.19
  Q 61.69 166.94 56.33 158.24
  Q 55.95 157.63 55.65 158.29
  C 54.86 160.06 54.99 161.57 56.28 163.19
  Q 60.47 168.45 64.81 173.57
  C 65.93 174.89 67.42 175.29 68.99 174.86
  A 0.33 0.33 0.0 0 0 69.18 174.35
  Q 68.99 174.09 68.81 174.19
  Z
  M 210.73 162.72
  Q 204.34 171.72 196.10 179.05
  Q 195.78 179.33 196.17 179.49
  Q 199.19 180.73 201.26 178.30
  Q 205.87 172.87 210.42 167.37
  C 211.70 165.82 211.85 164.51 211.05 162.75
  A 0.19 0.18 49.8 0 0 210.73 162.72
  Z"
/>
<path fill="#6beef4" d="
  M 45.96 100.76
  C 50.69 54.85 88.75 20.92 134.41 20.05
  Q 135.15 20.03 134.92 20.73
  Q 132.51 28.19 132.32 36.05
  Q 132.30 36.62 131.73 36.63
  C 98.15 37.17 55.77 59.16 58.74 99.05
  Q 58.79 99.65 58.19 99.59
  Q 52.14 98.89 46.55 101.20
  A 0.43 0.43 0.0 0 1 45.96 100.76
  Z
  M 53.81 94.18
  A 3.02 3.02 0.0 0 0 50.79 91.16
  A 3.02 3.02 0.0 0 0 47.77 94.18
  A 3.02 3.02 0.0 0 0 50.79 97.20
  A 3.02 3.02 0.0 0 0 53.81 94.18
  Z"
/>
<path fill="#6beef4" d="
  M 180.06 32.44
  Q 218.94 56.23 224.65 103.72
  A 1.20 1.20 0.0 0 1 223.08 105.00
  Q 217.33 103.08 211.35 102.98
  Q 210.86 102.98 210.92 102.49
  C 215.68 58.59 171.05 35.95 133.81 36.34
  A 0.54 0.53 1.0 0 1 133.26 35.78
  Q 133.64 28.00 136.03 20.62
  Q 136.18 20.15 136.66 20.16
  Q 161.00 20.77 180.06 32.44
  Z
  M 146.04 25.31
  A 3.04 3.04 0.0 0 0 143.00 22.27
  A 3.04 3.04 0.0 0 0 139.96 25.31
  A 3.04 3.04 0.0 0 0 143.00 28.35
  A 3.04 3.04 0.0 0 0 146.04 25.31
  Z
  M 222.33 99.95
  A 3.02 3.02 0.0 0 0 219.31 96.93
  A 3.02 3.02 0.0 0 0 216.29 99.95
  A 3.02 3.02 0.0 0 0 219.31 102.97
  A 3.02 3.02 0.0 0 0 222.33 99.95
  Z"
/>
<path fill="#000000" d="
  M 146.04 25.31
  A 3.04 3.04 0.0 0 1 143.00 28.35
  A 3.04 3.04 0.0 0 1 139.96 25.31
  A 3.04 3.04 0.0 0 1 143.00 22.27
  A 3.04 3.04 0.0 0 1 146.04 25.31
  Z
  M 145.04 25.28
  A 2.03 2.03 0.0 0 0 143.01 23.25
  A 2.03 2.03 0.0 0 0 140.98 25.28
  A 2.03 2.03 0.0 0 0 143.01 27.31
  A 2.03 2.03 0.0 0 0 145.04 25.28
  Z"
/>
<circle fill="#b3b3b3" cx="143.01" cy="25.28" r="2.03"/>
<path fill="#b3b3b3" d="
  M 75.81 129.94
  C 39.21 90.37 72.81 48.87 115.31 40.06
  C 146.28 33.64 185.95 42.78 203.26 71.99
  C 214.26 90.54 210.57 111.93 196.13 127.37
  Q 195.99 127.53 195.98 127.52
  L 195.76 127.30
  Q 195.73 127.27 195.76 127.23
  Q 210.38 108.06 203.96 86.67
  C 197.19 64.16 174.20 50.45 152.42 46.34
  C 127.26 41.58 99.46 47.11 80.20 64.44
  C 60.56 82.11 58.30 110.33 76.67 129.91
  A 0.38 0.25 72.0 0 1 76.50 130.52
  Q 76.18 130.34 75.81 129.94
  Z"
/>
<path fill="#333333" d="
  M 204.21 99.07
  A 69.22 52.62 0.0 0 1 134.99 151.69
  A 69.22 52.62 0.0 0 1 65.77 99.07
  A 69.22 52.62 0.0 0 1 134.99 46.45
  A 69.22 52.62 0.0 0 1 204.21 99.07
  Z
  M 132.40 51.11
  Q 105.96 51.36 86.99 64.90
  C 73.21 74.73 64.86 90.79 68.96 107.67
  C 75.33 133.88 105.44 146.84 130.01 146.81
  Q 130.37 146.81 130.55 146.60
  Q 130.81 146.31 130.42 146.28
  C 109.97 144.95 87.26 134.26 78.08 115.43
  C 70.50 99.89 74.71 83.60 86.14 71.35
  C 97.65 59.01 115.82 52.30 132.41 51.74
  A 0.32 0.31 -46.1 0 0 132.40 51.11
  Z
  M 91.06 96.32
  C 99.00 93.31 104.38 90.53 112.90 93.93
  C 116.39 95.32 126.64 100.69 126.37 92.22
  C 125.89 77.27 113.65 66.79 99.15 70.90
  C 89.39 73.67 82.88 83.88 84.41 93.81
  C 85.00 97.61 88.11 97.44 91.06 96.32
  Z
  M 167.84 70.87
  C 154.05 66.91 140.07 78.26 141.45 93.06
  C 142.15 100.60 151.76 95.02 155.34 93.62
  C 163.19 90.56 168.71 93.37 176.16 96.24
  C 179.05 97.35 182.78 97.53 183.22 93.74
  C 184.44 83.17 177.94 73.78 167.84 70.87
  Z"
/>
<path fill="#666666" d="
  M 132.40 51.11
  A 0.32 0.31 -46.1 0 1 132.41 51.74
  C 115.82 52.30 97.65 59.01 86.14 71.35
  C 74.71 83.60 70.50 99.89 78.08 115.43
  C 87.26 134.26 109.97 144.95 130.42 146.28
  Q 130.81 146.31 130.55 146.60
  Q 130.37 146.81 130.01 146.81
  C 105.44 146.84 75.33 133.88 68.96 107.67
  C 64.86 90.79 73.21 74.73 86.99 64.90
  Q 105.96 51.36 132.40 51.11
  Z"
/>
<path fill="#666666" d="
  M 44.65 73.83
  C 45.88 70.77 47.60 69.73 50.77 69.82
  Q 51.34 69.83 51.11 70.36
  Q 35.83 104.29 47.44 139.80
  Q 47.68 140.55 46.94 140.29
  L 43.88 139.23
  A 0.94 0.90 -89.8 0 1 43.31 138.63
  C 36.83 117.85 36.50 94.19 44.65 73.83
  Z"
/>
<path fill="#000000" d="
  M 112.90 93.93
  C 104.38 90.53 99.00 93.31 91.06 96.32
  C 88.11 97.44 85.00 97.61 84.41 93.81
  C 82.88 83.88 89.39 73.67 99.15 70.90
  C 113.65 66.79 125.89 77.27 126.37 92.22
  C 126.64 100.69 116.39 95.32 112.90 93.93
  Z
  M 124.14 91.27
  C 123.70 65.91 86.43 65.54 86.13 92.89
  A 2.10 2.09 -10.4 0 0 89.00 94.86
  C 93.22 93.20 98.09 90.98 102.23 90.35
  C 108.61 89.37 115.12 92.15 120.89 94.81
  A 2.25 2.25 0.0 0 0 123.90 93.64
  Q 124.17 92.99 124.14 91.27
  Z"
/>
<path fill="#000000" d="
  M 141.45 93.06
  C 140.07 78.26 154.05 66.91 167.84 70.87
  C 177.94 73.78 184.44 83.17 183.22 93.74
  C 182.78 97.53 179.05 97.35 176.16 96.24
  C 168.71 93.37 163.19 90.56 155.34 93.62
  C 151.76 95.02 142.15 100.60 141.45 93.06
  Z
  M 181.21 93.29
  C 182.81 68.35 147.61 63.75 143.40 89.53
  Q 142.96 92.25 143.72 93.85
  Q 144.57 95.62 146.37 94.84
  C 154.62 91.25 161.91 88.15 171.22 92.04
  Q 175.06 93.64 178.72 94.93
  A 1.87 1.86 11.5 0 0 181.21 93.29
  Z"
/>
<path fill="#6beef4" d="
  M 86.13 92.89
  C 86.43 65.54 123.70 65.91 124.14 91.27
  Q 124.17 92.99 123.90 93.64
  A 2.25 2.25 0.0 0 1 120.89 94.81
  C 115.12 92.15 108.61 89.37 102.23 90.35
  C 98.09 90.98 93.22 93.20 89.00 94.86
  A 2.10 2.09 -10.4 0 1 86.13 92.89
  Z"
/>
<path fill="#6beef4" d="
  M 143.40 89.53
  C 147.61 63.75 182.81 68.35 181.21 93.29
  A 1.87 1.86 11.5 0 1 178.72 94.93
  Q 175.06 93.64 171.22 92.04
  C 161.91 88.15 154.62 91.25 146.37 94.84
  Q 144.57 95.62 143.72 93.85
  Q 142.96 92.25 143.40 89.53
  Z"
/>
<path fill="#44989c" d="
  M 30.01 112.75
  C 30.28 98.74 30.89 82.90 42.38 73.24
  Q 43.00 72.72 42.73 73.49
  Q 31.92 104.83 40.96 136.81
  A 0.39 0.39 0.0 0 1 40.32 137.21
  Q 29.74 127.38 30.01 112.75
  Z"
/>
<path fill="#b3b3b3" d="
  M 225.41 75.17
  A 1.27 1.23 2.4 0 1 226.14 75.94
  Q 237.28 109.28 225.50 142.41
  Q 225.33 142.87 224.86 143.00
  L 221.63 143.87
  A 0.41 0.41 0.0 0 1 221.14 143.33
  Q 234.25 108.45 220.38 73.87
  Q 220.05 73.04 220.87 73.37
  L 225.41 75.17
  Z"
/>
<path fill="#6beef4" d="
  M 228.00 140.90
  C 234.40 120.13 235.18 98.45 228.45 77.71
  A 0.23 0.23 0.0 0 1 228.82 77.47
  C 240.48 87.75 240.52 99.59 240.34 116.23
  Q 240.17 131.70 228.51 141.24
  A 0.32 0.32 0.0 0 1 228.00 140.90
  Z"
/>
<path fill="#000000" d="
  M 53.81 94.18
  A 3.02 3.02 0.0 0 1 50.79 97.20
  A 3.02 3.02 0.0 0 1 47.77 94.18
  A 3.02 3.02 0.0 0 1 50.79 91.16
  A 3.02 3.02 0.0 0 1 53.81 94.18
  Z
  M 52.79 94.19
  A 1.96 1.96 0.0 0 0 50.83 92.23
  A 1.96 1.96 0.0 0 0 48.87 94.19
  A 1.96 1.96 0.0 0 0 50.83 96.15
  A 1.96 1.96 0.0 0 0 52.79 94.19
  Z"
/>
<circle fill="#b3b3b3" cx="50.83" cy="94.19" r="1.96"/>
<path fill="#000000" d="
  M 222.33 99.95
  A 3.02 3.02 0.0 0 1 219.31 102.97
  A 3.02 3.02 0.0 0 1 216.29 99.95
  A 3.02 3.02 0.0 0 1 219.31 96.93
  A 3.02 3.02 0.0 0 1 222.33 99.95
  Z
  M 221.34 99.95
  A 2.02 2.02 0.0 0 0 219.32 97.93
  A 2.02 2.02 0.0 0 0 217.30 99.95
  A 2.02 2.02 0.0 0 0 219.32 101.97
  A 2.02 2.02 0.0 0 0 221.34 99.95
  Z"
/>
<circle fill="#b3b3b3" cx="219.32" cy="99.95" r="2.02"/>
<path fill="#6beef4" d="
  M 127.06 182.70
  Q 110.98 181.71 96.23 175.16
  Q 101.63 172.14 102.70 167.22
  C 106.04 151.73 80.66 148.19 80.91 166.41
  Q 61.97 152.11 48.55 131.36
  Q 44.51 118.24 45.78 103.34
  Q 45.83 102.79 46.32 102.55
  Q 51.96 99.85 58.23 100.59
  Q 58.77 100.65 58.87 101.18
  C 65.12 133.44 96.57 151.05 126.97 152.98
  A 0.81 0.81 0.0 0 1 127.72 153.91
  Q 125.67 168.14 127.06 182.70
  Z"
/>
<path fill="#6beef4" d="
  M 212.92 153.15
  Q 198.52 162.88 183.32 170.32
  Q 184.03 163.01 179.90 159.36
  C 167.86 148.72 153.22 168.17 166.96 176.85
  Q 148.00 183.28 128.05 182.73
  Q 126.67 168.85 128.64 154.04
  A 0.88 0.88 0.0 0 1 129.57 153.28
  C 162.42 155.29 201.56 139.50 210.43 104.49
  Q 210.56 103.98 211.09 103.98
  Q 217.81 103.97 224.00 106.54
  Q 224.47 106.74 224.48 107.25
  Q 224.76 132.45 212.92 153.15
  Z"
/>
<path fill="#44989c" d="
  M 48.55 131.36
  Q 61.97 152.11 80.91 166.41
  Q 84.50 178.03 96.23 175.16
  Q 110.98 181.71 127.06 182.70
  L 129.20 197.96
  A 0.83 0.83 0.0 0 1 128.30 198.90
  C 89.99 195.15 59.23 170.17 48.60 132.93
  Q 48.44 132.39 48.55 131.36
  Z"
/>
<path fill="#44989c" d="
  M 73.09 195.15
  L 38.10 151.08
  Q 39.70 149.94 41.72 150.52
  Q 43.06 150.90 44.40 152.54
  Q 59.02 170.40 73.55 188.32
  C 75.66 190.93 75.41 192.92 73.09 195.15
  Z"
/>
<path fill="#6beef4" d="
  M 38.10 151.08
  L 73.09 195.15
  Q 69.70 197.10 67.42 194.33
  Q 53.72 177.57 40.11 160.78
  C 37.27 157.26 34.10 154.66 38.10 151.08
  Z"
/>
<path fill="#44989c" d="
  M 212.92 153.15
  C 195.98 182.60 165.34 200.31 131.26 198.97
  A 1.02 1.01 -3.0 0 1 130.29 198.10
  L 128.05 182.73
  Q 148.00 183.28 166.96 176.85
  Q 177.86 181.55 183.32 170.32
  Q 198.52 162.88 212.92 153.15
  Z
  M 138.03 194.38
  A 3.05 3.05 0.0 0 0 134.98 191.33
  A 3.05 3.05 0.0 0 0 131.93 194.38
  A 3.05 3.05 0.0 0 0 134.98 197.43
  A 3.05 3.05 0.0 0 0 138.03 194.38
  Z"
/>
<path fill="#000000" d="
  M 96.23 175.16
  Q 84.50 178.03 80.91 166.41
  C 80.66 148.19 106.04 151.73 102.70 167.22
  Q 101.63 172.14 96.23 175.16
  Z
  M 101.87 164.87
  A 9.90 9.90 0.0 0 0 91.97 154.97
  A 9.90 9.90 0.0 0 0 82.07 164.87
  A 9.90 9.90 0.0 0 0 91.97 174.77
  A 9.90 9.90 0.0 0 0 101.87 164.87
  Z"
/>
<path fill="#b3b3b3" d="
  M 101.87 164.87
  A 9.90 9.90 0.0 0 1 91.97 174.77
  A 9.90 9.90 0.0 0 1 82.07 164.87
  A 9.90 9.90 0.0 0 1 91.97 154.97
  A 9.90 9.90 0.0 0 1 101.87 164.87
  Z
  M 100.51 164.82
  A 8.53 8.53 0.0 0 0 91.98 156.29
  A 8.53 8.53 0.0 0 0 83.45 164.82
  A 8.53 8.53 0.0 0 0 91.98 173.35
  A 8.53 8.53 0.0 0 0 100.51 164.82
  Z"
/>
<rect fill="#6beef4" x="-4.30" y="-28.10" transform="translate(210.56,177.83) rotate(39.2)" width="8.60" height="56.20" rx="4.21"/>
<path fill="#000000" d="
  M 100.51 164.82
  A 8.53 8.53 0.0 0 1 91.98 173.35
  A 8.53 8.53 0.0 0 1 83.45 164.82
  A 8.53 8.53 0.0 0 1 91.98 156.29
  A 8.53 8.53 0.0 0 1 100.51 164.82
  Z
  M 86.22 161.60
  C 84.11 169.29 94.06 173.51 97.13 166.03
  C 102.24 161.04 90.05 151.86 86.22 161.60
  Z
  M 98.97 165.67
  C 96.56 172.26 88.01 172.99 85.19 166.44
  Q 85.04 166.07 84.82 166.41
  Q 84.69 166.59 84.82 166.90
  C 88.04 174.59 97.62 173.67 99.46 165.82
  A 0.26 0.26 0.0 0 0 98.97 165.67
  Z"
/>
<path fill="#000000" d="
  M 183.32 170.32
  Q 177.86 181.55 166.96 176.85
  C 153.22 168.17 167.86 148.72 179.90 159.36
  Q 184.03 163.01 183.32 170.32
  Z
  M 182.33 167.33
  A 9.91 9.91 0.0 0 0 172.42 157.42
  A 9.91 9.91 0.0 0 0 162.51 167.33
  A 9.91 9.91 0.0 0 0 172.42 177.24
  A 9.91 9.91 0.0 0 0 182.33 167.33
  Z"
/>
<path fill="#00ff00" d="
  M 97.13 166.03
  Q 89.71 168.85 86.22 161.60
  C 90.05 151.86 102.24 161.04 97.13 166.03
  Z"
/>
<path fill="#b3b3b3" d="
  M 182.33 167.33
  A 9.91 9.91 0.0 0 1 172.42 177.24
  A 9.91 9.91 0.0 0 1 162.51 167.33
  A 9.91 9.91 0.0 0 1 172.42 157.42
  A 9.91 9.91 0.0 0 1 182.33 167.33
  Z
  M 180.99 167.33
  A 8.54 8.54 0.0 0 0 172.45 158.79
  A 8.54 8.54 0.0 0 0 163.91 167.33
  A 8.54 8.54 0.0 0 0 172.45 175.87
  A 8.54 8.54 0.0 0 0 180.99 167.33
  Z"
/>
<path fill="#666666" d="
  M 68.81 174.19
  Q 68.99 174.09 69.18 174.35
  A 0.33 0.33 0.0 0 1 68.99 174.86
  C 67.42 175.29 65.93 174.89 64.81 173.57
  Q 60.47 168.45 56.28 163.19
  C 54.99 161.57 54.86 160.06 55.65 158.29
  Q 55.95 157.63 56.33 158.24
  Q 61.69 166.94 68.81 174.19
  Z"
/>
<path fill="#000000" d="
  M 180.99 167.33
  A 8.54 8.54 0.0 0 1 172.45 175.87
  A 8.54 8.54 0.0 0 1 163.91 167.33
  A 8.54 8.54 0.0 0 1 172.45 158.79
  A 8.54 8.54 0.0 0 1 180.99 167.33
  Z
  M 166.97 164.40
  C 162.55 167.55 173.81 178.73 177.94 167.93
  C 182.87 160.81 166.82 156.15 166.97 164.40
  Z
  M 179.33 167.42
  C 177.81 174.55 169.23 175.55 165.85 169.31
  A 0.24 0.24 0.0 0 0 165.40 169.49
  C 167.57 177.58 179.89 175.89 179.76 167.46
  A 0.22 0.22 0.0 0 0 179.33 167.42
  Z"
/>
<path fill="#00ff00" d="
  M 177.94 167.93
  Q 170.59 171.55 166.97 164.40
  C 166.82 156.15 182.87 160.81 177.94 167.93
  Z"
/>
<path fill="#007e01" d="
  M 86.22 161.60
  Q 89.71 168.85 97.13 166.03
  C 94.06 173.51 84.11 169.29 86.22 161.60
  Z"
/>
<path fill="#666666" d="
  M 210.73 162.72
  A 0.19 0.18 49.8 0 1 211.05 162.75
  C 211.85 164.51 211.70 165.82 210.42 167.37
  Q 205.87 172.87 201.26 178.30
  Q 199.19 180.73 196.17 179.49
  Q 195.78 179.33 196.10 179.05
  Q 204.34 171.72 210.73 162.72
  Z"
/>
<path fill="#007e01" d="
  M 166.97 164.40
  Q 170.59 171.55 177.94 167.93
  C 173.81 178.73 162.55 167.55 166.97 164.40
  Z"
/>
<path fill="#666666" d="
  M 85.19 166.44
  C 88.01 172.99 96.56 172.26 98.97 165.67
  A 0.26 0.26 0.0 0 1 99.46 165.82
  C 97.62 173.67 88.04 174.59 84.82 166.90
  Q 84.69 166.59 84.82 166.41
  Q 85.04 166.07 85.19 166.44
  Z"
/>
<path fill="#666666" d="
  M 165.85 169.31
  C 169.23 175.55 177.81 174.55 179.33 167.42
  A 0.22 0.22 0.0 0 1 179.76 167.46
  C 179.89 175.89 167.57 177.58 165.40 169.49
  A 0.24 0.24 0.0 0 1 165.85 169.31
  Z"
/>
<path fill="#000000" d="
  M 138.03 194.38
  A 3.05 3.05 0.0 0 1 134.98 197.43
  A 3.05 3.05 0.0 0 1 131.93 194.38
  A 3.05 3.05 0.0 0 1 134.98 191.33
  A 3.05 3.05 0.0 0 1 138.03 194.38
  Z
  M 136.99 194.39
  A 2.00 2.00 0.0 0 0 134.99 192.39
  A 2.00 2.00 0.0 0 0 132.99 194.39
  A 2.00 2.00 0.0 0 0 134.99 196.39
  A 2.00 2.00 0.0 0 0 136.99 194.39
  Z"
/>
<circle fill="#666666" cx="134.99" cy="194.39" r="2.00"/>
</svg>
