<?xml version="1.0" encoding="UTF-8" standalone="no"?>
<!DOCTYPE svg PUBLIC "-//W3C//DTD SVG 1.1//EN" "http://www.w3.org/Graphics/SVG/1.1/DTD/svg11.dtd">
<svg xmlns="http://www.w3.org/2000/svg" version="1.1" viewBox="0.00 0.00 300.00 234.00">
<g stroke-width="2.00" fill="none" stroke-linecap="butt">
<path stroke="#000000" stroke-opacity="0.584" vector-effect="non-scaling-stroke" d="
  M 216.20 205.23
  C 215.94 208.14 215.40 211.04 212.52 212.48
  C 208.67 214.43 204.20 214.82 200.36 212.57
  Q 196.03 210.03 194.69 205.46"
/>
<path stroke="#000000" stroke-opacity="0.584" vector-effect="non-scaling-stroke" d="
  M 180.34 204.58
  Q 176.28 216.54 163.25 214.77"
/>
<path stroke="#232424" vector-effect="non-scaling-stroke" d="
  M 163.25 214.77
  Q 163.31 212.31 162.42 210.68"
/>
<path stroke="#000000" stroke-opacity="0.584" vector-effect="non-scaling-stroke" d="
  M 162.42 210.68
  L 161.83 203.00"
/>
<path stroke="#000000" stroke-opacity="0.584" vector-effect="non-scaling-stroke" d="
  M 149.35 203.96
  L 148.73 206.75
  Q 148.61 207.28 148.15 207.55
  Q 146.39 208.59 144.81 209.88
  C 141.86 212.29 138.85 209.55 136.46 212.02
  C 129.17 219.52 118.66 218.35 111.22 211.88
  A 1.40 1.40 0.0 0 0 109.38 211.88
  C 98.34 221.46 81.26 219.49 73.00 207.29
  A 1.36 1.36 0.0 0 0 71.52 206.73
  Q 63.89 208.75 57.38 206.97"
/>
<path stroke="#3b3d3d" stroke-opacity="0.584" vector-effect="non-scaling-stroke" d="
  M 162.42 210.68
  Q 161.13 212.83 163.25 214.77"
/>
<path stroke="#232424" vector-effect="non-scaling-stroke" d="
  M 198.05 44.82
  Q 196.78 48.36 194.68 50.54"
/>
<path stroke="#5b5f5f" vector-effect="non-scaling-stroke" d="
  M 194.68 50.54
  L 182.29 50.82
  A 0.86 0.85 10.2 0 0 181.53 51.34
  Q 178.66 58.21 179.64 65.67
  A 0.80 0.79 -10.6 0 1 179.04 66.54
  C 175.26 67.47 178.71 52.80 178.98 51.45
  A 0.46 0.46 0.0 0 0 178.44 50.91
  L 172.89 51.99
  A 0.94 0.93 67.0 0 1 171.94 51.60
  L 171.11 50.36"
/>
<path stroke="#232424" vector-effect="non-scaling-stroke" d="
  M 171.11 50.36
  L 167.06 44.22"
/>
<path stroke="#5b5f5f" vector-effect="non-scaling-stroke" d="
  M 167.06 44.22
  L 160.79 36.33
  Q 160.33 35.75 160.09 36.46
  L 155.84 48.70"
/>
<path stroke="#232424" vector-effect="non-scaling-stroke" d="
  M 155.84 48.70
  L 152.93 60.32"
/>
<path stroke="#5b5f5f" vector-effect="non-scaling-stroke" d="
  M 152.93 60.32
  Q 150.06 68.38 148.63 77.57
  C 146.68 90.15 153.20 95.19 161.02 103.34
  Q 161.65 104.00 160.74 104.00
  L 159.65 104.00
  Q 159.12 104.00 158.71 104.35
  C 152.27 109.98 144.46 120.62 143.73 129.49
  A 0.50 0.50 0.0 0 0 144.58 129.88
  L 151.72 122.62
  A 1.32 1.30 67.9 0 0 152.09 121.73
  C 152.22 114.69 161.45 118.58 158.06 123.40
  Q 156.34 125.84 153.19 124.45
  Q 152.64 124.21 152.23 124.63
  L 144.04 132.90
  A 1.27 1.27 0.0 0 0 143.68 133.96
  Q 144.23 138.46 147.25 141.81
  Q 147.57 142.16 147.78 142.59
  L 148.88 144.84"
/>
<path stroke="#2b2c2c" vector-effect="non-scaling-stroke" d="
  M 148.88 144.84
  L 149.98 147.02"
/>
<path stroke="#5b5f5f" vector-effect="non-scaling-stroke" d="
  M 149.98 147.02
  Q 150.01 147.85 150.50 148.56"
/>
<path stroke="#232424" vector-effect="non-scaling-stroke" d="
  M 150.50 148.56
  C 150.09 152.18 154.32 152.87 157.17 152.67
  Q 157.65 152.64 157.65 152.16
  L 157.70 139.74"
/>
<path stroke="#5b5f5f" vector-effect="non-scaling-stroke" d="
  M 157.70 139.74
  Q 158.55 138.83 157.97 138.08"
/>
<path stroke="#2b2c2c" vector-effect="non-scaling-stroke" d="
  M 157.97 138.08
  L 158.01 135.97"
/>
<path stroke="#5b5f5f" vector-effect="non-scaling-stroke" d="
  M 158.01 135.97
  Q 157.45 132.91 155.03 129.40
  A 0.80 0.70 -83.7 0 1 156.14 128.39
  L 158.45 131.63
  Q 158.74 132.04 158.80 131.54
  Q 159.86 122.04 161.03 112.56
  Q 161.22 111.07 162.64 111.58
  Q 163.25 111.80 163.21 112.44
  Q 163.03 115.92 162.43 119.74
  Q 159.74 137.01 159.72 155.42
  A 0.51 0.51 0.0 0 0 160.49 155.86
  C 167.32 151.75 175.24 150.86 183.17 150.64"
/>
<path stroke="#232424" vector-effect="non-scaling-stroke" d="
  M 183.17 150.64
  Q 183.29 150.36 184.14 150.35"
/>
<path stroke="#5b5f5f" vector-effect="non-scaling-stroke" d="
  M 184.14 150.35
  L 190.10 150.93
  Q 190.57 150.97 190.71 150.52
  L 191.03 149.51
  Q 191.18 149.01 191.71 149.01
  C 194.27 149.03 198.79 148.84 199.66 151.12
  A 0.58 0.57 -15.6 0 0 200.31 151.48
  Q 203.28 150.93 206.19 151.76
  Q 206.87 151.96 206.70 151.27
  C 205.00 144.45 207.55 139.43 210.28 133.41
  C 212.15 129.25 209.13 121.37 207.33 117.42
  Q 207.17 117.08 207.49 116.89
  L 207.76 116.73
  Q 208.12 116.52 208.34 116.87
  Q 211.87 122.46 212.42 128.93"
/>
<path stroke="#000000" stroke-opacity="0.584" vector-effect="non-scaling-stroke" d="
  M 212.42 128.93
  Q 211.43 129.85 212.61 130.83"
/>
<path stroke="#5b5f5f" vector-effect="non-scaling-stroke" d="
  M 212.61 130.83
  Q 212.99 133.60 211.43 136.36"
/>
<path stroke="#232424" vector-effect="non-scaling-stroke" d="
  M 211.43 136.36
  Q 210.86 137.45 210.86 138.04"
/>
<path stroke="#5b5f5f" vector-effect="non-scaling-stroke" d="
  M 210.86 138.04
  Q 209.75 138.91 210.00 139.61"
/>
<path stroke="#232424" vector-effect="non-scaling-stroke" d="
  M 210.00 139.61
  Q 206.90 145.40 208.82 151.28
  A 1.59 1.59 0.0 0 0 210.93 152.26
  Q 214.81 150.68 216.93 146.87"
/>
<path stroke="#5b5f5f" vector-effect="non-scaling-stroke" d="
  M 216.93 146.87
  Q 218.19 146.12 218.16 145.16"
/>
<path stroke="#232424" vector-effect="non-scaling-stroke" d="
  M 218.16 145.16
  Q 219.30 144.62 219.40 144.07"
/>
<path stroke="#5b5f5f" vector-effect="non-scaling-stroke" d="
  M 219.40 144.07
  C 228.18 131.79 226.27 116.13 216.70 105.30
  Q 214.78 103.12 212.10 101.80
  A 1.30 1.28 45.5 0 0 211.00 101.78
  L 208.31 102.98
  Q 207.82 103.20 208.16 102.78
  Q 211.06 99.19 214.78 96.44
  C 225.18 88.76 219.80 66.65 215.88 57.04"
/>
<path stroke="#232424" vector-effect="non-scaling-stroke" d="
  M 215.88 57.04
  L 212.46 48.42"
/>
<path stroke="#5b5f5f" vector-effect="non-scaling-stroke" d="
  M 212.46 48.42
  L 204.76 34.29
  A 0.70 0.70 0.0 0 0 203.53 34.30
  L 198.05 44.82"
/>
<path stroke="#7d8383" vector-effect="non-scaling-stroke" d="
  M 212.46 48.42
  Q 205.31 45.77 198.05 44.82"
/>
<path stroke="#7d8383" vector-effect="non-scaling-stroke" d="
  M 215.88 57.04
  Q 205.42 52.08 194.68 50.54"
/>
<path stroke="#7d8383" vector-effect="non-scaling-stroke" d="
  M 219.40 144.07
  C 217.79 140.37 215.59 137.01 211.43 136.36"
/>
<path stroke="#9ba3a3" stroke-opacity="0.584" vector-effect="non-scaling-stroke" d="
  M 212.61 130.83
  Q 213.60 129.54 212.42 128.93"
/>
<path stroke="#7d8383" vector-effect="non-scaling-stroke" d="
  M 184.14 150.35
  C 183.37 138.51 180.93 126.31 182.48 114.47
  A 0.56 0.55 -79.6 0 1 183.15 114.00
  Q 184.16 114.24 184.72 113.60
  A 0.54 0.54 0.0 0 0 184.38 112.70
  Q 181.31 112.31 178.32 113.18
  A 0.47 0.46 36.4 0 0 178.46 114.09
  L 180.34 114.07
  Q 180.85 114.07 180.84 114.58
  Q 180.47 132.50 183.17 150.64"
/>
<path stroke="#858b8b" vector-effect="non-scaling-stroke" d="
  M 158.01 135.97
  Q 152.11 138.71 148.88 144.84"
/>
<path stroke="#858b8b" vector-effect="non-scaling-stroke" d="
  M 157.97 138.08
  Q 152.72 141.42 149.98 147.02"
/>
<path stroke="#7d8383" vector-effect="non-scaling-stroke" d="
  M 171.11 50.36
  Q 162.11 53.62 152.93 60.32"
/>
<path stroke="#7d8383" vector-effect="non-scaling-stroke" d="
  M 218.16 145.16
  Q 215.33 140.44 210.86 138.04"
/>
<path stroke="#7d8383" vector-effect="non-scaling-stroke" d="
  M 157.70 139.74
  Q 153.93 143.23 152.19 147.44
  Q 151.88 148.19 150.50 148.56"
/>
<path stroke="#7d8383" vector-effect="non-scaling-stroke" d="
  M 167.06 44.22
  L 155.84 48.70"
/>
<path stroke="#7d8383" vector-effect="non-scaling-stroke" d="
  M 216.93 146.87
  Q 214.40 142.34 210.00 139.61"
/>
<path stroke="#232424" vector-effect="non-scaling-stroke" d="
  M 79.52 94.49
  L 73.98 107.66"
/>
<path stroke="#5b5f5f" vector-effect="non-scaling-stroke" d="
  M 73.98 107.66
  Q 69.20 117.23 67.40 128.46
  Q 67.32 128.97 67.58 129.41
  Q 71.70 136.41 78.90 140.13
  Q 79.43 140.41 79.45 141.01
  Q 79.50 142.36 80.82 142.71
  Q 81.47 142.88 81.24 143.52
  C 80.44 145.65 75.42 140.87 74.66 140.20
  A 0.94 0.93 -46.4 0 0 73.38 140.24
  Q 63.29 150.35 62.72 164.13
  C 62.35 172.71 63.83 182.51 66.78 191.21
  C 71.17 204.20 83.06 217.79 98.14 214.83
  C 101.40 214.19 105.03 212.13 108.42 210.76
  A 0.95 0.95 0.0 0 0 108.66 209.13
  Q 104.22 205.66 101.47 200.73
  A 0.67 0.66 -1.8 0 1 102.34 199.81
  Q 103.06 200.16 103.86 201.45"
/>
<path stroke="#2b2c2c" vector-effect="non-scaling-stroke" d="
  M 103.86 201.45
  L 112.64 210.33"
/>
<path stroke="#232424" vector-effect="non-scaling-stroke" d="
  M 112.64 210.33
  C 118.66 215.22 128.92 216.19 135.12 210.90
  Q 135.55 210.53 135.10 210.18
  Q 129.31 205.86 125.98 198.69"
/>
<path stroke="#2b2c2c" vector-effect="non-scaling-stroke" d="
  M 125.98 198.69
  L 121.97 188.84"
/>
<path stroke="#5b5f5f" vector-effect="non-scaling-stroke" d="
  M 121.97 188.84
  Q 112.76 171.68 97.26 182.21
  Q 90.06 187.10 86.11 191.10
  A 1.31 1.29 -69.0 0 1 85.27 191.48
  Q 84.16 191.54 83.62 192.61
  A 0.74 0.72 14.5 0 1 82.92 193.01
  L 82.48 192.97
  A 0.69 0.68 22.5 0 1 82.01 191.84
  Q 86.74 186.36 92.66 182.19
  Q 93.65 181.50 92.46 181.73
  Q 76.42 184.88 67.57 171.73
  Q 66.53 170.18 66.92 167.86
  Q 67.04 167.13 67.44 167.75
  C 71.84 174.53 77.58 180.58 86.03 180.16"
/>
<path stroke="#2b2c2c" vector-effect="non-scaling-stroke" d="
  M 86.03 180.16
  Q 87.38 180.53 88.66 179.95"
/>
<path stroke="#5b5f5f" vector-effect="non-scaling-stroke" d="
  M 88.66 179.95
  Q 91.63 180.56 92.32 179.37"
/>
<path stroke="#232424" vector-effect="non-scaling-stroke" d="
  M 92.32 179.37
  C 96.50 178.44 103.08 176.31 103.28 171.48
  C 103.48 166.89 98.04 164.97 94.26 164.96"
/>
<path stroke="#5b5f5f" vector-effect="non-scaling-stroke" d="
  M 94.26 164.96
  Q 93.47 164.31 92.36 164.21"
/>
<path stroke="#2b2c2c" vector-effect="non-scaling-stroke" d="
  M 92.36 164.21
  L 89.51 163.74"
/>
<path stroke="#5b5f5f" vector-effect="non-scaling-stroke" d="
  M 89.51 163.74
  L 83.10 160.19
  Q 82.68 159.96 82.58 159.50
  C 82.37 158.54 76.97 148.02 80.02 147.80
  A 0.60 0.60 0.0 0 1 80.67 148.35
  Q 80.93 151.73 82.90 154.54
  Q 83.21 154.97 83.56 154.58
  C 86.20 151.57 90.03 150.51 90.83 155.81
  Q 90.94 156.59 91.53 156.06
  L 102.47 145.99
  Q 102.92 145.56 102.32 145.40
  Q 92.15 142.62 83.02 137.33
  C 77.24 133.97 85.64 115.12 88.36 112.01
  A 0.77 0.76 -57.6 0 1 89.24 111.81
  C 103.40 118.03 113.27 121.95 127.63 122.70
  Q 128.15 122.73 128.14 123.25
  Q 127.99 133.29 122.27 141.55
  A 0.58 0.57 89.1 0 0 123.08 142.34
  Q 127.35 139.17 130.00 134.86
  C 133.48 129.19 133.01 119.72 132.44 113.25"
/>
<path stroke="#232424" vector-effect="non-scaling-stroke" d="
  M 132.44 113.25
  L 130.54 99.76"
/>
<path stroke="#5b5f5f" vector-effect="non-scaling-stroke" d="
  M 130.54 99.76
  L 129.18 91.51
  Q 129.05 90.74 128.48 91.28
  L 123.92 95.57"
/>
<path stroke="#232424" vector-effect="non-scaling-stroke" d="
  M 123.92 95.57
  L 120.93 97.73
  Q 120.50 98.03 120.86 98.42
  L 124.16 102.00
  Q 124.53 102.40 124.22 102.84
  Q 124.00 103.15 123.61 103.41"
/>
<path stroke="#5b5f5f" vector-effect="non-scaling-stroke" d="
  M 123.61 103.41
  L 119.13 100.48
  A 1.29 1.29 0.0 0 0 118.25 100.27
  Q 117.26 100.38 116.69 99.61
  Q 116.39 99.21 115.94 98.99
  Q 108.03 95.10 99.23 94.06
  Q 98.91 94.03 98.63 94.19
  Q 98.41 94.32 98.00 94.30"
/>
<path stroke="#232424" vector-effect="non-scaling-stroke" d="
  M 98.00 94.30
  Q 96.87 93.40 94.03 94.71
  A 0.36 0.36 0.0 0 1 93.54 94.52
  L 91.80 90.09"
/>
<path stroke="#5b5f5f" vector-effect="non-scaling-stroke" d="
  M 91.80 90.09
  L 86.57 81.36
  A 0.33 0.32 -46.8 0 0 86.00 81.38
  L 79.52 94.49"
/>
<path stroke="#7d8383" vector-effect="non-scaling-stroke" d="
  M 91.80 90.09
  L 79.52 94.49"
/>
<path stroke="#7d8383" vector-effect="non-scaling-stroke" d="
  M 98.00 94.30
  Q 97.77 94.70 97.19 94.94
  Q 85.31 99.87 73.98 107.66"
/>
<path stroke="#7d8383" vector-effect="non-scaling-stroke" d="
  M 123.61 103.41
  Q 127.58 107.68 130.50 112.75
  Q 130.94 113.51 132.44 113.25"
/>
<path stroke="#858b8b" vector-effect="non-scaling-stroke" d="
  M 89.51 163.74
  Q 90.47 172.08 86.29 178.56
  Q 86.03 178.97 86.09 179.45
  Q 86.14 179.89 86.03 180.16"
/>
<path stroke="#858b8b" vector-effect="non-scaling-stroke" d="
  M 121.97 188.84
  C 113.36 187.39 106.78 194.06 103.86 201.45"
/>
<path stroke="#4d5050" vector-effect="non-scaling-stroke" d="
  M 125.98 198.69
  Q 115.71 200.06 112.64 210.33"
/>
<path stroke="#858b8b" vector-effect="non-scaling-stroke" d="
  M 92.36 164.21
  Q 93.04 173.14 88.66 179.95"
/>
<path stroke="#7d8383" vector-effect="non-scaling-stroke" d="
  M 130.54 99.76
  L 123.92 95.57"
/>
<path stroke="#7d8383" vector-effect="non-scaling-stroke" d="
  M 94.26 164.96
  C 95.95 169.83 94.12 174.71 92.32 179.37"
/>
<path stroke="#232424" vector-effect="non-scaling-stroke" d="
  M 122.32 123.82
  C 110.56 122.98 99.55 118.15 88.81 113.75
  A 0.65 0.65 0.0 0 0 87.96 114.12
  Q 84.12 123.97 82.24 134.35
  Q 82.13 134.91 82.62 135.20
  Q 92.62 141.02 103.83 143.91
  Q 104.37 144.04 104.80 143.69
  L 109.48 139.90
  A 0.80 0.79 -39.5 0 1 110.59 140.00
  L 112.60 142.34
  A 0.93 0.93 0.0 0 0 113.28 142.66
  C 115.74 142.75 119.66 142.71 121.12 140.35
  C 123.67 136.20 126.82 129.54 126.18 124.58
  Q 126.12 124.10 125.63 124.06
  Q 123.94 123.94 122.32 123.82"
/>
<path stroke="#0c6c66" vector-effect="non-scaling-stroke" d="
  M 155.4584 123.3673
  A 1.82 1.49 86.9 0 0 156.8478 121.4694
  A 1.82 1.49 86.9 0 0 155.2616 119.7327
  A 1.82 1.49 86.9 0 0 153.8722 121.6306
  A 1.82 1.49 86.9 0 0 155.4584 123.3673"
/>
<path stroke="#5b5f5f" vector-effect="non-scaling-stroke" d="
  M 250.79 137.02
  L 246.31 139.46"
/>
<path stroke="#232424" vector-effect="non-scaling-stroke" d="
  M 246.31 139.46
  L 242.14 141.64"
/>
<path stroke="#5b5f5f" vector-effect="non-scaling-stroke" d="
  M 242.14 141.64
  C 234.95 147.80 228.93 154.11 221.79 155.16"
/>
<path stroke="#232424" vector-effect="non-scaling-stroke" d="
  M 221.79 155.16
  L 216.16 155.53
  Q 215.63 155.56 215.67 156.10
  L 216.74 170.69"
/>
<path stroke="#5b5f5f" vector-effect="non-scaling-stroke" d="
  M 216.74 170.69
  Q 220.06 174.90 226.20 175.25
  C 235.28 175.76 245.19 172.88 252.63 167.27"
/>
<path stroke="#232424" vector-effect="non-scaling-stroke" d="
  M 252.63 167.27
  L 255.66 164.95"
/>
<path stroke="#5b5f5f" vector-effect="non-scaling-stroke" d="
  M 255.66 164.95
  L 259.17 161.49"
/>
<path stroke="#232424" vector-effect="non-scaling-stroke" d="
  M 259.17 161.49
  C 262.05 158.19 266.89 152.89 271.66 150.55
  A 1.41 1.39 -49.6 0 1 272.69 150.46
  Q 273.36 150.67 273.88 150.36
  Q 274.32 150.11 274.09 149.66
  C 271.65 144.94 264.61 135.23 258.66 135.28
  Q 254.55 135.31 250.79 137.02"
/>
<path stroke="#7d8383" vector-effect="non-scaling-stroke" d="
  M 259.17 161.49
  Q 248.08 151.51 250.79 137.02"
/>
<path stroke="#7d8383" vector-effect="non-scaling-stroke" d="
  M 255.66 164.95
  Q 244.63 154.41 246.31 139.46"
/>
<path stroke="#7d8383" vector-effect="non-scaling-stroke" d="
  M 252.63 167.27
  C 244.78 160.22 242.88 151.72 242.14 141.64"
/>
<path stroke="#7d8383" vector-effect="non-scaling-stroke" d="
  M 216.74 170.69
  Q 221.51 162.74 221.79 155.16"
/>
<path stroke="#5b5f5f" vector-effect="non-scaling-stroke" d="
  M 115.74 170.71
  C 114.98 170.77 105.42 172.16 107.25 169.86
  A 0.83 0.82 -71.8 0 1 107.84 169.56
  C 112.50 169.26 121.40 169.20 124.92 166.39
  Q 134.24 158.98 143.14 150.96
  Q 143.54 150.60 143.48 150.06
  Q 143.15 146.82 141.48 144.03
  Q 141.19 143.53 140.61 143.57
  L 132.73 144.07
  Q 132.19 144.10 131.82 144.50
  Q 129.89 146.61 127.46 148.07
  A 0.42 0.42 0.0 0 1 126.87 147.53
  Q 127.72 145.83 129.26 144.75
  A 0.45 0.45 0.0 0 0 128.99 143.94
  L 114.62 144.23
  Q 114.06 144.24 114.20 144.78
  L 115.26 148.98
  A 0.73 0.73 0.0 0 1 115.02 149.73
  Q 107.22 156.15 100.29 163.49
  Q 99.78 164.03 100.51 164.18
  L 102.78 164.65
  A 1.28 1.26 -12.3 0 1 103.51 165.11
  Q 107.21 169.88 104.69 175.51
  Q 104.39 176.18 105.10 175.98
  Q 110.78 174.42 115.52 177.82
  Q 116.02 178.18 116.39 177.70
  L 118.68 174.84"
/>
<path stroke="#232424" vector-effect="non-scaling-stroke" d="
  M 118.68 174.84
  C 122.13 170.94 127.70 168.28 130.73 166.03
  Q 139.73 159.32 148.07 151.80
  A 1.35 1.32 -28.2 0 0 148.48 150.49
  Q 147.40 146.15 144.91 142.39
  A 0.94 0.94 0.0 0 0 143.25 143.23
  L 145.49 149.40
  A 1.80 1.80 0.0 0 1 145.08 151.28
  Q 138.52 158.01 130.77 163.77
  C 128.39 165.54 126.64 167.24 124.74 169.39
  Q 124.40 169.77 123.91 169.82
  L 115.74 170.71"
/>
<path stroke="#7d8383" vector-effect="non-scaling-stroke" d="
  M 118.68 174.84
  Q 115.33 173.73 115.74 170.71"
/>
<path stroke="#232424" vector-effect="non-scaling-stroke" d="
  M 104.90 146.34
  L 90.08 159.88
  Q 88.87 160.98 90.46 161.37
  L 93.13 162.02
  Q 93.59 162.14 93.89 161.76
  C 95.73 159.41 107.81 146.37 110.37 146.98
  A 0.63 0.56 29.0 0 1 110.72 147.97
  L 95.15 161.72
  Q 94.80 162.03 95.19 162.31
  C 96.63 163.33 97.75 163.16 99.03 161.86
  Q 105.63 155.17 113.16 149.34
  Q 113.66 148.96 113.49 148.35
  Q 112.57 144.97 110.26 142.32
  A 0.62 0.61 50.1 0 0 109.41 142.24
  L 107.14 144.08
  Q 106.80 144.36 106.79 144.80
  Q 106.78 145.82 105.73 145.96
  Q 105.25 146.02 104.90 146.34"
/>
<path stroke="#232424" vector-effect="non-scaling-stroke" d="
  M 197.25 151.15
  L 193.07 150.75
  A 0.57 0.56 -81.6 0 0 192.46 151.21
  Q 191.66 155.54 192.34 159.86
  Q 192.44 160.47 193.04 160.57
  L 196.65 161.16
  A 1.31 1.31 0.0 0 0 198.17 159.89
  L 198.28 152.30
  A 1.14 1.14 0.0 0 0 197.25 151.15"
/>
<path stroke="#5b5f5f" vector-effect="non-scaling-stroke" d="
  M 25.78 167.09
  L 26.30 171.65"
/>
<path stroke="#232424" vector-effect="non-scaling-stroke" d="
  M 26.30 171.65
  L 27.17 176.29"
/>
<path stroke="#5b5f5f" vector-effect="non-scaling-stroke" d="
  M 27.17 176.29
  C 32.56 192.43 41.43 202.07 58.80 204.76"
/>
<path stroke="#232424" vector-effect="non-scaling-stroke" d="
  M 58.80 204.76
  Q 64.38 205.66 70.06 204.87
  Q 70.55 204.80 70.33 204.35
  L 64.24 192.00
  A 0.86 0.86 0.0 0 0 63.63 191.54
  Q 60.48 190.96 57.80 189.18"
/>
<path stroke="#5b5f5f" vector-effect="non-scaling-stroke" d="
  M 57.80 189.18
  Q 48.45 185.19 43.95 175.98"
/>
<path stroke="#232424" vector-effect="non-scaling-stroke" d="
  M 43.95 175.98
  L 42.64 172.00"
/>
<path stroke="#5b5f5f" vector-effect="non-scaling-stroke" d="
  M 42.64 172.00
  L 42.25 168.78"
/>
<path stroke="#232424" vector-effect="non-scaling-stroke" d="
  M 42.25 168.78
  C 41.26 163.48 41.60 149.48 32.15 151.87
  C 26.69 153.26 25.34 162.60 25.78 167.09"
/>
<path stroke="#7d8383" vector-effect="non-scaling-stroke" d="
  M 42.25 168.78
  Q 33.84 171.54 25.78 167.09"
/>
<path stroke="#7d8383" vector-effect="non-scaling-stroke" d="
  M 42.64 172.00
  C 36.45 174.57 32.36 173.17 26.30 171.65"
/>
<path stroke="#7d8383" vector-effect="non-scaling-stroke" d="
  M 43.95 175.98
  Q 35.99 178.84 27.17 176.29"
/>
<path stroke="#7d8383" vector-effect="non-scaling-stroke" d="
  M 57.80 189.18
  Q 54.25 197.27 58.80 204.76"
/>
<path stroke="#2b2c2c" vector-effect="non-scaling-stroke" d="
  M 189.92 152.75
  Q 174.32 151.24 161.30 157.01
  Q 160.74 157.25 160.24 157.28
  Q 159.82 157.30 159.80 157.72
  L 159.63 161.70
  A 0.21 0.21 0.0 0 0 159.92 161.90
  C 169.70 157.79 179.12 157.44 189.58 158.07
  A 0.59 0.58 -87.1 0 0 190.19 157.51
  L 190.40 153.30
  Q 190.42 152.80 189.92 152.75"
/>
<path stroke="#2b2c2c" vector-effect="non-scaling-stroke" d="
  M 210.48 154.89
  Q 205.89 152.36 200.57 152.98
  Q 200.07 153.04 200.04 153.54
  L 199.69 158.40
  Q 199.65 158.97 200.22 159.04
  Q 207.07 159.90 213.40 162.66
  Q 214.15 162.99 214.10 162.17
  L 213.71 155.42
  A 0.65 0.65 0.0 0 0 212.99 154.81
  L 211.11 155.02
  Q 210.78 155.06 210.48 154.89"
/>
<path stroke="#226925" vector-effect="non-scaling-stroke" d="
  M 87.16 153.61
  Q 85.32 154.13 84.55 156.07
  Q 84.37 156.52 84.61 156.94
  Q 85.91 159.24 88.17 160.61
  Q 88.75 160.97 88.85 160.30
  Q 89.18 158.11 89.64 155.95
  A 1.99 1.99 0.0 0 0 87.16 153.61"
/>
<path stroke="#2b2c2c" vector-effect="non-scaling-stroke" d="
  M 161.87 187.82
  L 163.18 196.10"
/>
<path stroke="#232424" vector-effect="non-scaling-stroke" d="
  M 163.18 196.10
  L 164.43 212.46
  Q 164.47 212.93 164.93 212.95
  C 176.89 213.44 178.29 204.82 179.84 195.61"
/>
<path stroke="#2b2c2c" vector-effect="non-scaling-stroke" d="
  M 179.84 195.61
  L 181.29 188.61"
/>
<path stroke="#5b5f5f" vector-effect="non-scaling-stroke" d="
  M 181.29 188.61
  L 182.20 184.59
  A 0.61 0.60 17.1 0 0 181.82 183.89
  C 180.69 183.45 174.30 181.43 175.62 179.61
  Q 175.92 179.20 176.39 179.39
  C 181.98 181.72 190.56 183.42 192.45 189.84"
/>
<path stroke="#2b2c2c" vector-effect="non-scaling-stroke" d="
  M 192.45 189.84
  L 194.64 196.74"
/>
<path stroke="#232424" vector-effect="non-scaling-stroke" d="
  M 194.64 196.74
  C 196.77 205.41 199.38 216.14 211.45 210.69
  C 214.18 209.46 214.46 201.52 214.70 198.12"
/>
<path stroke="#2b2c2c" vector-effect="non-scaling-stroke" d="
  M 214.70 198.12
  L 214.97 186.80"
/>
<path stroke="#5b5f5f" vector-effect="non-scaling-stroke" d="
  M 214.97 186.80
  L 214.17 165.33
  Q 214.15 164.82 213.68 164.61
  Q 207.21 161.74 200.16 160.71
  Q 199.50 160.62 199.50 161.28
  L 199.50 162.23
  Q 199.50 162.67 199.05 162.71
  Q 195.36 163.03 191.83 161.96
  Q 191.27 161.80 190.95 161.31
  L 190.29 160.32
  Q 190.02 159.92 189.53 159.87
  C 180.07 158.94 168.89 159.47 160.19 163.77
  Q 159.75 163.99 159.76 164.49
  Q 160.04 176.14 161.87 187.82"
/>
<path stroke="#858b8b" vector-effect="non-scaling-stroke" d="
  M 214.97 186.80
  Q 202.63 179.01 192.45 189.84"
/>
<path stroke="#858b8b" vector-effect="non-scaling-stroke" d="
  M 181.29 188.61
  Q 171.14 181.79 161.87 187.82"
/>
<path stroke="#4d5050" vector-effect="non-scaling-stroke" d="
  M 179.84 195.61
  C 173.50 193.97 169.57 192.65 163.18 196.10"
/>
<path stroke="#4d5050" vector-effect="non-scaling-stroke" d="
  M 214.70 198.12
  Q 204.69 192.55 194.64 196.74"
/>
<path stroke="#2b2c2c" vector-effect="non-scaling-stroke" d="
  M 125.27 190.16
  L 128.18 197.97"
/>
<path stroke="#232424" vector-effect="non-scaling-stroke" d="
  M 128.18 197.97
  Q 131.22 204.10 136.97 208.72
  Q 137.33 209.01 137.80 208.94
  Q 142.33 208.21 146.44 206.14
  Q 146.98 205.87 146.68 205.35
  Q 146.39 204.85 145.84 204.70
  A 1.02 1.01 -2.2 0 1 145.16 204.08
  Q 143.11 198.82 143.93 193.03"
/>
<path stroke="#2b2c2c" vector-effect="non-scaling-stroke" d="
  M 143.93 193.03
  L 144.11 181.35"
/>
<path stroke="#5b5f5f" vector-effect="non-scaling-stroke" d="
  M 144.11 181.35
  C 141.90 174.95 134.24 167.48 126.86 171.82
  A 2.21 2.15 -61.7 0 1 125.94 172.11
  C 122.53 172.36 119.79 176.14 117.76 178.72
  Q 117.46 179.10 117.81 179.44
  Q 122.31 183.65 125.27 190.16"
/>
<path stroke="#858b8b" vector-effect="non-scaling-stroke" d="
  M 144.11 181.35
  Q 132.84 180.87 125.27 190.16"
/>
<path stroke="#4d5050" vector-effect="non-scaling-stroke" d="
  M 143.93 193.03
  Q 141.54 192.92 139.11 192.84
  C 133.72 192.67 132.14 195.62 128.18 197.97"
/>
<path stroke="#5b5f5f" vector-effect="non-scaling-stroke" d="
  M 186.0576 60.3406
  A 1.08 0.97 -38.3 0 0 184.6088 60.2488
  A 1.08 0.97 -38.3 0 0 184.3624 61.6794
  A 1.08 0.97 -38.3 0 0 185.8112 61.7712
  A 1.08 0.97 -38.3 0 0 186.0576 60.3406"
/>
<path stroke="#5b5f5f" vector-effect="non-scaling-stroke" d="
  M 179.54 67.05
  C 174.19 68.16 165.51 69.63 160.02 72.66
  Q 159.56 72.91 159.37 73.41
  C 156.58 80.70 159.16 95.93 165.38 101.22
  Q 165.79 101.57 166.32 101.63
  C 179.69 103.26 193.05 102.23 205.88 98.08
  Q 206.39 97.91 206.54 97.40
  Q 210.95 82.56 203.98 68.78
  A 1.27 1.24 84.1 0 0 203.21 68.14
  Q 191.46 64.59 179.54 67.05"
/>
<path stroke="#5b5f5f" vector-effect="non-scaling-stroke" d="
  M 199.50 108.28
  C 198.28 108.13 197.10 107.02 196.03 106.33
  Q 195.59 106.05 195.07 106.10
  C 187.08 106.81 190.40 121.49 192.59 125.64
  Q 192.88 126.19 193.50 126.19
  L 200.08 126.19
  A 0.70 0.70 0.0 0 0 200.76 125.64
  Q 202.65 116.91 199.83 108.55
  Q 199.75 108.31 199.50 108.28"
/>
<path stroke="#7d8383" vector-effect="non-scaling-stroke" d="
  M 171.0126 125.5665
  A 7.25 4.81 86.5 0 0 175.3710 118.0364
  A 7.25 4.81 86.5 0 0 170.1274 111.0935
  A 7.25 4.81 86.5 0 0 165.7690 118.6236
  A 7.25 4.81 86.5 0 0 171.0126 125.5665"
/>
<path stroke="#7d8383" vector-effect="non-scaling-stroke" d="
  M 167.21 129.81
  C 168.85 130.01 175.56 130.64 174.27 127.79"
/>
<path stroke="#7dc884" vector-effect="non-scaling-stroke" d="
  M 174.27 127.79
  C 173.62 124.23 166.08 126.31 167.21 129.81"
/>
<path stroke="#458c48" vector-effect="non-scaling-stroke" d="
  M 174.27 127.79
  L 168.25 127.90
  A 0.87 0.86 -73.8 0 0 167.55 128.29
  Q 167.19 128.84 167.21 129.81"
/>
<path stroke="#232424" vector-effect="non-scaling-stroke" d="
  M 201.33 69.77
  C 189.43 66.36 173.39 69.40 161.64 74.05
  A 1.49 1.47 -7.8 0 0 160.72 75.25
  C 160.10 80.48 160.87 95.60 165.94 98.83
  Q 167.54 99.84 169.99 99.98
  Q 187.63 101.00 202.12 97.12
  C 209.76 95.07 205.00 75.97 202.87 71.12
  A 2.39 2.39 0.0 0 0 201.33 69.77"
/>
<path stroke="#2e9089" vector-effect="non-scaling-stroke" d="
  M 198.56 78.69
  C 194.05 76.03 187.15 86.68 191.09 90.46
  C 196.85 95.98 202.97 81.28 198.56 78.69"
/>
<path stroke="#2e9089" vector-effect="non-scaling-stroke" d="
  M 177.00 89.84
  C 176.60 85.39 171.26 80.69 166.74 81.37
  A 2.37 2.36 76.4 0 0 164.86 84.46
  C 166.54 89.53 168.57 93.88 174.93 92.60
  A 2.59 2.58 81.9 0 0 177.00 89.84"
/>
<path stroke="#5b5f5f" vector-effect="non-scaling-stroke" d="
  M 111.29 100.67
  Q 111.28 101.44 112.30 103.32
  C 113.98 106.44 114.31 112.15 114.45 115.68
  Q 114.47 116.24 114.60 116.41
  A 0.61 0.49 -63.8 0 0 115.54 115.98
  Q 116.41 107.79 113.00 100.29
  Q 111.34 96.62 111.29 100.67"
/>
<path stroke="#5b5f5f" vector-effect="non-scaling-stroke" d="
  M 109.0119 114.2682
  A 1.04 0.80 73.7 0 0 109.4878 113.0455
  A 1.04 0.80 73.7 0 0 108.4281 112.2718
  A 1.04 0.80 73.7 0 0 107.9522 113.4945
  A 1.04 0.80 73.7 0 0 109.0119 114.2682"
/>
<path stroke="#5b5f5f" vector-effect="non-scaling-stroke" d="
  M 192.36 112.48
  Q 192.61 112.77 192.50 112.92"
/>
<path stroke="#232424" vector-effect="non-scaling-stroke" d="
  M 192.50 112.92
  C 190.26 114.73 192.54 123.53 195.25 124.61
  Q 197.24 125.41 199.15 124.07
  Q 199.57 123.78 199.61 123.28
  C 200.23 116.87 200.70 112.46 196.62 108.67
  C 193.39 105.68 192.07 109.95 192.36 112.48"
/>
<path stroke="#7d8383" vector-effect="non-scaling-stroke" d="
  M 192.50 112.92
  Q 192.87 115.58 194.75 115.99
  C 199.26 116.99 198.26 109.13 194.52 110.17
  Q 192.71 110.68 192.36 112.48"
/>
<path stroke="#7d8383" vector-effect="non-scaling-stroke" d="
  M 194.08 118.27
  L 194.08 119.61
  A 0.29 0.29 0.0 0 0 194.37 119.90
  L 196.06 119.91
  A 1.92 0.73 0.2 0 0 197.98 119.19
  L 197.98 118.73
  A 1.92 0.73 0.2 0 0 196.06 117.99
  L 194.37 117.98
  A 0.29 0.29 0.0 0 0 194.08 118.27"
/>
<path stroke="#458c48" vector-effect="non-scaling-stroke" d="
  M 171.0562 123.6248
  A 5.29 2.99 84.4 0 0 173.5157 118.0682
  A 5.29 2.99 84.4 0 0 170.0238 113.0952
  A 5.29 2.99 84.4 0 0 167.5643 118.6518
  A 5.29 2.99 84.4 0 0 171.0562 123.6248"
/>
<path stroke="#2e9089" vector-effect="non-scaling-stroke" d="
  M 97.3384 136.0172
  A 6.84 4.36 62.5 0 0 98.0474 127.9368
  A 6.84 4.36 62.5 0 0 91.0216 123.8828
  A 6.84 4.36 62.5 0 0 90.3126 131.9632
  A 6.84 4.36 62.5 0 0 97.3384 136.0172"
/>
<path stroke="#2e9089" vector-effect="non-scaling-stroke" d="
  M 120.9928 131.6748
  A 5.83 3.79 -37.7 0 0 114.0623 132.2413
  A 5.83 3.79 -37.7 0 0 111.7672 138.8052
  A 5.83 3.79 -37.7 0 0 118.6977 138.2387
  A 5.83 3.79 -37.7 0 0 120.9928 131.6748"
/>
<path stroke="#5b5f5f" vector-effect="non-scaling-stroke" d="
  M 140.2251 151.3275
  A 10.77 0.89 -3.9 0 0 129.4195 151.1721
  A 10.77 0.89 -3.9 0 0 118.7349 152.7925
  A 10.77 0.89 -3.9 0 0 129.5405 152.9479
  A 10.77 0.89 -3.9 0 0 140.2251 151.3275"
/>
<path stroke="#858b8b" vector-effect="non-scaling-stroke" d="
  M 110.90 166.97
  C 111.02 167.51 111.24 167.82 111.86 167.73
  C 116.64 167.03 122.02 167.77 123.44 162.68
  Q 123.61 162.10 123.01 162.05
  L 114.59 161.25
  A 0.98 0.97 21.6 0 0 113.76 161.60
  L 110.40 165.76
  A 0.82 0.81 -41.0 0 0 110.33 166.68
  Q 110.55 167.08 110.90 166.97"
/>
<path stroke="#858b8b" vector-effect="non-scaling-stroke" d="
  M 110.90 166.97
  L 119.70 166.06
  Q 120.23 166.01 120.57 165.59
  L 122.30 163.54
  A 0.44 0.44 0.0 0 0 121.98 162.81
  C 117.23 162.66 113.20 161.53 110.90 166.97"
/>
</g>
<path fill="#000000" d="
  M 216.20 205.23
  C 215.94 208.14 215.40 211.04 212.52 212.48
  C 208.67 214.43 204.20 214.82 200.36 212.57
  Q 196.03 210.03 194.69 205.46
  Q 192.61 196.18 189.65 188.79
  C 188.76 186.56 186.88 185.62 184.75 185.07
  Q 184.18 184.92 184.07 185.50
  L 180.34 204.58
  Q 176.28 216.54 163.25 214.77
  Q 163.31 212.31 162.42 210.68
  L 161.83 203.00
  C 160.50 192.33 158.57 181.46 158.10 171.07
  Q 157.75 163.42 157.60 155.17
  A 0.42 0.41 87.4 0 0 157.16 154.76
  Q 153.66 154.99 150.70 153.14
  A 0.75 0.74 -50.3 0 0 149.80 153.23
  Q 141.71 160.77 132.66 167.17
  A 0.56 0.56 0.0 0 0 132.93 168.18
  C 135.18 168.38 137.17 169.13 139.02 170.55
  C 149.95 178.99 145.10 189.78 146.43 201.49
  A 1.11 1.09 -76.6 0 0 146.90 202.27
  L 149.35 203.96
  L 148.73 206.75
  Q 148.61 207.28 148.15 207.55
  Q 146.39 208.59 144.81 209.88
  C 141.86 212.29 138.85 209.55 136.46 212.02
  C 129.17 219.52 118.66 218.35 111.22 211.88
  A 1.40 1.40 0.0 0 0 109.38 211.88
  C 98.34 221.46 81.26 219.49 73.00 207.29
  A 1.36 1.36 0.0 0 0 71.52 206.73
  Q 63.89 208.75 57.38 206.97
  C 37.02 202.75 25.46 188.61 23.31 168.20
  C 22.60 161.41 25.31 147.21 35.46 149.43
  C 43.95 151.29 43.40 161.53 44.35 167.97
  C 46.05 179.44 52.48 185.01 62.70 188.92
  A 0.37 0.36 -86.6 0 0 63.18 188.49
  Q 60.03 175.73 60.03 162.56
  Q 60.03 159.28 63.52 150.12
  Q 66.12 143.29 71.05 138.20
  A 0.74 0.74 0.0 0 0 70.97 137.11
  Q 67.13 134.14 65.20 129.68
  Q 64.99 129.20 65.11 128.70
  C 65.81 125.52 66.18 122.16 67.17 119.21
  Q 74.34 97.83 85.33 78.30
  A 1.08 1.07 43.9 0 1 87.18 78.27
  L 94.71 90.57
  Q 95.13 91.27 95.95 91.33
  Q 106.92 92.16 116.90 96.83
  Q 118.10 97.39 119.10 96.52
  C 122.29 93.72 126.00 89.75 129.90 87.53
  Q 130.50 87.19 130.66 87.86
  Q 135.52 108.42 134.79 129.24
  C 134.65 133.14 129.74 139.29 126.78 141.69
  Q 126.07 142.27 126.99 142.26
  L 130.91 142.24
  Q 131.51 142.24 131.95 141.83
  L 140.49 133.89
  Q 140.91 133.49 140.99 132.92
  Q 143.50 114.74 157.38 102.88
  A 0.48 0.48 0.0 0 0 157.39 102.15
  C 149.95 95.45 144.54 88.94 146.50 77.80
  Q 150.58 54.65 159.16 33.00
  A 0.83 0.82 -55.2 0 1 160.54 32.75
  Q 167.37 40.27 172.56 48.97
  Q 172.84 49.44 173.39 49.40
  L 193.99 47.92
  A 0.63 0.62 -80.4 0 0 194.54 47.52
  Q 197.98 39.21 202.83 31.65
  A 1.51 1.51 0.0 0 1 205.36 31.63
  C 215.97 47.73 223.11 64.87 222.57 84.47
  Q 222.32 93.39 214.21 99.84
  A 0.42 0.41 44.6 0 0 214.22 100.50
  C 231.03 113.40 231.20 137.35 215.62 151.36
  A 0.99 0.99 0.0 0 0 216.23 153.08
  C 225.85 153.59 231.20 147.65 237.94 141.94
  Q 247.29 134.02 257.55 132.52
  C 265.02 131.43 276.88 145.83 277.39 152.54
  Q 277.44 153.18 276.80 153.13
  L 273.07 152.86
  Q 272.51 152.81 272.04 153.11
  Q 267.90 155.65 265.07 158.83
  C 256.91 168.00 248.32 175.03 236.06 176.98
  C 229.46 178.04 223.36 178.57 217.96 175.14
  Q 216.55 174.24 216.67 175.91
  Q 217.74 190.79 216.20 205.23
  Z
  M 198.05 44.82
  Q 196.78 48.36 194.68 50.54
  L 182.29 50.82
  A 0.86 0.85 10.2 0 0 181.53 51.34
  Q 178.66 58.21 179.64 65.67
  A 0.80 0.79 -10.6 0 1 179.04 66.54
  C 175.26 67.47 178.71 52.80 178.98 51.45
  A 0.46 0.46 0.0 0 0 178.44 50.91
  L 172.89 51.99
  A 0.94 0.93 67.0 0 1 171.94 51.60
  L 171.11 50.36
  L 167.06 44.22
  L 160.79 36.33
  Q 160.33 35.75 160.09 36.46
  L 155.84 48.70
  L 152.93 60.32
  Q 150.06 68.38 148.63 77.57
  C 146.68 90.15 153.20 95.19 161.02 103.34
  Q 161.65 104.00 160.74 104.00
  L 159.65 104.00
  Q 159.12 104.00 158.71 104.35
  C 152.27 109.98 144.46 120.62 143.73 129.49
  A 0.50 0.50 0.0 0 0 144.58 129.88
  L 151.72 122.62
  A 1.32 1.30 67.9 0 0 152.09 121.73
  C 152.22 114.69 161.45 118.58 158.06 123.40
  Q 156.34 125.84 153.19 124.45
  Q 152.64 124.21 152.23 124.63
  L 144.04 132.90
  A 1.27 1.27 0.0 0 0 143.68 133.96
  Q 144.23 138.46 147.25 141.81
  Q 147.57 142.16 147.78 142.59
  L 148.88 144.84
  L 149.98 147.02
  Q 150.01 147.85 150.50 148.56
  C 150.09 152.18 154.32 152.87 157.17 152.67
  Q 157.65 152.64 157.65 152.16
  L 157.70 139.74
  Q 158.55 138.83 157.97 138.08
  L 158.01 135.97
  Q 157.45 132.91 155.03 129.40
  A 0.80 0.70 -83.7 0 1 156.14 128.39
  L 158.45 131.63
  Q 158.74 132.04 158.80 131.54
  Q 159.86 122.04 161.03 112.56
  Q 161.22 111.07 162.64 111.58
  Q 163.25 111.80 163.21 112.44
  Q 163.03 115.92 162.43 119.74
  Q 159.74 137.01 159.72 155.42
  A 0.51 0.51 0.0 0 0 160.49 155.86
  C 167.32 151.75 175.24 150.86 183.17 150.64
  Q 183.29 150.36 184.14 150.35
  L 190.10 150.93
  Q 190.57 150.97 190.71 150.52
  L 191.03 149.51
  Q 191.18 149.01 191.71 149.01
  C 194.27 149.03 198.79 148.84 199.66 151.12
  A 0.58 0.57 -15.6 0 0 200.31 151.48
  Q 203.28 150.93 206.19 151.76
  Q 206.87 151.96 206.70 151.27
  C 205.00 144.45 207.55 139.43 210.28 133.41
  C 212.15 129.25 209.13 121.37 207.33 117.42
  Q 207.17 117.08 207.49 116.89
  L 207.76 116.73
  Q 208.12 116.52 208.34 116.87
  Q 211.87 122.46 212.42 128.93
  Q 211.43 129.85 212.61 130.83
  Q 212.99 133.60 211.43 136.36
  Q 210.86 137.45 210.86 138.04
  Q 209.75 138.91 210.00 139.61
  Q 206.90 145.40 208.82 151.28
  A 1.59 1.59 0.0 0 0 210.93 152.26
  Q 214.81 150.68 216.93 146.87
  Q 218.19 146.12 218.16 145.16
  Q 219.30 144.62 219.40 144.07
  C 228.18 131.79 226.27 116.13 216.70 105.30
  Q 214.78 103.12 212.10 101.80
  A 1.30 1.28 45.5 0 0 211.00 101.78
  L 208.31 102.98
  Q 207.82 103.20 208.16 102.78
  Q 211.06 99.19 214.78 96.44
  C 225.18 88.76 219.80 66.65 215.88 57.04
  L 212.46 48.42
  L 204.76 34.29
  A 0.70 0.70 0.0 0 0 203.53 34.30
  L 198.05 44.82
  Z
  M 79.52 94.49
  L 73.98 107.66
  Q 69.20 117.23 67.40 128.46
  Q 67.32 128.97 67.58 129.41
  Q 71.70 136.41 78.90 140.13
  Q 79.43 140.41 79.45 141.01
  Q 79.50 142.36 80.82 142.71
  Q 81.47 142.88 81.24 143.52
  C 80.44 145.65 75.42 140.87 74.66 140.20
  A 0.94 0.93 -46.4 0 0 73.38 140.24
  Q 63.29 150.35 62.72 164.13
  C 62.35 172.71 63.83 182.51 66.78 191.21
  C 71.17 204.20 83.06 217.79 98.14 214.83
  C 101.40 214.19 105.03 212.13 108.42 210.76
  A 0.95 0.95 0.0 0 0 108.66 209.13
  Q 104.22 205.66 101.47 200.73
  A 0.67 0.66 -1.8 0 1 102.34 199.81
  Q 103.06 200.16 103.86 201.45
  L 112.64 210.33
  C 118.66 215.22 128.92 216.19 135.12 210.90
  Q 135.55 210.53 135.10 210.18
  Q 129.31 205.86 125.98 198.69
  L 121.97 188.84
  Q 112.76 171.68 97.26 182.21
  Q 90.06 187.10 86.11 191.10
  A 1.31 1.29 -69.0 0 1 85.27 191.48
  Q 84.16 191.54 83.62 192.61
  A 0.74 0.72 14.5 0 1 82.92 193.01
  L 82.48 192.97
  A 0.69 0.68 22.5 0 1 82.01 191.84
  Q 86.74 186.36 92.66 182.19
  Q 93.65 181.50 92.46 181.73
  Q 76.42 184.88 67.57 171.73
  Q 66.53 170.18 66.92 167.86
  Q 67.04 167.13 67.44 167.75
  C 71.84 174.53 77.58 180.58 86.03 180.16
  Q 87.38 180.53 88.66 179.95
  Q 91.63 180.56 92.32 179.37
  C 96.50 178.44 103.08 176.31 103.28 171.48
  C 103.48 166.89 98.04 164.97 94.26 164.96
  Q 93.47 164.31 92.36 164.21
  L 89.51 163.74
  L 83.10 160.19
  Q 82.68 159.96 82.58 159.50
  C 82.37 158.54 76.97 148.02 80.02 147.80
  A 0.60 0.60 0.0 0 1 80.67 148.35
  Q 80.93 151.73 82.90 154.54
  Q 83.21 154.97 83.56 154.58
  C 86.20 151.57 90.03 150.51 90.83 155.81
  Q 90.94 156.59 91.53 156.06
  L 102.47 145.99
  Q 102.92 145.56 102.32 145.40
  Q 92.15 142.62 83.02 137.33
  C 77.24 133.97 85.64 115.12 88.36 112.01
  A 0.77 0.76 -57.6 0 1 89.24 111.81
  C 103.40 118.03 113.27 121.95 127.63 122.70
  Q 128.15 122.73 128.14 123.25
  Q 127.99 133.29 122.27 141.55
  A 0.58 0.57 89.1 0 0 123.08 142.34
  Q 127.35 139.17 130.00 134.86
  C 133.48 129.19 133.01 119.72 132.44 113.25
  L 130.54 99.76
  L 129.18 91.51
  Q 129.05 90.74 128.48 91.28
  L 123.92 95.57
  L 120.93 97.73
  Q 120.50 98.03 120.86 98.42
  L 124.16 102.00
  Q 124.53 102.40 124.22 102.84
  Q 124.00 103.15 123.61 103.41
  L 119.13 100.48
  A 1.29 1.29 0.0 0 0 118.25 100.27
  Q 117.26 100.38 116.69 99.61
  Q 116.39 99.21 115.94 98.99
  Q 108.03 95.10 99.23 94.06
  Q 98.91 94.03 98.63 94.19
  Q 98.41 94.32 98.00 94.30
  Q 96.87 93.40 94.03 94.71
  A 0.36 0.36 0.0 0 1 93.54 94.52
  L 91.80 90.09
  L 86.57 81.36
  A 0.33 0.32 -46.8 0 0 86.00 81.38
  L 79.52 94.49
  Z
  M 122.32 123.82
  C 110.56 122.98 99.55 118.15 88.81 113.75
  A 0.65 0.65 0.0 0 0 87.96 114.12
  Q 84.12 123.97 82.24 134.35
  Q 82.13 134.91 82.62 135.20
  Q 92.62 141.02 103.83 143.91
  Q 104.37 144.04 104.80 143.69
  L 109.48 139.90
  A 0.80 0.79 -39.5 0 1 110.59 140.00
  L 112.60 142.34
  A 0.93 0.93 0.0 0 0 113.28 142.66
  C 115.74 142.75 119.66 142.71 121.12 140.35
  C 123.67 136.20 126.82 129.54 126.18 124.58
  Q 126.12 124.10 125.63 124.06
  Q 123.94 123.94 122.32 123.82
  Z
  M 155.4584 123.3673
  A 1.82 1.49 86.9 0 0 156.8478 121.4694
  A 1.82 1.49 86.9 0 0 155.2616 119.7327
  A 1.82 1.49 86.9 0 0 153.8722 121.6306
  A 1.82 1.49 86.9 0 0 155.4584 123.3673
  Z
  M 134.78 141.91
  C 134.92 141.98 140.60 140.95 141.82 141.03
  A 1.34 1.34 0.0 0 0 142.98 138.90
  Q 141.94 137.48 142.01 135.83
  Q 142.05 134.74 141.25 135.48
  L 134.70 141.44
  A 0.29 0.28 35.8 0 0 134.78 141.91
  Z
  M 250.79 137.02
  L 246.31 139.46
  L 242.14 141.64
  C 234.95 147.80 228.93 154.11 221.79 155.16
  L 216.16 155.53
  Q 215.63 155.56 215.67 156.10
  L 216.74 170.69
  Q 220.06 174.90 226.20 175.25
  C 235.28 175.76 245.19 172.88 252.63 167.27
  L 255.66 164.95
  L 259.17 161.49
  C 262.05 158.19 266.89 152.89 271.66 150.55
  A 1.41 1.39 -49.6 0 1 272.69 150.46
  Q 273.36 150.67 273.88 150.36
  Q 274.32 150.11 274.09 149.66
  C 271.65 144.94 264.61 135.23 258.66 135.28
  Q 254.55 135.31 250.79 137.02
  Z
  M 115.74 170.71
  C 114.98 170.77 105.42 172.16 107.25 169.86
  A 0.83 0.82 -71.8 0 1 107.84 169.56
  C 112.50 169.26 121.40 169.20 124.92 166.39
  Q 134.24 158.98 143.14 150.96
  Q 143.54 150.60 143.48 150.06
  Q 143.15 146.82 141.48 144.03
  Q 141.19 143.53 140.61 143.57
  L 132.73 144.07
  Q 132.19 144.10 131.82 144.50
  Q 129.89 146.61 127.46 148.07
  A 0.42 0.42 0.0 0 1 126.87 147.53
  Q 127.72 145.83 129.26 144.75
  A 0.45 0.45 0.0 0 0 128.99 143.94
  L 114.62 144.23
  Q 114.06 144.24 114.20 144.78
  L 115.26 148.98
  A 0.73 0.73 0.0 0 1 115.02 149.73
  Q 107.22 156.15 100.29 163.49
  Q 99.78 164.03 100.51 164.18
  L 102.78 164.65
  A 1.28 1.26 -12.3 0 1 103.51 165.11
  Q 107.21 169.88 104.69 175.51
  Q 104.39 176.18 105.10 175.98
  Q 110.78 174.42 115.52 177.82
  Q 116.02 178.18 116.39 177.70
  L 118.68 174.84
  C 122.13 170.94 127.70 168.28 130.73 166.03
  Q 139.73 159.32 148.07 151.80
  A 1.35 1.32 -28.2 0 0 148.48 150.49
  Q 147.40 146.15 144.91 142.39
  A 0.94 0.94 0.0 0 0 143.25 143.23
  L 145.49 149.40
  A 1.80 1.80 0.0 0 1 145.08 151.28
  Q 138.52 158.01 130.77 163.77
  C 128.39 165.54 126.64 167.24 124.74 169.39
  Q 124.40 169.77 123.91 169.82
  L 115.74 170.71
  Z
  M 104.90 146.34
  L 90.08 159.88
  Q 88.87 160.98 90.46 161.37
  L 93.13 162.02
  Q 93.59 162.14 93.89 161.76
  C 95.73 159.41 107.81 146.37 110.37 146.98
  A 0.63 0.56 29.0 0 1 110.72 147.97
  L 95.15 161.72
  Q 94.80 162.03 95.19 162.31
  C 96.63 163.33 97.75 163.16 99.03 161.86
  Q 105.63 155.17 113.16 149.34
  Q 113.66 148.96 113.49 148.35
  Q 112.57 144.97 110.26 142.32
  A 0.62 0.61 50.1 0 0 109.41 142.24
  L 107.14 144.08
  Q 106.80 144.36 106.79 144.80
  Q 106.78 145.82 105.73 145.96
  Q 105.25 146.02 104.90 146.34
  Z
  M 197.25 151.15
  L 193.07 150.75
  A 0.57 0.56 -81.6 0 0 192.46 151.21
  Q 191.66 155.54 192.34 159.86
  Q 192.44 160.47 193.04 160.57
  L 196.65 161.16
  A 1.31 1.31 0.0 0 0 198.17 159.89
  L 198.28 152.30
  A 1.14 1.14 0.0 0 0 197.25 151.15
  Z
  M 25.78 167.09
  L 26.30 171.65
  L 27.17 176.29
  C 32.56 192.43 41.43 202.07 58.80 204.76
  Q 64.38 205.66 70.06 204.87
  Q 70.55 204.80 70.33 204.35
  L 64.24 192.00
  A 0.86 0.86 0.0 0 0 63.63 191.54
  Q 60.48 190.96 57.80 189.18
  Q 48.45 185.19 43.95 175.98
  L 42.64 172.00
  L 42.25 168.78
  C 41.26 163.48 41.60 149.48 32.15 151.87
  C 26.69 153.26 25.34 162.60 25.78 167.09
  Z
  M 189.92 152.75
  Q 174.32 151.24 161.30 157.01
  Q 160.74 157.25 160.24 157.28
  Q 159.82 157.30 159.80 157.72
  L 159.63 161.70
  A 0.21 0.21 0.0 0 0 159.92 161.90
  C 169.70 157.79 179.12 157.44 189.58 158.07
  A 0.59 0.58 -87.1 0 0 190.19 157.51
  L 190.40 153.30
  Q 190.42 152.80 189.92 152.75
  Z
  M 210.48 154.89
  Q 205.89 152.36 200.57 152.98
  Q 200.07 153.04 200.04 153.54
  L 199.69 158.40
  Q 199.65 158.97 200.22 159.04
  Q 207.07 159.90 213.40 162.66
  Q 214.15 162.99 214.10 162.17
  L 213.71 155.42
  A 0.65 0.65 0.0 0 0 212.99 154.81
  L 211.11 155.02
  Q 210.78 155.06 210.48 154.89
  Z
  M 87.16 153.61
  Q 85.32 154.13 84.55 156.07
  Q 84.37 156.52 84.61 156.94
  Q 85.91 159.24 88.17 160.61
  Q 88.75 160.97 88.85 160.30
  Q 89.18 158.11 89.64 155.95
  A 1.99 1.99 0.0 0 0 87.16 153.61
  Z
  M 161.87 187.82
  L 163.18 196.10
  L 164.43 212.46
  Q 164.47 212.93 164.93 212.95
  C 176.89 213.44 178.29 204.82 179.84 195.61
  L 181.29 188.61
  L 182.20 184.59
  A 0.61 0.60 17.1 0 0 181.82 183.89
  C 180.69 183.45 174.30 181.43 175.62 179.61
  Q 175.92 179.20 176.39 179.39
  C 181.98 181.72 190.56 183.42 192.45 189.84
  L 194.64 196.74
  C 196.77 205.41 199.38 216.14 211.45 210.69
  C 214.18 209.46 214.46 201.52 214.70 198.12
  L 214.97 186.80
  L 214.17 165.33
  Q 214.15 164.82 213.68 164.61
  Q 207.21 161.74 200.16 160.71
  Q 199.50 160.62 199.50 161.28
  L 199.50 162.23
  Q 199.50 162.67 199.05 162.71
  Q 195.36 163.03 191.83 161.96
  Q 191.27 161.80 190.95 161.31
  L 190.29 160.32
  Q 190.02 159.92 189.53 159.87
  C 180.07 158.94 168.89 159.47 160.19 163.77
  Q 159.75 163.99 159.76 164.49
  Q 160.04 176.14 161.87 187.82
  Z
  M 125.27 190.16
  L 128.18 197.97
  Q 131.22 204.10 136.97 208.72
  Q 137.33 209.01 137.80 208.94
  Q 142.33 208.21 146.44 206.14
  Q 146.98 205.87 146.68 205.35
  Q 146.39 204.85 145.84 204.70
  A 1.02 1.01 -2.2 0 1 145.16 204.08
  Q 143.11 198.82 143.93 193.03
  L 144.11 181.35
  C 141.90 174.95 134.24 167.48 126.86 171.82
  A 2.21 2.15 -61.7 0 1 125.94 172.11
  C 122.53 172.36 119.79 176.14 117.76 178.72
  Q 117.46 179.10 117.81 179.44
  Q 122.31 183.65 125.27 190.16
  Z"
/>
<path fill="#b5bebe" d="
  M 212.46 48.42
  Q 205.31 45.77 198.05 44.82
  L 203.53 34.30
  A 0.70 0.70 0.0 0 1 204.76 34.29
  L 212.46 48.42
  Z"
/>
<path fill="#b5bebe" d="
  M 167.06 44.22
  L 155.84 48.70
  L 160.09 36.46
  Q 160.33 35.75 160.79 36.33
  L 167.06 44.22
  Z"
/>
<path fill="#454747" d="
  M 167.06 44.22
  L 171.11 50.36
  Q 162.11 53.62 152.93 60.32
  L 155.84 48.70
  L 167.06 44.22
  Z"
/>
<path fill="#454747" d="
  M 198.05 44.82
  Q 205.31 45.77 212.46 48.42
  L 215.88 57.04
  Q 205.42 52.08 194.68 50.54
  Q 196.78 48.36 198.05 44.82
  Z"
/>
<path fill="#b5bebe" d="
  M 171.11 50.36
  L 171.94 51.60
  A 0.94 0.93 67.0 0 0 172.89 51.99
  L 178.44 50.91
  A 0.46 0.46 0.0 0 1 178.98 51.45
  C 178.71 52.80 175.26 67.47 179.04 66.54
  A 0.80 0.79 -10.6 0 0 179.64 65.67
  Q 178.66 58.21 181.53 51.34
  A 0.86 0.85 10.2 0 1 182.29 50.82
  L 194.68 50.54
  Q 205.42 52.08 215.88 57.04
  C 219.80 66.65 225.18 88.76 214.78 96.44
  Q 211.06 99.19 208.16 102.78
  Q 207.82 103.20 208.31 102.98
  L 211.00 101.78
  A 1.30 1.28 45.5 0 1 212.10 101.80
  Q 214.78 103.12 216.70 105.30
  C 226.27 116.13 228.18 131.79 219.40 144.07
  C 217.79 140.37 215.59 137.01 211.43 136.36
  Q 212.99 133.60 212.61 130.83
  Q 213.60 129.54 212.42 128.93
  Q 211.87 122.46 208.34 116.87
  Q 208.12 116.52 207.76 116.73
  L 207.49 116.89
  Q 207.17 117.08 207.33 117.42
  C 209.13 121.37 212.15 129.25 210.28 133.41
  C 207.55 139.43 205.00 144.45 206.70 151.27
  Q 206.87 151.96 206.19 151.76
  Q 203.28 150.93 200.31 151.48
  A 0.58 0.57 -15.6 0 1 199.66 151.12
  C 198.79 148.84 194.27 149.03 191.71 149.01
  Q 191.18 149.01 191.03 149.51
  L 190.71 150.52
  Q 190.57 150.97 190.10 150.93
  L 184.14 150.35
  C 183.37 138.51 180.93 126.31 182.48 114.47
  A 0.56 0.55 -79.6 0 1 183.15 114.00
  Q 184.16 114.24 184.72 113.60
  A 0.54 0.54 0.0 0 0 184.38 112.70
  Q 181.31 112.31 178.32 113.18
  A 0.47 0.46 36.4 0 0 178.46 114.09
  L 180.34 114.07
  Q 180.85 114.07 180.84 114.58
  Q 180.47 132.50 183.17 150.64
  C 175.24 150.86 167.32 151.75 160.49 155.86
  A 0.51 0.51 0.0 0 1 159.72 155.42
  Q 159.74 137.01 162.43 119.74
  Q 163.03 115.92 163.21 112.44
  Q 163.25 111.80 162.64 111.58
  Q 161.22 111.07 161.03 112.56
  Q 159.86 122.04 158.80 131.54
  Q 158.74 132.04 158.45 131.63
  L 156.14 128.39
  A 0.80 0.70 -83.7 0 0 155.03 129.40
  Q 157.45 132.91 158.01 135.97
  Q 152.11 138.71 148.88 144.84
  L 147.78 142.59
  Q 147.57 142.16 147.25 141.81
  Q 144.23 138.46 143.68 133.96
  A 1.27 1.27 0.0 0 1 144.04 132.90
  L 152.23 124.63
  Q 152.64 124.21 153.19 124.45
  Q 156.34 125.84 158.06 123.40
  C 161.45 118.58 152.22 114.69 152.09 121.73
  A 1.32 1.30 67.9 0 1 151.72 122.62
  L 144.58 129.88
  A 0.50 0.50 0.0 0 1 143.73 129.49
  C 144.46 120.62 152.27 109.98 158.71 104.35
  Q 159.12 104.00 159.65 104.00
  L 160.74 104.00
  Q 161.65 104.00 161.02 103.34
  C 153.20 95.19 146.68 90.15 148.63 77.57
  Q 150.06 68.38 152.93 60.32
  Q 162.11 53.62 171.11 50.36
  Z
  M 186.0576 60.3406
  A 1.08 0.97 -38.3 0 0 184.6088 60.2488
  A 1.08 0.97 -38.3 0 0 184.3624 61.6794
  A 1.08 0.97 -38.3 0 0 185.8112 61.7712
  A 1.08 0.97 -38.3 0 0 186.0576 60.3406
  Z
  M 179.54 67.05
  C 174.19 68.16 165.51 69.63 160.02 72.66
  Q 159.56 72.91 159.37 73.41
  C 156.58 80.70 159.16 95.93 165.38 101.22
  Q 165.79 101.57 166.32 101.63
  C 179.69 103.26 193.05 102.23 205.88 98.08
  Q 206.39 97.91 206.54 97.40
  Q 210.95 82.56 203.98 68.78
  A 1.27 1.24 84.1 0 0 203.21 68.14
  Q 191.46 64.59 179.54 67.05
  Z
  M 199.50 108.28
  C 198.28 108.13 197.10 107.02 196.03 106.33
  Q 195.59 106.05 195.07 106.10
  C 187.08 106.81 190.40 121.49 192.59 125.64
  Q 192.88 126.19 193.50 126.19
  L 200.08 126.19
  A 0.70 0.70 0.0 0 0 200.76 125.64
  Q 202.65 116.91 199.83 108.55
  Q 199.75 108.31 199.50 108.28
  Z
  M 171.0126 125.5665
  A 7.25 4.81 86.5 0 0 175.3710 118.0364
  A 7.25 4.81 86.5 0 0 170.1274 111.0935
  A 7.25 4.81 86.5 0 0 165.7690 118.6236
  A 7.25 4.81 86.5 0 0 171.0126 125.5665
  Z
  M 167.21 129.81
  C 168.85 130.01 175.56 130.64 174.27 127.79
  C 173.62 124.23 166.08 126.31 167.21 129.81
  Z"
/>
<ellipse fill="#000000" cx="0.00" cy="0.00" transform="translate(185.21,61.01) rotate(-38.3)" rx="1.08" ry="0.97"/>
<path fill="#000000" d="
  M 179.54 67.05
  Q 191.46 64.59 203.21 68.14
  A 1.27 1.24 84.1 0 1 203.98 68.78
  Q 210.95 82.56 206.54 97.40
  Q 206.39 97.91 205.88 98.08
  C 193.05 102.23 179.69 103.26 166.32 101.63
  Q 165.79 101.57 165.38 101.22
  C 159.16 95.93 156.58 80.70 159.37 73.41
  Q 159.56 72.91 160.02 72.66
  C 165.51 69.63 174.19 68.16 179.54 67.05
  Z
  M 201.33 69.77
  C 189.43 66.36 173.39 69.40 161.64 74.05
  A 1.49 1.47 -7.8 0 0 160.72 75.25
  C 160.10 80.48 160.87 95.60 165.94 98.83
  Q 167.54 99.84 169.99 99.98
  Q 187.63 101.00 202.12 97.12
  C 209.76 95.07 205.00 75.97 202.87 71.12
  A 2.39 2.39 0.0 0 0 201.33 69.77
  Z"
/>
<path fill="#454747" d="
  M 201.33 69.77
  A 2.39 2.39 0.0 0 1 202.87 71.12
  C 205.00 75.97 209.76 95.07 202.12 97.12
  Q 187.63 101.00 169.99 99.98
  Q 167.54 99.84 165.94 98.83
  C 160.87 95.60 160.10 80.48 160.72 75.25
  A 1.49 1.47 -7.8 0 1 161.64 74.05
  C 173.39 69.40 189.43 66.36 201.33 69.77
  Z
  M 198.56 78.69
  C 194.05 76.03 187.15 86.68 191.09 90.46
  C 196.85 95.98 202.97 81.28 198.56 78.69
  Z
  M 177.00 89.84
  C 176.60 85.39 171.26 80.69 166.74 81.37
  A 2.37 2.36 76.4 0 0 164.86 84.46
  C 166.54 89.53 168.57 93.88 174.93 92.60
  A 2.59 2.58 81.9 0 0 177.00 89.84
  Z"
/>
<path fill="#17d8cb" d="
  M 198.56 78.69
  C 202.97 81.28 196.85 95.98 191.09 90.46
  C 187.15 86.68 194.05 76.03 198.56 78.69
  Z"
/>
<path fill="#b5bebe" d="
  M 91.80 90.09
  L 79.52 94.49
  L 86.00 81.38
  A 0.33 0.32 -46.8 0 1 86.57 81.36
  L 91.80 90.09
  Z"
/>
<path fill="#17d8cb" d="
  M 166.74 81.37
  C 171.26 80.69 176.60 85.39 177.00 89.84
  A 2.59 2.58 81.9 0 1 174.93 92.60
  C 168.57 93.88 166.54 89.53 164.86 84.46
  A 2.37 2.36 76.4 0 1 166.74 81.37
  Z"
/>
<path fill="#454747" d="
  M 91.80 90.09
  L 93.54 94.52
  A 0.36 0.36 0.0 0 0 94.03 94.71
  Q 96.87 93.40 98.00 94.30
  Q 97.77 94.70 97.19 94.94
  Q 85.31 99.87 73.98 107.66
  L 79.52 94.49
  L 91.80 90.09
  Z"
/>
<path fill="#b5bebe" d="
  M 130.54 99.76
  L 123.92 95.57
  L 128.48 91.28
  Q 129.05 90.74 129.18 91.51
  L 130.54 99.76
  Z"
/>
<path fill="#b5bebe" d="
  M 123.61 103.41
  Q 127.58 107.68 130.50 112.75
  Q 130.94 113.51 132.44 113.25
  C 133.01 119.72 133.48 129.19 130.00 134.86
  Q 127.35 139.17 123.08 142.34
  A 0.58 0.57 89.1 0 1 122.27 141.55
  Q 127.99 133.29 128.14 123.25
  Q 128.15 122.73 127.63 122.70
  C 113.27 121.95 103.40 118.03 89.24 111.81
  A 0.77 0.76 -57.6 0 0 88.36 112.01
  C 85.64 115.12 77.24 133.97 83.02 137.33
  Q 92.15 142.62 102.32 145.40
  Q 102.92 145.56 102.47 145.99
  L 91.53 156.06
  Q 90.94 156.59 90.83 155.81
  C 90.03 150.51 86.20 151.57 83.56 154.58
  Q 83.21 154.97 82.90 154.54
  Q 80.93 151.73 80.67 148.35
  A 0.60 0.60 0.0 0 0 80.02 147.80
  C 76.97 148.02 82.37 158.54 82.58 159.50
  Q 82.68 159.96 83.10 160.19
  L 89.51 163.74
  Q 90.47 172.08 86.29 178.56
  Q 86.03 178.97 86.09 179.45
  Q 86.14 179.89 86.03 180.16
  C 77.58 180.58 71.84 174.53 67.44 167.75
  Q 67.04 167.13 66.92 167.86
  Q 66.53 170.18 67.57 171.73
  Q 76.42 184.88 92.46 181.73
  Q 93.65 181.50 92.66 182.19
  Q 86.74 186.36 82.01 191.84
  A 0.69 0.68 22.5 0 0 82.48 192.97
  L 82.92 193.01
  A 0.74 0.72 14.5 0 0 83.62 192.61
  Q 84.16 191.54 85.27 191.48
  A 1.31 1.29 -69.0 0 0 86.11 191.10
  Q 90.06 187.10 97.26 182.21
  Q 112.76 171.68 121.97 188.84
  C 113.36 187.39 106.78 194.06 103.86 201.45
  Q 103.06 200.16 102.34 199.81
  A 0.67 0.66 -1.8 0 0 101.47 200.73
  Q 104.22 205.66 108.66 209.13
  A 0.95 0.95 0.0 0 1 108.42 210.76
  C 105.03 212.13 101.40 214.19 98.14 214.83
  C 83.06 217.79 71.17 204.20 66.78 191.21
  C 63.83 182.51 62.35 172.71 62.72 164.13
  Q 63.29 150.35 73.38 140.24
  A 0.94 0.93 -46.4 0 1 74.66 140.20
  C 75.42 140.87 80.44 145.65 81.24 143.52
  Q 81.47 142.88 80.82 142.71
  Q 79.50 142.36 79.45 141.01
  Q 79.43 140.41 78.90 140.13
  Q 71.70 136.41 67.58 129.41
  Q 67.32 128.97 67.40 128.46
  Q 69.20 117.23 73.98 107.66
  Q 85.31 99.87 97.19 94.94
  Q 97.77 94.70 98.00 94.30
  Q 98.41 94.32 98.63 94.19
  Q 98.91 94.03 99.23 94.06
  Q 108.03 95.10 115.94 98.99
  Q 116.39 99.21 116.69 99.61
  Q 117.26 100.38 118.25 100.27
  A 1.29 1.29 0.0 0 1 119.13 100.48
  L 123.61 103.41
  Z
  M 111.29 100.67
  Q 111.28 101.44 112.30 103.32
  C 113.98 106.44 114.31 112.15 114.45 115.68
  Q 114.47 116.24 114.60 116.41
  A 0.61 0.49 -63.8 0 0 115.54 115.98
  Q 116.41 107.79 113.00 100.29
  Q 111.34 96.62 111.29 100.67
  Z
  M 109.0119 114.2682
  A 1.04 0.80 73.7 0 0 109.4878 113.0455
  A 1.04 0.80 73.7 0 0 108.4281 112.2718
  A 1.04 0.80 73.7 0 0 107.9522 113.4945
  A 1.04 0.80 73.7 0 0 109.0119 114.2682
  Z"
/>
<path fill="#454747" d="
  M 123.92 95.57
  L 130.54 99.76
  L 132.44 113.25
  Q 130.94 113.51 130.50 112.75
  Q 127.58 107.68 123.61 103.41
  Q 124.00 103.15 124.22 102.84
  Q 124.53 102.40 124.16 102.00
  L 120.86 98.42
  Q 120.50 98.03 120.93 97.73
  L 123.92 95.57
  Z"
/>
<path fill="#000000" d="
  M 111.29 100.67
  Q 111.34 96.62 113.00 100.29
  Q 116.41 107.79 115.54 115.98
  A 0.61 0.49 -63.8 0 1 114.60 116.41
  Q 114.47 116.24 114.45 115.68
  C 114.31 112.15 113.98 106.44 112.30 103.32
  Q 111.28 101.44 111.29 100.67
  Z"
/>
<path fill="#000000" d="
  M 196.03 106.33
  C 197.10 107.02 198.28 108.13 199.50 108.28
  Q 199.75 108.31 199.83 108.55
  Q 202.65 116.91 200.76 125.64
  A 0.70 0.70 0.0 0 1 200.08 126.19
  L 193.50 126.19
  Q 192.88 126.19 192.59 125.64
  C 190.40 121.49 187.08 106.81 195.07 106.10
  Q 195.59 106.05 196.03 106.33
  Z
  M 192.36 112.48
  Q 192.61 112.77 192.50 112.92
  C 190.26 114.73 192.54 123.53 195.25 124.61
  Q 197.24 125.41 199.15 124.07
  Q 199.57 123.78 199.61 123.28
  C 200.23 116.87 200.70 112.46 196.62 108.67
  C 193.39 105.68 192.07 109.95 192.36 112.48
  Z"
/>
<path fill="#454747" d="
  M 192.50 112.92
  Q 192.87 115.58 194.75 115.99
  C 199.26 116.99 198.26 109.13 194.52 110.17
  Q 192.71 110.68 192.36 112.48
  C 192.07 109.95 193.39 105.68 196.62 108.67
  C 200.70 112.46 200.23 116.87 199.61 123.28
  Q 199.57 123.78 199.15 124.07
  Q 197.24 125.41 195.25 124.61
  C 192.54 123.53 190.26 114.73 192.50 112.92
  Z
  M 194.08 118.27
  L 194.08 119.61
  A 0.29 0.29 0.0 0 0 194.37 119.90
  L 196.06 119.91
  A 1.92 0.73 0.2 0 0 197.98 119.19
  L 197.98 118.73
  A 1.92 0.73 0.2 0 0 196.06 117.99
  L 194.37 117.98
  A 0.29 0.29 0.0 0 0 194.08 118.27
  Z"
/>
<path fill="#b5bebe" d="
  M 192.50 112.92
  Q 192.61 112.77 192.36 112.48
  Q 192.71 110.68 194.52 110.17
  C 198.26 109.13 199.26 116.99 194.75 115.99
  Q 192.87 115.58 192.50 112.92
  Z"
/>
<path fill="#454747" d="
  M 171.0126 125.5665
  A 7.25 4.81 86.5 0 1 165.7690 118.6236
  A 7.25 4.81 86.5 0 1 170.1274 111.0935
  A 7.25 4.81 86.5 0 1 175.3710 118.0364
  A 7.25 4.81 86.5 0 1 171.0126 125.5665
  Z
  M 171.0562 123.6248
  A 5.29 2.99 84.4 0 0 173.5157 118.0682
  A 5.29 2.99 84.4 0 0 170.0238 113.0952
  A 5.29 2.99 84.4 0 0 167.5643 118.6518
  A 5.29 2.99 84.4 0 0 171.0562 123.6248
  Z"
/>
<ellipse fill="#000000" cx="0.00" cy="0.00" transform="translate(108.72,113.27) rotate(73.7)" rx="1.04" ry="0.80"/>
<path fill="#454747" d="
  M 184.14 150.35
  Q 183.29 150.36 183.17 150.64
  Q 180.47 132.50 180.84 114.58
  Q 180.85 114.07 180.34 114.07
  L 178.46 114.09
  A 0.47 0.46 36.4 0 1 178.32 113.18
  Q 181.31 112.31 184.38 112.70
  A 0.54 0.54 0.0 0 1 184.72 113.60
  Q 184.16 114.24 183.15 114.00
  A 0.56 0.55 -79.6 0 0 182.48 114.47
  C 180.93 126.31 183.37 138.51 184.14 150.35
  Z"
/>
<ellipse fill="#44d149" cx="0.00" cy="0.00" transform="translate(170.54,118.36) rotate(84.4)" rx="5.29" ry="2.99"/>
<path fill="#454747" d="
  M 122.32 123.82
  Q 123.94 123.94 125.63 124.06
  Q 126.12 124.10 126.18 124.58
  C 126.82 129.54 123.67 136.20 121.12 140.35
  C 119.66 142.71 115.74 142.75 113.28 142.66
  A 0.93 0.93 0.0 0 1 112.60 142.34
  L 110.59 140.00
  A 0.80 0.79 -39.5 0 0 109.48 139.90
  L 104.80 143.69
  Q 104.37 144.04 103.83 143.91
  Q 92.62 141.02 82.62 135.20
  Q 82.13 134.91 82.24 134.35
  Q 84.12 123.97 87.96 114.12
  A 0.65 0.65 0.0 0 1 88.81 113.75
  C 99.55 118.15 110.56 122.98 122.32 123.82
  Z
  M 97.3384 136.0172
  A 6.84 4.36 62.5 0 0 98.0474 127.9368
  A 6.84 4.36 62.5 0 0 91.0216 123.8828
  A 6.84 4.36 62.5 0 0 90.3126 131.9632
  A 6.84 4.36 62.5 0 0 97.3384 136.0172
  Z
  M 120.9928 131.6748
  A 5.83 3.79 -37.7 0 0 114.0623 132.2413
  A 5.83 3.79 -37.7 0 0 111.7672 138.8052
  A 5.83 3.79 -37.7 0 0 118.6977 138.2387
  A 5.83 3.79 -37.7 0 0 120.9928 131.6748
  Z"
/>
<path fill="#b5bebe" d="
  M 194.08 118.27
  A 0.29 0.29 0.0 0 1 194.37 117.98
  L 196.06 117.99
  A 1.92 0.73 0.2 0 1 197.98 118.73
  L 197.98 119.19
  A 1.92 0.73 0.2 0 1 196.06 119.91
  L 194.37 119.90
  A 0.29 0.29 0.0 0 1 194.08 119.61
  L 194.08 118.27
  Z"
/>
<ellipse fill="#17d8cb" cx="0.00" cy="0.00" transform="translate(155.36,121.55) rotate(86.9)" rx="1.82" ry="1.49"/>
<ellipse fill="#17d8cb" cx="0.00" cy="0.00" transform="translate(94.18,129.95) rotate(62.5)" rx="6.84" ry="4.36"/>
<path fill="#44d149" d="
  M 174.27 127.79
  L 168.25 127.90
  A 0.87 0.86 -73.8 0 0 167.55 128.29
  Q 167.19 128.84 167.21 129.81
  C 166.08 126.31 173.62 124.23 174.27 127.79
  Z"
/>
<path fill="#454747" d="
  M 174.27 127.79
  C 175.56 130.64 168.85 130.01 167.21 129.81
  Q 167.19 128.84 167.55 128.29
  A 0.87 0.86 -73.8 0 1 168.25 127.90
  L 174.27 127.79
  Z"
/>
<path fill="#000000" fill-opacity="0.165" d="
  M 212.42 128.93
  Q 213.60 129.54 212.61 130.83
  Q 211.43 129.85 212.42 128.93
  Z"
/>
<ellipse fill="#17d8cb" cx="0.00" cy="0.00" transform="translate(116.38,135.24) rotate(-37.7)" rx="5.83" ry="3.79"/>
<path fill="#454747" d="
  M 259.17 161.49
  Q 248.08 151.51 250.79 137.02
  Q 254.55 135.31 258.66 135.28
  C 264.61 135.23 271.65 144.94 274.09 149.66
  Q 274.32 150.11 273.88 150.36
  Q 273.36 150.67 272.69 150.46
  A 1.41 1.39 -49.6 0 0 271.66 150.55
  C 266.89 152.89 262.05 158.19 259.17 161.49
  Z"
/>
<path fill="#555858" d="
  M 158.01 135.97
  L 157.97 138.08
  Q 152.72 141.42 149.98 147.02
  L 148.88 144.84
  Q 152.11 138.71 158.01 135.97
  Z"
/>
<path fill="#454747" d="
  M 211.43 136.36
  C 215.59 137.01 217.79 140.37 219.40 144.07
  Q 219.30 144.62 218.16 145.16
  Q 215.33 140.44 210.86 138.04
  Q 210.86 137.45 211.43 136.36
  Z"
/>
<path fill="#b5bebe" d="
  M 250.79 137.02
  Q 248.08 151.51 259.17 161.49
  L 255.66 164.95
  Q 244.63 154.41 246.31 139.46
  L 250.79 137.02
  Z"
/>
<path fill="#b5bebe" d="
  M 157.97 138.08
  Q 158.55 138.83 157.70 139.74
  Q 153.93 143.23 152.19 147.44
  Q 151.88 148.19 150.50 148.56
  Q 150.01 147.85 149.98 147.02
  Q 152.72 141.42 157.97 138.08
  Z"
/>
<path fill="#b5bebe" d="
  M 210.86 138.04
  Q 215.33 140.44 218.16 145.16
  Q 218.19 146.12 216.93 146.87
  Q 214.40 142.34 210.00 139.61
  Q 209.75 138.91 210.86 138.04
  Z"
/>
<path fill="#454747" d="
  M 246.31 139.46
  Q 244.63 154.41 255.66 164.95
  L 252.63 167.27
  C 244.78 160.22 242.88 151.72 242.14 141.64
  L 246.31 139.46
  Z"
/>
<path fill="#454747" d="
  M 210.00 139.61
  Q 214.40 142.34 216.93 146.87
  Q 214.81 150.68 210.93 152.26
  A 1.59 1.59 0.0 0 1 208.82 151.28
  Q 206.90 145.40 210.00 139.61
  Z"
/>
<path fill="#454747" d="
  M 157.70 139.74
  L 157.65 152.16
  Q 157.65 152.64 157.17 152.67
  C 154.32 152.87 150.09 152.18 150.50 148.56
  Q 151.88 148.19 152.19 147.44
  Q 153.93 143.23 157.70 139.74
  Z"
/>
<path fill="#b5bebe" d="
  M 242.14 141.64
  C 242.88 151.72 244.78 160.22 252.63 167.27
  C 245.19 172.88 235.28 175.76 226.20 175.25
  Q 220.06 174.90 216.74 170.69
  Q 221.51 162.74 221.79 155.16
  C 228.93 154.11 234.95 147.80 242.14 141.64
  Z"
/>
<path fill="#454747" d="
  M 118.68 174.84
  Q 115.33 173.73 115.74 170.71
  L 123.91 169.82
  Q 124.40 169.77 124.74 169.39
  C 126.64 167.24 128.39 165.54 130.77 163.77
  Q 138.52 158.01 145.08 151.28
  A 1.80 1.80 0.0 0 0 145.49 149.40
  L 143.25 143.23
  A 0.94 0.94 0.0 0 1 144.91 142.39
  Q 147.40 146.15 148.48 150.49
  A 1.35 1.32 -28.2 0 1 148.07 151.80
  Q 139.73 159.32 130.73 166.03
  C 127.70 168.28 122.13 170.94 118.68 174.84
  Z"
/>
<path fill="#454747" d="
  M 90.08 159.88
  L 104.90 146.34
  Q 105.25 146.02 105.73 145.96
  Q 106.78 145.82 106.79 144.80
  Q 106.80 144.36 107.14 144.08
  L 109.41 142.24
  A 0.62 0.61 50.1 0 1 110.26 142.32
  Q 112.57 144.97 113.49 148.35
  Q 113.66 148.96 113.16 149.34
  Q 105.63 155.17 99.03 161.86
  C 97.75 163.16 96.63 163.33 95.19 162.31
  Q 94.80 162.03 95.15 161.72
  L 110.72 147.97
  A 0.63 0.56 29.0 0 0 110.37 146.98
  C 107.81 146.37 95.73 159.41 93.89 161.76
  Q 93.59 162.14 93.13 162.02
  L 90.46 161.37
  Q 88.87 160.98 90.08 159.88
  Z"
/>
<path fill="#b5bebe" d="
  M 115.74 170.71
  Q 115.33 173.73 118.68 174.84
  L 116.39 177.70
  Q 116.02 178.18 115.52 177.82
  Q 110.78 174.42 105.10 175.98
  Q 104.39 176.18 104.69 175.51
  Q 107.21 169.88 103.51 165.11
  A 1.28 1.26 -12.3 0 0 102.78 164.65
  L 100.51 164.18
  Q 99.78 164.03 100.29 163.49
  Q 107.22 156.15 115.02 149.73
  A 0.73 0.73 0.0 0 0 115.26 148.98
  L 114.20 144.78
  Q 114.06 144.24 114.62 144.23
  L 128.99 143.94
  A 0.45 0.45 0.0 0 1 129.26 144.75
  Q 127.72 145.83 126.87 147.53
  A 0.42 0.42 0.0 0 0 127.46 148.07
  Q 129.89 146.61 131.82 144.50
  Q 132.19 144.10 132.73 144.07
  L 140.61 143.57
  Q 141.19 143.53 141.48 144.03
  Q 143.15 146.82 143.48 150.06
  Q 143.54 150.60 143.14 150.96
  Q 134.24 158.98 124.92 166.39
  C 121.40 169.20 112.50 169.26 107.84 169.56
  A 0.83 0.82 -71.8 0 0 107.25 169.86
  C 105.42 172.16 114.98 170.77 115.74 170.71
  Z
  M 140.2251 151.3275
  A 10.77 0.89 -3.9 0 0 129.4195 151.1721
  A 10.77 0.89 -3.9 0 0 118.7349 152.7925
  A 10.77 0.89 -3.9 0 0 129.5405 152.9479
  A 10.77 0.89 -3.9 0 0 140.2251 151.3275
  Z
  M 110.90 166.97
  C 111.02 167.51 111.24 167.82 111.86 167.73
  C 116.64 167.03 122.02 167.77 123.44 162.68
  Q 123.61 162.10 123.01 162.05
  L 114.59 161.25
  A 0.98 0.97 21.6 0 0 113.76 161.60
  L 110.40 165.76
  A 0.82 0.81 -41.0 0 0 110.33 166.68
  Q 110.55 167.08 110.90 166.97
  Z"
/>
<ellipse fill="#000000" cx="0.00" cy="0.00" transform="translate(129.48,152.06) rotate(-3.9)" rx="10.77" ry="0.89"/>
<path fill="#454747" d="
  M 197.25 151.15
  A 1.14 1.14 0.0 0 1 198.28 152.30
  L 198.17 159.89
  A 1.31 1.31 0.0 0 1 196.65 161.16
  L 193.04 160.57
  Q 192.44 160.47 192.34 159.86
  Q 191.66 155.54 192.46 151.21
  A 0.57 0.56 -81.6 0 1 193.07 150.75
  L 197.25 151.15
  Z"
/>
<path fill="#454747" d="
  M 42.25 168.78
  Q 33.84 171.54 25.78 167.09
  C 25.34 162.60 26.69 153.26 32.15 151.87
  C 41.60 149.48 41.26 163.48 42.25 168.78
  Z"
/>
<path fill="#555858" d="
  M 189.92 152.75
  Q 190.42 152.80 190.40 153.30
  L 190.19 157.51
  A 0.59 0.58 -87.1 0 1 189.58 158.07
  C 179.12 157.44 169.70 157.79 159.92 161.90
  A 0.21 0.21 0.0 0 1 159.63 161.70
  L 159.80 157.72
  Q 159.82 157.30 160.24 157.28
  Q 160.74 157.25 161.30 157.01
  Q 174.32 151.24 189.92 152.75
  Z"
/>
<path fill="#555858" d="
  M 211.11 155.02
  L 212.99 154.81
  A 0.65 0.65 0.0 0 1 213.71 155.42
  L 214.10 162.17
  Q 214.15 162.99 213.40 162.66
  Q 207.07 159.90 200.22 159.04
  Q 199.65 158.97 199.69 158.40
  L 200.04 153.54
  Q 200.07 153.04 200.57 152.98
  Q 205.89 152.36 210.48 154.89
  Q 210.78 155.06 211.11 155.02
  Z"
/>
<path fill="#44d149" d="
  M 87.16 153.61
  A 1.99 1.99 0.0 0 1 89.64 155.95
  Q 89.18 158.11 88.85 160.30
  Q 88.75 160.97 88.17 160.61
  Q 85.91 159.24 84.61 156.94
  Q 84.37 156.52 84.55 156.07
  Q 85.32 154.13 87.16 153.61
  Z"
/>
<path fill="#454747" d="
  M 221.79 155.16
  Q 221.51 162.74 216.74 170.69
  L 215.67 156.10
  Q 215.63 155.56 216.16 155.53
  L 221.79 155.16
  Z"
/>
<path fill="#b5bebe" d="
  M 214.97 186.80
  Q 202.63 179.01 192.45 189.84
  C 190.56 183.42 181.98 181.72 176.39 179.39
  Q 175.92 179.20 175.62 179.61
  C 174.30 181.43 180.69 183.45 181.82 183.89
  A 0.61 0.60 17.1 0 1 182.20 184.59
  L 181.29 188.61
  Q 171.14 181.79 161.87 187.82
  Q 160.04 176.14 159.76 164.49
  Q 159.75 163.99 160.19 163.77
  C 168.89 159.47 180.07 158.94 189.53 159.87
  Q 190.02 159.92 190.29 160.32
  L 190.95 161.31
  Q 191.27 161.80 191.83 161.96
  Q 195.36 163.03 199.05 162.71
  Q 199.50 162.67 199.50 162.23
  L 199.50 161.28
  Q 199.50 160.62 200.16 160.71
  Q 207.21 161.74 213.68 164.61
  Q 214.15 164.82 214.17 165.33
  L 214.97 186.80
  Z"
/>
<path fill="#555858" d="
  M 110.90 166.97
  L 119.70 166.06
  Q 120.23 166.01 120.57 165.59
  L 122.30 163.54
  A 0.44 0.44 0.0 0 0 121.98 162.81
  C 117.23 162.66 113.20 161.53 110.90 166.97
  Q 110.55 167.08 110.33 166.68
  A 0.82 0.81 -41.0 0 1 110.40 165.76
  L 113.76 161.60
  A 0.98 0.97 21.6 0 1 114.59 161.25
  L 123.01 162.05
  Q 123.61 162.10 123.44 162.68
  C 122.02 167.77 116.64 167.03 111.86 167.73
  C 111.24 167.82 111.02 167.51 110.90 166.97
  Z"
/>
<path fill="#b5bebe" d="
  M 110.90 166.97
  C 113.20 161.53 117.23 162.66 121.98 162.81
  A 0.44 0.44 0.0 0 1 122.30 163.54
  L 120.57 165.59
  Q 120.23 166.01 119.70 166.06
  L 110.90 166.97
  Z"
/>
<path fill="#555858" d="
  M 92.36 164.21
  Q 93.04 173.14 88.66 179.95
  Q 87.38 180.53 86.03 180.16
  Q 86.14 179.89 86.09 179.45
  Q 86.03 178.97 86.29 178.56
  Q 90.47 172.08 89.51 163.74
  L 92.36 164.21
  Z"
/>
<path fill="#b5bebe" d="
  M 92.36 164.21
  Q 93.47 164.31 94.26 164.96
  C 95.95 169.83 94.12 174.71 92.32 179.37
  Q 91.63 180.56 88.66 179.95
  Q 93.04 173.14 92.36 164.21
  Z"
/>
<path fill="#454747" d="
  M 92.32 179.37
  C 94.12 174.71 95.95 169.83 94.26 164.96
  C 98.04 164.97 103.48 166.89 103.28 171.48
  C 103.08 176.31 96.50 178.44 92.32 179.37
  Z"
/>
<path fill="#b5bebe" d="
  M 25.78 167.09
  Q 33.84 171.54 42.25 168.78
  L 42.64 172.00
  C 36.45 174.57 32.36 173.17 26.30 171.65
  L 25.78 167.09
  Z"
/>
<path fill="#b5bebe" d="
  M 144.11 181.35
  Q 132.84 180.87 125.27 190.16
  Q 122.31 183.65 117.81 179.44
  Q 117.46 179.10 117.76 178.72
  C 119.79 176.14 122.53 172.36 125.94 172.11
  A 2.21 2.15 -61.7 0 0 126.86 171.82
  C 134.24 167.48 141.90 174.95 144.11 181.35
  Z"
/>
<path fill="#454747" d="
  M 26.30 171.65
  C 32.36 173.17 36.45 174.57 42.64 172.00
  L 43.95 175.98
  Q 35.99 178.84 27.17 176.29
  L 26.30 171.65
  Z"
/>
<path fill="#b5bebe" d="
  M 43.95 175.98
  Q 48.45 185.19 57.80 189.18
  Q 54.25 197.27 58.80 204.76
  C 41.43 202.07 32.56 192.43 27.17 176.29
  Q 35.99 178.84 43.95 175.98
  Z"
/>
<path fill="#555858" d="
  M 144.11 181.35
  L 143.93 193.03
  Q 141.54 192.92 139.11 192.84
  C 133.72 192.67 132.14 195.62 128.18 197.97
  L 125.27 190.16
  Q 132.84 180.87 144.11 181.35
  Z"
/>
<path fill="#555858" d="
  M 214.97 186.80
  L 214.70 198.12
  Q 204.69 192.55 194.64 196.74
  L 192.45 189.84
  Q 202.63 179.01 214.97 186.80
  Z"
/>
<path fill="#555858" d="
  M 181.29 188.61
  L 179.84 195.61
  C 173.50 193.97 169.57 192.65 163.18 196.10
  L 161.87 187.82
  Q 171.14 181.79 181.29 188.61
  Z"
/>
<path fill="#555858" d="
  M 121.97 188.84
  L 125.98 198.69
  Q 115.71 200.06 112.64 210.33
  L 103.86 201.45
  C 106.78 194.06 113.36 187.39 121.97 188.84
  Z"
/>
<path fill="#454747" d="
  M 57.80 189.18
  Q 60.48 190.96 63.63 191.54
  A 0.86 0.86 0.0 0 1 64.24 192.00
  L 70.33 204.35
  Q 70.55 204.80 70.06 204.87
  Q 64.38 205.66 58.80 204.76
  Q 54.25 197.27 57.80 189.18
  Z"
/>
<path fill="#454747" d="
  M 143.93 193.03
  Q 143.11 198.82 145.16 204.08
  A 1.02 1.01 -2.2 0 0 145.84 204.70
  Q 146.39 204.85 146.68 205.35
  Q 146.98 205.87 146.44 206.14
  Q 142.33 208.21 137.80 208.94
  Q 137.33 209.01 136.97 208.72
  Q 131.22 204.10 128.18 197.97
  C 132.14 195.62 133.72 192.67 139.11 192.84
  Q 141.54 192.92 143.93 193.03
  Z"
/>
<path fill="#454747" d="
  M 179.84 195.61
  C 178.29 204.82 176.89 213.44 164.93 212.95
  Q 164.47 212.93 164.43 212.46
  L 163.18 196.10
  C 169.57 192.65 173.50 193.97 179.84 195.61
  Z"
/>
<path fill="#454747" d="
  M 214.70 198.12
  C 214.46 201.52 214.18 209.46 211.45 210.69
  C 199.38 216.14 196.77 205.41 194.64 196.74
  Q 204.69 192.55 214.70 198.12
  Z"
/>
<path fill="#454747" d="
  M 125.98 198.69
  Q 129.31 205.86 135.10 210.18
  Q 135.55 210.53 135.12 210.90
  C 128.92 216.19 118.66 215.22 112.64 210.33
  Q 115.71 200.06 125.98 198.69
  Z"
/>
<path fill="#000000" fill-opacity="0.165" d="
  M 161.83 203.00
  L 162.42 210.68
  Q 161.13 212.83 163.25 214.77
  Q 176.28 216.54 180.34 204.58
  C 179.61 205.28 182.20 205.56 182.67 205.53
  Q 188.53 205.16 194.69 205.46
  Q 196.03 210.03 200.36 212.57
  C 204.20 214.82 208.67 214.43 212.52 212.48
  C 215.40 211.04 215.94 208.14 216.20 205.23
  L 216.25 206.73
  Q 216.27 207.19 216.72 207.17
  C 227.47 206.62 238.26 209.34 247.84 209.83
  Q 248.35 209.85 248.78 210.13
  Q 250.74 211.42 253.01 211.30
  A 1.59 1.58 -67.3 0 1 254.14 214.07
  Q 253.09 215.00 252.11 215.60
  Q 251.69 215.86 251.21 215.93
  Q 246.49 216.66 241.76 217.54
  Q 234.43 218.92 226.98 218.81
  A 1.01 0.99 -69.8 0 0 226.18 219.19
  C 225.87 219.58 213.50 220.16 211.66 220.39
  Q 206.46 221.01 201.81 220.96
  C 193.60 220.87 184.68 221.72 177.31 221.73
  Q 145.82 221.76 114.32 221.76
  C 106.03 221.76 96.21 220.59 87.03 220.70
  C 85.56 220.72 67.39 219.62 67.35 219.58
  Q 67.08 219.33 66.71 219.32
  C 58.64 218.99 49.25 218.33 41.46 216.11
  C 39.33 215.50 35.55 216.07 36.04 212.64
  Q 36.11 212.15 36.57 211.96
  C 40.62 210.35 43.25 209.71 48.18 209.49
  Q 52.97 209.27 57.38 206.97
  Q 63.89 208.75 71.52 206.73
  A 1.36 1.36 0.0 0 1 73.00 207.29
  C 81.26 219.49 98.34 221.46 109.38 211.88
  A 1.40 1.40 0.0 0 1 111.22 211.88
  C 118.66 218.35 129.17 219.52 136.46 212.02
  C 138.85 209.55 141.86 212.29 144.81 209.88
  Q 146.39 208.59 148.15 207.55
  Q 148.61 207.28 148.73 206.75
  L 149.35 203.96
  L 149.41 205.07
  Q 149.45 205.68 149.88 205.25
  L 150.07 205.05
  A 1.07 1.03 -66.2 0 1 150.80 204.75
  L 159.84 204.75
  A 0.58 0.57 87.2 0 1 160.41 205.27
  L 160.54 206.55
  A 0.27 0.27 0.0 0 0 161.08 206.58
  L 161.83 203.00
  Z"
/>
<path fill="#454747" d="
  M 162.42 210.68
  Q 163.31 212.31 163.25 214.77
  Q 161.13 212.83 162.42 210.68
  Z"
/>
</svg>
