<?xml version="1.0" encoding="UTF-8" standalone="no"?>
<!DOCTYPE svg PUBLIC "-//W3C//DTD SVG 1.1//EN" "http://www.w3.org/Graphics/SVG/1.1/DTD/svg11.dtd">
<svg xmlns="http://www.w3.org/2000/svg" version="1.1" viewBox="0.00 0.00 1448.00 1448.00">
<g stroke-width="2.00" fill="none" stroke-linecap="butt">
<path stroke="#a2c6e0" vector-effect="non-scaling-stroke" d="
  M 1299.71 951.80
  Q 1194.44 961.99 1089.16 972.11
  C 1078.64 973.12 1070.56 976.29 1066.34 986.01
  Q 1064.50 990.26 1063.74 1001.25
  Q 1060.79 1044.22 1057.79 1087.10
  Q 1057.74 1087.83 1057.01 1087.89
  L 872.50 1101.03
  Q 871.93 1101.07 871.85 1100.51
  Q 865.46 1057.89 859.27 1015.25
  C 857.13 1000.56 846.54 994.74 832.89 994.74
  Q 724.32 994.76 615.75 994.74
  C 598.61 994.74 590.79 1001.67 588.31 1018.50
  Q 582.24 1059.62 576.15 1100.66
  A 0.40 0.40 0.0 0 1 575.73 1101.01
  L 390.77 1087.82
  Q 390.30 1087.79 390.27 1087.32
  Q 387.13 1043.45 384.14 999.56
  C 383.40 988.68 381.25 979.70 370.82 974.80
  Q 366.66 972.85 354.87 971.71
  Q 251.47 961.73 148.01 951.75"
/>
<path stroke="#a2c6e0" vector-effect="non-scaling-stroke" d="
  M 1300.21 997.82
  L 1109.19 1016.29
  Q 1108.69 1016.34 1108.65 1016.85
  Q 1105.59 1062.85 1102.19 1108.83
  C 1101.24 1121.79 1093.57 1131.29 1080.00 1132.25
  Q 967.88 1140.22 855.74 1148.23
  C 841.17 1149.27 831.53 1141.03 829.41 1127.14
  Q 822.86 1084.23 816.69 1041.09
  Q 816.61 1040.50 816.01 1040.50
  L 632.00 1040.50
  A 0.61 0.60 4.4 0 0 631.40 1041.01
  Q 625.15 1082.27 619.21 1123.56
  Q 618.05 1131.67 616.10 1135.59
  Q 609.21 1149.43 591.31 1148.15
  Q 481.48 1140.31 371.65 1132.45
  C 360.60 1131.66 352.30 1128.77 347.89 1118.48
  Q 346.14 1114.42 345.50 1105.25
  Q 342.41 1061.06 339.28 1016.81
  Q 339.25 1016.31 338.75 1016.26
  L 147.72 997.83"
/>
<path stroke="#a2c6e0" vector-effect="non-scaling-stroke" d="
  M 550.31 745.45
  A 128.32 128.32 0.0 0 0 421.99 617.13
  A 128.32 128.32 0.0 0 0 293.67 745.45
  A 128.32 128.32 0.0 0 0 421.99 873.77
  A 128.32 128.32 0.0 0 0 550.31 745.45"
/>
<path stroke="#a2c6e0" vector-effect="non-scaling-stroke" d="
  M 1154.34 745.45
  A 128.32 128.32 0.0 0 0 1026.02 617.13
  A 128.32 128.32 0.0 0 0 897.70 745.45
  A 128.32 128.32 0.0 0 0 1026.02 873.77
  A 128.32 128.32 0.0 0 0 1154.34 745.45"
/>
<path stroke="#a2c6e0" vector-effect="non-scaling-stroke" d="
  M 684.15 857.73
  C 693.52 889.43 737.64 894.18 757.43 869.93
  C 764.19 861.64 765.26 854.07 765.25 842.53
  Q 765.24 788.17 765.26 733.79
  Q 765.27 725.06 763.92 720.34
  C 754.96 689.01 710.86 683.09 690.97 707.21
  Q 682.74 717.18 682.75 728.50
  Q 682.75 786.07 682.75 843.65
  Q 682.75 853.00 684.15 857.73"
/>
<path stroke="#9f9fa0" vector-effect="non-scaling-stroke" d="
  M 519.39 753.03
  A 85.13 85.13 0.0 0 0 434.26 667.90
  A 85.13 85.13 0.0 0 0 349.13 753.03
  A 85.13 85.13 0.0 0 0 434.26 838.16
  A 85.13 85.13 0.0 0 0 519.39 753.03"
/>
<path stroke="#9f9fa0" vector-effect="non-scaling-stroke" d="
  M 1098.85 753.03
  A 85.12 85.12 0.0 0 0 1013.73 667.91
  A 85.12 85.12 0.0 0 0 928.61 753.03
  A 85.12 85.12 0.0 0 0 1013.73 838.15
  A 85.12 85.12 0.0 0 0 1098.85 753.03"
/>
</g>
<path fill="#458dc0" d="
  M 1299.71 951.80
  Q 1194.44 961.99 1089.16 972.11
  C 1078.64 973.12 1070.56 976.29 1066.34 986.01
  Q 1064.50 990.26 1063.74 1001.25
  Q 1060.79 1044.22 1057.79 1087.10
  Q 1057.74 1087.83 1057.01 1087.89
  L 872.50 1101.03
  Q 871.93 1101.07 871.85 1100.51
  Q 865.46 1057.89 859.27 1015.25
  C 857.13 1000.56 846.54 994.74 832.89 994.74
  Q 724.32 994.76 615.75 994.74
  C 598.61 994.74 590.79 1001.67 588.31 1018.50
  Q 582.24 1059.62 576.15 1100.66
  A 0.40 0.40 0.0 0 1 575.73 1101.01
  L 390.77 1087.82
  Q 390.30 1087.79 390.27 1087.32
  Q 387.13 1043.45 384.14 999.56
  C 383.40 988.68 381.25 979.70 370.82 974.80
  Q 366.66 972.85 354.87 971.71
  Q 251.47 961.73 148.01 951.75
  L 148.01 605.80
  Q 148.01 605.27 147.68 604.85
  Q 104.78 549.75 68.21 490.26
  Q 67.92 489.78 68.20 489.30
  C 101.17 433.95 141.22 383.14 185.12 336.21
  Q 185.51 335.79 186.02 336.05
  Q 245.53 366.29 301.22 403.09
  A 1.35 1.35 0.0 0 0 302.90 402.94
  C 322.32 384.28 344.04 368.09 365.55 351.79
  C 384.46 337.46 405.45 325.13 425.94 313.09
  A 1.13 1.12 71.6 0 0 426.49 311.98
  Q 417.37 240.87 415.80 169.19
  A 1.05 1.03 76.5 0 1 416.37 168.24
  C 471.49 140.97 530.18 122.02 590.10 108.87
  Q 590.58 108.77 590.84 109.19
  Q 626.42 169.99 655.01 234.38
  A 1.10 1.09 73.6 0 0 656.18 235.02
  Q 723.99 224.55 791.80 235.02
  A 1.09 1.08 -73.4 0 0 792.96 234.39
  Q 821.57 170.07 857.07 109.29
  A 0.87 0.86 -68.6 0 1 858.01 108.87
  C 918.00 122.19 976.13 140.92 1031.35 168.06
  Q 1032.24 168.49 1032.22 169.47
  Q 1030.58 240.99 1021.54 311.94
  Q 1021.47 312.50 1021.95 312.80
  C 1036.68 321.97 1051.57 330.81 1066.12 340.28
  C 1080.70 349.77 1092.65 359.57 1108.22 371.53
  Q 1128.66 387.22 1145.49 403.26
  A 0.67 0.65 -39.4 0 0 1146.30 403.33
  C 1183.93 378.96 1222.14 356.26 1262.14 336.02
  A 0.63 0.61 54.4 0 1 1262.86 336.15
  C 1306.76 383.18 1346.80 433.94 1379.79 489.32
  Q 1380.08 489.80 1379.78 490.29
  Q 1343.19 549.71 1300.37 604.81
  Q 1300.06 605.21 1300.06 605.72
  L 1299.71 951.80
  Z
  M 550.31 745.45
  A 128.32 128.32 0.0 0 0 421.99 617.13
  A 128.32 128.32 0.0 0 0 293.67 745.45
  A 128.32 128.32 0.0 0 0 421.99 873.77
  A 128.32 128.32 0.0 0 0 550.31 745.45
  Z
  M 1154.34 745.45
  A 128.32 128.32 0.0 0 0 1026.02 617.13
  A 128.32 128.32 0.0 0 0 897.70 745.45
  A 128.32 128.32 0.0 0 0 1026.02 873.77
  A 128.32 128.32 0.0 0 0 1154.34 745.45
  Z
  M 684.15 857.73
  C 693.52 889.43 737.64 894.18 757.43 869.93
  C 764.19 861.64 765.26 854.07 765.25 842.53
  Q 765.24 788.17 765.26 733.79
  Q 765.27 725.06 763.92 720.34
  C 754.96 689.01 710.86 683.09 690.97 707.21
  Q 682.74 717.18 682.75 728.50
  Q 682.75 786.07 682.75 843.65
  Q 682.75 853.00 684.15 857.73
  Z"
/>
<path fill="#ffffff" d="
  M 550.31 745.45
  A 128.32 128.32 0.0 0 1 421.99 873.77
  A 128.32 128.32 0.0 0 1 293.67 745.45
  A 128.32 128.32 0.0 0 1 421.99 617.13
  A 128.32 128.32 0.0 0 1 550.31 745.45
  Z
  M 519.39 753.03
  A 85.13 85.13 0.0 0 0 434.26 667.90
  A 85.13 85.13 0.0 0 0 349.13 753.03
  A 85.13 85.13 0.0 0 0 434.26 838.16
  A 85.13 85.13 0.0 0 0 519.39 753.03
  Z"
/>
<path fill="#ffffff" d="
  M 1154.34 745.45
  A 128.32 128.32 0.0 0 1 1026.02 873.77
  A 128.32 128.32 0.0 0 1 897.70 745.45
  A 128.32 128.32 0.0 0 1 1026.02 617.13
  A 128.32 128.32 0.0 0 1 1154.34 745.45
  Z
  M 1098.85 753.03
  A 85.12 85.12 0.0 0 0 1013.73 667.91
  A 85.12 85.12 0.0 0 0 928.61 753.03
  A 85.12 85.12 0.0 0 0 1013.73 838.15
  A 85.12 85.12 0.0 0 0 1098.85 753.03
  Z"
/>
<circle fill="#3f3e40" cx="434.26" cy="753.03" r="85.13"/>
<circle fill="#3f3e40" cx="1013.73" cy="753.03" r="85.12"/>
<path fill="#ffffff" d="
  M 757.43 869.93
  C 737.64 894.18 693.52 889.43 684.15 857.73
  Q 682.75 853.00 682.75 843.65
  Q 682.75 786.07 682.75 728.50
  Q 682.74 717.18 690.97 707.21
  C 710.86 683.09 754.96 689.01 763.92 720.34
  Q 765.27 725.06 765.26 733.79
  Q 765.24 788.17 765.25 842.53
  C 765.26 854.07 764.19 861.64 757.43 869.93
  Z"
/>
<path fill="#ffffff" d="
  M 148.01 951.75
  Q 251.47 961.73 354.87 971.71
  Q 366.66 972.85 370.82 974.80
  C 381.25 979.70 383.40 988.68 384.14 999.56
  Q 387.13 1043.45 390.27 1087.32
  Q 390.30 1087.79 390.77 1087.82
  L 575.73 1101.01
  A 0.40 0.40 0.0 0 0 576.15 1100.66
  Q 582.24 1059.62 588.31 1018.50
  C 590.79 1001.67 598.61 994.74 615.75 994.74
  Q 724.32 994.76 832.89 994.74
  C 846.54 994.74 857.13 1000.56 859.27 1015.25
  Q 865.46 1057.89 871.85 1100.51
  Q 871.93 1101.07 872.50 1101.03
  L 1057.01 1087.89
  Q 1057.74 1087.83 1057.79 1087.10
  Q 1060.79 1044.22 1063.74 1001.25
  Q 1064.50 990.26 1066.34 986.01
  C 1070.56 976.29 1078.64 973.12 1089.16 972.11
  Q 1194.44 961.99 1299.71 951.80
  L 1299.88 952.01
  Q 1299.94 952.08 1299.94 952.16
  L 1300.21 997.82
  L 1109.19 1016.29
  Q 1108.69 1016.34 1108.65 1016.85
  Q 1105.59 1062.85 1102.19 1108.83
  C 1101.24 1121.79 1093.57 1131.29 1080.00 1132.25
  Q 967.88 1140.22 855.74 1148.23
  C 841.17 1149.27 831.53 1141.03 829.41 1127.14
  Q 822.86 1084.23 816.69 1041.09
  Q 816.61 1040.50 816.01 1040.50
  L 632.00 1040.50
  A 0.61 0.60 4.4 0 0 631.40 1041.01
  Q 625.15 1082.27 619.21 1123.56
  Q 618.05 1131.67 616.10 1135.59
  Q 609.21 1149.43 591.31 1148.15
  Q 481.48 1140.31 371.65 1132.45
  C 360.60 1131.66 352.30 1128.77 347.89 1118.48
  Q 346.14 1114.42 345.50 1105.25
  Q 342.41 1061.06 339.28 1016.81
  Q 339.25 1016.31 338.75 1016.26
  L 147.72 997.83
  L 148.01 951.75
  Z"
/>
<path fill="#458dc0" d="
  M 1300.21 997.82
  Q 1300.31 1048.80 1299.30 1062.01
  C 1286.70 1226.32 1105.72 1295.92 970.24 1322.97
  Q 918.20 1333.36 868.76 1338.55
  Q 708.50 1355.35 549.75 1335.01
  C 476.62 1325.64 402.41 1308.31 334.80 1279.74
  C 239.49 1239.45 153.36 1167.43 148.35 1055.94
  Q 147.66 1040.62 147.72 997.83
  L 338.75 1016.26
  Q 339.25 1016.31 339.28 1016.81
  Q 342.41 1061.06 345.50 1105.25
  Q 346.14 1114.42 347.89 1118.48
  C 352.30 1128.77 360.60 1131.66 371.65 1132.45
  Q 481.48 1140.31 591.31 1148.15
  Q 609.21 1149.43 616.10 1135.59
  Q 618.05 1131.67 619.21 1123.56
  Q 625.15 1082.27 631.40 1041.01
  A 0.61 0.60 4.4 0 1 632.00 1040.50
  L 816.01 1040.50
  Q 816.61 1040.50 816.69 1041.09
  Q 822.86 1084.23 829.41 1127.14
  C 831.53 1141.03 841.17 1149.27 855.74 1148.23
  Q 967.88 1140.22 1080.00 1132.25
  C 1093.57 1131.29 1101.24 1121.79 1102.19 1108.83
  Q 1105.59 1062.85 1108.65 1016.85
  Q 1108.69 1016.34 1109.19 1016.29
  L 1300.21 997.82
  Z"
/>
</svg>
