<?xml version="1.0" encoding="UTF-8" standalone="no"?>
<!DOCTYPE svg PUBLIC "-//W3C//DTD SVG 1.1//EN" "http://www.w3.org/Graphics/SVG/1.1/DTD/svg11.dtd">
<svg xmlns="http://www.w3.org/2000/svg" version="1.1" viewBox="0.00 0.00 342.00 253.00">
<g stroke-width="2.00" fill="none" stroke-linecap="butt">
<path stroke="#aad2f0" vector-effect="non-scaling-stroke" d="
  M 94.00 82.92
  L 74.69 71.71
  A 0.53 0.53 0.0 0 0 74.04 71.80
  Q 62.97 83.53 54.46 97.23
  A 1.35 1.33 45.3 0 0 54.46 98.66
  Q 60.17 107.79 66.90 116.50
  C 68.80 118.97 67.94 137.76 67.96 142.05
  Q 68.08 159.62 67.96 176.88
  Q 67.96 177.43 68.50 177.49
  L 104.96 181.07
  A 3.94 3.93 0.8 0 1 108.50 184.70
  L 109.66 200.47
  Q 109.69 200.94 110.16 200.97
  L 139.79 203.04
  Q 141.25 203.14 141.48 201.70
  L 143.56 188.30
  A 3.91 3.91 0.0 0 1 147.42 185.00
  L 186.60 185.00
  A 3.91 3.90 -4.4 0 1 190.46 188.31
  L 192.58 201.97
  Q 192.77 203.17 193.99 203.09
  L 223.78 200.94
  Q 224.29 200.91 224.34 200.40
  Q 224.96 192.84 225.47 185.23
  C 225.72 181.51 228.66 181.30 231.69 180.95
  Q 248.52 179.03 265.43 177.60
  Q 265.98 177.56 265.99 177.00
  L 266.08 118.67
  Q 266.08 118.20 266.36 117.81
  L 279.63 98.98
  A 1.39 1.38 -43.7 0 0 279.67 97.46
  Q 271.19 83.75 260.15 72.00
  A 0.91 0.90 52.9 0 0 259.03 71.84
  L 239.92 83.03
  Q 239.59 83.22 239.32 82.97
  Q 229.89 74.37 218.85 67.98
  Q 218.39 67.71 218.43 67.19
  L 220.07 43.25
  Q 220.10 42.69 219.60 42.46
  Q 205.57 35.92 190.47 32.54
  Q 189.89 32.41 189.61 32.94
  L 179.19 53.19
  A 1.58 1.58 0.0 0 1 177.55 54.03
  Q 166.60 52.42 155.67 54.13
  A 0.71 0.71 0.0 0 1 154.91 53.73
  Q 150.00 43.27 144.35 33.19
  Q 144.05 32.66 143.45 32.74
  C 134.22 33.92 123.20 38.33 114.91 42.24
  Q 113.84 42.74 113.93 43.91
  L 115.61 67.23
  A 0.81 0.80 -17.0 0 1 115.21 67.97
  Q 104.22 74.22 94.94 82.81
  Q 94.51 83.21 94.00 82.92"
/>
<path stroke="#aad2f0" vector-effect="non-scaling-stroke" d="
  M 189.67 211.39
  C 187.68 211.46 185.60 210.80 185.24 208.75
  Q 183.94 201.31 182.86 193.96
  A 0.84 0.83 85.5 0 0 182.04 193.25
  L 151.76 193.25
  Q 151.27 193.25 151.20 193.73
  Q 150.13 200.73 148.96 207.78
  C 148.21 212.24 144.78 211.60 140.64 211.37
  Q 123.62 210.43 106.60 208.90
  C 101.58 208.45 101.57 205.71 101.29 201.60
  Q 100.87 195.60 100.46 189.51
  Q 100.42 188.89 99.80 188.84
  L 68.44 185.92
  A 0.64 0.64 0.0 0 0 67.74 186.55
  C 67.58 199.11 68.92 209.35 77.48 218.79
  C 87.25 229.56 103.66 236.74 117.75 240.01
  Q 164.17 250.77 211.75 240.96
  C 234.80 236.21 264.63 223.54 265.92 195.76
  Q 266.14 191.12 266.30 187.36
  Q 266.36 185.78 264.80 185.94
  L 234.20 188.87
  A 0.76 0.76 0.0 0 0 233.51 189.59
  Q 233.12 197.17 232.45 204.75
  Q 232.12 208.40 229.00 208.77
  Q 214.13 210.49 189.67 211.39"
/>
<path stroke="#aad2f0" vector-effect="non-scaling-stroke" d="
  M 137.14 142.06
  A 22.22 22.22 0.0 0 0 114.92 119.84
  A 22.22 22.22 0.0 0 0 92.70 142.06
  A 22.22 22.22 0.0 0 0 114.92 164.28
  A 22.22 22.22 0.0 0 0 137.14 142.06"
/>
<path stroke="#aad2f0" vector-effect="non-scaling-stroke" d="
  M 241.30 142.06
  A 22.22 22.22 0.0 0 0 219.08 119.84
  A 22.22 22.22 0.0 0 0 196.86 142.06
  A 22.22 22.22 0.0 0 0 219.08 164.28
  A 22.22 22.22 0.0 0 0 241.30 142.06"
/>
<path stroke="#aad2f0" vector-effect="non-scaling-stroke" d="
  M 174.26 139.62
  A 6.84 6.84 0.0 0 0 167.42 132.78
  L 166.58 132.78
  A 6.84 6.84 0.0 0 0 159.74 139.62
  L 159.74 159.42
  A 6.84 6.84 0.0 0 0 166.58 166.26
  L 167.42 166.26
  A 6.84 6.84 0.0 0 0 174.26 159.42
  L 174.26 139.62"
/>
<path stroke="#a6a6a7" vector-effect="non-scaling-stroke" d="
  M 131.53 143.36
  A 14.50 14.50 0.0 0 0 117.03 128.86
  A 14.50 14.50 0.0 0 0 102.53 143.36
  A 14.50 14.50 0.0 0 0 117.03 157.86
  A 14.50 14.50 0.0 0 0 131.53 143.36"
/>
<path stroke="#a6a6a7" vector-effect="non-scaling-stroke" d="
  M 231.46 143.36
  A 14.49 14.49 0.0 0 0 216.97 128.87
  A 14.49 14.49 0.0 0 0 202.48 143.36
  A 14.49 14.49 0.0 0 0 216.97 157.85
  A 14.49 14.49 0.0 0 0 231.46 143.36"
/>
</g>
<path fill="#ffffff" d="
  M 0.00 0.00
  L 342.00 0.00
  L 342.00 253.00
  L 0.00 253.00
  L 0.00 0.00
  Z
  M 94.00 82.92
  L 74.69 71.71
  A 0.53 0.53 0.0 0 0 74.04 71.80
  Q 62.97 83.53 54.46 97.23
  A 1.35 1.33 45.3 0 0 54.46 98.66
  Q 60.17 107.79 66.90 116.50
  C 68.80 118.97 67.94 137.76 67.96 142.05
  Q 68.08 159.62 67.96 176.88
  Q 67.96 177.43 68.50 177.49
  L 104.96 181.07
  A 3.94 3.93 0.8 0 1 108.50 184.70
  L 109.66 200.47
  Q 109.69 200.94 110.16 200.97
  L 139.79 203.04
  Q 141.25 203.14 141.48 201.70
  L 143.56 188.30
  A 3.91 3.91 0.0 0 1 147.42 185.00
  L 186.60 185.00
  A 3.91 3.90 -4.4 0 1 190.46 188.31
  L 192.58 201.97
  Q 192.77 203.17 193.99 203.09
  L 223.78 200.94
  Q 224.29 200.91 224.34 200.40
  Q 224.96 192.84 225.47 185.23
  C 225.72 181.51 228.66 181.30 231.69 180.95
  Q 248.52 179.03 265.43 177.60
  Q 265.98 177.56 265.99 177.00
  L 266.08 118.67
  Q 266.08 118.20 266.36 117.81
  L 279.63 98.98
  A 1.39 1.38 -43.7 0 0 279.67 97.46
  Q 271.19 83.75 260.15 72.00
  A 0.91 0.90 52.9 0 0 259.03 71.84
  L 239.92 83.03
  Q 239.59 83.22 239.32 82.97
  Q 229.89 74.37 218.85 67.98
  Q 218.39 67.71 218.43 67.19
  L 220.07 43.25
  Q 220.10 42.69 219.60 42.46
  Q 205.57 35.92 190.47 32.54
  Q 189.89 32.41 189.61 32.94
  L 179.19 53.19
  A 1.58 1.58 0.0 0 1 177.55 54.03
  Q 166.60 52.42 155.67 54.13
  A 0.71 0.71 0.0 0 1 154.91 53.73
  Q 150.00 43.27 144.35 33.19
  Q 144.05 32.66 143.45 32.74
  C 134.22 33.92 123.20 38.33 114.91 42.24
  Q 113.84 42.74 113.93 43.91
  L 115.61 67.23
  A 0.81 0.80 -17.0 0 1 115.21 67.97
  Q 104.22 74.22 94.94 82.81
  Q 94.51 83.21 94.00 82.92
  Z
  M 189.67 211.39
  C 187.68 211.46 185.60 210.80 185.24 208.75
  Q 183.94 201.31 182.86 193.96
  A 0.84 0.83 85.5 0 0 182.04 193.25
  L 151.76 193.25
  Q 151.27 193.25 151.20 193.73
  Q 150.13 200.73 148.96 207.78
  C 148.21 212.24 144.78 211.60 140.64 211.37
  Q 123.62 210.43 106.60 208.90
  C 101.58 208.45 101.57 205.71 101.29 201.60
  Q 100.87 195.60 100.46 189.51
  Q 100.42 188.89 99.80 188.84
  L 68.44 185.92
  A 0.64 0.64 0.0 0 0 67.74 186.55
  C 67.58 199.11 68.92 209.35 77.48 218.79
  C 87.25 229.56 103.66 236.74 117.75 240.01
  Q 164.17 250.77 211.75 240.96
  C 234.80 236.21 264.63 223.54 265.92 195.76
  Q 266.14 191.12 266.30 187.36
  Q 266.36 185.78 264.80 185.94
  L 234.20 188.87
  A 0.76 0.76 0.0 0 0 233.51 189.59
  Q 233.12 197.17 232.45 204.75
  Q 232.12 208.40 229.00 208.77
  Q 214.13 210.49 189.67 211.39
  Z"
/>
<path fill="#54a4e1" d="
  M 94.94 82.81
  Q 104.22 74.22 115.21 67.97
  A 0.81 0.80 -17.0 0 0 115.61 67.23
  L 113.93 43.91
  Q 113.84 42.74 114.91 42.24
  C 123.20 38.33 134.22 33.92 143.45 32.74
  Q 144.05 32.66 144.35 33.19
  Q 150.00 43.27 154.91 53.73
  A 0.71 0.71 0.0 0 0 155.67 54.13
  Q 166.60 52.42 177.55 54.03
  A 1.58 1.58 0.0 0 0 179.19 53.19
  L 189.61 32.94
  Q 189.89 32.41 190.47 32.54
  Q 205.57 35.92 219.60 42.46
  Q 220.10 42.69 220.07 43.25
  L 218.43 67.19
  Q 218.39 67.71 218.85 67.98
  Q 229.89 74.37 239.32 82.97
  Q 239.59 83.22 239.92 83.03
  L 259.03 71.84
  A 0.91 0.90 52.9 0 1 260.15 72.00
  Q 271.19 83.75 279.67 97.46
  A 1.39 1.38 -43.7 0 1 279.63 98.98
  L 266.36 117.81
  Q 266.08 118.20 266.08 118.67
  L 265.99 177.00
  Q 265.98 177.56 265.43 177.60
  Q 248.52 179.03 231.69 180.95
  C 228.66 181.30 225.72 181.51 225.47 185.23
  Q 224.96 192.84 224.34 200.40
  Q 224.29 200.91 223.78 200.94
  L 193.99 203.09
  Q 192.77 203.17 192.58 201.97
  L 190.46 188.31
  A 3.91 3.90 -4.4 0 0 186.60 185.00
  L 147.42 185.00
  A 3.91 3.91 0.0 0 0 143.56 188.30
  L 141.48 201.70
  Q 141.25 203.14 139.79 203.04
  L 110.16 200.97
  Q 109.69 200.94 109.66 200.47
  L 108.50 184.70
  A 3.94 3.93 0.8 0 0 104.96 181.07
  L 68.50 177.49
  Q 67.96 177.43 67.96 176.88
  Q 68.08 159.62 67.96 142.05
  C 67.94 137.76 68.80 118.97 66.90 116.50
  Q 60.17 107.79 54.46 98.66
  A 1.35 1.33 45.3 0 1 54.46 97.23
  Q 62.97 83.53 74.04 71.80
  A 0.53 0.53 0.0 0 1 74.69 71.71
  L 94.00 82.92
  Q 94.51 83.21 94.94 82.81
  Z
  M 137.14 142.06
  A 22.22 22.22 0.0 0 0 114.92 119.84
  A 22.22 22.22 0.0 0 0 92.70 142.06
  A 22.22 22.22 0.0 0 0 114.92 164.28
  A 22.22 22.22 0.0 0 0 137.14 142.06
  Z
  M 241.30 142.06
  A 22.22 22.22 0.0 0 0 219.08 119.84
  A 22.22 22.22 0.0 0 0 196.86 142.06
  A 22.22 22.22 0.0 0 0 219.08 164.28
  A 22.22 22.22 0.0 0 0 241.30 142.06
  Z
  M 174.26 139.62
  A 6.84 6.84 0.0 0 0 167.42 132.78
  L 166.58 132.78
  A 6.84 6.84 0.0 0 0 159.74 139.62
  L 159.74 159.42
  A 6.84 6.84 0.0 0 0 166.58 166.26
  L 167.42 166.26
  A 6.84 6.84 0.0 0 0 174.26 159.42
  L 174.26 139.62
  Z"
/>
<path fill="#ffffff" d="
  M 137.14 142.06
  A 22.22 22.22 0.0 0 1 114.92 164.28
  A 22.22 22.22 0.0 0 1 92.70 142.06
  A 22.22 22.22 0.0 0 1 114.92 119.84
  A 22.22 22.22 0.0 0 1 137.14 142.06
  Z
  M 131.53 143.36
  A 14.50 14.50 0.0 0 0 117.03 128.86
  A 14.50 14.50 0.0 0 0 102.53 143.36
  A 14.50 14.50 0.0 0 0 117.03 157.86
  A 14.50 14.50 0.0 0 0 131.53 143.36
  Z"
/>
<path fill="#ffffff" d="
  M 241.30 142.06
  A 22.22 22.22 0.0 0 1 219.08 164.28
  A 22.22 22.22 0.0 0 1 196.86 142.06
  A 22.22 22.22 0.0 0 1 219.08 119.84
  A 22.22 22.22 0.0 0 1 241.30 142.06
  Z
  M 231.46 143.36
  A 14.49 14.49 0.0 0 0 216.97 128.87
  A 14.49 14.49 0.0 0 0 202.48 143.36
  A 14.49 14.49 0.0 0 0 216.97 157.85
  A 14.49 14.49 0.0 0 0 231.46 143.36
  Z"
/>
<circle fill="#4c4c4e" cx="117.03" cy="143.36" r="14.50"/>
<circle fill="#4c4c4e" cx="216.97" cy="143.36" r="14.49"/>
<rect fill="#ffffff" x="159.74" y="132.78" width="14.52" height="33.48" rx="6.84"/>
<path fill="#54a4e1" d="
  M 189.67 211.39
  Q 214.13 210.49 229.00 208.77
  Q 232.12 208.40 232.45 204.75
  Q 233.12 197.17 233.51 189.59
  A 0.76 0.76 0.0 0 1 234.20 188.87
  L 264.80 185.94
  Q 266.36 185.78 266.30 187.36
  Q 266.14 191.12 265.92 195.76
  C 264.63 223.54 234.80 236.21 211.75 240.96
  Q 164.17 250.77 117.75 240.01
  C 103.66 236.74 87.25 229.56 77.48 218.79
  C 68.92 209.35 67.58 199.11 67.74 186.55
  A 0.64 0.64 0.0 0 1 68.44 185.92
  L 99.80 188.84
  Q 100.42 188.89 100.46 189.51
  Q 100.87 195.60 101.29 201.60
  C 101.57 205.71 101.58 208.45 106.60 208.90
  Q 123.62 210.43 140.64 211.37
  C 144.78 211.60 148.21 212.24 148.96 207.78
  Q 150.13 200.73 151.20 193.73
  Q 151.27 193.25 151.76 193.25
  L 182.04 193.25
  A 0.84 0.83 85.5 0 1 182.86 193.96
  Q 183.94 201.31 185.24 208.75
  C 185.60 210.80 187.68 211.46 189.67 211.39
  Z"
/>
</svg>
